M48
;DRILL file {KiCad 4.0.6} date 12/04/17 01:25:00
;FORMAT={3:3/ absolute / metric / keep zeros}
FMAT,2
METRIC,TZ
T1C0.305
T2C0.400
T3C1.000
%
G90
G05
M71
T1
X170815Y-115362
X170815Y-116062
X170815Y-120462
X170815Y-121162
X171815Y-115362
X171815Y-116062
X171815Y-120462
X171815Y-121162
X172815Y-115362
X172815Y-116062
X172815Y-120462
X172815Y-121162
T2
X169926Y-108966
X169926Y-110490
X169926Y-112014
X169926Y-113538
X169926Y-123190
X169926Y-124714
X169926Y-126492
X169926Y-127762
X171450Y-108966
X171450Y-110490
X171450Y-112014
X171450Y-113538
X171450Y-123190
X171450Y-124714
X171450Y-126492
X171450Y-127762
X172974Y-108966
X172974Y-110490
X172974Y-112014
X172974Y-113538
X172974Y-123190
X172974Y-124714
X172974Y-126492
X172974Y-127762
X174066Y-114021
X174092Y-120726
X174092Y-121818
X174219Y-115748
X174244Y-124968
X174244Y-126492
X174295Y-117145
X174447Y-123266
X174498Y-108966
X174498Y-110490
X174498Y-112014
X174930Y-114859
X175158Y-116281
X175260Y-127508
X175895Y-108585
X175895Y-109855
X175895Y-111125
X176022Y-121158
X176022Y-122428
X176022Y-123825
X176403Y-112014
X176784Y-127508
X177165Y-108585
X177800Y-127508
X178054Y-122428
X180467Y-124079
X180848Y-109601
X180975Y-113665
X181610Y-127762
X182118Y-115570
X182626Y-120396
X182880Y-127508
X183642Y-125984
T3
X185420Y-109220
X185420Y-111760
X185420Y-114300
X185420Y-116840
X185420Y-119380
X185420Y-121920
X185420Y-124460
X185420Y-127000
T0
M30
