G04 #@! TF.FileFunction,Soldermask,Top*
%FSLAX46Y46*%
G04 Gerber Fmt 4.6, Leading zero omitted, Abs format (unit mm)*
G04 Created by KiCad (PCBNEW 4.0.6) date 12/04/17 01:24:33*
%MOMM*%
%LPD*%
G01*
G04 APERTURE LIST*
%ADD10C,0.100000*%
%ADD11R,0.900000X1.000000*%
%ADD12R,1.000000X0.900000*%
%ADD13R,2.100000X2.100000*%
%ADD14O,2.100000X2.100000*%
%ADD15R,0.800000X1.000000*%
%ADD16R,1.000000X0.800000*%
%ADD17R,1.670000X0.958800*%
%ADD18R,1.400000X1.400000*%
%ADD19R,0.700000X1.050000*%
%ADD20R,1.050000X0.700000*%
%ADD21R,1.800000X1.600000*%
%ADD22R,1.200000X1.200000*%
%ADD23R,1.150000X1.200000*%
%ADD24R,4.464000X1.924000*%
%ADD25C,1.162000*%
G04 APERTURE END LIST*
D10*
D11*
X182880000Y-124926000D03*
X182880000Y-126026000D03*
D12*
X178266000Y-123190000D03*
X179366000Y-123190000D03*
X179383600Y-127736600D03*
X180483600Y-127736600D03*
X181906000Y-114554000D03*
X180806000Y-114554000D03*
X180806000Y-121666000D03*
X181906000Y-121666000D03*
X182668000Y-108966000D03*
X181568000Y-108966000D03*
D11*
X175768000Y-114088000D03*
X175768000Y-112988000D03*
D12*
X179028000Y-108966000D03*
X180128000Y-108966000D03*
D11*
X177038000Y-114088000D03*
X177038000Y-112988000D03*
D12*
X174252800Y-118364000D03*
X175352800Y-118364000D03*
X174252800Y-119380000D03*
X175352800Y-119380000D03*
D13*
X185420000Y-109220000D03*
D14*
X185420000Y-111760000D03*
X185420000Y-114300000D03*
X185420000Y-116840000D03*
X185420000Y-119380000D03*
X185420000Y-121920000D03*
X185420000Y-124460000D03*
X185420000Y-127000000D03*
D15*
X177234000Y-117094000D03*
X176334000Y-117094000D03*
X177234000Y-118364000D03*
X176334000Y-118364000D03*
D16*
X177038000Y-115120000D03*
X177038000Y-116020000D03*
D15*
X178620000Y-121666000D03*
X179520000Y-121666000D03*
X178620000Y-114554000D03*
X179520000Y-114554000D03*
D17*
X181229000Y-126771400D03*
X181229000Y-125831600D03*
X181229000Y-124891800D03*
X178638200Y-124891800D03*
X178638200Y-126771400D03*
D18*
X180340000Y-118110000D03*
D19*
X179340000Y-120010000D03*
D20*
X178440000Y-119110000D03*
X178440000Y-118610000D03*
X178440000Y-118110000D03*
X178440000Y-117610000D03*
X178440000Y-117110000D03*
D19*
X179340000Y-116210000D03*
X179840000Y-116210000D03*
X180340000Y-116210000D03*
X180840000Y-116210000D03*
X181340000Y-116210000D03*
D20*
X182240000Y-117110000D03*
X182240000Y-117610000D03*
X182240000Y-118110000D03*
X182240000Y-118610000D03*
X182240000Y-119110000D03*
D19*
X179840000Y-120010000D03*
X180340000Y-120010000D03*
X180840000Y-120010000D03*
X181340000Y-120010000D03*
D21*
X179156000Y-110744000D03*
X179156000Y-112344000D03*
X181356000Y-112344000D03*
X181356000Y-110744000D03*
D22*
X182829100Y-123520200D03*
X181229100Y-123520200D03*
D16*
X183248300Y-121444600D03*
X183248300Y-122344600D03*
D23*
X176022000Y-124980000D03*
X176022000Y-126480000D03*
D24*
X171246800Y-118262400D03*
X171246800Y-115722400D03*
X171246800Y-120802400D03*
D25*
X172814800Y-116062400D03*
X172814800Y-115362400D03*
X171814800Y-116062400D03*
X170814800Y-116062400D03*
X170814800Y-115362400D03*
X171814800Y-115362400D03*
X172814800Y-120462400D03*
X171814800Y-120462400D03*
X170814800Y-120462400D03*
X170814800Y-121162400D03*
X171814800Y-121162400D03*
X172814800Y-121162400D03*
M02*
