G04 #@! TF.FileFunction,Copper,L1,Top,Signal*
%FSLAX46Y46*%
G04 Gerber Fmt 4.6, Leading zero omitted, Abs format (unit mm)*
G04 Created by KiCad (PCBNEW 4.0.6) date 12/03/17 01:19:17*
%MOMM*%
%LPD*%
G01*
G04 APERTURE LIST*
%ADD10C,0.100000*%
%ADD11R,0.750000X0.800000*%
%ADD12R,0.600000X0.500000*%
%ADD13R,0.500000X0.600000*%
%ADD14R,0.800000X0.750000*%
%ADD15R,2.300000X3.500000*%
%ADD16R,0.800000X0.800000*%
%ADD17R,1.700000X1.700000*%
%ADD18O,1.700000X1.700000*%
%ADD19C,6.000000*%
%ADD20R,1.200000X0.900000*%
%ADD21R,0.400000X0.600000*%
%ADD22R,0.600000X0.400000*%
%ADD23R,1.450000X0.450000*%
%ADD24R,1.550000X0.600000*%
%ADD25R,2.300000X2.300000*%
%ADD26R,1.651000X0.635000*%
%ADD27R,7.620000X10.160000*%
%ADD28R,0.600000X1.550000*%
%ADD29R,1.200000X1.500000*%
%ADD30R,5.400000X2.900000*%
%ADD31R,1.600000X1.000000*%
%ADD32R,1.250000X1.000000*%
%ADD33C,0.600000*%
%ADD34C,0.482600*%
%ADD35C,0.500000*%
%ADD36C,0.254000*%
%ADD37C,0.508000*%
%ADD38C,0.381000*%
%ADD39C,0.812800*%
%ADD40C,1.600000*%
%ADD41C,0.250000*%
%ADD42C,0.226060*%
G04 APERTURE END LIST*
D10*
D11*
X172720000Y-82435000D03*
X172720000Y-83935000D03*
X203454000Y-93738000D03*
X203454000Y-95238000D03*
X167132000Y-73164000D03*
X167132000Y-74664000D03*
D12*
X160316000Y-97028000D03*
X159216000Y-97028000D03*
X166158000Y-97028000D03*
X165058000Y-97028000D03*
X172000000Y-97028000D03*
X170900000Y-97028000D03*
X172254000Y-87630000D03*
X171154000Y-87630000D03*
X167115400Y-87503000D03*
X168215400Y-87503000D03*
D13*
X158496000Y-90085000D03*
X158496000Y-88985000D03*
D11*
X183388000Y-86602000D03*
X183388000Y-85102000D03*
D12*
X202073600Y-86207600D03*
X200973600Y-86207600D03*
D11*
X168910000Y-69584000D03*
X168910000Y-68084000D03*
D14*
X171208000Y-81026000D03*
X172708000Y-81026000D03*
X164096000Y-87757000D03*
X165596000Y-87757000D03*
D13*
X186182000Y-88688000D03*
X186182000Y-87588000D03*
D14*
X160008000Y-87884000D03*
X158508000Y-87884000D03*
D11*
X185928000Y-93230000D03*
X185928000Y-94730000D03*
D14*
X177685000Y-96901000D03*
X179185000Y-96901000D03*
X183249000Y-96901000D03*
X181749000Y-96901000D03*
D15*
X196723000Y-82456000D03*
X196723000Y-77056000D03*
X196723000Y-72804000D03*
X196723000Y-67404000D03*
X201803000Y-82456000D03*
X201803000Y-77056000D03*
X201803000Y-72804000D03*
X201803000Y-67404000D03*
X167005000Y-77564000D03*
X167005000Y-82964000D03*
D16*
X158369000Y-93942000D03*
X158369000Y-95542000D03*
D15*
X191262000Y-82456000D03*
X191262000Y-77056000D03*
X191262000Y-72804000D03*
X191262000Y-67404000D03*
X186182000Y-82456000D03*
X186182000Y-77056000D03*
X186182000Y-72804000D03*
X186182000Y-67404000D03*
D17*
X187452000Y-61468000D03*
D18*
X189992000Y-61468000D03*
X192532000Y-61468000D03*
X195072000Y-61468000D03*
X197612000Y-61468000D03*
X200152000Y-61468000D03*
D19*
X161671000Y-61976000D03*
X169171000Y-61976000D03*
D17*
X166878000Y-99568000D03*
D18*
X169418000Y-99568000D03*
X171958000Y-99568000D03*
D17*
X159258000Y-99568000D03*
D18*
X161798000Y-99568000D03*
X164338000Y-99568000D03*
D20*
X168105000Y-85979000D03*
X165905000Y-85979000D03*
D21*
X171508000Y-85979000D03*
X172408000Y-85979000D03*
D22*
X203454000Y-98748000D03*
X203454000Y-97848000D03*
X168910000Y-71824000D03*
X168910000Y-70924000D03*
X168910000Y-73983000D03*
X168910000Y-73083000D03*
D21*
X188664000Y-100330000D03*
X187764000Y-100330000D03*
X167074000Y-66802000D03*
X166174000Y-66802000D03*
D22*
X158369000Y-91371000D03*
X158369000Y-92271000D03*
D23*
X175358000Y-81657000D03*
X175358000Y-82307000D03*
X175358000Y-82957000D03*
X175358000Y-83607000D03*
X175358000Y-84257000D03*
X175358000Y-84907000D03*
X175358000Y-85557000D03*
X175358000Y-86207000D03*
X175358000Y-86857000D03*
X175358000Y-87507000D03*
X181258000Y-87507000D03*
X181258000Y-86857000D03*
X181258000Y-86207000D03*
X181258000Y-85557000D03*
X181258000Y-84907000D03*
X181258000Y-84257000D03*
X181258000Y-83607000D03*
X181258000Y-82957000D03*
X181258000Y-82307000D03*
X181258000Y-81657000D03*
D24*
X167165000Y-71755000D03*
X167165000Y-70485000D03*
X167165000Y-69215000D03*
X167165000Y-67945000D03*
X161765000Y-67945000D03*
X161765000Y-69215000D03*
X161765000Y-70485000D03*
X161765000Y-71755000D03*
D25*
X164465000Y-69850000D03*
D26*
X201549000Y-98933000D03*
X201549000Y-97663000D03*
X201549000Y-96393000D03*
X201549000Y-95123000D03*
X201549000Y-93853000D03*
X201549000Y-92583000D03*
X201549000Y-91313000D03*
X201549000Y-90043000D03*
X201549000Y-88773000D03*
X201549000Y-87503000D03*
X188087000Y-87503000D03*
X188087000Y-88773000D03*
X188087000Y-90043000D03*
X188087000Y-91313000D03*
X188087000Y-92583000D03*
X188087000Y-93853000D03*
X188087000Y-95123000D03*
X188087000Y-96393000D03*
X188087000Y-97663000D03*
X188087000Y-98933000D03*
D27*
X194818000Y-93218000D03*
D28*
X172085000Y-95029000D03*
X173355000Y-95029000D03*
X174625000Y-95029000D03*
X175895000Y-95029000D03*
X175895000Y-89629000D03*
X174625000Y-89629000D03*
X173355000Y-89629000D03*
X172085000Y-89629000D03*
X166243000Y-95029000D03*
X167513000Y-95029000D03*
X168783000Y-95029000D03*
X170053000Y-95029000D03*
X170053000Y-89629000D03*
X168783000Y-89629000D03*
X167513000Y-89629000D03*
X166243000Y-89629000D03*
X160401000Y-95029000D03*
X161671000Y-95029000D03*
X162941000Y-95029000D03*
X164211000Y-95029000D03*
X164211000Y-89629000D03*
X162941000Y-89629000D03*
X161671000Y-89629000D03*
X160401000Y-89629000D03*
D17*
X159385000Y-77343000D03*
D18*
X159385000Y-79883000D03*
X159385000Y-82423000D03*
X159385000Y-84963000D03*
D28*
X181737000Y-89629000D03*
X180467000Y-89629000D03*
X179197000Y-89629000D03*
X177927000Y-89629000D03*
X177927000Y-95029000D03*
X179197000Y-95029000D03*
X180467000Y-95029000D03*
X181737000Y-95029000D03*
D17*
X174498000Y-99568000D03*
D18*
X177038000Y-99568000D03*
X179578000Y-99568000D03*
X182118000Y-99568000D03*
X184658000Y-99568000D03*
D21*
X185362000Y-97155000D03*
X184462000Y-97155000D03*
D29*
X176530000Y-59159000D03*
X179030000Y-59159000D03*
X181530000Y-59159000D03*
X181530000Y-65659000D03*
X179030000Y-65659000D03*
X176530000Y-65659000D03*
D30*
X176784000Y-68580000D03*
X176784000Y-78480000D03*
D31*
X159512000Y-71525000D03*
X159512000Y-74525000D03*
D32*
X170688000Y-84566000D03*
X170688000Y-82566000D03*
D33*
X184912000Y-60706000D03*
X184912000Y-62484000D03*
X184912000Y-64008000D03*
X186182000Y-64008000D03*
X187452000Y-64008000D03*
X169926000Y-81280000D03*
X195326000Y-84836000D03*
X196596000Y-84836000D03*
X197866000Y-84836000D03*
X199136000Y-84836000D03*
X199390000Y-83566000D03*
X187198000Y-85598000D03*
X188214000Y-85598000D03*
X190500000Y-84836000D03*
X192024000Y-84836000D03*
X165354000Y-67310000D03*
X171196000Y-79121000D03*
X203962000Y-62738000D03*
D34*
X196088000Y-58928000D03*
X197358000Y-58928000D03*
X198628000Y-58928000D03*
X200152000Y-58928000D03*
X201676000Y-58928000D03*
D33*
X194818000Y-58928000D03*
X203962000Y-58928000D03*
X203962000Y-60198000D03*
X203962000Y-61468000D03*
X202946000Y-61468000D03*
X202946000Y-60198000D03*
X202946000Y-58928000D03*
X193548000Y-58928000D03*
X158750000Y-65786000D03*
X165989000Y-59436000D03*
X160655000Y-73152000D03*
X173863000Y-85344000D03*
X184912000Y-69596000D03*
X187325000Y-69596000D03*
X187325000Y-65151000D03*
X184785000Y-65278000D03*
X192786000Y-69596000D03*
X189865000Y-69469000D03*
X189738000Y-65278000D03*
X192024000Y-65151000D03*
X195199000Y-69469000D03*
X197993000Y-69596000D03*
X197993000Y-65151000D03*
X195326000Y-65151000D03*
X202819000Y-69596000D03*
X200406000Y-69596000D03*
X202692000Y-65151000D03*
X200533000Y-65151000D03*
D34*
X160020000Y-69088000D03*
X189230000Y-86868000D03*
X186690000Y-86868000D03*
X163068000Y-85344000D03*
X165354000Y-89408000D03*
D35*
X170942000Y-89408000D03*
X184658000Y-84836000D03*
X168910000Y-87122000D03*
X170434000Y-87122000D03*
X159258000Y-88900000D03*
D34*
X176784000Y-89408000D03*
D33*
X203200000Y-87630000D03*
X199263000Y-74777600D03*
X203479400Y-96697800D03*
D34*
X183515000Y-93091000D03*
X181610000Y-93218000D03*
X164084000Y-96393000D03*
X169799000Y-96393000D03*
D33*
X171069000Y-96393000D03*
X182372000Y-98044000D03*
X158242000Y-96901000D03*
X158242000Y-96774000D03*
D34*
X160008000Y-87884000D03*
X157734000Y-84836000D03*
X157988000Y-86106000D03*
D33*
X170688000Y-98806000D03*
X188722000Y-83566000D03*
X188645800Y-75514200D03*
X188823600Y-84582000D03*
X193598800Y-75184000D03*
X190093600Y-95072200D03*
X176530000Y-75946000D03*
X170434000Y-70866000D03*
X183286400Y-89128600D03*
X182067200Y-78943200D03*
D34*
X167386000Y-97028000D03*
D33*
X168833800Y-96977200D03*
X161569400Y-96875600D03*
X162915600Y-96926400D03*
X168275000Y-66802000D03*
X180975000Y-64008000D03*
X184835800Y-93370400D03*
X174625000Y-91109800D03*
X186055000Y-98552000D03*
X202996800Y-91897200D03*
X201422000Y-90017600D03*
X183997600Y-95605600D03*
X183692800Y-93853000D03*
X169291000Y-91719400D03*
X203149200Y-89179400D03*
X182854600Y-95427800D03*
X188087000Y-90093800D03*
X161772600Y-87858600D03*
X169697400Y-87934800D03*
X179679600Y-88214200D03*
X183743600Y-90170000D03*
X186283600Y-91338400D03*
X188188600Y-92557600D03*
X163271200Y-91643200D03*
D36*
X184912000Y-64008000D02*
X184912000Y-62484000D01*
X186182000Y-64008000D02*
X187452000Y-64008000D01*
D37*
X171946000Y-82435000D02*
X172720000Y-82435000D01*
X171815000Y-82566000D02*
X171946000Y-82435000D01*
X170688000Y-82566000D02*
X171815000Y-82566000D01*
D38*
X170307000Y-81661000D02*
X169926000Y-81280000D01*
X170688000Y-81661000D02*
X170307000Y-81661000D01*
D37*
X170688000Y-81661000D02*
X170688000Y-81546000D01*
X170688000Y-81546000D02*
X171208000Y-81026000D01*
X170688000Y-82566000D02*
X170688000Y-81661000D01*
D38*
X199136000Y-84836000D02*
X199136000Y-83820000D01*
X196596000Y-84836000D02*
X197866000Y-84836000D01*
X199136000Y-83820000D02*
X199390000Y-83566000D01*
X188087000Y-87503000D02*
X188087000Y-85725000D01*
X187198000Y-85598000D02*
X187198000Y-85344000D01*
X188087000Y-85725000D02*
X188214000Y-85598000D01*
X195326000Y-84836000D02*
X192024000Y-84836000D01*
X194818000Y-93218000D02*
X194818000Y-85344000D01*
X194818000Y-85344000D02*
X195326000Y-84836000D01*
X166174000Y-66802000D02*
X165862000Y-66802000D01*
X165862000Y-66802000D02*
X165354000Y-67310000D01*
X171208000Y-79133000D02*
X171196000Y-79121000D01*
X171208000Y-81026000D02*
X171208000Y-79133000D01*
D36*
X203962000Y-61468000D02*
X203962000Y-62738000D01*
D38*
X196088000Y-58928000D02*
X197358000Y-58928000D01*
X198628000Y-58928000D02*
X200152000Y-58928000D01*
D36*
X203962000Y-60198000D02*
X203962000Y-58928000D01*
X202946000Y-61468000D02*
X203962000Y-61468000D01*
X202946000Y-58928000D02*
X202946000Y-60198000D01*
X193548000Y-58928000D02*
X194818000Y-58928000D01*
D38*
X195072000Y-59182000D02*
X194818000Y-58928000D01*
X195072000Y-59182000D02*
X195072000Y-61468000D01*
D36*
X201549000Y-87503000D02*
X200914000Y-86868000D01*
X200914000Y-86868000D02*
X200914000Y-86267200D01*
X200914000Y-86267200D02*
X200973600Y-86207600D01*
D37*
X161671000Y-61976000D02*
X161544000Y-61976000D01*
X161544000Y-61976000D02*
X158750000Y-64770000D01*
X158750000Y-64770000D02*
X158750000Y-65786000D01*
X161671000Y-61976000D02*
X164211000Y-59436000D01*
X164211000Y-59436000D02*
X165989000Y-59436000D01*
D38*
X159512000Y-74525000D02*
X159512000Y-74295000D01*
X159512000Y-74295000D02*
X160655000Y-73152000D01*
X175358000Y-86207000D02*
X174218000Y-86207000D01*
X173863000Y-85852000D02*
X173863000Y-85344000D01*
X174218000Y-86207000D02*
X173863000Y-85852000D01*
X186182000Y-67404000D02*
X186182000Y-68326000D01*
X186182000Y-68326000D02*
X184912000Y-69596000D01*
X186182000Y-67404000D02*
X186182000Y-68453000D01*
X186182000Y-68453000D02*
X187325000Y-69596000D01*
X186182000Y-67404000D02*
X186182000Y-66294000D01*
X186182000Y-66294000D02*
X187325000Y-65151000D01*
X186182000Y-67404000D02*
X186182000Y-66675000D01*
X186182000Y-66675000D02*
X184785000Y-65278000D01*
X191262000Y-67404000D02*
X191262000Y-68072000D01*
X191262000Y-68072000D02*
X192786000Y-69596000D01*
X191262000Y-68072000D02*
X189865000Y-69469000D01*
X191262000Y-67404000D02*
X191262000Y-66802000D01*
X191262000Y-66802000D02*
X189738000Y-65278000D01*
X191262000Y-67404000D02*
X191262000Y-65913000D01*
X191262000Y-65913000D02*
X192024000Y-65151000D01*
X196723000Y-67404000D02*
X196723000Y-67945000D01*
X196723000Y-67945000D02*
X195199000Y-69469000D01*
X196723000Y-67404000D02*
X196723000Y-68326000D01*
X196723000Y-68326000D02*
X197993000Y-69596000D01*
X196723000Y-67404000D02*
X196723000Y-66421000D01*
X196723000Y-66421000D02*
X197993000Y-65151000D01*
X196723000Y-67404000D02*
X196723000Y-66548000D01*
X196723000Y-66548000D02*
X195326000Y-65151000D01*
X201803000Y-67404000D02*
X201803000Y-68580000D01*
X201803000Y-68580000D02*
X202819000Y-69596000D01*
X201803000Y-67404000D02*
X201803000Y-68199000D01*
X201803000Y-68199000D02*
X200406000Y-69596000D01*
X201803000Y-67404000D02*
X201803000Y-66040000D01*
X201803000Y-66040000D02*
X202692000Y-65151000D01*
X201803000Y-67404000D02*
X201803000Y-66421000D01*
X201803000Y-66421000D02*
X200533000Y-65151000D01*
X188087000Y-98933000D02*
X189484000Y-98933000D01*
X190373000Y-99822000D02*
X190627000Y-99822000D01*
X189484000Y-98933000D02*
X190373000Y-99822000D01*
X161765000Y-69215000D02*
X160147000Y-69215000D01*
X160147000Y-69215000D02*
X160020000Y-69088000D01*
X161765000Y-69215000D02*
X163830000Y-69215000D01*
X163830000Y-69215000D02*
X164465000Y-69850000D01*
X188087000Y-87503000D02*
X188595000Y-87503000D01*
X188595000Y-87503000D02*
X189230000Y-86868000D01*
X186182000Y-87588000D02*
X186182000Y-87376000D01*
X186182000Y-87376000D02*
X186690000Y-86868000D01*
X164096000Y-87757000D02*
X164096000Y-85864000D01*
X163576000Y-85344000D02*
X163068000Y-85344000D01*
X164096000Y-85864000D02*
X163576000Y-85344000D01*
X164211000Y-89629000D02*
X165133000Y-89629000D01*
X165133000Y-89629000D02*
X165354000Y-89408000D01*
X170053000Y-89629000D02*
X170721000Y-89629000D01*
X170721000Y-89629000D02*
X170942000Y-89408000D01*
X183388000Y-86602000D02*
X183400000Y-86602000D01*
X183400000Y-86602000D02*
X184658000Y-85344000D01*
X184658000Y-85344000D02*
X184658000Y-84836000D01*
X168215400Y-87503000D02*
X168529000Y-87503000D01*
X168529000Y-87503000D02*
X168910000Y-87122000D01*
X171154000Y-87630000D02*
X170942000Y-87630000D01*
X170942000Y-87630000D02*
X170434000Y-87122000D01*
X158496000Y-88985000D02*
X159173000Y-88985000D01*
X159173000Y-88985000D02*
X159258000Y-88900000D01*
X175895000Y-89629000D02*
X176563000Y-89629000D01*
X176563000Y-89629000D02*
X176784000Y-89408000D01*
X201549000Y-87503000D02*
X203073000Y-87503000D01*
X203073000Y-87503000D02*
X203200000Y-87630000D01*
X188664000Y-100330000D02*
X188664000Y-99510000D01*
X188664000Y-99510000D02*
X188087000Y-98933000D01*
X201549000Y-98933000D02*
X203269000Y-98933000D01*
X203269000Y-98933000D02*
X203454000Y-98748000D01*
X188087000Y-87503000D02*
X186267000Y-87503000D01*
X186267000Y-87503000D02*
X186182000Y-87588000D01*
X175358000Y-82957000D02*
X173762000Y-82957000D01*
X173418000Y-83237000D02*
X172720000Y-83935000D01*
X173482000Y-83237000D02*
X173418000Y-83237000D01*
X173762000Y-82957000D02*
X173482000Y-83237000D01*
D39*
X160020000Y-70485000D02*
X160020000Y-71362000D01*
X160020000Y-71362000D02*
X159754000Y-71628000D01*
X159004000Y-69215000D02*
X159004000Y-69469000D01*
X163703000Y-66294000D02*
X160274000Y-66294000D01*
X160274000Y-66294000D02*
X159004000Y-67564000D01*
X159004000Y-67564000D02*
X159004000Y-69215000D01*
X168021000Y-61976000D02*
X163703000Y-66294000D01*
X160020000Y-70485000D02*
X161765000Y-70485000D01*
X159004000Y-69469000D02*
X160020000Y-70485000D01*
D40*
X169171000Y-61976000D02*
X168021000Y-61976000D01*
D39*
X169171000Y-61976000D02*
X167640000Y-61976000D01*
X168275000Y-62872000D02*
X169171000Y-61976000D01*
X169552000Y-62484000D02*
X169926000Y-62484000D01*
X203454000Y-93738000D02*
X203454000Y-93218000D01*
X204216000Y-79469000D02*
X201803000Y-77056000D01*
X204216000Y-92456000D02*
X204216000Y-79469000D01*
X203454000Y-93218000D02*
X204216000Y-92456000D01*
X200152000Y-61468000D02*
X200355200Y-61468000D01*
X200355200Y-61468000D02*
X203784200Y-64897000D01*
X203784200Y-64897000D02*
X203784200Y-70822800D01*
X203784200Y-70822800D02*
X201803000Y-72804000D01*
X201803000Y-77056000D02*
X201803000Y-74930000D01*
X201803000Y-74930000D02*
X201803000Y-72804000D01*
D38*
X201549000Y-93853000D02*
X203339000Y-93853000D01*
X203339000Y-93853000D02*
X203454000Y-93738000D01*
D39*
X203454000Y-95238000D02*
X203454000Y-96672400D01*
X199186800Y-74853800D02*
X196723000Y-74853800D01*
X199263000Y-74777600D02*
X199186800Y-74853800D01*
X203454000Y-96672400D02*
X203479400Y-96697800D01*
X197612000Y-61468000D02*
X197612000Y-63449200D01*
X199186800Y-70340200D02*
X196723000Y-72804000D01*
X199186800Y-65024000D02*
X199186800Y-70340200D01*
X197612000Y-63449200D02*
X199186800Y-65024000D01*
X196723000Y-77056000D02*
X196723000Y-74853800D01*
X196723000Y-74853800D02*
X196723000Y-72804000D01*
D38*
X201549000Y-95123000D02*
X203339000Y-95123000D01*
X203339000Y-95123000D02*
X203454000Y-95238000D01*
D37*
X171085000Y-84963000D02*
X170688000Y-84566000D01*
X171508000Y-84963000D02*
X171085000Y-84963000D01*
D38*
X171196000Y-84651000D02*
X171508000Y-84963000D01*
X175358000Y-83607000D02*
X174457000Y-83607000D01*
X173101000Y-84963000D02*
X171508000Y-84963000D01*
X174457000Y-83607000D02*
X173101000Y-84963000D01*
X171508000Y-85979000D02*
X168105000Y-85979000D01*
X171508000Y-85979000D02*
X171508000Y-84963000D01*
D37*
X167165000Y-71755000D02*
X167165000Y-73131000D01*
D38*
X167165000Y-73131000D02*
X167132000Y-73164000D01*
D37*
X167132000Y-74664000D02*
X167132000Y-77437000D01*
D38*
X167132000Y-77437000D02*
X167005000Y-77564000D01*
D39*
X167005000Y-77564000D02*
X170162200Y-77564000D01*
X176784000Y-70942200D02*
X176784000Y-68580000D01*
X170162200Y-77564000D02*
X176784000Y-70942200D01*
X161765000Y-71755000D02*
X161765000Y-74617600D01*
X164711400Y-77564000D02*
X165354000Y-77564000D01*
X165354000Y-77564000D02*
X167005000Y-77564000D01*
X161765000Y-74617600D02*
X164711400Y-77564000D01*
X167005000Y-77564000D02*
X167546000Y-77564000D01*
D41*
X177488000Y-69850000D02*
X177292000Y-69654000D01*
D38*
X172085000Y-92176600D02*
X172085000Y-92583000D01*
X186182000Y-90424000D02*
X186182000Y-88688000D01*
X185547000Y-91059000D02*
X186182000Y-90424000D01*
X184404000Y-92202000D02*
X185547000Y-91059000D01*
X183515000Y-93091000D02*
X184404000Y-92202000D01*
X172720000Y-93218000D02*
X181610000Y-93218000D01*
X172085000Y-92583000D02*
X172720000Y-93218000D01*
D37*
X165596000Y-87757000D02*
X166861400Y-87757000D01*
X166861400Y-87757000D02*
X167115400Y-87503000D01*
D38*
X160401000Y-89629000D02*
X160401000Y-89027000D01*
X160401000Y-89027000D02*
X161036000Y-88392000D01*
X161036000Y-86106000D02*
X163449000Y-83693000D01*
X161036000Y-88392000D02*
X161036000Y-86106000D01*
X159385000Y-79883000D02*
X159639000Y-79883000D01*
X159639000Y-79883000D02*
X163449000Y-83693000D01*
X163449000Y-83693000D02*
X165735000Y-85979000D01*
X165735000Y-85979000D02*
X165905000Y-85979000D01*
X165596000Y-87757000D02*
X165596000Y-86288000D01*
X165596000Y-86288000D02*
X165905000Y-85979000D01*
X159385000Y-79883000D02*
X158877000Y-79883000D01*
X166243000Y-92227400D02*
X166243000Y-92354400D01*
X172085000Y-92176600D02*
X172085000Y-89629000D01*
X171424600Y-92837000D02*
X172085000Y-92176600D01*
X166725600Y-92837000D02*
X171424600Y-92837000D01*
X166243000Y-92354400D02*
X166725600Y-92837000D01*
X160401000Y-89629000D02*
X160401000Y-92329000D01*
X166243000Y-92227400D02*
X166243000Y-89629000D01*
X165481000Y-92989400D02*
X166243000Y-92227400D01*
X161061400Y-92989400D02*
X165481000Y-92989400D01*
X160401000Y-92329000D02*
X161061400Y-92989400D01*
X167090000Y-87757000D02*
X167090000Y-88053000D01*
X167090000Y-88053000D02*
X166243000Y-88900000D01*
X166243000Y-88900000D02*
X166243000Y-89629000D01*
X158369000Y-90212000D02*
X158496000Y-90085000D01*
X160401000Y-89629000D02*
X158952000Y-89629000D01*
X158952000Y-89629000D02*
X158496000Y-90085000D01*
X160413000Y-89617000D02*
X160401000Y-89629000D01*
X172254000Y-87630000D02*
X172254000Y-89333000D01*
X172254000Y-89333000D02*
X172085000Y-89502000D01*
X186182000Y-88688000D02*
X188002000Y-88688000D01*
X188002000Y-88688000D02*
X188087000Y-88773000D01*
D36*
X165058000Y-97028000D02*
X164719000Y-97028000D01*
X164719000Y-97028000D02*
X164084000Y-96393000D01*
X164211000Y-95029000D02*
X164211000Y-96266000D01*
X164211000Y-96266000D02*
X164084000Y-96393000D01*
D38*
X164211000Y-96266000D02*
X164084000Y-96393000D01*
D36*
X169799000Y-96393000D02*
X171069000Y-96393000D01*
D38*
X170053000Y-96139000D02*
X169799000Y-96393000D01*
X170053000Y-95029000D02*
X170053000Y-96139000D01*
X170900000Y-96562000D02*
X171069000Y-96393000D01*
X170900000Y-96562000D02*
X170900000Y-97028000D01*
D37*
X159385000Y-82423000D02*
X158877000Y-82423000D01*
X158877000Y-82423000D02*
X157734000Y-83566000D01*
X157734000Y-83566000D02*
X157734000Y-84836000D01*
D38*
X177038000Y-99568000D02*
X177038000Y-98298000D01*
X177685000Y-97651000D02*
X177685000Y-96901000D01*
X177038000Y-98298000D02*
X177685000Y-97651000D01*
D37*
X183249000Y-96901000D02*
X183249000Y-97167000D01*
X183249000Y-97167000D02*
X182372000Y-98044000D01*
D38*
X159216000Y-97028000D02*
X158369000Y-97028000D01*
X158369000Y-97028000D02*
X158242000Y-96901000D01*
X158242000Y-96774000D02*
X158369000Y-96647000D01*
X158369000Y-96647000D02*
X158369000Y-95542000D01*
X158877000Y-82423000D02*
X157734000Y-83566000D01*
X157734000Y-83566000D02*
X157734000Y-84836000D01*
X177685000Y-96901000D02*
X177685000Y-96127000D01*
X177927000Y-95885000D02*
X177927000Y-95029000D01*
X177685000Y-96127000D02*
X177927000Y-95885000D01*
D36*
X170434000Y-97917000D02*
X170434000Y-98552000D01*
X170434000Y-98552000D02*
X170688000Y-98806000D01*
D38*
X160401000Y-95029000D02*
X160401000Y-93726000D01*
X159062000Y-91371000D02*
X158369000Y-91371000D01*
X159512000Y-91821000D02*
X159062000Y-91371000D01*
X159512000Y-92837000D02*
X159512000Y-91821000D01*
X160401000Y-93726000D02*
X159512000Y-92837000D01*
X160316000Y-97028000D02*
X160316000Y-95114000D01*
X160316000Y-95114000D02*
X160401000Y-95029000D01*
X166158000Y-97028000D02*
X166158000Y-97367000D01*
X160697000Y-97409000D02*
X160316000Y-97028000D01*
X161205000Y-97917000D02*
X160697000Y-97409000D01*
X165608000Y-97917000D02*
X161205000Y-97917000D01*
X166158000Y-97367000D02*
X165608000Y-97917000D01*
X166158000Y-97282000D02*
X166158000Y-97578000D01*
X172000000Y-97494000D02*
X172000000Y-97028000D01*
X171577000Y-97917000D02*
X172000000Y-97494000D01*
X166497000Y-97917000D02*
X170434000Y-97917000D01*
X170434000Y-97917000D02*
X171577000Y-97917000D01*
X166158000Y-97578000D02*
X166497000Y-97917000D01*
X158508000Y-87884000D02*
X158508000Y-87110000D01*
X159385000Y-86233000D02*
X159385000Y-84963000D01*
X158508000Y-87110000D02*
X159385000Y-86233000D01*
X166158000Y-97028000D02*
X166158000Y-95114000D01*
X166158000Y-95114000D02*
X166243000Y-95029000D01*
X172000000Y-97028000D02*
X172000000Y-95114000D01*
X172000000Y-95114000D02*
X172085000Y-95029000D01*
X160401000Y-94869000D02*
X160401000Y-95029000D01*
X158300000Y-91440000D02*
X157988000Y-91440000D01*
X157988000Y-87884000D02*
X157734000Y-88138000D01*
X157734000Y-88138000D02*
X157734000Y-91186000D01*
X157734000Y-91186000D02*
X157988000Y-91440000D01*
X157988000Y-87884000D02*
X158508000Y-87884000D01*
X158300000Y-91440000D02*
X158369000Y-91371000D01*
X166158000Y-97282000D02*
X166158000Y-97028000D01*
X172000000Y-95114000D02*
X172085000Y-95029000D01*
X166158000Y-95114000D02*
X166243000Y-95029000D01*
X160316000Y-95114000D02*
X160401000Y-95029000D01*
X172000000Y-94987000D02*
X172085000Y-94902000D01*
X160316000Y-94987000D02*
X160401000Y-94902000D01*
X166158000Y-94987000D02*
X166243000Y-94902000D01*
X174498000Y-99568000D02*
X174498000Y-99974400D01*
X174498000Y-99974400D02*
X175641000Y-101117400D01*
X175641000Y-101117400D02*
X180238400Y-101117400D01*
X180238400Y-101117400D02*
X180848000Y-100507800D01*
X180848000Y-100507800D02*
X180848000Y-98272600D01*
X180848000Y-98272600D02*
X181749000Y-97371600D01*
X181749000Y-97371600D02*
X181749000Y-96901000D01*
X181737000Y-95029000D02*
X181737000Y-96889000D01*
X181737000Y-96889000D02*
X181749000Y-96901000D01*
X201549000Y-92583000D02*
X200533000Y-92583000D01*
X202073600Y-85090000D02*
X200456800Y-85090000D01*
X200253600Y-92583000D02*
X200533000Y-92583000D01*
X200533000Y-92583000D02*
X200710800Y-92583000D01*
X199720200Y-92049600D02*
X200253600Y-92583000D01*
X199720200Y-85826600D02*
X199720200Y-92049600D01*
X200456800Y-85090000D02*
X199720200Y-85826600D01*
X202073600Y-86207600D02*
X202073600Y-85090000D01*
X202073600Y-85090000D02*
X202073600Y-82726600D01*
X202073600Y-82726600D02*
X201803000Y-82456000D01*
D39*
X196723000Y-82456000D02*
X201803000Y-82456000D01*
X191262000Y-82456000D02*
X196723000Y-82456000D01*
X186182000Y-82456000D02*
X191262000Y-82456000D01*
X179197000Y-89629000D02*
X179197000Y-90982800D01*
X186182000Y-85217000D02*
X186182000Y-82456000D01*
X184886600Y-86512400D02*
X186182000Y-85217000D01*
X184886600Y-90500200D02*
X184886600Y-86512400D01*
X184048400Y-91338400D02*
X184886600Y-90500200D01*
X179552600Y-91338400D02*
X184048400Y-91338400D01*
X179197000Y-90982800D02*
X179552600Y-91338400D01*
X179197000Y-89629000D02*
X177927000Y-89629000D01*
D38*
X168910000Y-68084000D02*
X169684000Y-68084000D01*
X170688000Y-73152000D02*
X168979000Y-73152000D01*
X171450000Y-72390000D02*
X170688000Y-73152000D01*
X171450000Y-69850000D02*
X171450000Y-72390000D01*
X169684000Y-68084000D02*
X171450000Y-69850000D01*
X168979000Y-73152000D02*
X168910000Y-73083000D01*
X168910000Y-73083000D02*
X168910000Y-72517000D01*
X168910000Y-72517000D02*
X168910000Y-71824000D01*
X167165000Y-67945000D02*
X168771000Y-67945000D01*
X168771000Y-67945000D02*
X168910000Y-68084000D01*
D39*
X188087000Y-93853000D02*
X189611000Y-93853000D01*
X187960000Y-74828400D02*
X186131200Y-74828400D01*
X188645800Y-75514200D02*
X187960000Y-74828400D01*
X188823600Y-84785200D02*
X188823600Y-84582000D01*
X190246000Y-86207600D02*
X188823600Y-84785200D01*
X190246000Y-93218000D02*
X190246000Y-86207600D01*
X189611000Y-93853000D02*
X190246000Y-93218000D01*
X186131200Y-74828400D02*
X186182000Y-74828400D01*
X186182000Y-74828400D02*
X186131200Y-74828400D01*
X186131200Y-74828400D02*
X186182000Y-74828400D01*
X186182000Y-72804000D02*
X187063400Y-72804000D01*
X187063400Y-72804000D02*
X188518800Y-71348600D01*
X188518800Y-62534800D02*
X187452000Y-61468000D01*
X188518800Y-71348600D02*
X188518800Y-62534800D01*
X186182000Y-77056000D02*
X186182000Y-74828400D01*
X186182000Y-74828400D02*
X186182000Y-72804000D01*
D38*
X185928000Y-93230000D02*
X186448000Y-93230000D01*
X187071000Y-93853000D02*
X188087000Y-93853000D01*
X186448000Y-93230000D02*
X187071000Y-93853000D01*
D39*
X188087000Y-95123000D02*
X190042800Y-95123000D01*
X193294000Y-74879200D02*
X191262000Y-74879200D01*
X193598800Y-75184000D02*
X193294000Y-74879200D01*
X190042800Y-95123000D02*
X190093600Y-95072200D01*
X189992000Y-61468000D02*
X189992000Y-61518800D01*
X189992000Y-61518800D02*
X194081400Y-65608200D01*
X194081400Y-65608200D02*
X194081400Y-69984600D01*
X194081400Y-69984600D02*
X191262000Y-72804000D01*
X191262000Y-77056000D02*
X191262000Y-74879200D01*
X191262000Y-74879200D02*
X191262000Y-74853800D01*
X191262000Y-74853800D02*
X191262000Y-72804000D01*
D38*
X185928000Y-94730000D02*
X186678000Y-94730000D01*
X187071000Y-95123000D02*
X188087000Y-95123000D01*
X186678000Y-94730000D02*
X187071000Y-95123000D01*
X179185000Y-96901000D02*
X179185000Y-95041000D01*
X179185000Y-95041000D02*
X179197000Y-95029000D01*
X158369000Y-92271000D02*
X158369000Y-93942000D01*
D37*
X176530000Y-75946000D02*
X176784000Y-76200000D01*
X168910000Y-70358000D02*
X169926000Y-70358000D01*
X176784000Y-76200000D02*
X176784000Y-78480000D01*
X169926000Y-70358000D02*
X170434000Y-70866000D01*
D38*
X181258000Y-82307000D02*
X182637000Y-82307000D01*
X183388000Y-83058000D02*
X183388000Y-85102000D01*
X182637000Y-82307000D02*
X183388000Y-83058000D01*
X168910000Y-69584000D02*
X168910000Y-70358000D01*
X168910000Y-70358000D02*
X168910000Y-70924000D01*
D39*
X192532000Y-61468000D02*
X192532000Y-59969400D01*
X183565800Y-77444600D02*
X182067200Y-78943200D01*
X183565800Y-60579000D02*
X183565800Y-77444600D01*
X185166000Y-58978800D02*
X183565800Y-60579000D01*
X191541400Y-58978800D02*
X185166000Y-58978800D01*
X192532000Y-59969400D02*
X191541400Y-58978800D01*
X176784000Y-78480000D02*
X181604000Y-78480000D01*
X181604000Y-78480000D02*
X182067200Y-78943200D01*
X182786000Y-89629000D02*
X181737000Y-89629000D01*
X183286400Y-89128600D02*
X182786000Y-89629000D01*
D38*
X172708000Y-81026000D02*
X173609000Y-81026000D01*
X180224000Y-82307000D02*
X181258000Y-82307000D01*
X179959000Y-82042000D02*
X180224000Y-82307000D01*
X179959000Y-81661000D02*
X179959000Y-82042000D01*
X178816000Y-80518000D02*
X179959000Y-81661000D01*
X174117000Y-80518000D02*
X178816000Y-80518000D01*
X173609000Y-81026000D02*
X174117000Y-80518000D01*
D39*
X172708000Y-81026000D02*
X172708000Y-80276000D01*
X172708000Y-80276000D02*
X174504000Y-78480000D01*
X174504000Y-78480000D02*
X176784000Y-78480000D01*
D37*
X180467000Y-89502000D02*
X181737000Y-89502000D01*
D38*
X181852000Y-89387000D02*
X181737000Y-89502000D01*
X180352000Y-89387000D02*
X180467000Y-89502000D01*
X167513000Y-96901000D02*
X167513000Y-95029000D01*
X167386000Y-97028000D02*
X167513000Y-96901000D01*
X169418000Y-99568000D02*
X169773600Y-99568000D01*
X169773600Y-99568000D02*
X171221400Y-101015800D01*
X171221400Y-101015800D02*
X172669200Y-101015800D01*
X172669200Y-101015800D02*
X173253400Y-100431600D01*
X173253400Y-100431600D02*
X173253400Y-98399600D01*
X173253400Y-98399600D02*
X174625000Y-97028000D01*
X174625000Y-97028000D02*
X174625000Y-95029000D01*
X171958000Y-99568000D02*
X171958000Y-98806000D01*
X171958000Y-98806000D02*
X172948600Y-97815400D01*
X173355000Y-96443800D02*
X173355000Y-95029000D01*
X172948600Y-96850200D02*
X173355000Y-96443800D01*
X172948600Y-97815400D02*
X172948600Y-96850200D01*
X171958000Y-99568000D02*
X171958000Y-99136200D01*
X168783000Y-96926400D02*
X168783000Y-95029000D01*
X168833800Y-96977200D02*
X168783000Y-96926400D01*
X161671000Y-96774000D02*
X161671000Y-95029000D01*
X161569400Y-96875600D02*
X161671000Y-96774000D01*
X162941000Y-96901000D02*
X162941000Y-95029000D01*
X162915600Y-96926400D02*
X162941000Y-96901000D01*
X179578000Y-99568000D02*
X179578000Y-98425000D01*
X180467000Y-97536000D02*
X180467000Y-95029000D01*
X179578000Y-98425000D02*
X180467000Y-97536000D01*
X172408000Y-85979000D02*
X172720000Y-85979000D01*
X178304000Y-81657000D02*
X175358000Y-81657000D01*
X178816000Y-82169000D02*
X178304000Y-81657000D01*
X178816000Y-87503000D02*
X178816000Y-82169000D01*
X177927000Y-88392000D02*
X178816000Y-87503000D01*
X173990000Y-88392000D02*
X177927000Y-88392000D01*
X173482000Y-87884000D02*
X173990000Y-88392000D01*
X173482000Y-86741000D02*
X173482000Y-87884000D01*
X172720000Y-85979000D02*
X173482000Y-86741000D01*
X201549000Y-97663000D02*
X203269000Y-97663000D01*
X203269000Y-97663000D02*
X203454000Y-97848000D01*
X188087000Y-97663000D02*
X187452000Y-97663000D01*
X187452000Y-97663000D02*
X186817000Y-98298000D01*
X187452000Y-100330000D02*
X187764000Y-100330000D01*
X186817000Y-99695000D02*
X187452000Y-100330000D01*
X186817000Y-98298000D02*
X186817000Y-99695000D01*
X181530000Y-65659000D02*
X181530000Y-64563000D01*
X168275000Y-66802000D02*
X167074000Y-66802000D01*
X181530000Y-64563000D02*
X180975000Y-64008000D01*
X174625000Y-89629000D02*
X174625000Y-91109800D01*
X201549000Y-91313000D02*
X203022200Y-91313000D01*
X184835800Y-95326200D02*
X184835800Y-93370400D01*
X184835800Y-93370400D02*
X184835800Y-93345000D01*
X185369200Y-95859600D02*
X184835800Y-95326200D01*
X186055000Y-95885000D02*
X185369200Y-95859600D01*
X186055000Y-97282000D02*
X186055000Y-95885000D01*
X185877200Y-98374200D02*
X186055000Y-97282000D01*
X186055000Y-98552000D02*
X185877200Y-98374200D01*
X203022200Y-91313000D02*
X202996800Y-91897200D01*
X168783000Y-89629000D02*
X168783000Y-91211400D01*
X201422000Y-90017600D02*
X201447400Y-90043000D01*
X183997600Y-94157800D02*
X183997600Y-95605600D01*
X183692800Y-93853000D02*
X183997600Y-94157800D01*
X168783000Y-91211400D02*
X169291000Y-91719400D01*
X201447400Y-90043000D02*
X201549000Y-90043000D01*
X201549000Y-90068400D02*
X201549000Y-90043000D01*
X173355000Y-89629000D02*
X173355000Y-91694000D01*
X202768200Y-88798400D02*
X201574400Y-88798400D01*
X203149200Y-89179400D02*
X202768200Y-88798400D01*
X182854600Y-92938600D02*
X182854600Y-95427800D01*
X182051302Y-92135302D02*
X182854600Y-92938600D01*
X173796302Y-92135302D02*
X182051302Y-92135302D01*
X173355000Y-91694000D02*
X173796302Y-92135302D01*
X201574400Y-88798400D02*
X201549000Y-88773000D01*
X161671000Y-89629000D02*
X161671000Y-87960200D01*
X188087000Y-90093800D02*
X188087000Y-90043000D01*
X161671000Y-87960200D02*
X161772600Y-87858600D01*
X167513000Y-89629000D02*
X167513000Y-88925400D01*
X167513000Y-88925400D02*
X168173400Y-88265000D01*
X168173400Y-88265000D02*
X169367200Y-88265000D01*
X169367200Y-88265000D02*
X169697400Y-87934800D01*
X179679600Y-88214200D02*
X179705000Y-88239600D01*
X179705000Y-88239600D02*
X183769000Y-88239600D01*
X183769000Y-88239600D02*
X184089698Y-88560298D01*
X184089698Y-88560298D02*
X184089698Y-89823902D01*
X184089698Y-89823902D02*
X183743600Y-90170000D01*
X186283600Y-91338400D02*
X186309000Y-91313000D01*
X186309000Y-91313000D02*
X188087000Y-91313000D01*
X162941000Y-89629000D02*
X162941000Y-91313000D01*
X188188600Y-92557600D02*
X188163200Y-92583000D01*
X162941000Y-91313000D02*
X163271200Y-91643200D01*
X188163200Y-92583000D02*
X188087000Y-92583000D01*
X187833000Y-92583000D02*
X188087000Y-92583000D01*
X184462000Y-97155000D02*
X184462000Y-97351000D01*
X184462000Y-97351000D02*
X183261000Y-98552000D01*
X183261000Y-98552000D02*
X183134000Y-98552000D01*
X183134000Y-98552000D02*
X182118000Y-99568000D01*
X182118000Y-99568000D02*
X182118000Y-98806000D01*
X182118000Y-99568000D02*
X182118000Y-99009200D01*
X184658000Y-99568000D02*
X184658000Y-98298000D01*
X185362000Y-97594000D02*
X185362000Y-97155000D01*
X184658000Y-98298000D02*
X185362000Y-97594000D01*
X184658000Y-99568000D02*
X184658000Y-98907600D01*
X161765000Y-67945000D02*
X162941000Y-67945000D01*
X179030000Y-64730000D02*
X179030000Y-65659000D01*
X178181000Y-63881000D02*
X179030000Y-64730000D01*
X173609000Y-63881000D02*
X178181000Y-63881000D01*
X171831000Y-65659000D02*
X173609000Y-63881000D01*
X165862000Y-65659000D02*
X171831000Y-65659000D01*
X164338000Y-67183000D02*
X165862000Y-65659000D01*
X163703000Y-67183000D02*
X164338000Y-67183000D01*
X162941000Y-67945000D02*
X163703000Y-67183000D01*
X161765000Y-67945000D02*
X161765000Y-67851000D01*
D42*
G36*
X177039270Y-99566730D02*
X177059270Y-99566730D01*
X177059270Y-99569270D01*
X177039270Y-99569270D01*
X177039270Y-99589270D01*
X177036730Y-99589270D01*
X177036730Y-99569270D01*
X177016730Y-99569270D01*
X177016730Y-99566730D01*
X177036730Y-99566730D01*
X177036730Y-99546730D01*
X177039270Y-99546730D01*
X177039270Y-99566730D01*
X177039270Y-99566730D01*
G37*
X177039270Y-99566730D02*
X177059270Y-99566730D01*
X177059270Y-99569270D01*
X177039270Y-99569270D01*
X177039270Y-99589270D01*
X177036730Y-99589270D01*
X177036730Y-99569270D01*
X177016730Y-99569270D01*
X177016730Y-99566730D01*
X177036730Y-99566730D01*
X177036730Y-99546730D01*
X177039270Y-99546730D01*
X177039270Y-99566730D01*
G36*
X175896270Y-95027730D02*
X177925730Y-95027730D01*
X177925730Y-95007730D01*
X177928270Y-95007730D01*
X177928270Y-95027730D01*
X177948270Y-95027730D01*
X177948270Y-95030270D01*
X177928270Y-95030270D01*
X177928270Y-95050270D01*
X177925730Y-95050270D01*
X177925730Y-95030270D01*
X175896270Y-95030270D01*
X175896270Y-96650773D01*
X176178527Y-96933030D01*
X176407467Y-96933030D01*
X176155970Y-97184527D01*
X176155970Y-97500578D01*
X176273091Y-97783333D01*
X175875783Y-97966185D01*
X175455229Y-98420552D01*
X175348000Y-98398838D01*
X173966260Y-98398838D01*
X174981049Y-97384050D01*
X175036335Y-97301308D01*
X175090201Y-97220693D01*
X175128530Y-97028000D01*
X175128530Y-96832835D01*
X175370422Y-96933030D01*
X175611473Y-96933030D01*
X175893730Y-96650773D01*
X175893730Y-95030270D01*
X175873730Y-95030270D01*
X175873730Y-95027730D01*
X175893730Y-95027730D01*
X175893730Y-95007730D01*
X175896270Y-95007730D01*
X175896270Y-95027730D01*
X175896270Y-95027730D01*
G37*
X175896270Y-95027730D02*
X177925730Y-95027730D01*
X177925730Y-95007730D01*
X177928270Y-95007730D01*
X177928270Y-95027730D01*
X177948270Y-95027730D01*
X177948270Y-95030270D01*
X177928270Y-95030270D01*
X177928270Y-95050270D01*
X177925730Y-95050270D01*
X177925730Y-95030270D01*
X175896270Y-95030270D01*
X175896270Y-96650773D01*
X176178527Y-96933030D01*
X176407467Y-96933030D01*
X176155970Y-97184527D01*
X176155970Y-97500578D01*
X176273091Y-97783333D01*
X175875783Y-97966185D01*
X175455229Y-98420552D01*
X175348000Y-98398838D01*
X173966260Y-98398838D01*
X174981049Y-97384050D01*
X175036335Y-97301308D01*
X175090201Y-97220693D01*
X175128530Y-97028000D01*
X175128530Y-96832835D01*
X175370422Y-96933030D01*
X175611473Y-96933030D01*
X175893730Y-96650773D01*
X175893730Y-95030270D01*
X175873730Y-95030270D01*
X175873730Y-95027730D01*
X175893730Y-95027730D01*
X175893730Y-95007730D01*
X175896270Y-95007730D01*
X175896270Y-95027730D01*
G36*
X163686422Y-96933030D02*
X163817527Y-96933030D01*
X163911227Y-97026730D01*
X165056730Y-97026730D01*
X165056730Y-97006730D01*
X165059270Y-97006730D01*
X165059270Y-97026730D01*
X165079270Y-97026730D01*
X165079270Y-97029270D01*
X165059270Y-97029270D01*
X165059270Y-97049270D01*
X165056730Y-97049270D01*
X165056730Y-97029270D01*
X163911227Y-97029270D01*
X163628970Y-97311527D01*
X163628970Y-97413470D01*
X163295393Y-97413470D01*
X163434999Y-97274107D01*
X163528523Y-97048874D01*
X163528681Y-96867691D01*
X163686422Y-96933030D01*
X163686422Y-96933030D01*
G37*
X163686422Y-96933030D02*
X163817527Y-96933030D01*
X163911227Y-97026730D01*
X165056730Y-97026730D01*
X165056730Y-97006730D01*
X165059270Y-97006730D01*
X165059270Y-97026730D01*
X165079270Y-97026730D01*
X165079270Y-97029270D01*
X165059270Y-97029270D01*
X165059270Y-97049270D01*
X165056730Y-97049270D01*
X165056730Y-97029270D01*
X163911227Y-97029270D01*
X163628970Y-97311527D01*
X163628970Y-97413470D01*
X163295393Y-97413470D01*
X163434999Y-97274107D01*
X163528523Y-97048874D01*
X163528681Y-96867691D01*
X163686422Y-96933030D01*
G36*
X169528422Y-96933030D02*
X169659527Y-96933030D01*
X169753227Y-97026730D01*
X170898730Y-97026730D01*
X170898730Y-97006730D01*
X170901270Y-97006730D01*
X170901270Y-97026730D01*
X170921270Y-97026730D01*
X170921270Y-97029270D01*
X170901270Y-97029270D01*
X170901270Y-97049270D01*
X170898730Y-97049270D01*
X170898730Y-97029270D01*
X169753227Y-97029270D01*
X169470970Y-97311527D01*
X169470970Y-97413470D01*
X169264481Y-97413470D01*
X169353199Y-97324907D01*
X169446723Y-97099674D01*
X169446898Y-96899262D01*
X169528422Y-96933030D01*
X169528422Y-96933030D01*
G37*
X169528422Y-96933030D02*
X169659527Y-96933030D01*
X169753227Y-97026730D01*
X170898730Y-97026730D01*
X170898730Y-97006730D01*
X170901270Y-97006730D01*
X170901270Y-97026730D01*
X170921270Y-97026730D01*
X170921270Y-97029270D01*
X170901270Y-97029270D01*
X170901270Y-97049270D01*
X170898730Y-97049270D01*
X170898730Y-97029270D01*
X169753227Y-97029270D01*
X169470970Y-97311527D01*
X169470970Y-97413470D01*
X169264481Y-97413470D01*
X169353199Y-97324907D01*
X169446723Y-97099674D01*
X169446898Y-96899262D01*
X169528422Y-96933030D01*
G36*
X159217270Y-97026730D02*
X159237270Y-97026730D01*
X159237270Y-97029270D01*
X159217270Y-97029270D01*
X159217270Y-97049270D01*
X159214730Y-97049270D01*
X159214730Y-97029270D01*
X159194730Y-97029270D01*
X159194730Y-97026730D01*
X159214730Y-97026730D01*
X159214730Y-97006730D01*
X159217270Y-97006730D01*
X159217270Y-97026730D01*
X159217270Y-97026730D01*
G37*
X159217270Y-97026730D02*
X159237270Y-97026730D01*
X159237270Y-97029270D01*
X159217270Y-97029270D01*
X159217270Y-97049270D01*
X159214730Y-97049270D01*
X159214730Y-97029270D01*
X159194730Y-97029270D01*
X159194730Y-97026730D01*
X159214730Y-97026730D01*
X159214730Y-97006730D01*
X159217270Y-97006730D01*
X159217270Y-97026730D01*
G36*
X177686270Y-96899730D02*
X177706270Y-96899730D01*
X177706270Y-96902270D01*
X177686270Y-96902270D01*
X177686270Y-96922270D01*
X177683730Y-96922270D01*
X177683730Y-96902270D01*
X177674233Y-96902270D01*
X177676773Y-96899730D01*
X177683730Y-96899730D01*
X177683730Y-96892773D01*
X177686270Y-96890233D01*
X177686270Y-96899730D01*
X177686270Y-96899730D01*
G37*
X177686270Y-96899730D02*
X177706270Y-96899730D01*
X177706270Y-96902270D01*
X177686270Y-96902270D01*
X177686270Y-96922270D01*
X177683730Y-96922270D01*
X177683730Y-96902270D01*
X177674233Y-96902270D01*
X177676773Y-96899730D01*
X177683730Y-96899730D01*
X177683730Y-96892773D01*
X177686270Y-96890233D01*
X177686270Y-96899730D01*
G36*
X183250270Y-96899730D02*
X183270270Y-96899730D01*
X183270270Y-96902270D01*
X183250270Y-96902270D01*
X183250270Y-96922270D01*
X183247730Y-96922270D01*
X183247730Y-96902270D01*
X183227730Y-96902270D01*
X183227730Y-96899730D01*
X183247730Y-96899730D01*
X183247730Y-96879730D01*
X183250270Y-96879730D01*
X183250270Y-96899730D01*
X183250270Y-96899730D01*
G37*
X183250270Y-96899730D02*
X183270270Y-96899730D01*
X183270270Y-96902270D01*
X183250270Y-96902270D01*
X183250270Y-96922270D01*
X183247730Y-96922270D01*
X183247730Y-96902270D01*
X183227730Y-96902270D01*
X183227730Y-96899730D01*
X183247730Y-96899730D01*
X183247730Y-96879730D01*
X183250270Y-96879730D01*
X183250270Y-96899730D01*
G36*
X158370270Y-95540730D02*
X158390270Y-95540730D01*
X158390270Y-95543270D01*
X158370270Y-95543270D01*
X158370270Y-95563270D01*
X158367730Y-95563270D01*
X158367730Y-95543270D01*
X158347730Y-95543270D01*
X158347730Y-95540730D01*
X158367730Y-95540730D01*
X158367730Y-95520730D01*
X158370270Y-95520730D01*
X158370270Y-95540730D01*
X158370270Y-95540730D01*
G37*
X158370270Y-95540730D02*
X158390270Y-95540730D01*
X158390270Y-95543270D01*
X158370270Y-95543270D01*
X158370270Y-95563270D01*
X158367730Y-95563270D01*
X158367730Y-95543270D01*
X158347730Y-95543270D01*
X158347730Y-95540730D01*
X158367730Y-95540730D01*
X158367730Y-95520730D01*
X158370270Y-95520730D01*
X158370270Y-95540730D01*
G36*
X164212270Y-95027730D02*
X164232270Y-95027730D01*
X164232270Y-95030270D01*
X164212270Y-95030270D01*
X164212270Y-95050270D01*
X164209730Y-95050270D01*
X164209730Y-95030270D01*
X164189730Y-95030270D01*
X164189730Y-95027730D01*
X164209730Y-95027730D01*
X164209730Y-95007730D01*
X164212270Y-95007730D01*
X164212270Y-95027730D01*
X164212270Y-95027730D01*
G37*
X164212270Y-95027730D02*
X164232270Y-95027730D01*
X164232270Y-95030270D01*
X164212270Y-95030270D01*
X164212270Y-95050270D01*
X164209730Y-95050270D01*
X164209730Y-95030270D01*
X164189730Y-95030270D01*
X164189730Y-95027730D01*
X164209730Y-95027730D01*
X164209730Y-95007730D01*
X164212270Y-95007730D01*
X164212270Y-95027730D01*
G36*
X170054270Y-95027730D02*
X170074270Y-95027730D01*
X170074270Y-95030270D01*
X170054270Y-95030270D01*
X170054270Y-95050270D01*
X170051730Y-95050270D01*
X170051730Y-95030270D01*
X170031730Y-95030270D01*
X170031730Y-95027730D01*
X170051730Y-95027730D01*
X170051730Y-95007730D01*
X170054270Y-95007730D01*
X170054270Y-95027730D01*
X170054270Y-95027730D01*
G37*
X170054270Y-95027730D02*
X170074270Y-95027730D01*
X170074270Y-95030270D01*
X170054270Y-95030270D01*
X170054270Y-95050270D01*
X170051730Y-95050270D01*
X170051730Y-95030270D01*
X170031730Y-95030270D01*
X170031730Y-95027730D01*
X170051730Y-95027730D01*
X170051730Y-95007730D01*
X170054270Y-95007730D01*
X170054270Y-95027730D01*
G36*
X160668970Y-85766385D02*
X160570799Y-85913307D01*
X160532470Y-86106000D01*
X160532470Y-86379970D01*
X160291527Y-86379970D01*
X160009270Y-86662227D01*
X160009270Y-87882730D01*
X160029270Y-87882730D01*
X160029270Y-87885270D01*
X160009270Y-87885270D01*
X160009270Y-87905270D01*
X160006730Y-87905270D01*
X160006730Y-87885270D01*
X159986730Y-87885270D01*
X159986730Y-87882730D01*
X160006730Y-87882730D01*
X160006730Y-86662227D01*
X159818155Y-86473652D01*
X159850201Y-86425693D01*
X159888530Y-86233000D01*
X159888530Y-86013664D01*
X160230171Y-85785386D01*
X160482285Y-85408072D01*
X160570815Y-84963000D01*
X160482285Y-84517928D01*
X160251250Y-84172161D01*
X160420123Y-84109737D01*
X160668970Y-83879409D01*
X160668970Y-85766385D01*
X160668970Y-85766385D01*
G37*
X160668970Y-85766385D02*
X160570799Y-85913307D01*
X160532470Y-86106000D01*
X160532470Y-86379970D01*
X160291527Y-86379970D01*
X160009270Y-86662227D01*
X160009270Y-87882730D01*
X160029270Y-87882730D01*
X160029270Y-87885270D01*
X160009270Y-87885270D01*
X160009270Y-87905270D01*
X160006730Y-87905270D01*
X160006730Y-87885270D01*
X159986730Y-87885270D01*
X159986730Y-87882730D01*
X160006730Y-87882730D01*
X160006730Y-86662227D01*
X159818155Y-86473652D01*
X159850201Y-86425693D01*
X159888530Y-86233000D01*
X159888530Y-86013664D01*
X160230171Y-85785386D01*
X160482285Y-85408072D01*
X160570815Y-84963000D01*
X160482285Y-84517928D01*
X160251250Y-84172161D01*
X160420123Y-84109737D01*
X160668970Y-83879409D01*
X160668970Y-85766385D01*
G36*
X157783185Y-83585217D02*
X158349877Y-84109737D01*
X158518750Y-84172161D01*
X158287715Y-84517928D01*
X158199185Y-84963000D01*
X158287715Y-85408072D01*
X158539829Y-85785386D01*
X158881470Y-86013664D01*
X158881470Y-86024431D01*
X158151951Y-86753951D01*
X158042799Y-86917307D01*
X158004470Y-87110000D01*
X158004470Y-87209318D01*
X157991998Y-87211665D01*
X157885458Y-87280222D01*
X157813983Y-87384828D01*
X157807599Y-87416354D01*
X157795307Y-87418799D01*
X157762809Y-87440514D01*
X157631950Y-87527951D01*
X157614030Y-87545871D01*
X157614030Y-83217671D01*
X157783185Y-83585217D01*
X157783185Y-83585217D01*
G37*
X157783185Y-83585217D02*
X158349877Y-84109737D01*
X158518750Y-84172161D01*
X158287715Y-84517928D01*
X158199185Y-84963000D01*
X158287715Y-85408072D01*
X158539829Y-85785386D01*
X158881470Y-86013664D01*
X158881470Y-86024431D01*
X158151951Y-86753951D01*
X158042799Y-86917307D01*
X158004470Y-87110000D01*
X158004470Y-87209318D01*
X157991998Y-87211665D01*
X157885458Y-87280222D01*
X157813983Y-87384828D01*
X157807599Y-87416354D01*
X157795307Y-87418799D01*
X157762809Y-87440514D01*
X157631950Y-87527951D01*
X157614030Y-87545871D01*
X157614030Y-83217671D01*
X157783185Y-83585217D01*
G36*
X159386270Y-82421730D02*
X159406270Y-82421730D01*
X159406270Y-82424270D01*
X159386270Y-82424270D01*
X159386270Y-82444270D01*
X159383730Y-82444270D01*
X159383730Y-82424270D01*
X159363730Y-82424270D01*
X159363730Y-82421730D01*
X159383730Y-82421730D01*
X159383730Y-82401730D01*
X159386270Y-82401730D01*
X159386270Y-82421730D01*
X159386270Y-82421730D01*
G37*
X159386270Y-82421730D02*
X159406270Y-82421730D01*
X159406270Y-82424270D01*
X159386270Y-82424270D01*
X159386270Y-82444270D01*
X159383730Y-82444270D01*
X159383730Y-82424270D01*
X159363730Y-82424270D01*
X159363730Y-82421730D01*
X159383730Y-82421730D01*
X159383730Y-82401730D01*
X159386270Y-82401730D01*
X159386270Y-82421730D01*
G36*
X189792838Y-84206000D02*
X189814665Y-84322002D01*
X189883222Y-84428542D01*
X189987828Y-84500017D01*
X190112000Y-84525162D01*
X192412000Y-84525162D01*
X192528002Y-84503335D01*
X192634542Y-84434778D01*
X192706017Y-84330172D01*
X192731162Y-84206000D01*
X192731162Y-83175430D01*
X195253838Y-83175430D01*
X195253838Y-84206000D01*
X195275665Y-84322002D01*
X195344222Y-84428542D01*
X195448828Y-84500017D01*
X195573000Y-84525162D01*
X197873000Y-84525162D01*
X197989002Y-84503335D01*
X198095542Y-84434778D01*
X198167017Y-84330172D01*
X198192162Y-84206000D01*
X198192162Y-83175430D01*
X200333838Y-83175430D01*
X200333838Y-84206000D01*
X200355665Y-84322002D01*
X200424222Y-84428542D01*
X200528828Y-84500017D01*
X200653000Y-84525162D01*
X201570070Y-84525162D01*
X201570070Y-84586470D01*
X200456800Y-84586470D01*
X200264108Y-84624798D01*
X200100751Y-84733950D01*
X199364151Y-85470551D01*
X199254999Y-85633907D01*
X199216670Y-85826600D01*
X199216670Y-87159782D01*
X198852578Y-87008970D01*
X195101527Y-87008970D01*
X194819270Y-87291227D01*
X194819270Y-93216730D01*
X199474773Y-93216730D01*
X199757030Y-92934473D01*
X199757030Y-92798529D01*
X199897551Y-92939050D01*
X200060908Y-93048202D01*
X200253600Y-93086530D01*
X200471227Y-93086530D01*
X200494722Y-93123042D01*
X200599328Y-93194517D01*
X200714991Y-93217939D01*
X200607498Y-93238165D01*
X200500958Y-93306722D01*
X200429483Y-93411328D01*
X200404338Y-93535500D01*
X200404338Y-94170500D01*
X200426165Y-94286502D01*
X200494722Y-94393042D01*
X200599328Y-94464517D01*
X200714991Y-94487939D01*
X200607498Y-94508165D01*
X200500958Y-94576722D01*
X200429483Y-94681328D01*
X200404338Y-94805500D01*
X200404338Y-95440500D01*
X200426165Y-95556502D01*
X200494722Y-95663042D01*
X200599328Y-95734517D01*
X200714991Y-95757939D01*
X200607498Y-95778165D01*
X200500958Y-95846722D01*
X200429483Y-95951328D01*
X200404338Y-96075500D01*
X200404338Y-96710500D01*
X200426165Y-96826502D01*
X200494722Y-96933042D01*
X200599328Y-97004517D01*
X200714991Y-97027939D01*
X200607498Y-97048165D01*
X200500958Y-97116722D01*
X200429483Y-97221328D01*
X200404338Y-97345500D01*
X200404338Y-97525648D01*
X200083956Y-97658355D01*
X199766355Y-97975956D01*
X199757030Y-97998468D01*
X199757030Y-93501527D01*
X199474773Y-93219270D01*
X194819270Y-93219270D01*
X194819270Y-99144773D01*
X195101527Y-99427030D01*
X198852578Y-99427030D01*
X199267544Y-99255145D01*
X199306162Y-99216527D01*
X199594470Y-99216527D01*
X199594470Y-99475078D01*
X199766355Y-99890044D01*
X200083956Y-100207645D01*
X200498922Y-100379530D01*
X201265473Y-100379530D01*
X201547730Y-100097273D01*
X201547730Y-98934270D01*
X199876727Y-98934270D01*
X199594470Y-99216527D01*
X199306162Y-99216527D01*
X199585145Y-98937544D01*
X199672250Y-98727253D01*
X199876727Y-98931730D01*
X201547730Y-98931730D01*
X201547730Y-98911730D01*
X201550270Y-98911730D01*
X201550270Y-98931730D01*
X201570270Y-98931730D01*
X201570270Y-98934270D01*
X201550270Y-98934270D01*
X201550270Y-100097273D01*
X201832527Y-100379530D01*
X202599078Y-100379530D01*
X203014044Y-100207645D01*
X203144659Y-100077030D01*
X203170473Y-100077030D01*
X203452730Y-99794773D01*
X203452730Y-99597720D01*
X203455270Y-99591588D01*
X203455270Y-99794773D01*
X203737527Y-100077030D01*
X203978578Y-100077030D01*
X204393544Y-99905145D01*
X204589970Y-99708719D01*
X204589970Y-101211970D01*
X189844993Y-101211970D01*
X189993030Y-100854578D01*
X189993030Y-100613527D01*
X189710773Y-100331270D01*
X189253588Y-100331270D01*
X189259720Y-100328730D01*
X189710773Y-100328730D01*
X189993030Y-100046473D01*
X189993030Y-99805422D01*
X189948863Y-99698795D01*
X190041530Y-99475078D01*
X190041530Y-99216527D01*
X189759273Y-98934270D01*
X189168971Y-98934270D01*
X189162839Y-98931730D01*
X189759273Y-98931730D01*
X189963750Y-98727253D01*
X190050855Y-98937544D01*
X190368456Y-99255145D01*
X190783422Y-99427030D01*
X194534473Y-99427030D01*
X194816730Y-99144773D01*
X194816730Y-93219270D01*
X194796730Y-93219270D01*
X194796730Y-93216730D01*
X194816730Y-93216730D01*
X194816730Y-87291227D01*
X194534473Y-87008970D01*
X190965430Y-87008970D01*
X190965430Y-86207600D01*
X190910667Y-85932286D01*
X190754714Y-85698886D01*
X189519492Y-84463664D01*
X189488267Y-84306686D01*
X189332314Y-84073286D01*
X189182092Y-83972911D01*
X189241399Y-83913707D01*
X189334923Y-83688474D01*
X189335136Y-83444596D01*
X189242005Y-83219200D01*
X189198311Y-83175430D01*
X189792838Y-83175430D01*
X189792838Y-84206000D01*
X189792838Y-84206000D01*
G37*
X189792838Y-84206000D02*
X189814665Y-84322002D01*
X189883222Y-84428542D01*
X189987828Y-84500017D01*
X190112000Y-84525162D01*
X192412000Y-84525162D01*
X192528002Y-84503335D01*
X192634542Y-84434778D01*
X192706017Y-84330172D01*
X192731162Y-84206000D01*
X192731162Y-83175430D01*
X195253838Y-83175430D01*
X195253838Y-84206000D01*
X195275665Y-84322002D01*
X195344222Y-84428542D01*
X195448828Y-84500017D01*
X195573000Y-84525162D01*
X197873000Y-84525162D01*
X197989002Y-84503335D01*
X198095542Y-84434778D01*
X198167017Y-84330172D01*
X198192162Y-84206000D01*
X198192162Y-83175430D01*
X200333838Y-83175430D01*
X200333838Y-84206000D01*
X200355665Y-84322002D01*
X200424222Y-84428542D01*
X200528828Y-84500017D01*
X200653000Y-84525162D01*
X201570070Y-84525162D01*
X201570070Y-84586470D01*
X200456800Y-84586470D01*
X200264108Y-84624798D01*
X200100751Y-84733950D01*
X199364151Y-85470551D01*
X199254999Y-85633907D01*
X199216670Y-85826600D01*
X199216670Y-87159782D01*
X198852578Y-87008970D01*
X195101527Y-87008970D01*
X194819270Y-87291227D01*
X194819270Y-93216730D01*
X199474773Y-93216730D01*
X199757030Y-92934473D01*
X199757030Y-92798529D01*
X199897551Y-92939050D01*
X200060908Y-93048202D01*
X200253600Y-93086530D01*
X200471227Y-93086530D01*
X200494722Y-93123042D01*
X200599328Y-93194517D01*
X200714991Y-93217939D01*
X200607498Y-93238165D01*
X200500958Y-93306722D01*
X200429483Y-93411328D01*
X200404338Y-93535500D01*
X200404338Y-94170500D01*
X200426165Y-94286502D01*
X200494722Y-94393042D01*
X200599328Y-94464517D01*
X200714991Y-94487939D01*
X200607498Y-94508165D01*
X200500958Y-94576722D01*
X200429483Y-94681328D01*
X200404338Y-94805500D01*
X200404338Y-95440500D01*
X200426165Y-95556502D01*
X200494722Y-95663042D01*
X200599328Y-95734517D01*
X200714991Y-95757939D01*
X200607498Y-95778165D01*
X200500958Y-95846722D01*
X200429483Y-95951328D01*
X200404338Y-96075500D01*
X200404338Y-96710500D01*
X200426165Y-96826502D01*
X200494722Y-96933042D01*
X200599328Y-97004517D01*
X200714991Y-97027939D01*
X200607498Y-97048165D01*
X200500958Y-97116722D01*
X200429483Y-97221328D01*
X200404338Y-97345500D01*
X200404338Y-97525648D01*
X200083956Y-97658355D01*
X199766355Y-97975956D01*
X199757030Y-97998468D01*
X199757030Y-93501527D01*
X199474773Y-93219270D01*
X194819270Y-93219270D01*
X194819270Y-99144773D01*
X195101527Y-99427030D01*
X198852578Y-99427030D01*
X199267544Y-99255145D01*
X199306162Y-99216527D01*
X199594470Y-99216527D01*
X199594470Y-99475078D01*
X199766355Y-99890044D01*
X200083956Y-100207645D01*
X200498922Y-100379530D01*
X201265473Y-100379530D01*
X201547730Y-100097273D01*
X201547730Y-98934270D01*
X199876727Y-98934270D01*
X199594470Y-99216527D01*
X199306162Y-99216527D01*
X199585145Y-98937544D01*
X199672250Y-98727253D01*
X199876727Y-98931730D01*
X201547730Y-98931730D01*
X201547730Y-98911730D01*
X201550270Y-98911730D01*
X201550270Y-98931730D01*
X201570270Y-98931730D01*
X201570270Y-98934270D01*
X201550270Y-98934270D01*
X201550270Y-100097273D01*
X201832527Y-100379530D01*
X202599078Y-100379530D01*
X203014044Y-100207645D01*
X203144659Y-100077030D01*
X203170473Y-100077030D01*
X203452730Y-99794773D01*
X203452730Y-99597720D01*
X203455270Y-99591588D01*
X203455270Y-99794773D01*
X203737527Y-100077030D01*
X203978578Y-100077030D01*
X204393544Y-99905145D01*
X204589970Y-99708719D01*
X204589970Y-101211970D01*
X189844993Y-101211970D01*
X189993030Y-100854578D01*
X189993030Y-100613527D01*
X189710773Y-100331270D01*
X189253588Y-100331270D01*
X189259720Y-100328730D01*
X189710773Y-100328730D01*
X189993030Y-100046473D01*
X189993030Y-99805422D01*
X189948863Y-99698795D01*
X190041530Y-99475078D01*
X190041530Y-99216527D01*
X189759273Y-98934270D01*
X189168971Y-98934270D01*
X189162839Y-98931730D01*
X189759273Y-98931730D01*
X189963750Y-98727253D01*
X190050855Y-98937544D01*
X190368456Y-99255145D01*
X190783422Y-99427030D01*
X194534473Y-99427030D01*
X194816730Y-99144773D01*
X194816730Y-93219270D01*
X194796730Y-93219270D01*
X194796730Y-93216730D01*
X194816730Y-93216730D01*
X194816730Y-87291227D01*
X194534473Y-87008970D01*
X190965430Y-87008970D01*
X190965430Y-86207600D01*
X190910667Y-85932286D01*
X190754714Y-85698886D01*
X189519492Y-84463664D01*
X189488267Y-84306686D01*
X189332314Y-84073286D01*
X189182092Y-83972911D01*
X189241399Y-83913707D01*
X189334923Y-83688474D01*
X189335136Y-83444596D01*
X189242005Y-83219200D01*
X189198311Y-83175430D01*
X189792838Y-83175430D01*
X189792838Y-84206000D01*
G36*
X188088270Y-98931730D02*
X188165161Y-98931730D01*
X188159029Y-98934270D01*
X188088270Y-98934270D01*
X188088270Y-98954270D01*
X188085730Y-98954270D01*
X188085730Y-98934270D01*
X188065730Y-98934270D01*
X188065730Y-98931730D01*
X188085730Y-98931730D01*
X188085730Y-98911730D01*
X188088270Y-98911730D01*
X188088270Y-98931730D01*
X188088270Y-98931730D01*
G37*
X188088270Y-98931730D02*
X188165161Y-98931730D01*
X188159029Y-98934270D01*
X188088270Y-98934270D01*
X188088270Y-98954270D01*
X188085730Y-98954270D01*
X188085730Y-98934270D01*
X188065730Y-98934270D01*
X188065730Y-98931730D01*
X188085730Y-98931730D01*
X188085730Y-98911730D01*
X188088270Y-98911730D01*
X188088270Y-98931730D01*
G36*
X203455270Y-98746730D02*
X203475270Y-98746730D01*
X203475270Y-98749270D01*
X203455270Y-98749270D01*
X203455270Y-98931728D01*
X203452730Y-98931728D01*
X203452730Y-98749270D01*
X203432730Y-98749270D01*
X203432730Y-98746730D01*
X203452730Y-98746730D01*
X203452730Y-98726730D01*
X203455270Y-98726730D01*
X203455270Y-98746730D01*
X203455270Y-98746730D01*
G37*
X203455270Y-98746730D02*
X203475270Y-98746730D01*
X203475270Y-98749270D01*
X203455270Y-98749270D01*
X203455270Y-98931728D01*
X203452730Y-98931728D01*
X203452730Y-98749270D01*
X203432730Y-98749270D01*
X203432730Y-98746730D01*
X203452730Y-98746730D01*
X203452730Y-98726730D01*
X203455270Y-98726730D01*
X203455270Y-98746730D01*
G36*
X164985838Y-85941937D02*
X164985838Y-86362845D01*
X164720578Y-86252970D01*
X164379527Y-86252970D01*
X164097270Y-86535227D01*
X164097270Y-87755730D01*
X164117270Y-87755730D01*
X164117270Y-87758270D01*
X164097270Y-87758270D01*
X164097270Y-87778270D01*
X164094730Y-87778270D01*
X164094730Y-87758270D01*
X163960773Y-87758270D01*
X163958233Y-87755730D01*
X164094730Y-87755730D01*
X164094730Y-86535227D01*
X163812473Y-86252970D01*
X163471422Y-86252970D01*
X163056456Y-86424855D01*
X162738855Y-86742456D01*
X162566970Y-87157422D01*
X162566970Y-87473473D01*
X162849227Y-87755730D01*
X163612161Y-87755730D01*
X163606029Y-87758270D01*
X162849227Y-87758270D01*
X162566970Y-88040527D01*
X162566970Y-88356578D01*
X162640822Y-88534872D01*
X162524998Y-88556665D01*
X162418458Y-88625222D01*
X162346983Y-88729828D01*
X162321838Y-88854000D01*
X162321838Y-90404000D01*
X162343665Y-90520002D01*
X162412222Y-90626542D01*
X162437470Y-90643793D01*
X162437470Y-91313000D01*
X162475799Y-91505693D01*
X162567679Y-91643200D01*
X162584951Y-91669049D01*
X162658084Y-91742182D01*
X162658064Y-91764604D01*
X162751195Y-91990000D01*
X162923493Y-92162599D01*
X163148726Y-92256123D01*
X163392604Y-92256336D01*
X163618000Y-92163205D01*
X163790599Y-91990907D01*
X163884123Y-91765674D01*
X163884326Y-91533030D01*
X163927473Y-91533030D01*
X164209730Y-91250773D01*
X164209730Y-89630270D01*
X164189730Y-89630270D01*
X164189730Y-89627730D01*
X164209730Y-89627730D01*
X164209730Y-89607730D01*
X164212270Y-89607730D01*
X164212270Y-89627730D01*
X164232270Y-89627730D01*
X164232270Y-89630270D01*
X164212270Y-89630270D01*
X164212270Y-91250773D01*
X164494527Y-91533030D01*
X164735578Y-91533030D01*
X165150544Y-91361145D01*
X165468145Y-91043544D01*
X165640030Y-90628578D01*
X165640030Y-90490054D01*
X165645665Y-90520002D01*
X165714222Y-90626542D01*
X165739470Y-90643793D01*
X165739470Y-92018831D01*
X165272432Y-92485870D01*
X161269969Y-92485870D01*
X160904530Y-92120432D01*
X160904530Y-90645012D01*
X160923542Y-90632778D01*
X160995017Y-90528172D01*
X161020162Y-90404000D01*
X161020162Y-89119936D01*
X161051838Y-89088260D01*
X161051838Y-90404000D01*
X161073665Y-90520002D01*
X161142222Y-90626542D01*
X161246828Y-90698017D01*
X161371000Y-90723162D01*
X161971000Y-90723162D01*
X162087002Y-90701335D01*
X162193542Y-90632778D01*
X162265017Y-90528172D01*
X162290162Y-90404000D01*
X162290162Y-88854000D01*
X162268335Y-88737998D01*
X162199778Y-88631458D01*
X162174530Y-88614207D01*
X162174530Y-88323571D01*
X162291999Y-88206307D01*
X162385523Y-87981074D01*
X162385736Y-87737196D01*
X162292605Y-87511800D01*
X162120307Y-87339201D01*
X161895074Y-87245677D01*
X161651196Y-87245464D01*
X161539530Y-87291603D01*
X161539530Y-86314568D01*
X163449000Y-84405099D01*
X164985838Y-85941937D01*
X164985838Y-85941937D01*
G37*
X164985838Y-85941937D02*
X164985838Y-86362845D01*
X164720578Y-86252970D01*
X164379527Y-86252970D01*
X164097270Y-86535227D01*
X164097270Y-87755730D01*
X164117270Y-87755730D01*
X164117270Y-87758270D01*
X164097270Y-87758270D01*
X164097270Y-87778270D01*
X164094730Y-87778270D01*
X164094730Y-87758270D01*
X163960773Y-87758270D01*
X163958233Y-87755730D01*
X164094730Y-87755730D01*
X164094730Y-86535227D01*
X163812473Y-86252970D01*
X163471422Y-86252970D01*
X163056456Y-86424855D01*
X162738855Y-86742456D01*
X162566970Y-87157422D01*
X162566970Y-87473473D01*
X162849227Y-87755730D01*
X163612161Y-87755730D01*
X163606029Y-87758270D01*
X162849227Y-87758270D01*
X162566970Y-88040527D01*
X162566970Y-88356578D01*
X162640822Y-88534872D01*
X162524998Y-88556665D01*
X162418458Y-88625222D01*
X162346983Y-88729828D01*
X162321838Y-88854000D01*
X162321838Y-90404000D01*
X162343665Y-90520002D01*
X162412222Y-90626542D01*
X162437470Y-90643793D01*
X162437470Y-91313000D01*
X162475799Y-91505693D01*
X162567679Y-91643200D01*
X162584951Y-91669049D01*
X162658084Y-91742182D01*
X162658064Y-91764604D01*
X162751195Y-91990000D01*
X162923493Y-92162599D01*
X163148726Y-92256123D01*
X163392604Y-92256336D01*
X163618000Y-92163205D01*
X163790599Y-91990907D01*
X163884123Y-91765674D01*
X163884326Y-91533030D01*
X163927473Y-91533030D01*
X164209730Y-91250773D01*
X164209730Y-89630270D01*
X164189730Y-89630270D01*
X164189730Y-89627730D01*
X164209730Y-89627730D01*
X164209730Y-89607730D01*
X164212270Y-89607730D01*
X164212270Y-89627730D01*
X164232270Y-89627730D01*
X164232270Y-89630270D01*
X164212270Y-89630270D01*
X164212270Y-91250773D01*
X164494527Y-91533030D01*
X164735578Y-91533030D01*
X165150544Y-91361145D01*
X165468145Y-91043544D01*
X165640030Y-90628578D01*
X165640030Y-90490054D01*
X165645665Y-90520002D01*
X165714222Y-90626542D01*
X165739470Y-90643793D01*
X165739470Y-92018831D01*
X165272432Y-92485870D01*
X161269969Y-92485870D01*
X160904530Y-92120432D01*
X160904530Y-90645012D01*
X160923542Y-90632778D01*
X160995017Y-90528172D01*
X161020162Y-90404000D01*
X161020162Y-89119936D01*
X161051838Y-89088260D01*
X161051838Y-90404000D01*
X161073665Y-90520002D01*
X161142222Y-90626542D01*
X161246828Y-90698017D01*
X161371000Y-90723162D01*
X161971000Y-90723162D01*
X162087002Y-90701335D01*
X162193542Y-90632778D01*
X162265017Y-90528172D01*
X162290162Y-90404000D01*
X162290162Y-88854000D01*
X162268335Y-88737998D01*
X162199778Y-88631458D01*
X162174530Y-88614207D01*
X162174530Y-88323571D01*
X162291999Y-88206307D01*
X162385523Y-87981074D01*
X162385736Y-87737196D01*
X162292605Y-87511800D01*
X162120307Y-87339201D01*
X161895074Y-87245677D01*
X161651196Y-87245464D01*
X161539530Y-87291603D01*
X161539530Y-86314568D01*
X163449000Y-84405099D01*
X164985838Y-85941937D01*
G36*
X166893838Y-90404000D02*
X166915665Y-90520002D01*
X166984222Y-90626542D01*
X167088828Y-90698017D01*
X167213000Y-90723162D01*
X167813000Y-90723162D01*
X167929002Y-90701335D01*
X168035542Y-90632778D01*
X168107017Y-90528172D01*
X168132162Y-90404000D01*
X168132162Y-89018336D01*
X168163838Y-88986660D01*
X168163838Y-90404000D01*
X168185665Y-90520002D01*
X168254222Y-90626542D01*
X168279470Y-90643793D01*
X168279470Y-91211400D01*
X168317799Y-91404093D01*
X168399728Y-91526707D01*
X168426951Y-91567449D01*
X168677884Y-91818382D01*
X168677864Y-91840804D01*
X168770995Y-92066200D01*
X168943293Y-92238799D01*
X169168526Y-92332323D01*
X169412404Y-92332536D01*
X169637800Y-92239405D01*
X169810399Y-92067107D01*
X169903923Y-91841874D01*
X169904136Y-91597996D01*
X169845768Y-91456735D01*
X170051730Y-91250773D01*
X170051730Y-89630270D01*
X170031730Y-89630270D01*
X170031730Y-89627730D01*
X170051730Y-89627730D01*
X170051730Y-89607730D01*
X170054270Y-89607730D01*
X170054270Y-89627730D01*
X170074270Y-89627730D01*
X170074270Y-89630270D01*
X170054270Y-89630270D01*
X170054270Y-91250773D01*
X170336527Y-91533030D01*
X170577578Y-91533030D01*
X170992544Y-91361145D01*
X171310145Y-91043544D01*
X171482030Y-90628578D01*
X171482030Y-90490054D01*
X171487665Y-90520002D01*
X171556222Y-90626542D01*
X171581470Y-90643793D01*
X171581470Y-91968031D01*
X171216032Y-92333470D01*
X166934169Y-92333470D01*
X166746530Y-92145832D01*
X166746530Y-90645012D01*
X166765542Y-90632778D01*
X166837017Y-90528172D01*
X166862162Y-90404000D01*
X166862162Y-88992936D01*
X166893838Y-88961260D01*
X166893838Y-90404000D01*
X166893838Y-90404000D01*
G37*
X166893838Y-90404000D02*
X166915665Y-90520002D01*
X166984222Y-90626542D01*
X167088828Y-90698017D01*
X167213000Y-90723162D01*
X167813000Y-90723162D01*
X167929002Y-90701335D01*
X168035542Y-90632778D01*
X168107017Y-90528172D01*
X168132162Y-90404000D01*
X168132162Y-89018336D01*
X168163838Y-88986660D01*
X168163838Y-90404000D01*
X168185665Y-90520002D01*
X168254222Y-90626542D01*
X168279470Y-90643793D01*
X168279470Y-91211400D01*
X168317799Y-91404093D01*
X168399728Y-91526707D01*
X168426951Y-91567449D01*
X168677884Y-91818382D01*
X168677864Y-91840804D01*
X168770995Y-92066200D01*
X168943293Y-92238799D01*
X169168526Y-92332323D01*
X169412404Y-92332536D01*
X169637800Y-92239405D01*
X169810399Y-92067107D01*
X169903923Y-91841874D01*
X169904136Y-91597996D01*
X169845768Y-91456735D01*
X170051730Y-91250773D01*
X170051730Y-89630270D01*
X170031730Y-89630270D01*
X170031730Y-89627730D01*
X170051730Y-89627730D01*
X170051730Y-89607730D01*
X170054270Y-89607730D01*
X170054270Y-89627730D01*
X170074270Y-89627730D01*
X170074270Y-89630270D01*
X170054270Y-89630270D01*
X170054270Y-91250773D01*
X170336527Y-91533030D01*
X170577578Y-91533030D01*
X170992544Y-91361145D01*
X171310145Y-91043544D01*
X171482030Y-90628578D01*
X171482030Y-90490054D01*
X171487665Y-90520002D01*
X171556222Y-90626542D01*
X171581470Y-90643793D01*
X171581470Y-91968031D01*
X171216032Y-92333470D01*
X166934169Y-92333470D01*
X166746530Y-92145832D01*
X166746530Y-90645012D01*
X166765542Y-90632778D01*
X166837017Y-90528172D01*
X166862162Y-90404000D01*
X166862162Y-88992936D01*
X166893838Y-88961260D01*
X166893838Y-90404000D01*
G36*
X175896270Y-89627730D02*
X175916270Y-89627730D01*
X175916270Y-89630270D01*
X175896270Y-89630270D01*
X175896270Y-91250773D01*
X176178527Y-91533030D01*
X176419578Y-91533030D01*
X176834544Y-91361145D01*
X177152145Y-91043544D01*
X177324030Y-90628578D01*
X177324030Y-90490054D01*
X177329665Y-90520002D01*
X177398222Y-90626542D01*
X177502828Y-90698017D01*
X177627000Y-90723162D01*
X178227000Y-90723162D01*
X178343002Y-90701335D01*
X178449542Y-90632778D01*
X178477570Y-90591758D01*
X178477570Y-90982800D01*
X178532333Y-91258114D01*
X178688286Y-91491514D01*
X178828544Y-91631772D01*
X174967039Y-91631772D01*
X174971800Y-91629805D01*
X175144399Y-91457507D01*
X175150811Y-91442064D01*
X175370422Y-91533030D01*
X175611473Y-91533030D01*
X175893730Y-91250773D01*
X175893730Y-89630270D01*
X175873730Y-89630270D01*
X175873730Y-89627730D01*
X175893730Y-89627730D01*
X175893730Y-89607730D01*
X175896270Y-89607730D01*
X175896270Y-89627730D01*
X175896270Y-89627730D01*
G37*
X175896270Y-89627730D02*
X175916270Y-89627730D01*
X175916270Y-89630270D01*
X175896270Y-89630270D01*
X175896270Y-91250773D01*
X176178527Y-91533030D01*
X176419578Y-91533030D01*
X176834544Y-91361145D01*
X177152145Y-91043544D01*
X177324030Y-90628578D01*
X177324030Y-90490054D01*
X177329665Y-90520002D01*
X177398222Y-90626542D01*
X177502828Y-90698017D01*
X177627000Y-90723162D01*
X178227000Y-90723162D01*
X178343002Y-90701335D01*
X178449542Y-90632778D01*
X178477570Y-90591758D01*
X178477570Y-90982800D01*
X178532333Y-91258114D01*
X178688286Y-91491514D01*
X178828544Y-91631772D01*
X174967039Y-91631772D01*
X174971800Y-91629805D01*
X175144399Y-91457507D01*
X175150811Y-91442064D01*
X175370422Y-91533030D01*
X175611473Y-91533030D01*
X175893730Y-91250773D01*
X175893730Y-89630270D01*
X175873730Y-89630270D01*
X175873730Y-89627730D01*
X175893730Y-89627730D01*
X175893730Y-89607730D01*
X175896270Y-89607730D01*
X175896270Y-89627730D01*
G36*
X158497270Y-88983730D02*
X158517270Y-88983730D01*
X158517270Y-88986270D01*
X158497270Y-88986270D01*
X158497270Y-89006270D01*
X158494730Y-89006270D01*
X158494730Y-88986270D01*
X158474730Y-88986270D01*
X158474730Y-88983730D01*
X158494730Y-88983730D01*
X158494730Y-88963730D01*
X158497270Y-88963730D01*
X158497270Y-88983730D01*
X158497270Y-88983730D01*
G37*
X158497270Y-88983730D02*
X158517270Y-88983730D01*
X158517270Y-88986270D01*
X158497270Y-88986270D01*
X158497270Y-89006270D01*
X158494730Y-89006270D01*
X158494730Y-88986270D01*
X158474730Y-88986270D01*
X158474730Y-88983730D01*
X158494730Y-88983730D01*
X158494730Y-88963730D01*
X158497270Y-88963730D01*
X158497270Y-88983730D01*
G36*
X178312470Y-82377569D02*
X178312470Y-87294431D01*
X177718432Y-87888470D01*
X176814301Y-87888470D01*
X176419578Y-87724970D01*
X176402162Y-87724970D01*
X176402162Y-87521852D01*
X176722544Y-87389145D01*
X177040145Y-87071544D01*
X177212030Y-86656578D01*
X177212030Y-86490527D01*
X176929773Y-86208270D01*
X175359270Y-86208270D01*
X175359270Y-86228270D01*
X175356730Y-86228270D01*
X175356730Y-86208270D01*
X175336730Y-86208270D01*
X175336730Y-86205730D01*
X175356730Y-86205730D01*
X175356730Y-86185730D01*
X175359270Y-86185730D01*
X175359270Y-86205730D01*
X176929773Y-86205730D01*
X177212030Y-85923473D01*
X177212030Y-85757422D01*
X177040145Y-85342456D01*
X176722544Y-85024855D01*
X176402162Y-84892148D01*
X176402162Y-84682000D01*
X176382655Y-84578329D01*
X176402162Y-84482000D01*
X176402162Y-84032000D01*
X176382655Y-83928329D01*
X176402162Y-83832000D01*
X176402162Y-83382000D01*
X176382655Y-83278329D01*
X176402162Y-83182000D01*
X176402162Y-82732000D01*
X176382655Y-82628329D01*
X176402162Y-82532000D01*
X176402162Y-82160530D01*
X178095432Y-82160530D01*
X178312470Y-82377569D01*
X178312470Y-82377569D01*
G37*
X178312470Y-82377569D02*
X178312470Y-87294431D01*
X177718432Y-87888470D01*
X176814301Y-87888470D01*
X176419578Y-87724970D01*
X176402162Y-87724970D01*
X176402162Y-87521852D01*
X176722544Y-87389145D01*
X177040145Y-87071544D01*
X177212030Y-86656578D01*
X177212030Y-86490527D01*
X176929773Y-86208270D01*
X175359270Y-86208270D01*
X175359270Y-86228270D01*
X175356730Y-86228270D01*
X175356730Y-86208270D01*
X175336730Y-86208270D01*
X175336730Y-86205730D01*
X175356730Y-86205730D01*
X175356730Y-86185730D01*
X175359270Y-86185730D01*
X175359270Y-86205730D01*
X176929773Y-86205730D01*
X177212030Y-85923473D01*
X177212030Y-85757422D01*
X177040145Y-85342456D01*
X176722544Y-85024855D01*
X176402162Y-84892148D01*
X176402162Y-84682000D01*
X176382655Y-84578329D01*
X176402162Y-84482000D01*
X176402162Y-84032000D01*
X176382655Y-83928329D01*
X176402162Y-83832000D01*
X176402162Y-83382000D01*
X176382655Y-83278329D01*
X176402162Y-83182000D01*
X176402162Y-82732000D01*
X176382655Y-82628329D01*
X176402162Y-82532000D01*
X176402162Y-82160530D01*
X178095432Y-82160530D01*
X178312470Y-82377569D01*
G36*
X179455470Y-81869569D02*
X179455470Y-82042000D01*
X179493799Y-82234693D01*
X179576288Y-82358145D01*
X179602951Y-82398049D01*
X179867951Y-82663050D01*
X180031308Y-82772202D01*
X180213838Y-82808509D01*
X180213838Y-83182000D01*
X180233345Y-83285671D01*
X180213838Y-83382000D01*
X180213838Y-83832000D01*
X180233345Y-83935671D01*
X180213838Y-84032000D01*
X180213838Y-84482000D01*
X180233345Y-84585671D01*
X180213838Y-84682000D01*
X180213838Y-85132000D01*
X180233345Y-85235671D01*
X180213838Y-85332000D01*
X180213838Y-85782000D01*
X180233345Y-85885671D01*
X180213838Y-85982000D01*
X180213838Y-86432000D01*
X180233345Y-86535671D01*
X180213838Y-86632000D01*
X180213838Y-87082000D01*
X180233345Y-87185671D01*
X180213838Y-87282000D01*
X180213838Y-87732000D01*
X180214604Y-87736070D01*
X180068504Y-87736070D01*
X180027307Y-87694801D01*
X179802074Y-87601277D01*
X179558196Y-87601064D01*
X179332800Y-87694195D01*
X179180848Y-87845882D01*
X179254221Y-87736071D01*
X179281201Y-87695693D01*
X179319530Y-87503000D01*
X179319530Y-82169000D01*
X179281201Y-81976307D01*
X179226625Y-81894629D01*
X179172049Y-81812950D01*
X178660049Y-81300951D01*
X178598717Y-81259970D01*
X178496693Y-81191799D01*
X178304000Y-81153470D01*
X176229838Y-81153470D01*
X176207172Y-81137983D01*
X176083000Y-81112838D01*
X174633000Y-81112838D01*
X174516998Y-81134665D01*
X174410458Y-81203222D01*
X174338983Y-81307828D01*
X174313838Y-81432000D01*
X174313838Y-81882000D01*
X174333345Y-81985671D01*
X174313838Y-82082000D01*
X174313838Y-82453470D01*
X173958973Y-82453470D01*
X173941773Y-82436270D01*
X172721270Y-82436270D01*
X172721270Y-82456270D01*
X172718730Y-82456270D01*
X172718730Y-82436270D01*
X172698730Y-82436270D01*
X172698730Y-82433730D01*
X172718730Y-82433730D01*
X172718730Y-82413730D01*
X172721270Y-82413730D01*
X172721270Y-82433730D01*
X173941773Y-82433730D01*
X174224030Y-82151473D01*
X174224030Y-81810422D01*
X174052145Y-81395456D01*
X174001894Y-81345205D01*
X174325569Y-81021530D01*
X178607432Y-81021530D01*
X179455470Y-81869569D01*
X179455470Y-81869569D01*
G37*
X179455470Y-81869569D02*
X179455470Y-82042000D01*
X179493799Y-82234693D01*
X179576288Y-82358145D01*
X179602951Y-82398049D01*
X179867951Y-82663050D01*
X180031308Y-82772202D01*
X180213838Y-82808509D01*
X180213838Y-83182000D01*
X180233345Y-83285671D01*
X180213838Y-83382000D01*
X180213838Y-83832000D01*
X180233345Y-83935671D01*
X180213838Y-84032000D01*
X180213838Y-84482000D01*
X180233345Y-84585671D01*
X180213838Y-84682000D01*
X180213838Y-85132000D01*
X180233345Y-85235671D01*
X180213838Y-85332000D01*
X180213838Y-85782000D01*
X180233345Y-85885671D01*
X180213838Y-85982000D01*
X180213838Y-86432000D01*
X180233345Y-86535671D01*
X180213838Y-86632000D01*
X180213838Y-87082000D01*
X180233345Y-87185671D01*
X180213838Y-87282000D01*
X180213838Y-87732000D01*
X180214604Y-87736070D01*
X180068504Y-87736070D01*
X180027307Y-87694801D01*
X179802074Y-87601277D01*
X179558196Y-87601064D01*
X179332800Y-87694195D01*
X179180848Y-87845882D01*
X179254221Y-87736071D01*
X179281201Y-87695693D01*
X179319530Y-87503000D01*
X179319530Y-82169000D01*
X179281201Y-81976307D01*
X179226625Y-81894629D01*
X179172049Y-81812950D01*
X178660049Y-81300951D01*
X178598717Y-81259970D01*
X178496693Y-81191799D01*
X178304000Y-81153470D01*
X176229838Y-81153470D01*
X176207172Y-81137983D01*
X176083000Y-81112838D01*
X174633000Y-81112838D01*
X174516998Y-81134665D01*
X174410458Y-81203222D01*
X174338983Y-81307828D01*
X174313838Y-81432000D01*
X174313838Y-81882000D01*
X174333345Y-81985671D01*
X174313838Y-82082000D01*
X174313838Y-82453470D01*
X173958973Y-82453470D01*
X173941773Y-82436270D01*
X172721270Y-82436270D01*
X172721270Y-82456270D01*
X172718730Y-82456270D01*
X172718730Y-82436270D01*
X172698730Y-82436270D01*
X172698730Y-82433730D01*
X172718730Y-82433730D01*
X172718730Y-82413730D01*
X172721270Y-82413730D01*
X172721270Y-82433730D01*
X173941773Y-82433730D01*
X174224030Y-82151473D01*
X174224030Y-81810422D01*
X174052145Y-81395456D01*
X174001894Y-81345205D01*
X174325569Y-81021530D01*
X178607432Y-81021530D01*
X179455470Y-81869569D01*
G36*
X171155270Y-87628730D02*
X171175270Y-87628730D01*
X171175270Y-87631270D01*
X171155270Y-87631270D01*
X171155270Y-87651270D01*
X171152730Y-87651270D01*
X171152730Y-87631270D01*
X171132730Y-87631270D01*
X171132730Y-87628730D01*
X171152730Y-87628730D01*
X171152730Y-87608730D01*
X171155270Y-87608730D01*
X171155270Y-87628730D01*
X171155270Y-87628730D01*
G37*
X171155270Y-87628730D02*
X171175270Y-87628730D01*
X171175270Y-87631270D01*
X171155270Y-87631270D01*
X171155270Y-87651270D01*
X171152730Y-87651270D01*
X171152730Y-87631270D01*
X171132730Y-87631270D01*
X171132730Y-87628730D01*
X171152730Y-87628730D01*
X171152730Y-87608730D01*
X171155270Y-87608730D01*
X171155270Y-87628730D01*
G36*
X186183270Y-87586730D02*
X186203270Y-87586730D01*
X186203270Y-87589270D01*
X186183270Y-87589270D01*
X186183270Y-87609270D01*
X186180730Y-87609270D01*
X186180730Y-87589270D01*
X186160730Y-87589270D01*
X186160730Y-87586730D01*
X186180730Y-87586730D01*
X186180730Y-87566730D01*
X186183270Y-87566730D01*
X186183270Y-87586730D01*
X186183270Y-87586730D01*
G37*
X186183270Y-87586730D02*
X186203270Y-87586730D01*
X186203270Y-87589270D01*
X186183270Y-87589270D01*
X186183270Y-87609270D01*
X186180730Y-87609270D01*
X186180730Y-87589270D01*
X186160730Y-87589270D01*
X186160730Y-87586730D01*
X186180730Y-87586730D01*
X186180730Y-87566730D01*
X186183270Y-87566730D01*
X186183270Y-87586730D01*
G36*
X168216670Y-87501730D02*
X168236670Y-87501730D01*
X168236670Y-87504270D01*
X168216670Y-87504270D01*
X168216670Y-87524270D01*
X168214130Y-87524270D01*
X168214130Y-87504270D01*
X168194130Y-87504270D01*
X168194130Y-87501730D01*
X168214130Y-87501730D01*
X168214130Y-87481730D01*
X168216670Y-87481730D01*
X168216670Y-87501730D01*
X168216670Y-87501730D01*
G37*
X168216670Y-87501730D02*
X168236670Y-87501730D01*
X168236670Y-87504270D01*
X168216670Y-87504270D01*
X168216670Y-87524270D01*
X168214130Y-87524270D01*
X168214130Y-87504270D01*
X168194130Y-87504270D01*
X168194130Y-87501730D01*
X168214130Y-87501730D01*
X168214130Y-87481730D01*
X168216670Y-87481730D01*
X168216670Y-87501730D01*
G36*
X188202601Y-83218293D02*
X188109077Y-83443526D01*
X188108864Y-83687404D01*
X188201995Y-83912800D01*
X188343269Y-84054321D01*
X188314886Y-84073286D01*
X188158933Y-84306686D01*
X188104170Y-84582000D01*
X188104170Y-84785200D01*
X188158933Y-85060514D01*
X188314886Y-85293914D01*
X189077442Y-86056470D01*
X188370527Y-86056470D01*
X188088270Y-86338727D01*
X188088270Y-87501730D01*
X188108270Y-87501730D01*
X188108270Y-87504270D01*
X188088270Y-87504270D01*
X188088270Y-87524270D01*
X188085730Y-87524270D01*
X188085730Y-87504270D01*
X188065730Y-87504270D01*
X188065730Y-87501730D01*
X188085730Y-87501730D01*
X188085730Y-86338727D01*
X187803473Y-86056470D01*
X187036922Y-86056470D01*
X186723022Y-86186492D01*
X186656578Y-86158970D01*
X186465527Y-86158970D01*
X186183272Y-86441225D01*
X186183272Y-86233157D01*
X186690714Y-85725714D01*
X186846667Y-85492314D01*
X186901430Y-85217000D01*
X186901430Y-84525162D01*
X187332000Y-84525162D01*
X187448002Y-84503335D01*
X187554542Y-84434778D01*
X187626017Y-84330172D01*
X187651162Y-84206000D01*
X187651162Y-83175430D01*
X188245539Y-83175430D01*
X188202601Y-83218293D01*
X188202601Y-83218293D01*
G37*
X188202601Y-83218293D02*
X188109077Y-83443526D01*
X188108864Y-83687404D01*
X188201995Y-83912800D01*
X188343269Y-84054321D01*
X188314886Y-84073286D01*
X188158933Y-84306686D01*
X188104170Y-84582000D01*
X188104170Y-84785200D01*
X188158933Y-85060514D01*
X188314886Y-85293914D01*
X189077442Y-86056470D01*
X188370527Y-86056470D01*
X188088270Y-86338727D01*
X188088270Y-87501730D01*
X188108270Y-87501730D01*
X188108270Y-87504270D01*
X188088270Y-87504270D01*
X188088270Y-87524270D01*
X188085730Y-87524270D01*
X188085730Y-87504270D01*
X188065730Y-87504270D01*
X188065730Y-87501730D01*
X188085730Y-87501730D01*
X188085730Y-86338727D01*
X187803473Y-86056470D01*
X187036922Y-86056470D01*
X186723022Y-86186492D01*
X186656578Y-86158970D01*
X186465527Y-86158970D01*
X186183272Y-86441225D01*
X186183272Y-86233157D01*
X186690714Y-85725714D01*
X186846667Y-85492314D01*
X186901430Y-85217000D01*
X186901430Y-84525162D01*
X187332000Y-84525162D01*
X187448002Y-84503335D01*
X187554542Y-84434778D01*
X187626017Y-84330172D01*
X187651162Y-84206000D01*
X187651162Y-83175430D01*
X188245539Y-83175430D01*
X188202601Y-83218293D01*
G36*
X159470239Y-58387115D02*
X159197497Y-58569355D01*
X158894619Y-59197823D01*
X161671000Y-61974204D01*
X164447381Y-59197823D01*
X164144503Y-58569355D01*
X163559828Y-58300030D01*
X175632905Y-58300030D01*
X175610838Y-58409000D01*
X175610838Y-59909000D01*
X175632665Y-60025002D01*
X175701222Y-60131542D01*
X175805828Y-60203017D01*
X175930000Y-60228162D01*
X177130000Y-60228162D01*
X177246002Y-60206335D01*
X177352542Y-60137778D01*
X177424017Y-60033172D01*
X177449162Y-59909000D01*
X177449162Y-58409000D01*
X177428658Y-58300030D01*
X178132905Y-58300030D01*
X178110838Y-58409000D01*
X178110838Y-59909000D01*
X178132665Y-60025002D01*
X178201222Y-60131542D01*
X178305828Y-60203017D01*
X178430000Y-60228162D01*
X179630000Y-60228162D01*
X179746002Y-60206335D01*
X179852542Y-60137778D01*
X179924017Y-60033172D01*
X179949162Y-59909000D01*
X179949162Y-58409000D01*
X179928658Y-58300030D01*
X180632905Y-58300030D01*
X180610838Y-58409000D01*
X180610838Y-59909000D01*
X180632665Y-60025002D01*
X180701222Y-60131542D01*
X180805828Y-60203017D01*
X180930000Y-60228162D01*
X182130000Y-60228162D01*
X182246002Y-60206335D01*
X182352542Y-60137778D01*
X182424017Y-60033172D01*
X182449162Y-59909000D01*
X182449162Y-58409000D01*
X182428658Y-58300030D01*
X184961586Y-58300030D01*
X184890686Y-58314133D01*
X184657286Y-58470086D01*
X183057086Y-60070286D01*
X182901133Y-60303686D01*
X182846370Y-60579000D01*
X182846370Y-77146602D01*
X182058147Y-77934825D01*
X181879314Y-77815333D01*
X181604000Y-77760570D01*
X179803162Y-77760570D01*
X179803162Y-77030000D01*
X179781335Y-76913998D01*
X179712778Y-76807458D01*
X179608172Y-76735983D01*
X179484000Y-76710838D01*
X177351030Y-76710838D01*
X177351030Y-76200000D01*
X177307867Y-75983007D01*
X177184951Y-75799049D01*
X177095705Y-75709803D01*
X177050005Y-75599200D01*
X176877707Y-75426601D01*
X176652474Y-75333077D01*
X176408596Y-75332864D01*
X176183200Y-75425995D01*
X176010601Y-75598293D01*
X175917077Y-75823526D01*
X175916864Y-76067404D01*
X176009995Y-76292800D01*
X176182293Y-76465399D01*
X176216970Y-76479798D01*
X176216970Y-76710838D01*
X174084000Y-76710838D01*
X173967998Y-76732665D01*
X173861458Y-76801222D01*
X173789983Y-76905828D01*
X173764838Y-77030000D01*
X173764838Y-78201734D01*
X172260131Y-79706442D01*
X172247544Y-79693855D01*
X171832578Y-79521970D01*
X171491527Y-79521970D01*
X171209270Y-79804227D01*
X171209270Y-80936970D01*
X171206730Y-80936970D01*
X171206730Y-79804227D01*
X170924473Y-79521970D01*
X170583422Y-79521970D01*
X170168456Y-79693855D01*
X169850855Y-80011456D01*
X169678970Y-80426422D01*
X169678970Y-80742473D01*
X169873467Y-80936970D01*
X169838422Y-80936970D01*
X169423456Y-81108855D01*
X169284030Y-81248281D01*
X169284030Y-80989422D01*
X169112145Y-80574456D01*
X168794544Y-80256855D01*
X168379578Y-80084970D01*
X167288527Y-80084970D01*
X167006270Y-80367227D01*
X167006270Y-82962730D01*
X167026270Y-82962730D01*
X167026270Y-82965270D01*
X167006270Y-82965270D01*
X167006270Y-85560773D01*
X167185838Y-85740341D01*
X167185838Y-86385873D01*
X166958255Y-86613456D01*
X166825548Y-86933838D01*
X166815400Y-86933838D01*
X166699398Y-86955665D01*
X166592858Y-87024222D01*
X166521383Y-87128828D01*
X166509002Y-87189970D01*
X166244412Y-87189970D01*
X166224778Y-87159458D01*
X166120172Y-87087983D01*
X166099530Y-87083803D01*
X166099530Y-86748162D01*
X166505000Y-86748162D01*
X166621002Y-86726335D01*
X166727542Y-86657778D01*
X166799017Y-86553172D01*
X166824162Y-86429000D01*
X166824162Y-85740341D01*
X167003730Y-85560773D01*
X167003730Y-82965270D01*
X165008227Y-82965270D01*
X164725970Y-83247527D01*
X164725970Y-84257872D01*
X163805052Y-83336954D01*
X163805050Y-83336951D01*
X161457521Y-80989422D01*
X164725970Y-80989422D01*
X164725970Y-82680473D01*
X165008227Y-82962730D01*
X167003730Y-82962730D01*
X167003730Y-80367227D01*
X166721473Y-80084970D01*
X165630422Y-80084970D01*
X165215456Y-80256855D01*
X164897855Y-80574456D01*
X164725970Y-80989422D01*
X161457521Y-80989422D01*
X160534362Y-80066264D01*
X160570815Y-79883000D01*
X160482285Y-79437928D01*
X160404844Y-79322030D01*
X160459578Y-79322030D01*
X160874544Y-79150145D01*
X161192145Y-78832544D01*
X161364030Y-78417578D01*
X161364030Y-77626527D01*
X161081773Y-77344270D01*
X159386270Y-77344270D01*
X159386270Y-77364270D01*
X159383730Y-77364270D01*
X159383730Y-77344270D01*
X159363730Y-77344270D01*
X159363730Y-77341730D01*
X159383730Y-77341730D01*
X159383730Y-77321730D01*
X159386270Y-77321730D01*
X159386270Y-77341730D01*
X161081773Y-77341730D01*
X161364030Y-77059473D01*
X161364030Y-76268422D01*
X161192145Y-75853456D01*
X161136189Y-75797500D01*
X161269145Y-75664544D01*
X161423023Y-75293051D01*
X164202686Y-78072714D01*
X164436086Y-78228667D01*
X164711400Y-78283430D01*
X165535838Y-78283430D01*
X165535838Y-79314000D01*
X165557665Y-79430002D01*
X165626222Y-79536542D01*
X165730828Y-79608017D01*
X165855000Y-79633162D01*
X168155000Y-79633162D01*
X168271002Y-79611335D01*
X168377542Y-79542778D01*
X168449017Y-79438172D01*
X168474162Y-79314000D01*
X168474162Y-78283430D01*
X170162200Y-78283430D01*
X170437514Y-78228667D01*
X170670914Y-78072714D01*
X177292714Y-71450914D01*
X177448667Y-71217514D01*
X177503430Y-70942200D01*
X177503430Y-70349162D01*
X179484000Y-70349162D01*
X179600002Y-70327335D01*
X179706542Y-70258778D01*
X179778017Y-70154172D01*
X179803162Y-70030000D01*
X179803162Y-67130000D01*
X179781335Y-67013998D01*
X179712778Y-66907458D01*
X179608172Y-66835983D01*
X179484000Y-66810838D01*
X174084000Y-66810838D01*
X173967998Y-66832665D01*
X173861458Y-66901222D01*
X173789983Y-67005828D01*
X173764838Y-67130000D01*
X173764838Y-70030000D01*
X173786665Y-70146002D01*
X173855222Y-70252542D01*
X173959828Y-70324017D01*
X174084000Y-70349162D01*
X176064570Y-70349162D01*
X176064570Y-70644202D01*
X169864202Y-76844570D01*
X168474162Y-76844570D01*
X168474162Y-75814000D01*
X168452335Y-75697998D01*
X168383778Y-75591458D01*
X168279172Y-75519983D01*
X168155000Y-75494838D01*
X167699030Y-75494838D01*
X167699030Y-75312412D01*
X167729542Y-75292778D01*
X167801017Y-75188172D01*
X167826162Y-75064000D01*
X167826162Y-74995851D01*
X167970456Y-75140145D01*
X168385422Y-75312030D01*
X168626473Y-75312030D01*
X168908730Y-75029773D01*
X168908730Y-73984270D01*
X168911270Y-73984270D01*
X168911270Y-75029773D01*
X169193527Y-75312030D01*
X169434578Y-75312030D01*
X169849544Y-75140145D01*
X170167145Y-74822544D01*
X170339030Y-74407578D01*
X170339030Y-74266527D01*
X170056773Y-73984270D01*
X168911270Y-73984270D01*
X168908730Y-73984270D01*
X168888730Y-73984270D01*
X168888730Y-73981730D01*
X168908730Y-73981730D01*
X168908730Y-73961730D01*
X168911270Y-73961730D01*
X168911270Y-73981730D01*
X170056773Y-73981730D01*
X170339030Y-73699473D01*
X170339030Y-73655530D01*
X170688000Y-73655530D01*
X170880693Y-73617201D01*
X171044049Y-73508049D01*
X171806050Y-72746049D01*
X171885281Y-72627471D01*
X171915201Y-72582693D01*
X171953530Y-72390000D01*
X171953530Y-69850000D01*
X171915201Y-69657307D01*
X171809107Y-69498527D01*
X171806049Y-69493950D01*
X170040049Y-67727951D01*
X169876693Y-67618799D01*
X169684000Y-67580470D01*
X169584682Y-67580470D01*
X169582335Y-67567998D01*
X169513778Y-67461458D01*
X169409172Y-67389983D01*
X169285000Y-67364838D01*
X168535000Y-67364838D01*
X168504034Y-67370665D01*
X168621800Y-67322005D01*
X168794399Y-67149707D01*
X168887923Y-66924474D01*
X168888136Y-66680596D01*
X168795005Y-66455200D01*
X168622707Y-66282601D01*
X168397474Y-66189077D01*
X168153596Y-66188864D01*
X167928200Y-66281995D01*
X167911696Y-66298470D01*
X167515012Y-66298470D01*
X167503030Y-66279850D01*
X167503030Y-66277422D01*
X167455440Y-66162530D01*
X171831000Y-66162530D01*
X172023693Y-66124201D01*
X172187049Y-66015049D01*
X173293098Y-64909000D01*
X175610838Y-64909000D01*
X175610838Y-66409000D01*
X175632665Y-66525002D01*
X175701222Y-66631542D01*
X175805828Y-66703017D01*
X175930000Y-66728162D01*
X177130000Y-66728162D01*
X177246002Y-66706335D01*
X177352542Y-66637778D01*
X177424017Y-66533172D01*
X177449162Y-66409000D01*
X177449162Y-64909000D01*
X177427335Y-64792998D01*
X177358778Y-64686458D01*
X177254172Y-64614983D01*
X177130000Y-64589838D01*
X175930000Y-64589838D01*
X175813998Y-64611665D01*
X175707458Y-64680222D01*
X175635983Y-64784828D01*
X175610838Y-64909000D01*
X173293098Y-64909000D01*
X173817569Y-64384530D01*
X177972432Y-64384530D01*
X178244371Y-64656469D01*
X178207458Y-64680222D01*
X178135983Y-64784828D01*
X178110838Y-64909000D01*
X178110838Y-66409000D01*
X178132665Y-66525002D01*
X178201222Y-66631542D01*
X178305828Y-66703017D01*
X178430000Y-66728162D01*
X179630000Y-66728162D01*
X179746002Y-66706335D01*
X179852542Y-66637778D01*
X179924017Y-66533172D01*
X179949162Y-66409000D01*
X179949162Y-64909000D01*
X179927335Y-64792998D01*
X179858778Y-64686458D01*
X179754172Y-64614983D01*
X179630000Y-64589838D01*
X179505650Y-64589838D01*
X179495201Y-64537307D01*
X179436532Y-64449503D01*
X179386049Y-64373950D01*
X179141503Y-64129404D01*
X180361864Y-64129404D01*
X180454995Y-64354800D01*
X180627293Y-64527399D01*
X180825168Y-64609563D01*
X180813998Y-64611665D01*
X180707458Y-64680222D01*
X180635983Y-64784828D01*
X180610838Y-64909000D01*
X180610838Y-66409000D01*
X180632665Y-66525002D01*
X180701222Y-66631542D01*
X180805828Y-66703017D01*
X180930000Y-66728162D01*
X182130000Y-66728162D01*
X182246002Y-66706335D01*
X182352542Y-66637778D01*
X182424017Y-66533172D01*
X182449162Y-66409000D01*
X182449162Y-64909000D01*
X182427335Y-64792998D01*
X182358778Y-64686458D01*
X182254172Y-64614983D01*
X182130000Y-64589838D01*
X182033530Y-64589838D01*
X182033530Y-64563000D01*
X182026449Y-64527399D01*
X181995202Y-64370308D01*
X181886050Y-64206951D01*
X181588116Y-63909018D01*
X181588136Y-63886596D01*
X181495005Y-63661200D01*
X181322707Y-63488601D01*
X181097474Y-63395077D01*
X180853596Y-63394864D01*
X180628200Y-63487995D01*
X180455601Y-63660293D01*
X180362077Y-63885526D01*
X180361864Y-64129404D01*
X179141503Y-64129404D01*
X178537049Y-63524951D01*
X178481741Y-63487995D01*
X178373693Y-63415799D01*
X178181000Y-63377470D01*
X173609000Y-63377470D01*
X173416308Y-63415798D01*
X173252951Y-63524950D01*
X171622432Y-65155470D01*
X170151740Y-65155470D01*
X171045229Y-64786288D01*
X171978012Y-63855131D01*
X172483454Y-62637894D01*
X172484604Y-61319889D01*
X171981288Y-60101771D01*
X171050131Y-59168988D01*
X169832894Y-58663546D01*
X168514889Y-58662396D01*
X167296771Y-59165712D01*
X166363988Y-60096869D01*
X165858546Y-61314106D01*
X165857396Y-62632111D01*
X166000682Y-62978890D01*
X165545303Y-63434269D01*
X165764898Y-62957552D01*
X165828893Y-61316169D01*
X165259885Y-59775239D01*
X165077645Y-59502497D01*
X164449177Y-59199619D01*
X161672796Y-61976000D01*
X161686939Y-61990143D01*
X161685143Y-61991939D01*
X161671000Y-61977796D01*
X158894619Y-64754177D01*
X159197497Y-65382645D01*
X159890279Y-65701768D01*
X159765286Y-65785286D01*
X158495286Y-67055286D01*
X158339333Y-67288686D01*
X158284570Y-67564000D01*
X158284570Y-69469000D01*
X158339333Y-69744314D01*
X158495286Y-69977714D01*
X159223410Y-70705838D01*
X158712000Y-70705838D01*
X158595998Y-70727665D01*
X158489458Y-70796222D01*
X158417983Y-70900828D01*
X158392838Y-71025000D01*
X158392838Y-72025000D01*
X158414665Y-72141002D01*
X158483222Y-72247542D01*
X158587828Y-72319017D01*
X158712000Y-72344162D01*
X159737571Y-72344162D01*
X159754000Y-72347430D01*
X159770429Y-72344162D01*
X160312000Y-72344162D01*
X160428002Y-72322335D01*
X160534542Y-72253778D01*
X160606017Y-72149172D01*
X160631162Y-72025000D01*
X160631162Y-71717390D01*
X160670838Y-71658011D01*
X160670838Y-72055000D01*
X160692665Y-72171002D01*
X160761222Y-72277542D01*
X160865828Y-72349017D01*
X160990000Y-72374162D01*
X161045570Y-72374162D01*
X161045570Y-73161881D01*
X160951544Y-73067855D01*
X160536578Y-72895970D01*
X159795527Y-72895970D01*
X159513270Y-73178227D01*
X159513270Y-74523730D01*
X159533270Y-74523730D01*
X159533270Y-74526270D01*
X159513270Y-74526270D01*
X159513270Y-74546270D01*
X159510730Y-74546270D01*
X159510730Y-74526270D01*
X159490730Y-74526270D01*
X159490730Y-74523730D01*
X159510730Y-74523730D01*
X159510730Y-73178227D01*
X159228473Y-72895970D01*
X158487422Y-72895970D01*
X158072456Y-73067855D01*
X157754855Y-73385456D01*
X157614030Y-73725437D01*
X157614030Y-62909140D01*
X158082115Y-64176761D01*
X158264355Y-64449503D01*
X158892823Y-64752381D01*
X161669204Y-61976000D01*
X158892823Y-59199619D01*
X158264355Y-59502497D01*
X157614030Y-60914281D01*
X157614030Y-58300030D01*
X159706074Y-58300030D01*
X159470239Y-58387115D01*
X159470239Y-58387115D01*
G37*
X159470239Y-58387115D02*
X159197497Y-58569355D01*
X158894619Y-59197823D01*
X161671000Y-61974204D01*
X164447381Y-59197823D01*
X164144503Y-58569355D01*
X163559828Y-58300030D01*
X175632905Y-58300030D01*
X175610838Y-58409000D01*
X175610838Y-59909000D01*
X175632665Y-60025002D01*
X175701222Y-60131542D01*
X175805828Y-60203017D01*
X175930000Y-60228162D01*
X177130000Y-60228162D01*
X177246002Y-60206335D01*
X177352542Y-60137778D01*
X177424017Y-60033172D01*
X177449162Y-59909000D01*
X177449162Y-58409000D01*
X177428658Y-58300030D01*
X178132905Y-58300030D01*
X178110838Y-58409000D01*
X178110838Y-59909000D01*
X178132665Y-60025002D01*
X178201222Y-60131542D01*
X178305828Y-60203017D01*
X178430000Y-60228162D01*
X179630000Y-60228162D01*
X179746002Y-60206335D01*
X179852542Y-60137778D01*
X179924017Y-60033172D01*
X179949162Y-59909000D01*
X179949162Y-58409000D01*
X179928658Y-58300030D01*
X180632905Y-58300030D01*
X180610838Y-58409000D01*
X180610838Y-59909000D01*
X180632665Y-60025002D01*
X180701222Y-60131542D01*
X180805828Y-60203017D01*
X180930000Y-60228162D01*
X182130000Y-60228162D01*
X182246002Y-60206335D01*
X182352542Y-60137778D01*
X182424017Y-60033172D01*
X182449162Y-59909000D01*
X182449162Y-58409000D01*
X182428658Y-58300030D01*
X184961586Y-58300030D01*
X184890686Y-58314133D01*
X184657286Y-58470086D01*
X183057086Y-60070286D01*
X182901133Y-60303686D01*
X182846370Y-60579000D01*
X182846370Y-77146602D01*
X182058147Y-77934825D01*
X181879314Y-77815333D01*
X181604000Y-77760570D01*
X179803162Y-77760570D01*
X179803162Y-77030000D01*
X179781335Y-76913998D01*
X179712778Y-76807458D01*
X179608172Y-76735983D01*
X179484000Y-76710838D01*
X177351030Y-76710838D01*
X177351030Y-76200000D01*
X177307867Y-75983007D01*
X177184951Y-75799049D01*
X177095705Y-75709803D01*
X177050005Y-75599200D01*
X176877707Y-75426601D01*
X176652474Y-75333077D01*
X176408596Y-75332864D01*
X176183200Y-75425995D01*
X176010601Y-75598293D01*
X175917077Y-75823526D01*
X175916864Y-76067404D01*
X176009995Y-76292800D01*
X176182293Y-76465399D01*
X176216970Y-76479798D01*
X176216970Y-76710838D01*
X174084000Y-76710838D01*
X173967998Y-76732665D01*
X173861458Y-76801222D01*
X173789983Y-76905828D01*
X173764838Y-77030000D01*
X173764838Y-78201734D01*
X172260131Y-79706442D01*
X172247544Y-79693855D01*
X171832578Y-79521970D01*
X171491527Y-79521970D01*
X171209270Y-79804227D01*
X171209270Y-80936970D01*
X171206730Y-80936970D01*
X171206730Y-79804227D01*
X170924473Y-79521970D01*
X170583422Y-79521970D01*
X170168456Y-79693855D01*
X169850855Y-80011456D01*
X169678970Y-80426422D01*
X169678970Y-80742473D01*
X169873467Y-80936970D01*
X169838422Y-80936970D01*
X169423456Y-81108855D01*
X169284030Y-81248281D01*
X169284030Y-80989422D01*
X169112145Y-80574456D01*
X168794544Y-80256855D01*
X168379578Y-80084970D01*
X167288527Y-80084970D01*
X167006270Y-80367227D01*
X167006270Y-82962730D01*
X167026270Y-82962730D01*
X167026270Y-82965270D01*
X167006270Y-82965270D01*
X167006270Y-85560773D01*
X167185838Y-85740341D01*
X167185838Y-86385873D01*
X166958255Y-86613456D01*
X166825548Y-86933838D01*
X166815400Y-86933838D01*
X166699398Y-86955665D01*
X166592858Y-87024222D01*
X166521383Y-87128828D01*
X166509002Y-87189970D01*
X166244412Y-87189970D01*
X166224778Y-87159458D01*
X166120172Y-87087983D01*
X166099530Y-87083803D01*
X166099530Y-86748162D01*
X166505000Y-86748162D01*
X166621002Y-86726335D01*
X166727542Y-86657778D01*
X166799017Y-86553172D01*
X166824162Y-86429000D01*
X166824162Y-85740341D01*
X167003730Y-85560773D01*
X167003730Y-82965270D01*
X165008227Y-82965270D01*
X164725970Y-83247527D01*
X164725970Y-84257872D01*
X163805052Y-83336954D01*
X163805050Y-83336951D01*
X161457521Y-80989422D01*
X164725970Y-80989422D01*
X164725970Y-82680473D01*
X165008227Y-82962730D01*
X167003730Y-82962730D01*
X167003730Y-80367227D01*
X166721473Y-80084970D01*
X165630422Y-80084970D01*
X165215456Y-80256855D01*
X164897855Y-80574456D01*
X164725970Y-80989422D01*
X161457521Y-80989422D01*
X160534362Y-80066264D01*
X160570815Y-79883000D01*
X160482285Y-79437928D01*
X160404844Y-79322030D01*
X160459578Y-79322030D01*
X160874544Y-79150145D01*
X161192145Y-78832544D01*
X161364030Y-78417578D01*
X161364030Y-77626527D01*
X161081773Y-77344270D01*
X159386270Y-77344270D01*
X159386270Y-77364270D01*
X159383730Y-77364270D01*
X159383730Y-77344270D01*
X159363730Y-77344270D01*
X159363730Y-77341730D01*
X159383730Y-77341730D01*
X159383730Y-77321730D01*
X159386270Y-77321730D01*
X159386270Y-77341730D01*
X161081773Y-77341730D01*
X161364030Y-77059473D01*
X161364030Y-76268422D01*
X161192145Y-75853456D01*
X161136189Y-75797500D01*
X161269145Y-75664544D01*
X161423023Y-75293051D01*
X164202686Y-78072714D01*
X164436086Y-78228667D01*
X164711400Y-78283430D01*
X165535838Y-78283430D01*
X165535838Y-79314000D01*
X165557665Y-79430002D01*
X165626222Y-79536542D01*
X165730828Y-79608017D01*
X165855000Y-79633162D01*
X168155000Y-79633162D01*
X168271002Y-79611335D01*
X168377542Y-79542778D01*
X168449017Y-79438172D01*
X168474162Y-79314000D01*
X168474162Y-78283430D01*
X170162200Y-78283430D01*
X170437514Y-78228667D01*
X170670914Y-78072714D01*
X177292714Y-71450914D01*
X177448667Y-71217514D01*
X177503430Y-70942200D01*
X177503430Y-70349162D01*
X179484000Y-70349162D01*
X179600002Y-70327335D01*
X179706542Y-70258778D01*
X179778017Y-70154172D01*
X179803162Y-70030000D01*
X179803162Y-67130000D01*
X179781335Y-67013998D01*
X179712778Y-66907458D01*
X179608172Y-66835983D01*
X179484000Y-66810838D01*
X174084000Y-66810838D01*
X173967998Y-66832665D01*
X173861458Y-66901222D01*
X173789983Y-67005828D01*
X173764838Y-67130000D01*
X173764838Y-70030000D01*
X173786665Y-70146002D01*
X173855222Y-70252542D01*
X173959828Y-70324017D01*
X174084000Y-70349162D01*
X176064570Y-70349162D01*
X176064570Y-70644202D01*
X169864202Y-76844570D01*
X168474162Y-76844570D01*
X168474162Y-75814000D01*
X168452335Y-75697998D01*
X168383778Y-75591458D01*
X168279172Y-75519983D01*
X168155000Y-75494838D01*
X167699030Y-75494838D01*
X167699030Y-75312412D01*
X167729542Y-75292778D01*
X167801017Y-75188172D01*
X167826162Y-75064000D01*
X167826162Y-74995851D01*
X167970456Y-75140145D01*
X168385422Y-75312030D01*
X168626473Y-75312030D01*
X168908730Y-75029773D01*
X168908730Y-73984270D01*
X168911270Y-73984270D01*
X168911270Y-75029773D01*
X169193527Y-75312030D01*
X169434578Y-75312030D01*
X169849544Y-75140145D01*
X170167145Y-74822544D01*
X170339030Y-74407578D01*
X170339030Y-74266527D01*
X170056773Y-73984270D01*
X168911270Y-73984270D01*
X168908730Y-73984270D01*
X168888730Y-73984270D01*
X168888730Y-73981730D01*
X168908730Y-73981730D01*
X168908730Y-73961730D01*
X168911270Y-73961730D01*
X168911270Y-73981730D01*
X170056773Y-73981730D01*
X170339030Y-73699473D01*
X170339030Y-73655530D01*
X170688000Y-73655530D01*
X170880693Y-73617201D01*
X171044049Y-73508049D01*
X171806050Y-72746049D01*
X171885281Y-72627471D01*
X171915201Y-72582693D01*
X171953530Y-72390000D01*
X171953530Y-69850000D01*
X171915201Y-69657307D01*
X171809107Y-69498527D01*
X171806049Y-69493950D01*
X170040049Y-67727951D01*
X169876693Y-67618799D01*
X169684000Y-67580470D01*
X169584682Y-67580470D01*
X169582335Y-67567998D01*
X169513778Y-67461458D01*
X169409172Y-67389983D01*
X169285000Y-67364838D01*
X168535000Y-67364838D01*
X168504034Y-67370665D01*
X168621800Y-67322005D01*
X168794399Y-67149707D01*
X168887923Y-66924474D01*
X168888136Y-66680596D01*
X168795005Y-66455200D01*
X168622707Y-66282601D01*
X168397474Y-66189077D01*
X168153596Y-66188864D01*
X167928200Y-66281995D01*
X167911696Y-66298470D01*
X167515012Y-66298470D01*
X167503030Y-66279850D01*
X167503030Y-66277422D01*
X167455440Y-66162530D01*
X171831000Y-66162530D01*
X172023693Y-66124201D01*
X172187049Y-66015049D01*
X173293098Y-64909000D01*
X175610838Y-64909000D01*
X175610838Y-66409000D01*
X175632665Y-66525002D01*
X175701222Y-66631542D01*
X175805828Y-66703017D01*
X175930000Y-66728162D01*
X177130000Y-66728162D01*
X177246002Y-66706335D01*
X177352542Y-66637778D01*
X177424017Y-66533172D01*
X177449162Y-66409000D01*
X177449162Y-64909000D01*
X177427335Y-64792998D01*
X177358778Y-64686458D01*
X177254172Y-64614983D01*
X177130000Y-64589838D01*
X175930000Y-64589838D01*
X175813998Y-64611665D01*
X175707458Y-64680222D01*
X175635983Y-64784828D01*
X175610838Y-64909000D01*
X173293098Y-64909000D01*
X173817569Y-64384530D01*
X177972432Y-64384530D01*
X178244371Y-64656469D01*
X178207458Y-64680222D01*
X178135983Y-64784828D01*
X178110838Y-64909000D01*
X178110838Y-66409000D01*
X178132665Y-66525002D01*
X178201222Y-66631542D01*
X178305828Y-66703017D01*
X178430000Y-66728162D01*
X179630000Y-66728162D01*
X179746002Y-66706335D01*
X179852542Y-66637778D01*
X179924017Y-66533172D01*
X179949162Y-66409000D01*
X179949162Y-64909000D01*
X179927335Y-64792998D01*
X179858778Y-64686458D01*
X179754172Y-64614983D01*
X179630000Y-64589838D01*
X179505650Y-64589838D01*
X179495201Y-64537307D01*
X179436532Y-64449503D01*
X179386049Y-64373950D01*
X179141503Y-64129404D01*
X180361864Y-64129404D01*
X180454995Y-64354800D01*
X180627293Y-64527399D01*
X180825168Y-64609563D01*
X180813998Y-64611665D01*
X180707458Y-64680222D01*
X180635983Y-64784828D01*
X180610838Y-64909000D01*
X180610838Y-66409000D01*
X180632665Y-66525002D01*
X180701222Y-66631542D01*
X180805828Y-66703017D01*
X180930000Y-66728162D01*
X182130000Y-66728162D01*
X182246002Y-66706335D01*
X182352542Y-66637778D01*
X182424017Y-66533172D01*
X182449162Y-66409000D01*
X182449162Y-64909000D01*
X182427335Y-64792998D01*
X182358778Y-64686458D01*
X182254172Y-64614983D01*
X182130000Y-64589838D01*
X182033530Y-64589838D01*
X182033530Y-64563000D01*
X182026449Y-64527399D01*
X181995202Y-64370308D01*
X181886050Y-64206951D01*
X181588116Y-63909018D01*
X181588136Y-63886596D01*
X181495005Y-63661200D01*
X181322707Y-63488601D01*
X181097474Y-63395077D01*
X180853596Y-63394864D01*
X180628200Y-63487995D01*
X180455601Y-63660293D01*
X180362077Y-63885526D01*
X180361864Y-64129404D01*
X179141503Y-64129404D01*
X178537049Y-63524951D01*
X178481741Y-63487995D01*
X178373693Y-63415799D01*
X178181000Y-63377470D01*
X173609000Y-63377470D01*
X173416308Y-63415798D01*
X173252951Y-63524950D01*
X171622432Y-65155470D01*
X170151740Y-65155470D01*
X171045229Y-64786288D01*
X171978012Y-63855131D01*
X172483454Y-62637894D01*
X172484604Y-61319889D01*
X171981288Y-60101771D01*
X171050131Y-59168988D01*
X169832894Y-58663546D01*
X168514889Y-58662396D01*
X167296771Y-59165712D01*
X166363988Y-60096869D01*
X165858546Y-61314106D01*
X165857396Y-62632111D01*
X166000682Y-62978890D01*
X165545303Y-63434269D01*
X165764898Y-62957552D01*
X165828893Y-61316169D01*
X165259885Y-59775239D01*
X165077645Y-59502497D01*
X164449177Y-59199619D01*
X161672796Y-61976000D01*
X161686939Y-61990143D01*
X161685143Y-61991939D01*
X161671000Y-61977796D01*
X158894619Y-64754177D01*
X159197497Y-65382645D01*
X159890279Y-65701768D01*
X159765286Y-65785286D01*
X158495286Y-67055286D01*
X158339333Y-67288686D01*
X158284570Y-67564000D01*
X158284570Y-69469000D01*
X158339333Y-69744314D01*
X158495286Y-69977714D01*
X159223410Y-70705838D01*
X158712000Y-70705838D01*
X158595998Y-70727665D01*
X158489458Y-70796222D01*
X158417983Y-70900828D01*
X158392838Y-71025000D01*
X158392838Y-72025000D01*
X158414665Y-72141002D01*
X158483222Y-72247542D01*
X158587828Y-72319017D01*
X158712000Y-72344162D01*
X159737571Y-72344162D01*
X159754000Y-72347430D01*
X159770429Y-72344162D01*
X160312000Y-72344162D01*
X160428002Y-72322335D01*
X160534542Y-72253778D01*
X160606017Y-72149172D01*
X160631162Y-72025000D01*
X160631162Y-71717390D01*
X160670838Y-71658011D01*
X160670838Y-72055000D01*
X160692665Y-72171002D01*
X160761222Y-72277542D01*
X160865828Y-72349017D01*
X160990000Y-72374162D01*
X161045570Y-72374162D01*
X161045570Y-73161881D01*
X160951544Y-73067855D01*
X160536578Y-72895970D01*
X159795527Y-72895970D01*
X159513270Y-73178227D01*
X159513270Y-74523730D01*
X159533270Y-74523730D01*
X159533270Y-74526270D01*
X159513270Y-74526270D01*
X159513270Y-74546270D01*
X159510730Y-74546270D01*
X159510730Y-74526270D01*
X159490730Y-74526270D01*
X159490730Y-74523730D01*
X159510730Y-74523730D01*
X159510730Y-73178227D01*
X159228473Y-72895970D01*
X158487422Y-72895970D01*
X158072456Y-73067855D01*
X157754855Y-73385456D01*
X157614030Y-73725437D01*
X157614030Y-62909140D01*
X158082115Y-64176761D01*
X158264355Y-64449503D01*
X158892823Y-64752381D01*
X161669204Y-61976000D01*
X158892823Y-59199619D01*
X158264355Y-59502497D01*
X157614030Y-60914281D01*
X157614030Y-58300030D01*
X159706074Y-58300030D01*
X159470239Y-58387115D01*
G36*
X204589970Y-78825542D02*
X203272162Y-77507734D01*
X203272162Y-75306000D01*
X203250335Y-75189998D01*
X203181778Y-75083458D01*
X203077172Y-75011983D01*
X202953000Y-74986838D01*
X202522430Y-74986838D01*
X202522430Y-74873162D01*
X202953000Y-74873162D01*
X203069002Y-74851335D01*
X203175542Y-74782778D01*
X203247017Y-74678172D01*
X203272162Y-74554000D01*
X203272162Y-72352266D01*
X204292914Y-71331514D01*
X204448867Y-71098114D01*
X204503630Y-70822800D01*
X204503630Y-64897000D01*
X204448867Y-64621686D01*
X204292914Y-64388286D01*
X201306386Y-61401758D01*
X201226500Y-61000143D01*
X200974386Y-60622829D01*
X200597072Y-60370715D01*
X200152000Y-60282185D01*
X199706928Y-60370715D01*
X199329614Y-60622829D01*
X199077500Y-61000143D01*
X198988970Y-61445215D01*
X198988970Y-61490785D01*
X199077500Y-61935857D01*
X199329614Y-62313171D01*
X199706928Y-62565285D01*
X200152000Y-62653815D01*
X200461937Y-62592165D01*
X202394742Y-64524970D01*
X202086527Y-64524970D01*
X201804270Y-64807227D01*
X201804270Y-67402730D01*
X201824270Y-67402730D01*
X201824270Y-67405270D01*
X201804270Y-67405270D01*
X201804270Y-70000773D01*
X202086527Y-70283030D01*
X203064770Y-70283030D01*
X203064770Y-70524802D01*
X202854734Y-70734838D01*
X200653000Y-70734838D01*
X200536998Y-70756665D01*
X200430458Y-70825222D01*
X200358983Y-70929828D01*
X200333838Y-71054000D01*
X200333838Y-74554000D01*
X200355665Y-74670002D01*
X200424222Y-74776542D01*
X200528828Y-74848017D01*
X200653000Y-74873162D01*
X201083570Y-74873162D01*
X201083570Y-74986838D01*
X200653000Y-74986838D01*
X200536998Y-75008665D01*
X200430458Y-75077222D01*
X200358983Y-75181828D01*
X200333838Y-75306000D01*
X200333838Y-78806000D01*
X200355665Y-78922002D01*
X200424222Y-79028542D01*
X200528828Y-79100017D01*
X200653000Y-79125162D01*
X202854734Y-79125162D01*
X203496570Y-79766998D01*
X203496570Y-86944119D01*
X203331645Y-86545956D01*
X203014044Y-86228355D01*
X202692762Y-86095275D01*
X202692762Y-85957600D01*
X202670935Y-85841598D01*
X202602378Y-85735058D01*
X202577130Y-85717807D01*
X202577130Y-84525162D01*
X202953000Y-84525162D01*
X203069002Y-84503335D01*
X203175542Y-84434778D01*
X203247017Y-84330172D01*
X203272162Y-84206000D01*
X203272162Y-80706000D01*
X203250335Y-80589998D01*
X203181778Y-80483458D01*
X203077172Y-80411983D01*
X202953000Y-80386838D01*
X200653000Y-80386838D01*
X200536998Y-80408665D01*
X200430458Y-80477222D01*
X200358983Y-80581828D01*
X200333838Y-80706000D01*
X200333838Y-81736570D01*
X198192162Y-81736570D01*
X198192162Y-80706000D01*
X198170335Y-80589998D01*
X198101778Y-80483458D01*
X197997172Y-80411983D01*
X197873000Y-80386838D01*
X195573000Y-80386838D01*
X195456998Y-80408665D01*
X195350458Y-80477222D01*
X195278983Y-80581828D01*
X195253838Y-80706000D01*
X195253838Y-81736570D01*
X192731162Y-81736570D01*
X192731162Y-80706000D01*
X192709335Y-80589998D01*
X192640778Y-80483458D01*
X192536172Y-80411983D01*
X192412000Y-80386838D01*
X190112000Y-80386838D01*
X189995998Y-80408665D01*
X189889458Y-80477222D01*
X189817983Y-80581828D01*
X189792838Y-80706000D01*
X189792838Y-81736570D01*
X187651162Y-81736570D01*
X187651162Y-80706000D01*
X187629335Y-80589998D01*
X187560778Y-80483458D01*
X187456172Y-80411983D01*
X187332000Y-80386838D01*
X185032000Y-80386838D01*
X184915998Y-80408665D01*
X184809458Y-80477222D01*
X184737983Y-80581828D01*
X184712838Y-80706000D01*
X184712838Y-84206000D01*
X184734665Y-84322002D01*
X184803222Y-84428542D01*
X184907828Y-84500017D01*
X185032000Y-84525162D01*
X185462570Y-84525162D01*
X185462570Y-84919002D01*
X184749133Y-85632439D01*
X184720145Y-85562456D01*
X184402544Y-85244855D01*
X184082162Y-85112148D01*
X184082162Y-84702000D01*
X184060335Y-84585998D01*
X183991778Y-84479458D01*
X183891530Y-84410961D01*
X183891530Y-83058000D01*
X183853201Y-82865307D01*
X183816600Y-82810530D01*
X183744049Y-82701950D01*
X182993049Y-81950951D01*
X182945936Y-81919471D01*
X182829693Y-81841799D01*
X182637000Y-81803470D01*
X182302162Y-81803470D01*
X182302162Y-81432000D01*
X182280335Y-81315998D01*
X182211778Y-81209458D01*
X182107172Y-81137983D01*
X181983000Y-81112838D01*
X180533000Y-81112838D01*
X180416998Y-81134665D01*
X180310458Y-81203222D01*
X180271028Y-81260929D01*
X179259260Y-80249162D01*
X179484000Y-80249162D01*
X179600002Y-80227335D01*
X179706542Y-80158778D01*
X179778017Y-80054172D01*
X179803162Y-79930000D01*
X179803162Y-79199430D01*
X181306002Y-79199430D01*
X181558486Y-79451914D01*
X181791886Y-79607867D01*
X182067200Y-79662630D01*
X182342514Y-79607867D01*
X182575914Y-79451914D01*
X184074514Y-77953314D01*
X184230467Y-77719914D01*
X184285230Y-77444600D01*
X184285230Y-70003919D01*
X184392456Y-70111145D01*
X184807422Y-70283030D01*
X185898473Y-70283030D01*
X186180730Y-70000773D01*
X186180730Y-67405270D01*
X186160730Y-67405270D01*
X186160730Y-67402730D01*
X186180730Y-67402730D01*
X186180730Y-67382730D01*
X186183270Y-67382730D01*
X186183270Y-67402730D01*
X186203270Y-67402730D01*
X186203270Y-67405270D01*
X186183270Y-67405270D01*
X186183270Y-70000773D01*
X186465527Y-70283030D01*
X187556578Y-70283030D01*
X187799370Y-70182462D01*
X187799370Y-71050602D01*
X187651162Y-71198810D01*
X187651162Y-71054000D01*
X187629335Y-70937998D01*
X187560778Y-70831458D01*
X187456172Y-70759983D01*
X187332000Y-70734838D01*
X185032000Y-70734838D01*
X184915998Y-70756665D01*
X184809458Y-70825222D01*
X184737983Y-70929828D01*
X184712838Y-71054000D01*
X184712838Y-74554000D01*
X184734665Y-74670002D01*
X184803222Y-74776542D01*
X184907828Y-74848017D01*
X185032000Y-74873162D01*
X185420674Y-74873162D01*
X185443285Y-74986838D01*
X185032000Y-74986838D01*
X184915998Y-75008665D01*
X184809458Y-75077222D01*
X184737983Y-75181828D01*
X184712838Y-75306000D01*
X184712838Y-78806000D01*
X184734665Y-78922002D01*
X184803222Y-79028542D01*
X184907828Y-79100017D01*
X185032000Y-79125162D01*
X187332000Y-79125162D01*
X187448002Y-79103335D01*
X187554542Y-79034778D01*
X187626017Y-78930172D01*
X187651162Y-78806000D01*
X187651162Y-75547830D01*
X187662002Y-75547830D01*
X188137086Y-76022914D01*
X188370486Y-76178867D01*
X188645800Y-76233630D01*
X188921114Y-76178867D01*
X189154514Y-76022914D01*
X189310467Y-75789514D01*
X189365230Y-75514200D01*
X189310467Y-75238886D01*
X189154514Y-75005486D01*
X188468714Y-74319686D01*
X188235314Y-74163733D01*
X187960000Y-74108970D01*
X187651162Y-74108970D01*
X187651162Y-73233666D01*
X189027514Y-71857314D01*
X189183467Y-71623914D01*
X189238230Y-71348600D01*
X189238230Y-69876919D01*
X189472456Y-70111145D01*
X189887422Y-70283030D01*
X190978473Y-70283030D01*
X191260730Y-70000773D01*
X191260730Y-67405270D01*
X191240730Y-67405270D01*
X191240730Y-67402730D01*
X191260730Y-67402730D01*
X191260730Y-64807227D01*
X190978473Y-64524970D01*
X189887422Y-64524970D01*
X189472456Y-64696855D01*
X189238230Y-64931081D01*
X189238230Y-62534800D01*
X189197906Y-62332075D01*
X189546928Y-62565285D01*
X189992000Y-62653815D01*
X190090078Y-62634306D01*
X191980742Y-64524970D01*
X191545527Y-64524970D01*
X191263270Y-64807227D01*
X191263270Y-67402730D01*
X191283270Y-67402730D01*
X191283270Y-67405270D01*
X191263270Y-67405270D01*
X191263270Y-70000773D01*
X191545527Y-70283030D01*
X192636578Y-70283030D01*
X192856734Y-70191838D01*
X192313734Y-70734838D01*
X190112000Y-70734838D01*
X189995998Y-70756665D01*
X189889458Y-70825222D01*
X189817983Y-70929828D01*
X189792838Y-71054000D01*
X189792838Y-74554000D01*
X189814665Y-74670002D01*
X189883222Y-74776542D01*
X189987828Y-74848017D01*
X190112000Y-74873162D01*
X190542570Y-74873162D01*
X190542570Y-74986838D01*
X190112000Y-74986838D01*
X189995998Y-75008665D01*
X189889458Y-75077222D01*
X189817983Y-75181828D01*
X189792838Y-75306000D01*
X189792838Y-78806000D01*
X189814665Y-78922002D01*
X189883222Y-79028542D01*
X189987828Y-79100017D01*
X190112000Y-79125162D01*
X192412000Y-79125162D01*
X192528002Y-79103335D01*
X192634542Y-79034778D01*
X192706017Y-78930172D01*
X192731162Y-78806000D01*
X192731162Y-75598630D01*
X192996002Y-75598630D01*
X193090086Y-75692714D01*
X193323486Y-75848667D01*
X193598800Y-75903430D01*
X193874114Y-75848667D01*
X194107514Y-75692714D01*
X194263467Y-75459314D01*
X194318230Y-75184000D01*
X194263467Y-74908686D01*
X194107514Y-74675286D01*
X193802714Y-74370486D01*
X193569314Y-74214533D01*
X193294000Y-74159770D01*
X192731162Y-74159770D01*
X192731162Y-72352266D01*
X194590114Y-70493314D01*
X194746067Y-70259914D01*
X194800830Y-69984600D01*
X194800830Y-69978519D01*
X194933456Y-70111145D01*
X195348422Y-70283030D01*
X196439473Y-70283030D01*
X196721730Y-70000773D01*
X196721730Y-67405270D01*
X196701730Y-67405270D01*
X196701730Y-67402730D01*
X196721730Y-67402730D01*
X196721730Y-64807227D01*
X196439473Y-64524970D01*
X195348422Y-64524970D01*
X194933456Y-64696855D01*
X194615855Y-65014456D01*
X194583411Y-65092783D01*
X191993458Y-62502830D01*
X192086928Y-62565285D01*
X192532000Y-62653815D01*
X192977072Y-62565285D01*
X193322839Y-62334250D01*
X193385263Y-62503123D01*
X193909783Y-63069815D01*
X194611240Y-63392645D01*
X194761157Y-63422466D01*
X195070730Y-63164773D01*
X195070730Y-61469270D01*
X195050730Y-61469270D01*
X195050730Y-61466730D01*
X195070730Y-61466730D01*
X195070730Y-59771227D01*
X195073270Y-59771227D01*
X195073270Y-61466730D01*
X195093270Y-61466730D01*
X195093270Y-61469270D01*
X195073270Y-61469270D01*
X195073270Y-63164773D01*
X195382843Y-63422466D01*
X195532760Y-63392645D01*
X196234217Y-63069815D01*
X196758737Y-62503123D01*
X196821161Y-62334250D01*
X196892570Y-62381964D01*
X196892570Y-63449200D01*
X196947333Y-63724514D01*
X197103286Y-63957914D01*
X197670342Y-64524970D01*
X197006527Y-64524970D01*
X196724270Y-64807227D01*
X196724270Y-67402730D01*
X196744270Y-67402730D01*
X196744270Y-67405270D01*
X196724270Y-67405270D01*
X196724270Y-70000773D01*
X197006527Y-70283030D01*
X198097578Y-70283030D01*
X198317734Y-70191838D01*
X197774734Y-70734838D01*
X195573000Y-70734838D01*
X195456998Y-70756665D01*
X195350458Y-70825222D01*
X195278983Y-70929828D01*
X195253838Y-71054000D01*
X195253838Y-74554000D01*
X195275665Y-74670002D01*
X195344222Y-74776542D01*
X195448828Y-74848017D01*
X195573000Y-74873162D01*
X196003570Y-74873162D01*
X196003570Y-74986838D01*
X195573000Y-74986838D01*
X195456998Y-75008665D01*
X195350458Y-75077222D01*
X195278983Y-75181828D01*
X195253838Y-75306000D01*
X195253838Y-78806000D01*
X195275665Y-78922002D01*
X195344222Y-79028542D01*
X195448828Y-79100017D01*
X195573000Y-79125162D01*
X197873000Y-79125162D01*
X197989002Y-79103335D01*
X198095542Y-79034778D01*
X198167017Y-78930172D01*
X198192162Y-78806000D01*
X198192162Y-75573230D01*
X199186800Y-75573230D01*
X199462114Y-75518467D01*
X199695514Y-75362514D01*
X199771714Y-75286314D01*
X199927667Y-75052914D01*
X199982430Y-74777600D01*
X199927667Y-74502286D01*
X199771714Y-74268886D01*
X199538314Y-74112933D01*
X199263000Y-74058170D01*
X198987686Y-74112933D01*
X198955603Y-74134370D01*
X198192162Y-74134370D01*
X198192162Y-72352266D01*
X199695514Y-70848914D01*
X199851467Y-70615514D01*
X199906230Y-70340200D01*
X199906230Y-70003919D01*
X200013456Y-70111145D01*
X200428422Y-70283030D01*
X201519473Y-70283030D01*
X201801730Y-70000773D01*
X201801730Y-67405270D01*
X201781730Y-67405270D01*
X201781730Y-67402730D01*
X201801730Y-67402730D01*
X201801730Y-64807227D01*
X201519473Y-64524970D01*
X200428422Y-64524970D01*
X200013456Y-64696855D01*
X199869744Y-64840567D01*
X199851467Y-64748686D01*
X199838981Y-64730000D01*
X199695514Y-64515286D01*
X199695511Y-64515284D01*
X198331430Y-63151202D01*
X198331430Y-62381964D01*
X198434386Y-62313171D01*
X198686500Y-61935857D01*
X198775030Y-61490785D01*
X198775030Y-61445215D01*
X198686500Y-61000143D01*
X198434386Y-60622829D01*
X198057072Y-60370715D01*
X197612000Y-60282185D01*
X197166928Y-60370715D01*
X196821161Y-60601750D01*
X196758737Y-60432877D01*
X196234217Y-59866185D01*
X195532760Y-59543355D01*
X195382843Y-59513534D01*
X195073270Y-59771227D01*
X195070730Y-59771227D01*
X194761157Y-59513534D01*
X194611240Y-59543355D01*
X193909783Y-59866185D01*
X193385263Y-60432877D01*
X193322839Y-60601750D01*
X193251430Y-60554036D01*
X193251430Y-59969400D01*
X193196667Y-59694086D01*
X193040714Y-59460686D01*
X192050114Y-58470086D01*
X191816714Y-58314133D01*
X191745813Y-58300030D01*
X204589970Y-58300030D01*
X204589970Y-78825542D01*
X204589970Y-78825542D01*
G37*
X204589970Y-78825542D02*
X203272162Y-77507734D01*
X203272162Y-75306000D01*
X203250335Y-75189998D01*
X203181778Y-75083458D01*
X203077172Y-75011983D01*
X202953000Y-74986838D01*
X202522430Y-74986838D01*
X202522430Y-74873162D01*
X202953000Y-74873162D01*
X203069002Y-74851335D01*
X203175542Y-74782778D01*
X203247017Y-74678172D01*
X203272162Y-74554000D01*
X203272162Y-72352266D01*
X204292914Y-71331514D01*
X204448867Y-71098114D01*
X204503630Y-70822800D01*
X204503630Y-64897000D01*
X204448867Y-64621686D01*
X204292914Y-64388286D01*
X201306386Y-61401758D01*
X201226500Y-61000143D01*
X200974386Y-60622829D01*
X200597072Y-60370715D01*
X200152000Y-60282185D01*
X199706928Y-60370715D01*
X199329614Y-60622829D01*
X199077500Y-61000143D01*
X198988970Y-61445215D01*
X198988970Y-61490785D01*
X199077500Y-61935857D01*
X199329614Y-62313171D01*
X199706928Y-62565285D01*
X200152000Y-62653815D01*
X200461937Y-62592165D01*
X202394742Y-64524970D01*
X202086527Y-64524970D01*
X201804270Y-64807227D01*
X201804270Y-67402730D01*
X201824270Y-67402730D01*
X201824270Y-67405270D01*
X201804270Y-67405270D01*
X201804270Y-70000773D01*
X202086527Y-70283030D01*
X203064770Y-70283030D01*
X203064770Y-70524802D01*
X202854734Y-70734838D01*
X200653000Y-70734838D01*
X200536998Y-70756665D01*
X200430458Y-70825222D01*
X200358983Y-70929828D01*
X200333838Y-71054000D01*
X200333838Y-74554000D01*
X200355665Y-74670002D01*
X200424222Y-74776542D01*
X200528828Y-74848017D01*
X200653000Y-74873162D01*
X201083570Y-74873162D01*
X201083570Y-74986838D01*
X200653000Y-74986838D01*
X200536998Y-75008665D01*
X200430458Y-75077222D01*
X200358983Y-75181828D01*
X200333838Y-75306000D01*
X200333838Y-78806000D01*
X200355665Y-78922002D01*
X200424222Y-79028542D01*
X200528828Y-79100017D01*
X200653000Y-79125162D01*
X202854734Y-79125162D01*
X203496570Y-79766998D01*
X203496570Y-86944119D01*
X203331645Y-86545956D01*
X203014044Y-86228355D01*
X202692762Y-86095275D01*
X202692762Y-85957600D01*
X202670935Y-85841598D01*
X202602378Y-85735058D01*
X202577130Y-85717807D01*
X202577130Y-84525162D01*
X202953000Y-84525162D01*
X203069002Y-84503335D01*
X203175542Y-84434778D01*
X203247017Y-84330172D01*
X203272162Y-84206000D01*
X203272162Y-80706000D01*
X203250335Y-80589998D01*
X203181778Y-80483458D01*
X203077172Y-80411983D01*
X202953000Y-80386838D01*
X200653000Y-80386838D01*
X200536998Y-80408665D01*
X200430458Y-80477222D01*
X200358983Y-80581828D01*
X200333838Y-80706000D01*
X200333838Y-81736570D01*
X198192162Y-81736570D01*
X198192162Y-80706000D01*
X198170335Y-80589998D01*
X198101778Y-80483458D01*
X197997172Y-80411983D01*
X197873000Y-80386838D01*
X195573000Y-80386838D01*
X195456998Y-80408665D01*
X195350458Y-80477222D01*
X195278983Y-80581828D01*
X195253838Y-80706000D01*
X195253838Y-81736570D01*
X192731162Y-81736570D01*
X192731162Y-80706000D01*
X192709335Y-80589998D01*
X192640778Y-80483458D01*
X192536172Y-80411983D01*
X192412000Y-80386838D01*
X190112000Y-80386838D01*
X189995998Y-80408665D01*
X189889458Y-80477222D01*
X189817983Y-80581828D01*
X189792838Y-80706000D01*
X189792838Y-81736570D01*
X187651162Y-81736570D01*
X187651162Y-80706000D01*
X187629335Y-80589998D01*
X187560778Y-80483458D01*
X187456172Y-80411983D01*
X187332000Y-80386838D01*
X185032000Y-80386838D01*
X184915998Y-80408665D01*
X184809458Y-80477222D01*
X184737983Y-80581828D01*
X184712838Y-80706000D01*
X184712838Y-84206000D01*
X184734665Y-84322002D01*
X184803222Y-84428542D01*
X184907828Y-84500017D01*
X185032000Y-84525162D01*
X185462570Y-84525162D01*
X185462570Y-84919002D01*
X184749133Y-85632439D01*
X184720145Y-85562456D01*
X184402544Y-85244855D01*
X184082162Y-85112148D01*
X184082162Y-84702000D01*
X184060335Y-84585998D01*
X183991778Y-84479458D01*
X183891530Y-84410961D01*
X183891530Y-83058000D01*
X183853201Y-82865307D01*
X183816600Y-82810530D01*
X183744049Y-82701950D01*
X182993049Y-81950951D01*
X182945936Y-81919471D01*
X182829693Y-81841799D01*
X182637000Y-81803470D01*
X182302162Y-81803470D01*
X182302162Y-81432000D01*
X182280335Y-81315998D01*
X182211778Y-81209458D01*
X182107172Y-81137983D01*
X181983000Y-81112838D01*
X180533000Y-81112838D01*
X180416998Y-81134665D01*
X180310458Y-81203222D01*
X180271028Y-81260929D01*
X179259260Y-80249162D01*
X179484000Y-80249162D01*
X179600002Y-80227335D01*
X179706542Y-80158778D01*
X179778017Y-80054172D01*
X179803162Y-79930000D01*
X179803162Y-79199430D01*
X181306002Y-79199430D01*
X181558486Y-79451914D01*
X181791886Y-79607867D01*
X182067200Y-79662630D01*
X182342514Y-79607867D01*
X182575914Y-79451914D01*
X184074514Y-77953314D01*
X184230467Y-77719914D01*
X184285230Y-77444600D01*
X184285230Y-70003919D01*
X184392456Y-70111145D01*
X184807422Y-70283030D01*
X185898473Y-70283030D01*
X186180730Y-70000773D01*
X186180730Y-67405270D01*
X186160730Y-67405270D01*
X186160730Y-67402730D01*
X186180730Y-67402730D01*
X186180730Y-67382730D01*
X186183270Y-67382730D01*
X186183270Y-67402730D01*
X186203270Y-67402730D01*
X186203270Y-67405270D01*
X186183270Y-67405270D01*
X186183270Y-70000773D01*
X186465527Y-70283030D01*
X187556578Y-70283030D01*
X187799370Y-70182462D01*
X187799370Y-71050602D01*
X187651162Y-71198810D01*
X187651162Y-71054000D01*
X187629335Y-70937998D01*
X187560778Y-70831458D01*
X187456172Y-70759983D01*
X187332000Y-70734838D01*
X185032000Y-70734838D01*
X184915998Y-70756665D01*
X184809458Y-70825222D01*
X184737983Y-70929828D01*
X184712838Y-71054000D01*
X184712838Y-74554000D01*
X184734665Y-74670002D01*
X184803222Y-74776542D01*
X184907828Y-74848017D01*
X185032000Y-74873162D01*
X185420674Y-74873162D01*
X185443285Y-74986838D01*
X185032000Y-74986838D01*
X184915998Y-75008665D01*
X184809458Y-75077222D01*
X184737983Y-75181828D01*
X184712838Y-75306000D01*
X184712838Y-78806000D01*
X184734665Y-78922002D01*
X184803222Y-79028542D01*
X184907828Y-79100017D01*
X185032000Y-79125162D01*
X187332000Y-79125162D01*
X187448002Y-79103335D01*
X187554542Y-79034778D01*
X187626017Y-78930172D01*
X187651162Y-78806000D01*
X187651162Y-75547830D01*
X187662002Y-75547830D01*
X188137086Y-76022914D01*
X188370486Y-76178867D01*
X188645800Y-76233630D01*
X188921114Y-76178867D01*
X189154514Y-76022914D01*
X189310467Y-75789514D01*
X189365230Y-75514200D01*
X189310467Y-75238886D01*
X189154514Y-75005486D01*
X188468714Y-74319686D01*
X188235314Y-74163733D01*
X187960000Y-74108970D01*
X187651162Y-74108970D01*
X187651162Y-73233666D01*
X189027514Y-71857314D01*
X189183467Y-71623914D01*
X189238230Y-71348600D01*
X189238230Y-69876919D01*
X189472456Y-70111145D01*
X189887422Y-70283030D01*
X190978473Y-70283030D01*
X191260730Y-70000773D01*
X191260730Y-67405270D01*
X191240730Y-67405270D01*
X191240730Y-67402730D01*
X191260730Y-67402730D01*
X191260730Y-64807227D01*
X190978473Y-64524970D01*
X189887422Y-64524970D01*
X189472456Y-64696855D01*
X189238230Y-64931081D01*
X189238230Y-62534800D01*
X189197906Y-62332075D01*
X189546928Y-62565285D01*
X189992000Y-62653815D01*
X190090078Y-62634306D01*
X191980742Y-64524970D01*
X191545527Y-64524970D01*
X191263270Y-64807227D01*
X191263270Y-67402730D01*
X191283270Y-67402730D01*
X191283270Y-67405270D01*
X191263270Y-67405270D01*
X191263270Y-70000773D01*
X191545527Y-70283030D01*
X192636578Y-70283030D01*
X192856734Y-70191838D01*
X192313734Y-70734838D01*
X190112000Y-70734838D01*
X189995998Y-70756665D01*
X189889458Y-70825222D01*
X189817983Y-70929828D01*
X189792838Y-71054000D01*
X189792838Y-74554000D01*
X189814665Y-74670002D01*
X189883222Y-74776542D01*
X189987828Y-74848017D01*
X190112000Y-74873162D01*
X190542570Y-74873162D01*
X190542570Y-74986838D01*
X190112000Y-74986838D01*
X189995998Y-75008665D01*
X189889458Y-75077222D01*
X189817983Y-75181828D01*
X189792838Y-75306000D01*
X189792838Y-78806000D01*
X189814665Y-78922002D01*
X189883222Y-79028542D01*
X189987828Y-79100017D01*
X190112000Y-79125162D01*
X192412000Y-79125162D01*
X192528002Y-79103335D01*
X192634542Y-79034778D01*
X192706017Y-78930172D01*
X192731162Y-78806000D01*
X192731162Y-75598630D01*
X192996002Y-75598630D01*
X193090086Y-75692714D01*
X193323486Y-75848667D01*
X193598800Y-75903430D01*
X193874114Y-75848667D01*
X194107514Y-75692714D01*
X194263467Y-75459314D01*
X194318230Y-75184000D01*
X194263467Y-74908686D01*
X194107514Y-74675286D01*
X193802714Y-74370486D01*
X193569314Y-74214533D01*
X193294000Y-74159770D01*
X192731162Y-74159770D01*
X192731162Y-72352266D01*
X194590114Y-70493314D01*
X194746067Y-70259914D01*
X194800830Y-69984600D01*
X194800830Y-69978519D01*
X194933456Y-70111145D01*
X195348422Y-70283030D01*
X196439473Y-70283030D01*
X196721730Y-70000773D01*
X196721730Y-67405270D01*
X196701730Y-67405270D01*
X196701730Y-67402730D01*
X196721730Y-67402730D01*
X196721730Y-64807227D01*
X196439473Y-64524970D01*
X195348422Y-64524970D01*
X194933456Y-64696855D01*
X194615855Y-65014456D01*
X194583411Y-65092783D01*
X191993458Y-62502830D01*
X192086928Y-62565285D01*
X192532000Y-62653815D01*
X192977072Y-62565285D01*
X193322839Y-62334250D01*
X193385263Y-62503123D01*
X193909783Y-63069815D01*
X194611240Y-63392645D01*
X194761157Y-63422466D01*
X195070730Y-63164773D01*
X195070730Y-61469270D01*
X195050730Y-61469270D01*
X195050730Y-61466730D01*
X195070730Y-61466730D01*
X195070730Y-59771227D01*
X195073270Y-59771227D01*
X195073270Y-61466730D01*
X195093270Y-61466730D01*
X195093270Y-61469270D01*
X195073270Y-61469270D01*
X195073270Y-63164773D01*
X195382843Y-63422466D01*
X195532760Y-63392645D01*
X196234217Y-63069815D01*
X196758737Y-62503123D01*
X196821161Y-62334250D01*
X196892570Y-62381964D01*
X196892570Y-63449200D01*
X196947333Y-63724514D01*
X197103286Y-63957914D01*
X197670342Y-64524970D01*
X197006527Y-64524970D01*
X196724270Y-64807227D01*
X196724270Y-67402730D01*
X196744270Y-67402730D01*
X196744270Y-67405270D01*
X196724270Y-67405270D01*
X196724270Y-70000773D01*
X197006527Y-70283030D01*
X198097578Y-70283030D01*
X198317734Y-70191838D01*
X197774734Y-70734838D01*
X195573000Y-70734838D01*
X195456998Y-70756665D01*
X195350458Y-70825222D01*
X195278983Y-70929828D01*
X195253838Y-71054000D01*
X195253838Y-74554000D01*
X195275665Y-74670002D01*
X195344222Y-74776542D01*
X195448828Y-74848017D01*
X195573000Y-74873162D01*
X196003570Y-74873162D01*
X196003570Y-74986838D01*
X195573000Y-74986838D01*
X195456998Y-75008665D01*
X195350458Y-75077222D01*
X195278983Y-75181828D01*
X195253838Y-75306000D01*
X195253838Y-78806000D01*
X195275665Y-78922002D01*
X195344222Y-79028542D01*
X195448828Y-79100017D01*
X195573000Y-79125162D01*
X197873000Y-79125162D01*
X197989002Y-79103335D01*
X198095542Y-79034778D01*
X198167017Y-78930172D01*
X198192162Y-78806000D01*
X198192162Y-75573230D01*
X199186800Y-75573230D01*
X199462114Y-75518467D01*
X199695514Y-75362514D01*
X199771714Y-75286314D01*
X199927667Y-75052914D01*
X199982430Y-74777600D01*
X199927667Y-74502286D01*
X199771714Y-74268886D01*
X199538314Y-74112933D01*
X199263000Y-74058170D01*
X198987686Y-74112933D01*
X198955603Y-74134370D01*
X198192162Y-74134370D01*
X198192162Y-72352266D01*
X199695514Y-70848914D01*
X199851467Y-70615514D01*
X199906230Y-70340200D01*
X199906230Y-70003919D01*
X200013456Y-70111145D01*
X200428422Y-70283030D01*
X201519473Y-70283030D01*
X201801730Y-70000773D01*
X201801730Y-67405270D01*
X201781730Y-67405270D01*
X201781730Y-67402730D01*
X201801730Y-67402730D01*
X201801730Y-64807227D01*
X201519473Y-64524970D01*
X200428422Y-64524970D01*
X200013456Y-64696855D01*
X199869744Y-64840567D01*
X199851467Y-64748686D01*
X199838981Y-64730000D01*
X199695514Y-64515286D01*
X199695511Y-64515284D01*
X198331430Y-63151202D01*
X198331430Y-62381964D01*
X198434386Y-62313171D01*
X198686500Y-61935857D01*
X198775030Y-61490785D01*
X198775030Y-61445215D01*
X198686500Y-61000143D01*
X198434386Y-60622829D01*
X198057072Y-60370715D01*
X197612000Y-60282185D01*
X197166928Y-60370715D01*
X196821161Y-60601750D01*
X196758737Y-60432877D01*
X196234217Y-59866185D01*
X195532760Y-59543355D01*
X195382843Y-59513534D01*
X195073270Y-59771227D01*
X195070730Y-59771227D01*
X194761157Y-59513534D01*
X194611240Y-59543355D01*
X193909783Y-59866185D01*
X193385263Y-60432877D01*
X193322839Y-60601750D01*
X193251430Y-60554036D01*
X193251430Y-59969400D01*
X193196667Y-59694086D01*
X193040714Y-59460686D01*
X192050114Y-58470086D01*
X191816714Y-58314133D01*
X191745813Y-58300030D01*
X204589970Y-58300030D01*
X204589970Y-78825542D01*
G36*
X183389270Y-86600730D02*
X183409270Y-86600730D01*
X183409270Y-86603270D01*
X183389270Y-86603270D01*
X183389270Y-86623270D01*
X183386730Y-86623270D01*
X183386730Y-86603270D01*
X183366730Y-86603270D01*
X183366730Y-86600730D01*
X183386730Y-86600730D01*
X183386730Y-86580730D01*
X183389270Y-86580730D01*
X183389270Y-86600730D01*
X183389270Y-86600730D01*
G37*
X183389270Y-86600730D02*
X183409270Y-86600730D01*
X183409270Y-86603270D01*
X183389270Y-86603270D01*
X183389270Y-86623270D01*
X183386730Y-86623270D01*
X183386730Y-86603270D01*
X183366730Y-86603270D01*
X183366730Y-86600730D01*
X183386730Y-86600730D01*
X183386730Y-86580730D01*
X183389270Y-86580730D01*
X183389270Y-86600730D01*
G36*
X170689270Y-82564730D02*
X170709270Y-82564730D01*
X170709270Y-82567270D01*
X170689270Y-82567270D01*
X170689270Y-82587270D01*
X170686730Y-82587270D01*
X170686730Y-82567270D01*
X170666730Y-82567270D01*
X170666730Y-82564730D01*
X170686730Y-82564730D01*
X170686730Y-82544730D01*
X170689270Y-82544730D01*
X170689270Y-82564730D01*
X170689270Y-82564730D01*
G37*
X170689270Y-82564730D02*
X170709270Y-82564730D01*
X170709270Y-82567270D01*
X170689270Y-82567270D01*
X170689270Y-82587270D01*
X170686730Y-82587270D01*
X170686730Y-82567270D01*
X170666730Y-82567270D01*
X170666730Y-82564730D01*
X170686730Y-82564730D01*
X170686730Y-82544730D01*
X170689270Y-82544730D01*
X170689270Y-82564730D01*
G36*
X168215838Y-69984000D02*
X168229557Y-70056911D01*
X168168778Y-69962458D01*
X168064172Y-69890983D01*
X167940000Y-69865838D01*
X166476341Y-69865838D01*
X166461773Y-69851270D01*
X164466270Y-69851270D01*
X164466270Y-71846773D01*
X164748527Y-72129030D01*
X165839578Y-72129030D01*
X166070838Y-72033239D01*
X166070838Y-72055000D01*
X166092665Y-72171002D01*
X166161222Y-72277542D01*
X166265828Y-72349017D01*
X166390000Y-72374162D01*
X166597970Y-72374162D01*
X166597970Y-72494353D01*
X166534458Y-72535222D01*
X166462983Y-72639828D01*
X166437838Y-72764000D01*
X166437838Y-73564000D01*
X166459665Y-73680002D01*
X166528222Y-73786542D01*
X166632828Y-73858017D01*
X166757000Y-73883162D01*
X167507000Y-73883162D01*
X167623002Y-73861335D01*
X167635068Y-73853571D01*
X167763225Y-73981728D01*
X167648361Y-73981728D01*
X167631172Y-73969983D01*
X167507000Y-73944838D01*
X166757000Y-73944838D01*
X166640998Y-73966665D01*
X166534458Y-74035222D01*
X166462983Y-74139828D01*
X166437838Y-74264000D01*
X166437838Y-75064000D01*
X166459665Y-75180002D01*
X166528222Y-75286542D01*
X166564970Y-75311651D01*
X166564970Y-75494838D01*
X165855000Y-75494838D01*
X165738998Y-75516665D01*
X165632458Y-75585222D01*
X165560983Y-75689828D01*
X165535838Y-75814000D01*
X165535838Y-76844570D01*
X165009398Y-76844570D01*
X162484430Y-74319602D01*
X162484430Y-72374162D01*
X162540000Y-72374162D01*
X162656002Y-72352335D01*
X162762542Y-72283778D01*
X162834017Y-72179172D01*
X162859162Y-72055000D01*
X162859162Y-72033239D01*
X163090422Y-72129030D01*
X164181473Y-72129030D01*
X164463730Y-71846773D01*
X164463730Y-69851270D01*
X164443730Y-69851270D01*
X164443730Y-69848730D01*
X164463730Y-69848730D01*
X164463730Y-69828730D01*
X164466270Y-69828730D01*
X164466270Y-69848730D01*
X166461773Y-69848730D01*
X166476341Y-69834162D01*
X167940000Y-69834162D01*
X168056002Y-69812335D01*
X168162542Y-69743778D01*
X168215838Y-69665778D01*
X168215838Y-69984000D01*
X168215838Y-69984000D01*
G37*
X168215838Y-69984000D02*
X168229557Y-70056911D01*
X168168778Y-69962458D01*
X168064172Y-69890983D01*
X167940000Y-69865838D01*
X166476341Y-69865838D01*
X166461773Y-69851270D01*
X164466270Y-69851270D01*
X164466270Y-71846773D01*
X164748527Y-72129030D01*
X165839578Y-72129030D01*
X166070838Y-72033239D01*
X166070838Y-72055000D01*
X166092665Y-72171002D01*
X166161222Y-72277542D01*
X166265828Y-72349017D01*
X166390000Y-72374162D01*
X166597970Y-72374162D01*
X166597970Y-72494353D01*
X166534458Y-72535222D01*
X166462983Y-72639828D01*
X166437838Y-72764000D01*
X166437838Y-73564000D01*
X166459665Y-73680002D01*
X166528222Y-73786542D01*
X166632828Y-73858017D01*
X166757000Y-73883162D01*
X167507000Y-73883162D01*
X167623002Y-73861335D01*
X167635068Y-73853571D01*
X167763225Y-73981728D01*
X167648361Y-73981728D01*
X167631172Y-73969983D01*
X167507000Y-73944838D01*
X166757000Y-73944838D01*
X166640998Y-73966665D01*
X166534458Y-74035222D01*
X166462983Y-74139828D01*
X166437838Y-74264000D01*
X166437838Y-75064000D01*
X166459665Y-75180002D01*
X166528222Y-75286542D01*
X166564970Y-75311651D01*
X166564970Y-75494838D01*
X165855000Y-75494838D01*
X165738998Y-75516665D01*
X165632458Y-75585222D01*
X165560983Y-75689828D01*
X165535838Y-75814000D01*
X165535838Y-76844570D01*
X165009398Y-76844570D01*
X162484430Y-74319602D01*
X162484430Y-72374162D01*
X162540000Y-72374162D01*
X162656002Y-72352335D01*
X162762542Y-72283778D01*
X162834017Y-72179172D01*
X162859162Y-72055000D01*
X162859162Y-72033239D01*
X163090422Y-72129030D01*
X164181473Y-72129030D01*
X164463730Y-71846773D01*
X164463730Y-69851270D01*
X164443730Y-69851270D01*
X164443730Y-69848730D01*
X164463730Y-69848730D01*
X164463730Y-69828730D01*
X164466270Y-69828730D01*
X164466270Y-69848730D01*
X166461773Y-69848730D01*
X166476341Y-69834162D01*
X167940000Y-69834162D01*
X168056002Y-69812335D01*
X168162542Y-69743778D01*
X168215838Y-69665778D01*
X168215838Y-69984000D01*
G36*
X162758480Y-67415422D02*
X162664172Y-67350983D01*
X162540000Y-67325838D01*
X160990000Y-67325838D01*
X160873998Y-67347665D01*
X160767458Y-67416222D01*
X160695983Y-67520828D01*
X160670838Y-67645000D01*
X160670838Y-67825148D01*
X160350456Y-67957855D01*
X160032855Y-68275456D01*
X159860970Y-68690422D01*
X159860970Y-68931473D01*
X160143227Y-69213730D01*
X161763730Y-69213730D01*
X161763730Y-69193730D01*
X161766270Y-69193730D01*
X161766270Y-69213730D01*
X161786270Y-69213730D01*
X161786270Y-69216270D01*
X161766270Y-69216270D01*
X161766270Y-69236270D01*
X161763730Y-69236270D01*
X161763730Y-69216270D01*
X160143227Y-69216270D01*
X159955963Y-69403535D01*
X159723430Y-69171002D01*
X159723430Y-67861998D01*
X160571998Y-67013430D01*
X163160471Y-67013430D01*
X162758480Y-67415422D01*
X162758480Y-67415422D01*
G37*
X162758480Y-67415422D02*
X162664172Y-67350983D01*
X162540000Y-67325838D01*
X160990000Y-67325838D01*
X160873998Y-67347665D01*
X160767458Y-67416222D01*
X160695983Y-67520828D01*
X160670838Y-67645000D01*
X160670838Y-67825148D01*
X160350456Y-67957855D01*
X160032855Y-68275456D01*
X159860970Y-68690422D01*
X159860970Y-68931473D01*
X160143227Y-69213730D01*
X161763730Y-69213730D01*
X161763730Y-69193730D01*
X161766270Y-69193730D01*
X161766270Y-69213730D01*
X161786270Y-69213730D01*
X161786270Y-69216270D01*
X161766270Y-69216270D01*
X161766270Y-69236270D01*
X161763730Y-69236270D01*
X161763730Y-69216270D01*
X160143227Y-69216270D01*
X159955963Y-69403535D01*
X159723430Y-69171002D01*
X159723430Y-67861998D01*
X160571998Y-67013430D01*
X163160471Y-67013430D01*
X162758480Y-67415422D01*
G36*
X166175270Y-66800730D02*
X166195270Y-66800730D01*
X166195270Y-66803270D01*
X166175270Y-66803270D01*
X166175270Y-66823270D01*
X166172730Y-66823270D01*
X166172730Y-66803270D01*
X166152730Y-66803270D01*
X166152730Y-66800730D01*
X166172730Y-66800730D01*
X166172730Y-66780730D01*
X166175270Y-66780730D01*
X166175270Y-66800730D01*
X166175270Y-66800730D01*
G37*
X166175270Y-66800730D02*
X166195270Y-66800730D01*
X166195270Y-66803270D01*
X166175270Y-66803270D01*
X166175270Y-66823270D01*
X166172730Y-66823270D01*
X166172730Y-66803270D01*
X166152730Y-66803270D01*
X166152730Y-66800730D01*
X166172730Y-66800730D01*
X166172730Y-66780730D01*
X166175270Y-66780730D01*
X166175270Y-66800730D01*
M02*
