G04 #@! TF.FileFunction,Legend,Bot*
%FSLAX46Y46*%
G04 Gerber Fmt 4.6, Leading zero omitted, Abs format (unit mm)*
G04 Created by KiCad (PCBNEW 4.0.6) date 12/03/17 01:19:17*
%MOMM*%
%LPD*%
G01*
G04 APERTURE LIST*
%ADD10C,0.100000*%
%ADD11C,0.200000*%
%ADD12C,0.300000*%
%ADD13C,0.150000*%
%ADD14C,0.130000*%
G04 APERTURE END LIST*
D10*
D11*
X159512000Y-93726000D02*
X159512000Y-93599000D01*
X173355000Y-93726000D02*
X159512000Y-93726000D01*
X178562000Y-93726000D02*
X176022000Y-93726000D01*
X181102000Y-93726000D02*
X180467000Y-93726000D01*
X183642000Y-93726000D02*
X182880000Y-93726000D01*
X185674000Y-93726000D02*
X185420000Y-93726000D01*
D12*
X169959571Y-76426430D02*
X169959571Y-75712144D01*
X168459571Y-75712144D01*
X168602429Y-76855001D02*
X168531000Y-76926430D01*
X168459571Y-77069287D01*
X168459571Y-77426430D01*
X168531000Y-77569287D01*
X168602429Y-77640716D01*
X168745286Y-77712144D01*
X168888143Y-77712144D01*
X169102429Y-77640716D01*
X169959571Y-76783573D01*
X169959571Y-77712144D01*
X169959571Y-78426429D02*
X169959571Y-78712144D01*
X169888143Y-78855001D01*
X169816714Y-78926429D01*
X169602429Y-79069287D01*
X169316714Y-79140715D01*
X168745286Y-79140715D01*
X168602429Y-79069287D01*
X168531000Y-78997858D01*
X168459571Y-78855001D01*
X168459571Y-78569287D01*
X168531000Y-78426429D01*
X168602429Y-78355001D01*
X168745286Y-78283572D01*
X169102429Y-78283572D01*
X169245286Y-78355001D01*
X169316714Y-78426429D01*
X169388143Y-78569287D01*
X169388143Y-78855001D01*
X169316714Y-78997858D01*
X169245286Y-79069287D01*
X169102429Y-79140715D01*
X169102429Y-79997858D02*
X169031000Y-79855000D01*
X168959571Y-79783572D01*
X168816714Y-79712143D01*
X168745286Y-79712143D01*
X168602429Y-79783572D01*
X168531000Y-79855000D01*
X168459571Y-79997858D01*
X168459571Y-80283572D01*
X168531000Y-80426429D01*
X168602429Y-80497858D01*
X168745286Y-80569286D01*
X168816714Y-80569286D01*
X168959571Y-80497858D01*
X169031000Y-80426429D01*
X169102429Y-80283572D01*
X169102429Y-79997858D01*
X169173857Y-79855000D01*
X169245286Y-79783572D01*
X169388143Y-79712143D01*
X169673857Y-79712143D01*
X169816714Y-79783572D01*
X169888143Y-79855000D01*
X169959571Y-79997858D01*
X169959571Y-80283572D01*
X169888143Y-80426429D01*
X169816714Y-80497858D01*
X169673857Y-80569286D01*
X169388143Y-80569286D01*
X169245286Y-80497858D01*
X169173857Y-80426429D01*
X169102429Y-80283572D01*
X172509571Y-73997857D02*
X171009571Y-73997857D01*
X172438143Y-74640714D02*
X172509571Y-74783571D01*
X172509571Y-75069286D01*
X172438143Y-75212143D01*
X172295286Y-75283571D01*
X172223857Y-75283571D01*
X172081000Y-75212143D01*
X172009571Y-75069286D01*
X172009571Y-74855000D01*
X171938143Y-74712143D01*
X171795286Y-74640714D01*
X171723857Y-74640714D01*
X171581000Y-74712143D01*
X171509571Y-74855000D01*
X171509571Y-75069286D01*
X171581000Y-75212143D01*
X172509571Y-76140715D02*
X172438143Y-75997857D01*
X172366714Y-75926429D01*
X172223857Y-75855000D01*
X171795286Y-75855000D01*
X171652429Y-75926429D01*
X171581000Y-75997857D01*
X171509571Y-76140715D01*
X171509571Y-76355000D01*
X171581000Y-76497857D01*
X171652429Y-76569286D01*
X171795286Y-76640715D01*
X172223857Y-76640715D01*
X172366714Y-76569286D01*
X172438143Y-76497857D01*
X172509571Y-76355000D01*
X172509571Y-76140715D01*
X172509571Y-77497858D02*
X172438143Y-77355000D01*
X172295286Y-77283572D01*
X171009571Y-77283572D01*
X172509571Y-78712143D02*
X171723857Y-78712143D01*
X171581000Y-78640714D01*
X171509571Y-78497857D01*
X171509571Y-78212143D01*
X171581000Y-78069286D01*
X172438143Y-78712143D02*
X172509571Y-78569286D01*
X172509571Y-78212143D01*
X172438143Y-78069286D01*
X172295286Y-77997857D01*
X172152429Y-77997857D01*
X172009571Y-78069286D01*
X171938143Y-78212143D01*
X171938143Y-78569286D01*
X171866714Y-78712143D01*
X171509571Y-79212143D02*
X171509571Y-79783572D01*
X171009571Y-79426429D02*
X172295286Y-79426429D01*
X172438143Y-79497857D01*
X172509571Y-79640715D01*
X172509571Y-79783572D01*
X172438143Y-80855000D02*
X172509571Y-80712143D01*
X172509571Y-80426429D01*
X172438143Y-80283572D01*
X172295286Y-80212143D01*
X171723857Y-80212143D01*
X171581000Y-80283572D01*
X171509571Y-80426429D01*
X171509571Y-80712143D01*
X171581000Y-80855000D01*
X171723857Y-80926429D01*
X171866714Y-80926429D01*
X172009571Y-80212143D01*
X172509571Y-82212143D02*
X171009571Y-82212143D01*
X172438143Y-82212143D02*
X172509571Y-82069286D01*
X172509571Y-81783572D01*
X172438143Y-81640714D01*
X172366714Y-81569286D01*
X172223857Y-81497857D01*
X171795286Y-81497857D01*
X171652429Y-81569286D01*
X171581000Y-81640714D01*
X171509571Y-81783572D01*
X171509571Y-82069286D01*
X171581000Y-82212143D01*
X175059571Y-70962144D02*
X173559571Y-70962144D01*
X174631000Y-71462144D01*
X173559571Y-71962144D01*
X175059571Y-71962144D01*
X175059571Y-72890716D02*
X174988143Y-72747858D01*
X174916714Y-72676430D01*
X174773857Y-72605001D01*
X174345286Y-72605001D01*
X174202429Y-72676430D01*
X174131000Y-72747858D01*
X174059571Y-72890716D01*
X174059571Y-73105001D01*
X174131000Y-73247858D01*
X174202429Y-73319287D01*
X174345286Y-73390716D01*
X174773857Y-73390716D01*
X174916714Y-73319287D01*
X174988143Y-73247858D01*
X175059571Y-73105001D01*
X175059571Y-72890716D01*
X174059571Y-73819287D02*
X174059571Y-74390716D01*
X173559571Y-74033573D02*
X174845286Y-74033573D01*
X174988143Y-74105001D01*
X175059571Y-74247859D01*
X175059571Y-74390716D01*
X175059571Y-75105002D02*
X174988143Y-74962144D01*
X174916714Y-74890716D01*
X174773857Y-74819287D01*
X174345286Y-74819287D01*
X174202429Y-74890716D01*
X174131000Y-74962144D01*
X174059571Y-75105002D01*
X174059571Y-75319287D01*
X174131000Y-75462144D01*
X174202429Y-75533573D01*
X174345286Y-75605002D01*
X174773857Y-75605002D01*
X174916714Y-75533573D01*
X174988143Y-75462144D01*
X175059571Y-75319287D01*
X175059571Y-75105002D01*
X175059571Y-76247859D02*
X174059571Y-76247859D01*
X174345286Y-76247859D02*
X174202429Y-76319287D01*
X174131000Y-76390716D01*
X174059571Y-76533573D01*
X174059571Y-76676430D01*
X175059571Y-78319287D02*
X173559571Y-78319287D01*
X173559571Y-78676430D01*
X173631000Y-78890715D01*
X173773857Y-79033573D01*
X173916714Y-79105001D01*
X174202429Y-79176430D01*
X174416714Y-79176430D01*
X174702429Y-79105001D01*
X174845286Y-79033573D01*
X174988143Y-78890715D01*
X175059571Y-78676430D01*
X175059571Y-78319287D01*
X175059571Y-79819287D02*
X174059571Y-79819287D01*
X174345286Y-79819287D02*
X174202429Y-79890715D01*
X174131000Y-79962144D01*
X174059571Y-80105001D01*
X174059571Y-80247858D01*
X175059571Y-80747858D02*
X174059571Y-80747858D01*
X173559571Y-80747858D02*
X173631000Y-80676429D01*
X173702429Y-80747858D01*
X173631000Y-80819286D01*
X173559571Y-80747858D01*
X173702429Y-80747858D01*
X174059571Y-81319287D02*
X175059571Y-81676430D01*
X174059571Y-82033572D01*
X174988143Y-83176429D02*
X175059571Y-83033572D01*
X175059571Y-82747858D01*
X174988143Y-82605001D01*
X174845286Y-82533572D01*
X174273857Y-82533572D01*
X174131000Y-82605001D01*
X174059571Y-82747858D01*
X174059571Y-83033572D01*
X174131000Y-83176429D01*
X174273857Y-83247858D01*
X174416714Y-83247858D01*
X174559571Y-82533572D01*
X175059571Y-83890715D02*
X174059571Y-83890715D01*
X174345286Y-83890715D02*
X174202429Y-83962143D01*
X174131000Y-84033572D01*
X174059571Y-84176429D01*
X174059571Y-84319286D01*
D11*
X192532000Y-86233000D02*
X200152000Y-86233000D01*
X200279000Y-86233000D02*
X200279000Y-100076000D01*
X200152000Y-100076000D02*
X192532000Y-100076000D01*
X192532000Y-100076000D02*
X192532000Y-86233000D01*
X159512000Y-93599000D02*
X159512000Y-93472000D01*
X185674000Y-96266000D02*
X185674000Y-93599000D01*
X186690000Y-96266000D02*
X185674000Y-96266000D01*
X186690000Y-96393000D02*
X186690000Y-96266000D01*
X159512000Y-90932000D02*
X159512000Y-93472000D01*
X157988000Y-90932000D02*
X159512000Y-90932000D01*
X157988000Y-88519000D02*
X157988000Y-90932000D01*
X160909000Y-88519000D02*
X157988000Y-88519000D01*
X186690000Y-96266000D02*
X186690000Y-101600000D01*
X160909000Y-88519000D02*
X159512000Y-88519000D01*
X160909000Y-81153000D02*
X160909000Y-88519000D01*
X157226000Y-81153000D02*
X160909000Y-81153000D01*
D13*
X173078857Y-60258572D02*
X174278857Y-60658572D01*
X173078857Y-61058572D01*
X173650286Y-61858571D02*
X173707429Y-62030000D01*
X173764571Y-62087143D01*
X173878857Y-62144286D01*
X174050286Y-62144286D01*
X174164571Y-62087143D01*
X174221714Y-62030000D01*
X174278857Y-61915714D01*
X174278857Y-61458571D01*
X173078857Y-61458571D01*
X173078857Y-61858571D01*
X173136000Y-61972857D01*
X173193143Y-62030000D01*
X173307429Y-62087143D01*
X173421714Y-62087143D01*
X173536000Y-62030000D01*
X173593143Y-61972857D01*
X173650286Y-61858571D01*
X173650286Y-61458571D01*
X173936000Y-62601428D02*
X173936000Y-63172857D01*
X174278857Y-62487143D02*
X173078857Y-62887143D01*
X174278857Y-63287143D01*
X173078857Y-63515714D02*
X173078857Y-64201428D01*
X174278857Y-63858571D02*
X173078857Y-63858571D01*
X191747857Y-63360572D02*
X192947857Y-63760572D01*
X191747857Y-64160572D01*
X192947857Y-64560571D02*
X191747857Y-64560571D01*
X192605000Y-64960571D01*
X191747857Y-65360571D01*
X192947857Y-65360571D01*
X191747857Y-66160572D02*
X191747857Y-66389143D01*
X191805000Y-66503429D01*
X191919286Y-66617715D01*
X192147857Y-66674857D01*
X192547857Y-66674857D01*
X192776429Y-66617715D01*
X192890714Y-66503429D01*
X192947857Y-66389143D01*
X192947857Y-66160572D01*
X192890714Y-66046286D01*
X192776429Y-65932000D01*
X192547857Y-65874857D01*
X192147857Y-65874857D01*
X191919286Y-65932000D01*
X191805000Y-66046286D01*
X191747857Y-66160572D01*
X191747857Y-67017715D02*
X191747857Y-67703429D01*
X192947857Y-67360572D02*
X191747857Y-67360572D01*
X186794857Y-63760572D02*
X186794857Y-63989143D01*
X186852000Y-64103429D01*
X186966286Y-64217715D01*
X187194857Y-64274857D01*
X187594857Y-64274857D01*
X187823429Y-64217715D01*
X187937714Y-64103429D01*
X187994857Y-63989143D01*
X187994857Y-63760572D01*
X187937714Y-63646286D01*
X187823429Y-63532000D01*
X187594857Y-63474857D01*
X187194857Y-63474857D01*
X186966286Y-63532000D01*
X186852000Y-63646286D01*
X186794857Y-63760572D01*
X186794857Y-64789143D02*
X187766286Y-64789143D01*
X187880571Y-64846286D01*
X187937714Y-64903429D01*
X187994857Y-65017715D01*
X187994857Y-65246286D01*
X187937714Y-65360572D01*
X187880571Y-65417715D01*
X187766286Y-65474858D01*
X186794857Y-65474858D01*
X186794857Y-65874858D02*
X186794857Y-66560572D01*
X187994857Y-66217715D02*
X186794857Y-66217715D01*
X186794857Y-66846287D02*
X186794857Y-67589144D01*
X187252000Y-67189144D01*
X187252000Y-67360572D01*
X187309143Y-67474858D01*
X187366286Y-67532001D01*
X187480571Y-67589144D01*
X187766286Y-67589144D01*
X187880571Y-67532001D01*
X187937714Y-67474858D01*
X187994857Y-67360572D01*
X187994857Y-67017715D01*
X187937714Y-66903429D01*
X187880571Y-66846287D01*
X189207857Y-63760572D02*
X189207857Y-63989143D01*
X189265000Y-64103429D01*
X189379286Y-64217715D01*
X189607857Y-64274857D01*
X190007857Y-64274857D01*
X190236429Y-64217715D01*
X190350714Y-64103429D01*
X190407857Y-63989143D01*
X190407857Y-63760572D01*
X190350714Y-63646286D01*
X190236429Y-63532000D01*
X190007857Y-63474857D01*
X189607857Y-63474857D01*
X189379286Y-63532000D01*
X189265000Y-63646286D01*
X189207857Y-63760572D01*
X189207857Y-64789143D02*
X190179286Y-64789143D01*
X190293571Y-64846286D01*
X190350714Y-64903429D01*
X190407857Y-65017715D01*
X190407857Y-65246286D01*
X190350714Y-65360572D01*
X190293571Y-65417715D01*
X190179286Y-65474858D01*
X189207857Y-65474858D01*
X189207857Y-65874858D02*
X189207857Y-66560572D01*
X190407857Y-66217715D02*
X189207857Y-66217715D01*
X189607857Y-67474858D02*
X190407857Y-67474858D01*
X189150714Y-67189144D02*
X190007857Y-66903429D01*
X190007857Y-67646287D01*
X199494857Y-63633572D02*
X199494857Y-63862143D01*
X199552000Y-63976429D01*
X199666286Y-64090715D01*
X199894857Y-64147857D01*
X200294857Y-64147857D01*
X200523429Y-64090715D01*
X200637714Y-63976429D01*
X200694857Y-63862143D01*
X200694857Y-63633572D01*
X200637714Y-63519286D01*
X200523429Y-63405000D01*
X200294857Y-63347857D01*
X199894857Y-63347857D01*
X199666286Y-63405000D01*
X199552000Y-63519286D01*
X199494857Y-63633572D01*
X199494857Y-64662143D02*
X200466286Y-64662143D01*
X200580571Y-64719286D01*
X200637714Y-64776429D01*
X200694857Y-64890715D01*
X200694857Y-65119286D01*
X200637714Y-65233572D01*
X200580571Y-65290715D01*
X200466286Y-65347858D01*
X199494857Y-65347858D01*
X199494857Y-65747858D02*
X199494857Y-66433572D01*
X200694857Y-66090715D02*
X199494857Y-66090715D01*
X199609143Y-66776429D02*
X199552000Y-66833572D01*
X199494857Y-66947858D01*
X199494857Y-67233572D01*
X199552000Y-67347858D01*
X199609143Y-67405001D01*
X199723429Y-67462144D01*
X199837714Y-67462144D01*
X200009143Y-67405001D01*
X200694857Y-66719287D01*
X200694857Y-67462144D01*
X197081857Y-63633572D02*
X197081857Y-63862143D01*
X197139000Y-63976429D01*
X197253286Y-64090715D01*
X197481857Y-64147857D01*
X197881857Y-64147857D01*
X198110429Y-64090715D01*
X198224714Y-63976429D01*
X198281857Y-63862143D01*
X198281857Y-63633572D01*
X198224714Y-63519286D01*
X198110429Y-63405000D01*
X197881857Y-63347857D01*
X197481857Y-63347857D01*
X197253286Y-63405000D01*
X197139000Y-63519286D01*
X197081857Y-63633572D01*
X197081857Y-64662143D02*
X198053286Y-64662143D01*
X198167571Y-64719286D01*
X198224714Y-64776429D01*
X198281857Y-64890715D01*
X198281857Y-65119286D01*
X198224714Y-65233572D01*
X198167571Y-65290715D01*
X198053286Y-65347858D01*
X197081857Y-65347858D01*
X197081857Y-65747858D02*
X197081857Y-66433572D01*
X198281857Y-66090715D02*
X197081857Y-66090715D01*
X198281857Y-67462144D02*
X198281857Y-66776429D01*
X198281857Y-67119287D02*
X197081857Y-67119287D01*
X197253286Y-67005001D01*
X197367571Y-66890715D01*
X197424714Y-66776429D01*
X194599000Y-63925857D02*
X194541857Y-63811571D01*
X194541857Y-63640142D01*
X194599000Y-63468714D01*
X194713286Y-63354428D01*
X194827571Y-63297285D01*
X195056143Y-63240142D01*
X195227571Y-63240142D01*
X195456143Y-63297285D01*
X195570429Y-63354428D01*
X195684714Y-63468714D01*
X195741857Y-63640142D01*
X195741857Y-63754428D01*
X195684714Y-63925857D01*
X195627571Y-63983000D01*
X195227571Y-63983000D01*
X195227571Y-63754428D01*
X195741857Y-64497285D02*
X194541857Y-64497285D01*
X195741857Y-65183000D01*
X194541857Y-65183000D01*
X195741857Y-65754428D02*
X194541857Y-65754428D01*
X194541857Y-66040143D01*
X194599000Y-66211571D01*
X194713286Y-66325857D01*
X194827571Y-66383000D01*
X195056143Y-66440143D01*
X195227571Y-66440143D01*
X195456143Y-66383000D01*
X195570429Y-66325857D01*
X195684714Y-66211571D01*
X195741857Y-66040143D01*
X195741857Y-65754428D01*
X195856143Y-66668714D02*
X195856143Y-67583000D01*
X195741857Y-67868714D02*
X194541857Y-67868714D01*
X194541857Y-68325857D01*
X194599000Y-68440143D01*
X194656143Y-68497286D01*
X194770429Y-68554429D01*
X194941857Y-68554429D01*
X195056143Y-68497286D01*
X195113286Y-68440143D01*
X195170429Y-68325857D01*
X195170429Y-67868714D01*
X194541857Y-68954429D02*
X195741857Y-69240143D01*
X194884714Y-69468714D01*
X195741857Y-69697286D01*
X194541857Y-69983000D01*
X195741857Y-71125858D02*
X195170429Y-70725858D01*
X195741857Y-70440143D02*
X194541857Y-70440143D01*
X194541857Y-70897286D01*
X194599000Y-71011572D01*
X194656143Y-71068715D01*
X194770429Y-71125858D01*
X194941857Y-71125858D01*
X195056143Y-71068715D01*
X195113286Y-71011572D01*
X195170429Y-70897286D01*
X195170429Y-70440143D01*
X184146857Y-91627715D02*
X184146857Y-92084858D01*
X183746857Y-91799143D02*
X184775429Y-91799143D01*
X184889714Y-91856286D01*
X184946857Y-91970572D01*
X184946857Y-92084858D01*
X184889714Y-92942000D02*
X184946857Y-92827714D01*
X184946857Y-92599143D01*
X184889714Y-92484857D01*
X184775429Y-92427714D01*
X184318286Y-92427714D01*
X184204000Y-92484857D01*
X184146857Y-92599143D01*
X184146857Y-92827714D01*
X184204000Y-92942000D01*
X184318286Y-92999143D01*
X184432571Y-92999143D01*
X184546857Y-92427714D01*
X184946857Y-93513428D02*
X184146857Y-93513428D01*
X184261143Y-93513428D02*
X184204000Y-93570571D01*
X184146857Y-93684857D01*
X184146857Y-93856285D01*
X184204000Y-93970571D01*
X184318286Y-94027714D01*
X184946857Y-94027714D01*
X184318286Y-94027714D02*
X184204000Y-94084857D01*
X184146857Y-94199143D01*
X184146857Y-94370571D01*
X184204000Y-94484857D01*
X184318286Y-94542000D01*
X184946857Y-94542000D01*
X184146857Y-95113428D02*
X185346857Y-95113428D01*
X184204000Y-95113428D02*
X184146857Y-95227714D01*
X184146857Y-95456285D01*
X184204000Y-95570571D01*
X184261143Y-95627714D01*
X184375429Y-95684857D01*
X184718286Y-95684857D01*
X184832571Y-95627714D01*
X184889714Y-95570571D01*
X184946857Y-95456285D01*
X184946857Y-95227714D01*
X184889714Y-95113428D01*
X185061143Y-95913428D02*
X185061143Y-96827714D01*
X183861143Y-97056285D02*
X183804000Y-97113428D01*
X183746857Y-97227714D01*
X183746857Y-97513428D01*
X183804000Y-97627714D01*
X183861143Y-97684857D01*
X183975429Y-97742000D01*
X184089714Y-97742000D01*
X184261143Y-97684857D01*
X184946857Y-96999143D01*
X184946857Y-97742000D01*
X176438000Y-95224715D02*
X176380857Y-95110429D01*
X176380857Y-94939000D01*
X176438000Y-94767572D01*
X176552286Y-94653286D01*
X176666571Y-94596143D01*
X176895143Y-94539000D01*
X177066571Y-94539000D01*
X177295143Y-94596143D01*
X177409429Y-94653286D01*
X177523714Y-94767572D01*
X177580857Y-94939000D01*
X177580857Y-95053286D01*
X177523714Y-95224715D01*
X177466571Y-95281858D01*
X177066571Y-95281858D01*
X177066571Y-95053286D01*
X177580857Y-95796143D02*
X176380857Y-95796143D01*
X177580857Y-96481858D01*
X176380857Y-96481858D01*
X177580857Y-97053286D02*
X176380857Y-97053286D01*
X176380857Y-97339001D01*
X176438000Y-97510429D01*
X176552286Y-97624715D01*
X176666571Y-97681858D01*
X176895143Y-97739001D01*
X177066571Y-97739001D01*
X177295143Y-97681858D01*
X177409429Y-97624715D01*
X177523714Y-97510429D01*
X177580857Y-97339001D01*
X177580857Y-97053286D01*
X179936714Y-86421001D02*
X179993857Y-86306715D01*
X179993857Y-86078144D01*
X179936714Y-85963858D01*
X179879571Y-85906715D01*
X179765286Y-85849572D01*
X179422429Y-85849572D01*
X179308143Y-85906715D01*
X179251000Y-85963858D01*
X179193857Y-86078144D01*
X179193857Y-86306715D01*
X179251000Y-86421001D01*
X179193857Y-87449572D02*
X179993857Y-87449572D01*
X179193857Y-86935286D02*
X179822429Y-86935286D01*
X179936714Y-86992429D01*
X179993857Y-87106715D01*
X179993857Y-87278143D01*
X179936714Y-87392429D01*
X179879571Y-87449572D01*
X179993857Y-88021000D02*
X179193857Y-88021000D01*
X179422429Y-88021000D02*
X179308143Y-88078143D01*
X179251000Y-88135286D01*
X179193857Y-88249572D01*
X179193857Y-88363857D01*
X179993857Y-88763857D02*
X179193857Y-88763857D01*
X179422429Y-88763857D02*
X179308143Y-88821000D01*
X179251000Y-88878143D01*
X179193857Y-88992429D01*
X179193857Y-89106714D01*
X179936714Y-89963857D02*
X179993857Y-89849571D01*
X179993857Y-89621000D01*
X179936714Y-89506714D01*
X179822429Y-89449571D01*
X179365286Y-89449571D01*
X179251000Y-89506714D01*
X179193857Y-89621000D01*
X179193857Y-89849571D01*
X179251000Y-89963857D01*
X179365286Y-90021000D01*
X179479571Y-90021000D01*
X179593857Y-89449571D01*
X179193857Y-90535285D02*
X179993857Y-90535285D01*
X179308143Y-90535285D02*
X179251000Y-90592428D01*
X179193857Y-90706714D01*
X179193857Y-90878142D01*
X179251000Y-90992428D01*
X179365286Y-91049571D01*
X179993857Y-91049571D01*
X179193857Y-91449571D02*
X179193857Y-91906714D01*
X178793857Y-91620999D02*
X179822429Y-91620999D01*
X179936714Y-91678142D01*
X179993857Y-91792428D01*
X179993857Y-91906714D01*
X180108143Y-92020999D02*
X180108143Y-92935285D01*
X179936714Y-93163856D02*
X179993857Y-93278142D01*
X179993857Y-93506714D01*
X179936714Y-93620999D01*
X179822429Y-93678142D01*
X179765286Y-93678142D01*
X179651000Y-93620999D01*
X179593857Y-93506714D01*
X179593857Y-93335285D01*
X179536714Y-93220999D01*
X179422429Y-93163856D01*
X179365286Y-93163856D01*
X179251000Y-93220999D01*
X179193857Y-93335285D01*
X179193857Y-93506714D01*
X179251000Y-93620999D01*
X179936714Y-94649571D02*
X179993857Y-94535285D01*
X179993857Y-94306714D01*
X179936714Y-94192428D01*
X179822429Y-94135285D01*
X179365286Y-94135285D01*
X179251000Y-94192428D01*
X179193857Y-94306714D01*
X179193857Y-94535285D01*
X179251000Y-94649571D01*
X179365286Y-94706714D01*
X179479571Y-94706714D01*
X179593857Y-94135285D01*
X179193857Y-95220999D02*
X179993857Y-95220999D01*
X179308143Y-95220999D02*
X179251000Y-95278142D01*
X179193857Y-95392428D01*
X179193857Y-95563856D01*
X179251000Y-95678142D01*
X179365286Y-95735285D01*
X179993857Y-95735285D01*
X179936714Y-96249570D02*
X179993857Y-96363856D01*
X179993857Y-96592428D01*
X179936714Y-96706713D01*
X179822429Y-96763856D01*
X179765286Y-96763856D01*
X179651000Y-96706713D01*
X179593857Y-96592428D01*
X179593857Y-96420999D01*
X179536714Y-96306713D01*
X179422429Y-96249570D01*
X179365286Y-96249570D01*
X179251000Y-96306713D01*
X179193857Y-96420999D01*
X179193857Y-96592428D01*
X179251000Y-96706713D01*
X179936714Y-97735285D02*
X179993857Y-97620999D01*
X179993857Y-97392428D01*
X179936714Y-97278142D01*
X179822429Y-97220999D01*
X179365286Y-97220999D01*
X179251000Y-97278142D01*
X179193857Y-97392428D01*
X179193857Y-97620999D01*
X179251000Y-97735285D01*
X179365286Y-97792428D01*
X179479571Y-97792428D01*
X179593857Y-97220999D01*
X181606857Y-91754715D02*
X181606857Y-92211858D01*
X181206857Y-91926143D02*
X182235429Y-91926143D01*
X182349714Y-91983286D01*
X182406857Y-92097572D01*
X182406857Y-92211858D01*
X182349714Y-93069000D02*
X182406857Y-92954714D01*
X182406857Y-92726143D01*
X182349714Y-92611857D01*
X182235429Y-92554714D01*
X181778286Y-92554714D01*
X181664000Y-92611857D01*
X181606857Y-92726143D01*
X181606857Y-92954714D01*
X181664000Y-93069000D01*
X181778286Y-93126143D01*
X181892571Y-93126143D01*
X182006857Y-92554714D01*
X182406857Y-93640428D02*
X181606857Y-93640428D01*
X181721143Y-93640428D02*
X181664000Y-93697571D01*
X181606857Y-93811857D01*
X181606857Y-93983285D01*
X181664000Y-94097571D01*
X181778286Y-94154714D01*
X182406857Y-94154714D01*
X181778286Y-94154714D02*
X181664000Y-94211857D01*
X181606857Y-94326143D01*
X181606857Y-94497571D01*
X181664000Y-94611857D01*
X181778286Y-94669000D01*
X182406857Y-94669000D01*
X181606857Y-95240428D02*
X182806857Y-95240428D01*
X181664000Y-95240428D02*
X181606857Y-95354714D01*
X181606857Y-95583285D01*
X181664000Y-95697571D01*
X181721143Y-95754714D01*
X181835429Y-95811857D01*
X182178286Y-95811857D01*
X182292571Y-95754714D01*
X182349714Y-95697571D01*
X182406857Y-95583285D01*
X182406857Y-95354714D01*
X182349714Y-95240428D01*
X182521143Y-96040428D02*
X182521143Y-96954714D01*
X182406857Y-97869000D02*
X182406857Y-97183285D01*
X182406857Y-97526143D02*
X181206857Y-97526143D01*
X181378286Y-97411857D01*
X181492571Y-97297571D01*
X181549714Y-97183285D01*
X173967857Y-92754715D02*
X173967857Y-92183286D01*
X174539286Y-92126143D01*
X174482143Y-92183286D01*
X174425000Y-92297572D01*
X174425000Y-92583286D01*
X174482143Y-92697572D01*
X174539286Y-92754715D01*
X174653571Y-92811858D01*
X174939286Y-92811858D01*
X175053571Y-92754715D01*
X175110714Y-92697572D01*
X175167857Y-92583286D01*
X175167857Y-92297572D01*
X175110714Y-92183286D01*
X175053571Y-92126143D01*
X173967857Y-93154715D02*
X175167857Y-93554715D01*
X173967857Y-93954715D01*
X175282143Y-94069000D02*
X175282143Y-94983286D01*
X175167857Y-95440429D02*
X175110714Y-95326143D01*
X175053571Y-95269000D01*
X174939286Y-95211857D01*
X174596429Y-95211857D01*
X174482143Y-95269000D01*
X174425000Y-95326143D01*
X174367857Y-95440429D01*
X174367857Y-95611857D01*
X174425000Y-95726143D01*
X174482143Y-95783286D01*
X174596429Y-95840429D01*
X174939286Y-95840429D01*
X175053571Y-95783286D01*
X175110714Y-95726143D01*
X175167857Y-95611857D01*
X175167857Y-95440429D01*
X174367857Y-96869000D02*
X175167857Y-96869000D01*
X174367857Y-96354714D02*
X174996429Y-96354714D01*
X175110714Y-96411857D01*
X175167857Y-96526143D01*
X175167857Y-96697571D01*
X175110714Y-96811857D01*
X175053571Y-96869000D01*
X174367857Y-97269000D02*
X174367857Y-97726143D01*
X173967857Y-97440428D02*
X174996429Y-97440428D01*
X175110714Y-97497571D01*
X175167857Y-97611857D01*
X175167857Y-97726143D01*
X162340857Y-95193000D02*
X161140857Y-95193000D01*
X162340857Y-95764429D02*
X161140857Y-95764429D01*
X162340857Y-96450144D01*
X161140857Y-96450144D01*
X161140857Y-96907287D02*
X161140857Y-97650144D01*
X161598000Y-97250144D01*
X161598000Y-97421572D01*
X161655143Y-97535858D01*
X161712286Y-97593001D01*
X161826571Y-97650144D01*
X162112286Y-97650144D01*
X162226571Y-97593001D01*
X162283714Y-97535858D01*
X162340857Y-97421572D01*
X162340857Y-97078715D01*
X162283714Y-96964429D01*
X162226571Y-96907287D01*
X159172286Y-94907286D02*
X159172286Y-95307286D01*
X159800857Y-95478715D02*
X159800857Y-94907286D01*
X158600857Y-94907286D01*
X158600857Y-95478715D01*
X159800857Y-95993000D02*
X158600857Y-95993000D01*
X159800857Y-96678715D01*
X158600857Y-96678715D01*
X159172286Y-97650143D02*
X159229429Y-97821572D01*
X159286571Y-97878715D01*
X159400857Y-97935858D01*
X159572286Y-97935858D01*
X159686571Y-97878715D01*
X159743714Y-97821572D01*
X159800857Y-97707286D01*
X159800857Y-97250143D01*
X158600857Y-97250143D01*
X158600857Y-97650143D01*
X158658000Y-97764429D01*
X158715143Y-97821572D01*
X158829429Y-97878715D01*
X158943714Y-97878715D01*
X159058000Y-97821572D01*
X159115143Y-97764429D01*
X159172286Y-97650143D01*
X159172286Y-97250143D01*
X164880857Y-95193000D02*
X163680857Y-95193000D01*
X164880857Y-95764429D02*
X163680857Y-95764429D01*
X164880857Y-96450144D01*
X163680857Y-96450144D01*
X164080857Y-97535858D02*
X164880857Y-97535858D01*
X163623714Y-97250144D02*
X164480857Y-96964429D01*
X164480857Y-97707287D01*
X172500857Y-95167714D02*
X171300857Y-95167714D01*
X172500857Y-95739143D02*
X171300857Y-95739143D01*
X172500857Y-96424858D01*
X171300857Y-96424858D01*
X171415143Y-96939143D02*
X171358000Y-96996286D01*
X171300857Y-97110572D01*
X171300857Y-97396286D01*
X171358000Y-97510572D01*
X171415143Y-97567715D01*
X171529429Y-97624858D01*
X171643714Y-97624858D01*
X171815143Y-97567715D01*
X172500857Y-96882001D01*
X172500857Y-97624858D01*
X169833857Y-95193000D02*
X168633857Y-95193000D01*
X169833857Y-95764429D02*
X168633857Y-95764429D01*
X169833857Y-96450144D01*
X168633857Y-96450144D01*
X169833857Y-97650144D02*
X169833857Y-96964429D01*
X169833857Y-97307287D02*
X168633857Y-97307287D01*
X168805286Y-97193001D01*
X168919571Y-97078715D01*
X168976714Y-96964429D01*
X166792286Y-94993000D02*
X166792286Y-95393000D01*
X167420857Y-95564429D02*
X167420857Y-94993000D01*
X166220857Y-94993000D01*
X166220857Y-95564429D01*
X167420857Y-96078714D02*
X166220857Y-96078714D01*
X167420857Y-96764429D01*
X166220857Y-96764429D01*
X167078000Y-97278714D02*
X167078000Y-97850143D01*
X167420857Y-97164429D02*
X166220857Y-97564429D01*
X167420857Y-97964429D01*
D14*
X194516857Y-86421144D02*
X195716857Y-86821144D01*
X194516857Y-87221144D01*
X195088286Y-88021143D02*
X195145429Y-88192572D01*
X195202571Y-88249715D01*
X195316857Y-88306858D01*
X195488286Y-88306858D01*
X195602571Y-88249715D01*
X195659714Y-88192572D01*
X195716857Y-88078286D01*
X195716857Y-87621143D01*
X194516857Y-87621143D01*
X194516857Y-88021143D01*
X194574000Y-88135429D01*
X194631143Y-88192572D01*
X194745429Y-88249715D01*
X194859714Y-88249715D01*
X194974000Y-88192572D01*
X195031143Y-88135429D01*
X195088286Y-88021143D01*
X195088286Y-87621143D01*
X195374000Y-88764000D02*
X195374000Y-89335429D01*
X195716857Y-88649715D02*
X194516857Y-89049715D01*
X195716857Y-89449715D01*
X194516857Y-89678286D02*
X194516857Y-90364000D01*
X195716857Y-90021143D02*
X194516857Y-90021143D01*
X195602571Y-90764000D02*
X195659714Y-90821143D01*
X195716857Y-90764000D01*
X195659714Y-90706857D01*
X195602571Y-90764000D01*
X195716857Y-90764000D01*
X194974000Y-90764000D02*
X195031143Y-90821143D01*
X195088286Y-90764000D01*
X195031143Y-90706857D01*
X194974000Y-90764000D01*
X195088286Y-90764000D01*
X194516857Y-92821144D02*
X194516857Y-92249715D01*
X195088286Y-92192572D01*
X195031143Y-92249715D01*
X194974000Y-92364001D01*
X194974000Y-92649715D01*
X195031143Y-92764001D01*
X195088286Y-92821144D01*
X195202571Y-92878287D01*
X195488286Y-92878287D01*
X195602571Y-92821144D01*
X195659714Y-92764001D01*
X195716857Y-92649715D01*
X195716857Y-92364001D01*
X195659714Y-92249715D01*
X195602571Y-92192572D01*
X195602571Y-93392572D02*
X195659714Y-93449715D01*
X195716857Y-93392572D01*
X195659714Y-93335429D01*
X195602571Y-93392572D01*
X195716857Y-93392572D01*
X194516857Y-94535430D02*
X194516857Y-93964001D01*
X195088286Y-93906858D01*
X195031143Y-93964001D01*
X194974000Y-94078287D01*
X194974000Y-94364001D01*
X195031143Y-94478287D01*
X195088286Y-94535430D01*
X195202571Y-94592573D01*
X195488286Y-94592573D01*
X195602571Y-94535430D01*
X195659714Y-94478287D01*
X195716857Y-94364001D01*
X195716857Y-94078287D01*
X195659714Y-93964001D01*
X195602571Y-93906858D01*
X195259714Y-95106858D02*
X195259714Y-96021144D01*
X194516857Y-96478287D02*
X194516857Y-97221144D01*
X194974000Y-96821144D01*
X194974000Y-96992572D01*
X195031143Y-97106858D01*
X195088286Y-97164001D01*
X195202571Y-97221144D01*
X195488286Y-97221144D01*
X195602571Y-97164001D01*
X195659714Y-97106858D01*
X195716857Y-96992572D01*
X195716857Y-96649715D01*
X195659714Y-96535429D01*
X195602571Y-96478287D01*
X194516857Y-98249715D02*
X194516857Y-98021144D01*
X194574000Y-97906858D01*
X194631143Y-97849715D01*
X194802571Y-97735429D01*
X195031143Y-97678286D01*
X195488286Y-97678286D01*
X195602571Y-97735429D01*
X195659714Y-97792572D01*
X195716857Y-97906858D01*
X195716857Y-98135429D01*
X195659714Y-98249715D01*
X195602571Y-98306858D01*
X195488286Y-98364001D01*
X195202571Y-98364001D01*
X195088286Y-98306858D01*
X195031143Y-98249715D01*
X194974000Y-98135429D01*
X194974000Y-97906858D01*
X195031143Y-97792572D01*
X195088286Y-97735429D01*
X195202571Y-97678286D01*
X194516857Y-98706858D02*
X195716857Y-99106858D01*
X194516857Y-99506858D01*
X196446857Y-87078286D02*
X197646857Y-87478286D01*
X196446857Y-87878286D01*
X197646857Y-88278285D02*
X196446857Y-88278285D01*
X197304000Y-88678285D01*
X196446857Y-89078285D01*
X197646857Y-89078285D01*
X196446857Y-89878286D02*
X196446857Y-90106857D01*
X196504000Y-90221143D01*
X196618286Y-90335429D01*
X196846857Y-90392571D01*
X197246857Y-90392571D01*
X197475429Y-90335429D01*
X197589714Y-90221143D01*
X197646857Y-90106857D01*
X197646857Y-89878286D01*
X197589714Y-89764000D01*
X197475429Y-89649714D01*
X197246857Y-89592571D01*
X196846857Y-89592571D01*
X196618286Y-89649714D01*
X196504000Y-89764000D01*
X196446857Y-89878286D01*
X196446857Y-90735429D02*
X196446857Y-91421143D01*
X197646857Y-91078286D02*
X196446857Y-91078286D01*
X197532571Y-91821143D02*
X197589714Y-91878286D01*
X197646857Y-91821143D01*
X197589714Y-91764000D01*
X197532571Y-91821143D01*
X197646857Y-91821143D01*
X196904000Y-91821143D02*
X196961143Y-91878286D01*
X197018286Y-91821143D01*
X196961143Y-91764000D01*
X196904000Y-91821143D01*
X197018286Y-91821143D01*
X196446857Y-93192573D02*
X196446857Y-93992573D01*
X197646857Y-93478287D01*
X197189714Y-94449715D02*
X197189714Y-95364001D01*
X196846857Y-96449715D02*
X197646857Y-96449715D01*
X196389714Y-96164001D02*
X197246857Y-95878286D01*
X197246857Y-96621144D01*
X196446857Y-97649715D02*
X196446857Y-97078286D01*
X197018286Y-97021143D01*
X196961143Y-97078286D01*
X196904000Y-97192572D01*
X196904000Y-97478286D01*
X196961143Y-97592572D01*
X197018286Y-97649715D01*
X197132571Y-97706858D01*
X197418286Y-97706858D01*
X197532571Y-97649715D01*
X197589714Y-97592572D01*
X197646857Y-97478286D01*
X197646857Y-97192572D01*
X197589714Y-97078286D01*
X197532571Y-97021143D01*
X196446857Y-98049715D02*
X197646857Y-98449715D01*
X196446857Y-98849715D01*
X199576857Y-87478285D02*
X198376857Y-87478285D01*
X199691143Y-87764000D02*
X199691143Y-88678286D01*
X199576857Y-88964000D02*
X198776857Y-88964000D01*
X198891143Y-88964000D02*
X198834000Y-89021143D01*
X198776857Y-89135429D01*
X198776857Y-89306857D01*
X198834000Y-89421143D01*
X198948286Y-89478286D01*
X199576857Y-89478286D01*
X198948286Y-89478286D02*
X198834000Y-89535429D01*
X198776857Y-89649715D01*
X198776857Y-89821143D01*
X198834000Y-89935429D01*
X198948286Y-89992572D01*
X199576857Y-89992572D01*
X199576857Y-91078286D02*
X198948286Y-91078286D01*
X198834000Y-91021143D01*
X198776857Y-90906857D01*
X198776857Y-90678286D01*
X198834000Y-90564000D01*
X199519714Y-91078286D02*
X199576857Y-90964000D01*
X199576857Y-90678286D01*
X199519714Y-90564000D01*
X199405429Y-90506857D01*
X199291143Y-90506857D01*
X199176857Y-90564000D01*
X199119714Y-90678286D01*
X199119714Y-90964000D01*
X199062571Y-91078286D01*
X199576857Y-91535429D02*
X198776857Y-92164000D01*
X198776857Y-91535429D02*
X199576857Y-92164000D01*
X198948286Y-93535429D02*
X198948286Y-94449715D01*
X199291143Y-94449715D02*
X199291143Y-93535429D01*
X198776857Y-96449715D02*
X199576857Y-96449715D01*
X198319714Y-96164001D02*
X199176857Y-95878286D01*
X199176857Y-96621144D01*
X199234000Y-97935429D02*
X199234000Y-98506858D01*
X199576857Y-97821144D02*
X198376857Y-98221144D01*
X199576857Y-98621144D01*
M02*
