M48
;DRILL file {KiCad 4.0.6} date 12/03/17 01:19:21
;FORMAT={3:3/ absolute / metric / keep zeros}
FMAT,2
METRIC,TZ
T1C0.330
T2C0.400
T3C1.000
T4C4.500
%
G90
G05
M71
T1
X157734Y-084836
X157988Y-086106
X160008Y-087884
X160020Y-069088
X163068Y-085344
X164084Y-096393
X165354Y-089408
X167386Y-097028
X169799Y-096393
X176784Y-089408
X181610Y-093218
X183515Y-093091
X186690Y-086868
X189230Y-086868
X196088Y-058928
X197358Y-058928
X198628Y-058928
X200152Y-058928
X201676Y-058928
T2
X158242Y-096774
X158242Y-096901
X158750Y-065786
X159258Y-088900
X160655Y-073152
X161569Y-096876
X161773Y-087859
X162916Y-096926
X163271Y-091643
X165354Y-067310
X165989Y-059436
X168275Y-066802
X168834Y-096977
X168910Y-087122
X169291Y-091719
X169697Y-087935
X169926Y-081280
X170434Y-070866
X170434Y-087122
X170688Y-098806
X170942Y-089408
X171069Y-096393
X171196Y-079121
X173863Y-085344
X174625Y-091110
X176530Y-075946
X179680Y-088214
X180975Y-064008
X182067Y-078943
X182372Y-098044
X182855Y-095428
X183286Y-089129
X183693Y-093853
X183744Y-090170
X183998Y-095606
X184658Y-084836
X184785Y-065278
X184836Y-093370
X184912Y-060706
X184912Y-062484
X184912Y-064008
X184912Y-069596
X186055Y-098552
X186182Y-064008
X186284Y-091338
X187198Y-085598
X187325Y-065151
X187325Y-069596
X187452Y-064008
X188087Y-090094
X188189Y-092558
X188214Y-085598
X188646Y-075514
X188722Y-083566
X188824Y-084582
X189738Y-065278
X189865Y-069469
X190094Y-095072
X190500Y-084836
X192024Y-065151
X192024Y-084836
X192786Y-069596
X193548Y-058928
X193599Y-075184
X194818Y-058928
X195199Y-069469
X195326Y-065151
X195326Y-084836
X196596Y-084836
X197866Y-084836
X197993Y-065151
X197993Y-069596
X199136Y-084836
X199263Y-074778
X199390Y-083566
X200406Y-069596
X200533Y-065151
X201422Y-090018
X202692Y-065151
X202819Y-069596
X202946Y-058928
X202946Y-060198
X202946Y-061468
X202997Y-091897
X203149Y-089179
X203200Y-087630
X203479Y-096698
X203962Y-058928
X203962Y-060198
X203962Y-061468
X203962Y-062738
T3
X159258Y-099568
X159385Y-077343
X159385Y-079883
X159385Y-082423
X159385Y-084963
X161798Y-099568
X164338Y-099568
X166878Y-099568
X169418Y-099568
X171958Y-099568
X174498Y-099568
X177038Y-099568
X179578Y-099568
X182118Y-099568
X184658Y-099568
X187452Y-061468
X189992Y-061468
X192532Y-061468
X195072Y-061468
X197612Y-061468
X200152Y-061468
T4
X161671Y-061976
X169171Y-061976
T0
M30
