G04 #@! TF.FileFunction,Copper,L2,Bot,Signal*
%FSLAX46Y46*%
G04 Gerber Fmt 4.6, Leading zero omitted, Abs format (unit mm)*
G04 Created by KiCad (PCBNEW 4.0.6) date 12/03/17 01:19:17*
%MOMM*%
%LPD*%
G01*
G04 APERTURE LIST*
%ADD10C,0.100000*%
%ADD11R,1.700000X1.700000*%
%ADD12O,1.700000X1.700000*%
%ADD13C,6.000000*%
%ADD14C,0.600000*%
%ADD15C,0.482600*%
%ADD16C,0.500000*%
%ADD17C,0.254000*%
%ADD18C,0.381000*%
%ADD19C,0.812800*%
%ADD20C,0.508000*%
%ADD21C,0.226060*%
G04 APERTURE END LIST*
D10*
D11*
X187452000Y-61468000D03*
D12*
X189992000Y-61468000D03*
X192532000Y-61468000D03*
X195072000Y-61468000D03*
X197612000Y-61468000D03*
X200152000Y-61468000D03*
D13*
X161671000Y-61976000D03*
X169171000Y-61976000D03*
D11*
X166878000Y-99568000D03*
D12*
X169418000Y-99568000D03*
X171958000Y-99568000D03*
D11*
X159258000Y-99568000D03*
D12*
X161798000Y-99568000D03*
X164338000Y-99568000D03*
D11*
X159385000Y-77343000D03*
D12*
X159385000Y-79883000D03*
X159385000Y-82423000D03*
X159385000Y-84963000D03*
D11*
X174498000Y-99568000D03*
D12*
X177038000Y-99568000D03*
X179578000Y-99568000D03*
X182118000Y-99568000D03*
X184658000Y-99568000D03*
D14*
X184912000Y-60706000D03*
X184912000Y-62484000D03*
X184912000Y-64008000D03*
X186182000Y-64008000D03*
X187452000Y-64008000D03*
X169926000Y-81280000D03*
X195326000Y-84836000D03*
X196596000Y-84836000D03*
X197866000Y-84836000D03*
X199136000Y-84836000D03*
X199390000Y-83566000D03*
X187198000Y-85598000D03*
X188214000Y-85598000D03*
X190500000Y-84836000D03*
X192024000Y-84836000D03*
X165354000Y-67310000D03*
X171196000Y-79121000D03*
X203962000Y-62738000D03*
D15*
X196088000Y-58928000D03*
X197358000Y-58928000D03*
X198628000Y-58928000D03*
X200152000Y-58928000D03*
X201676000Y-58928000D03*
D14*
X194818000Y-58928000D03*
X203962000Y-58928000D03*
X203962000Y-60198000D03*
X203962000Y-61468000D03*
X202946000Y-61468000D03*
X202946000Y-60198000D03*
X202946000Y-58928000D03*
X193548000Y-58928000D03*
X158750000Y-65786000D03*
X165989000Y-59436000D03*
X160655000Y-73152000D03*
X173863000Y-85344000D03*
X184912000Y-69596000D03*
X187325000Y-69596000D03*
X187325000Y-65151000D03*
X184785000Y-65278000D03*
X192786000Y-69596000D03*
X189865000Y-69469000D03*
X189738000Y-65278000D03*
X192024000Y-65151000D03*
X195199000Y-69469000D03*
X197993000Y-69596000D03*
X197993000Y-65151000D03*
X195326000Y-65151000D03*
X202819000Y-69596000D03*
X200406000Y-69596000D03*
X202692000Y-65151000D03*
X200533000Y-65151000D03*
D15*
X160020000Y-69088000D03*
X189230000Y-86868000D03*
X186690000Y-86868000D03*
X163068000Y-85344000D03*
X165354000Y-89408000D03*
D16*
X170942000Y-89408000D03*
X184658000Y-84836000D03*
X168910000Y-87122000D03*
X170434000Y-87122000D03*
X159258000Y-88900000D03*
D15*
X176784000Y-89408000D03*
D14*
X203200000Y-87630000D03*
X199263000Y-74777600D03*
X203479400Y-96697800D03*
D15*
X183515000Y-93091000D03*
X181610000Y-93218000D03*
X164084000Y-96393000D03*
X169799000Y-96393000D03*
D14*
X171069000Y-96393000D03*
X182372000Y-98044000D03*
X158242000Y-96901000D03*
X158242000Y-96774000D03*
D15*
X160008000Y-87884000D03*
X157734000Y-84836000D03*
X157988000Y-86106000D03*
D14*
X170688000Y-98806000D03*
X188722000Y-83566000D03*
X188645800Y-75514200D03*
X188823600Y-84582000D03*
X193598800Y-75184000D03*
X190093600Y-95072200D03*
X176530000Y-75946000D03*
X170434000Y-70866000D03*
X183286400Y-89128600D03*
X182067200Y-78943200D03*
D15*
X167386000Y-97028000D03*
D14*
X168833800Y-96977200D03*
X161569400Y-96875600D03*
X162915600Y-96926400D03*
X168275000Y-66802000D03*
X180975000Y-64008000D03*
X184835800Y-93370400D03*
X174625000Y-91109800D03*
X186055000Y-98552000D03*
X202996800Y-91897200D03*
X201422000Y-90017600D03*
X183997600Y-95605600D03*
X183692800Y-93853000D03*
X169291000Y-91719400D03*
X203149200Y-89179400D03*
X182854600Y-95427800D03*
X188087000Y-90093800D03*
X161772600Y-87858600D03*
X169697400Y-87934800D03*
X179679600Y-88214200D03*
X183743600Y-90170000D03*
X186283600Y-91338400D03*
X188188600Y-92557600D03*
X163271200Y-91643200D03*
D17*
X186182000Y-64008000D02*
X184912000Y-64008000D01*
X184912000Y-62484000D02*
X184912000Y-60706000D01*
X186182000Y-65786000D02*
X186182000Y-64008000D01*
X187452000Y-64008000D02*
X186182000Y-64008000D01*
D18*
X195326000Y-84836000D02*
X196596000Y-84836000D01*
X197866000Y-84836000D02*
X199136000Y-84836000D01*
X188214000Y-85598000D02*
X187198000Y-85598000D01*
X192024000Y-84836000D02*
X190500000Y-84836000D01*
D19*
X161671000Y-61976000D02*
X161671000Y-66675000D01*
X161671000Y-66675000D02*
X161798000Y-66802000D01*
D17*
X201676000Y-58928000D02*
X202946000Y-58928000D01*
D18*
X195072000Y-58928000D02*
X196088000Y-58928000D01*
X197358000Y-58928000D02*
X198628000Y-58928000D01*
X200152000Y-58928000D02*
X201676000Y-58928000D01*
X195072000Y-61468000D02*
X195072000Y-58928000D01*
D17*
X203962000Y-61468000D02*
X203962000Y-60198000D01*
X202946000Y-60198000D02*
X202946000Y-61468000D01*
D19*
X204241400Y-79756000D02*
X199263000Y-74777600D01*
X204241400Y-95935800D02*
X204241400Y-79756000D01*
X203479400Y-96697800D02*
X204241400Y-95935800D01*
D18*
X181737000Y-93091000D02*
X183515000Y-93091000D01*
X181610000Y-93218000D02*
X181737000Y-93091000D01*
X159385000Y-79883000D02*
X159258000Y-79883000D01*
D17*
X164084000Y-96393000D02*
X165481000Y-96393000D01*
X169418000Y-96012000D02*
X169799000Y-96393000D01*
X165862000Y-96012000D02*
X169418000Y-96012000D01*
X165481000Y-96393000D02*
X165862000Y-96012000D01*
D18*
X158242000Y-96901000D02*
X158242000Y-96774000D01*
X160008000Y-87884000D02*
X160020000Y-87884000D01*
X157734000Y-84836000D02*
X157988000Y-85090000D01*
X157988000Y-85090000D02*
X157988000Y-86106000D01*
D17*
X173482000Y-101346000D02*
X174498000Y-100330000D01*
X171450000Y-101346000D02*
X173482000Y-101346000D01*
X170688000Y-100584000D02*
X171450000Y-101346000D01*
X170688000Y-98806000D02*
X170688000Y-100584000D01*
X174498000Y-100330000D02*
X174498000Y-99568000D01*
D18*
X188823600Y-84582000D02*
X188823600Y-83667600D01*
X188823600Y-83667600D02*
X188722000Y-83566000D01*
D19*
X188645800Y-84404200D02*
X188645800Y-75514200D01*
X188823600Y-84582000D02*
X188645800Y-84404200D01*
X193598800Y-91567000D02*
X193598800Y-75184000D01*
X190093600Y-95072200D02*
X193598800Y-91567000D01*
D20*
X175514000Y-75946000D02*
X176530000Y-75946000D01*
X170434000Y-70866000D02*
X175514000Y-75946000D01*
D19*
X183286400Y-80162400D02*
X183286400Y-89128600D01*
X182067200Y-78943200D02*
X183286400Y-80162400D01*
D18*
X166878000Y-99568000D02*
X166878000Y-97536000D01*
X166878000Y-97536000D02*
X167386000Y-97028000D01*
X159258000Y-99568000D02*
X159258000Y-100431600D01*
X168173400Y-97637600D02*
X168833800Y-96977200D01*
X168173400Y-100634800D02*
X168173400Y-97637600D01*
X167843200Y-100965000D02*
X168173400Y-100634800D01*
X159791400Y-100965000D02*
X167843200Y-100965000D01*
X159258000Y-100431600D02*
X159791400Y-100965000D01*
X161798000Y-99568000D02*
X161798000Y-97104200D01*
X161798000Y-97104200D02*
X161569400Y-96875600D01*
X164338000Y-99568000D02*
X164338000Y-98348800D01*
X164338000Y-98348800D02*
X162915600Y-96926400D01*
X170688000Y-66802000D02*
X168275000Y-66802000D01*
X173609000Y-63881000D02*
X170688000Y-66802000D01*
X180848000Y-63881000D02*
X173609000Y-63881000D01*
X180975000Y-64008000D02*
X180848000Y-63881000D01*
X174625000Y-91363800D02*
X174625000Y-91109800D01*
X175564800Y-92303600D02*
X174625000Y-91363800D01*
X183769000Y-92303600D02*
X175564800Y-92303600D01*
X183769000Y-92303600D02*
X184835800Y-93370400D01*
X193319400Y-98552000D02*
X186055000Y-98552000D01*
X199364600Y-92506800D02*
X193319400Y-98552000D01*
X202742800Y-92506800D02*
X199364600Y-92506800D01*
X202996800Y-91897200D02*
X202742800Y-92506800D01*
X199263000Y-90017600D02*
X201422000Y-90017600D01*
X192633600Y-96647000D02*
X199263000Y-90017600D01*
X185039000Y-96647000D02*
X192633600Y-96647000D01*
X183997600Y-95605600D02*
X185039000Y-96647000D01*
X171424600Y-93853000D02*
X183692800Y-93853000D01*
X169291000Y-91719400D02*
X171424600Y-93853000D01*
X203149200Y-90601800D02*
X203149200Y-89179400D01*
X202488800Y-91262200D02*
X203149200Y-90601800D01*
X199212200Y-91262200D02*
X202488800Y-91262200D01*
X192862200Y-97612200D02*
X199212200Y-91262200D01*
X184429400Y-97612200D02*
X192862200Y-97612200D01*
X183035598Y-96218398D02*
X184429400Y-97612200D01*
X183035598Y-95246802D02*
X183035598Y-96218398D01*
X182854600Y-95427800D02*
X183035598Y-95246802D01*
X187960000Y-90220800D02*
X188087000Y-90093800D01*
X187960000Y-90932000D02*
X187960000Y-90220800D01*
X186385200Y-92506800D02*
X187960000Y-90932000D01*
X184886600Y-92506800D02*
X186385200Y-92506800D01*
X182168800Y-89789000D02*
X184886600Y-92506800D01*
X182168800Y-88696800D02*
X182168800Y-89789000D01*
X179730400Y-86258400D02*
X182168800Y-88696800D01*
X163372800Y-86258400D02*
X179730400Y-86258400D01*
X161772600Y-87858600D02*
X163372800Y-86258400D01*
X169697400Y-87934800D02*
X169976800Y-88214200D01*
X169976800Y-88214200D02*
X179679600Y-88214200D01*
X183743600Y-90170000D02*
X184912000Y-91338400D01*
X184912000Y-91338400D02*
X186283600Y-91338400D01*
X186080400Y-94665800D02*
X188188600Y-92557600D01*
X166293800Y-94665800D02*
X186080400Y-94665800D01*
X163271200Y-91643200D02*
X166293800Y-94665800D01*
D21*
G36*
X157783185Y-83585217D02*
X158349877Y-84109737D01*
X158518750Y-84172161D01*
X158287715Y-84517928D01*
X158199185Y-84963000D01*
X158287715Y-85408072D01*
X158539829Y-85785386D01*
X158917143Y-86037500D01*
X159362215Y-86126030D01*
X159407785Y-86126030D01*
X159852857Y-86037500D01*
X160230171Y-85785386D01*
X160482285Y-85408072D01*
X160570815Y-84963000D01*
X160482285Y-84517928D01*
X160251250Y-84172161D01*
X160420123Y-84109737D01*
X160668970Y-83879409D01*
X160668970Y-88278970D01*
X157988000Y-88278970D01*
X157944025Y-88287875D01*
X157906979Y-88313187D01*
X157882700Y-88350918D01*
X157874970Y-88392000D01*
X157874970Y-90932000D01*
X157883875Y-90975975D01*
X157909187Y-91013021D01*
X157946918Y-91037300D01*
X157988000Y-91045030D01*
X159398970Y-91045030D01*
X159398970Y-93472000D01*
X159407875Y-93515975D01*
X159433187Y-93553021D01*
X159470918Y-93577300D01*
X159510835Y-93585024D01*
X164552906Y-93637004D01*
X165937751Y-95021850D01*
X166012434Y-95071751D01*
X166101107Y-95131001D01*
X166293800Y-95169330D01*
X182298147Y-95169330D01*
X182241677Y-95305326D01*
X182241464Y-95549204D01*
X182334595Y-95774600D01*
X182506893Y-95947199D01*
X182532068Y-95957652D01*
X182532068Y-96218398D01*
X182570397Y-96411091D01*
X182668418Y-96557788D01*
X182679549Y-96574447D01*
X184073351Y-97968250D01*
X184236708Y-98077402D01*
X184429400Y-98115730D01*
X185624319Y-98115730D01*
X185535601Y-98204293D01*
X185442077Y-98429526D01*
X185441864Y-98673404D01*
X185455383Y-98706122D01*
X185103072Y-98470715D01*
X184658000Y-98382185D01*
X184212928Y-98470715D01*
X183835614Y-98722829D01*
X183583500Y-99100143D01*
X183494970Y-99545215D01*
X183494970Y-99590785D01*
X183583500Y-100035857D01*
X183835614Y-100413171D01*
X184212928Y-100665285D01*
X184658000Y-100753815D01*
X185103072Y-100665285D01*
X185480386Y-100413171D01*
X185732500Y-100035857D01*
X185821030Y-99590785D01*
X185821030Y-99545215D01*
X185732500Y-99100143D01*
X185715598Y-99074848D01*
X185932526Y-99164923D01*
X186176404Y-99165136D01*
X186401800Y-99072005D01*
X186418304Y-99055530D01*
X186576970Y-99055530D01*
X186576970Y-101211970D01*
X178108621Y-101211970D01*
X178200217Y-101169815D01*
X178724737Y-100603123D01*
X178787161Y-100434250D01*
X179132928Y-100665285D01*
X179578000Y-100753815D01*
X180023072Y-100665285D01*
X180400386Y-100413171D01*
X180652500Y-100035857D01*
X180741030Y-99590785D01*
X180741030Y-99545215D01*
X180954970Y-99545215D01*
X180954970Y-99590785D01*
X181043500Y-100035857D01*
X181295614Y-100413171D01*
X181672928Y-100665285D01*
X182118000Y-100753815D01*
X182563072Y-100665285D01*
X182940386Y-100413171D01*
X183192500Y-100035857D01*
X183281030Y-99590785D01*
X183281030Y-99545215D01*
X183192500Y-99100143D01*
X182940386Y-98722829D01*
X182563072Y-98470715D01*
X182118000Y-98382185D01*
X181672928Y-98470715D01*
X181295614Y-98722829D01*
X181043500Y-99100143D01*
X180954970Y-99545215D01*
X180741030Y-99545215D01*
X180652500Y-99100143D01*
X180400386Y-98722829D01*
X180023072Y-98470715D01*
X179578000Y-98382185D01*
X179132928Y-98470715D01*
X178787161Y-98701750D01*
X178724737Y-98532877D01*
X178200217Y-97966185D01*
X177498760Y-97643355D01*
X177348843Y-97613534D01*
X177039270Y-97871227D01*
X177039270Y-99566730D01*
X177059270Y-99566730D01*
X177059270Y-99569270D01*
X177039270Y-99569270D01*
X177039270Y-99589270D01*
X177036730Y-99589270D01*
X177036730Y-99569270D01*
X177016730Y-99569270D01*
X177016730Y-99566730D01*
X177036730Y-99566730D01*
X177036730Y-97871227D01*
X176727157Y-97613534D01*
X176577240Y-97643355D01*
X175875783Y-97966185D01*
X175455229Y-98420552D01*
X175348000Y-98398838D01*
X173648000Y-98398838D01*
X173531998Y-98420665D01*
X173425458Y-98489222D01*
X173353983Y-98593828D01*
X173328838Y-98718000D01*
X173328838Y-100418000D01*
X173350665Y-100534002D01*
X173419222Y-100640542D01*
X173505922Y-100699782D01*
X173299734Y-100905970D01*
X171632266Y-100905970D01*
X171147226Y-100420930D01*
X171512928Y-100665285D01*
X171958000Y-100753815D01*
X172403072Y-100665285D01*
X172780386Y-100413171D01*
X173032500Y-100035857D01*
X173121030Y-99590785D01*
X173121030Y-99545215D01*
X173032500Y-99100143D01*
X172780386Y-98722829D01*
X172403072Y-98470715D01*
X171958000Y-98382185D01*
X171512928Y-98470715D01*
X171277704Y-98627887D01*
X171208005Y-98459200D01*
X171035707Y-98286601D01*
X170810474Y-98193077D01*
X170566596Y-98192864D01*
X170341200Y-98285995D01*
X170168601Y-98458293D01*
X170098205Y-98627827D01*
X169863072Y-98470715D01*
X169418000Y-98382185D01*
X168972928Y-98470715D01*
X168676930Y-98668495D01*
X168676930Y-97846168D01*
X168932782Y-97590316D01*
X168955204Y-97590336D01*
X169180600Y-97497205D01*
X169353199Y-97324907D01*
X169446723Y-97099674D01*
X169446936Y-96855796D01*
X169353805Y-96630400D01*
X169181507Y-96457801D01*
X168956274Y-96364277D01*
X168712396Y-96364064D01*
X168487000Y-96457195D01*
X168314401Y-96629493D01*
X168220877Y-96854726D01*
X168220857Y-96878045D01*
X167926088Y-97172814D01*
X167940234Y-97138747D01*
X167940426Y-96918221D01*
X167856212Y-96714407D01*
X167700413Y-96558336D01*
X167496747Y-96473766D01*
X167276221Y-96473574D01*
X167072407Y-96557788D01*
X166916336Y-96713587D01*
X166865224Y-96836677D01*
X166521951Y-97179951D01*
X166412799Y-97343307D01*
X166374470Y-97536000D01*
X166374470Y-98398838D01*
X166028000Y-98398838D01*
X165911998Y-98420665D01*
X165805458Y-98489222D01*
X165733983Y-98593828D01*
X165708838Y-98718000D01*
X165708838Y-100418000D01*
X165717017Y-100461470D01*
X165088102Y-100461470D01*
X165160386Y-100413171D01*
X165412500Y-100035857D01*
X165501030Y-99590785D01*
X165501030Y-99545215D01*
X165412500Y-99100143D01*
X165160386Y-98722829D01*
X164841530Y-98509776D01*
X164841530Y-98348800D01*
X164803201Y-98156107D01*
X164767583Y-98102801D01*
X164694049Y-97992750D01*
X163528716Y-96827418D01*
X163528736Y-96804996D01*
X163435605Y-96579600D01*
X163263307Y-96407001D01*
X163038074Y-96313477D01*
X162794196Y-96313264D01*
X162568800Y-96406395D01*
X162396201Y-96578693D01*
X162302677Y-96803926D01*
X162302464Y-97047804D01*
X162395595Y-97273200D01*
X162567893Y-97445799D01*
X162793126Y-97539323D01*
X162816445Y-97539343D01*
X163805940Y-98528839D01*
X163515614Y-98722829D01*
X163263500Y-99100143D01*
X163174970Y-99545215D01*
X163174970Y-99590785D01*
X163263500Y-100035857D01*
X163515614Y-100413171D01*
X163587898Y-100461470D01*
X162548102Y-100461470D01*
X162620386Y-100413171D01*
X162872500Y-100035857D01*
X162961030Y-99590785D01*
X162961030Y-99545215D01*
X162872500Y-99100143D01*
X162620386Y-98722829D01*
X162301530Y-98509776D01*
X162301530Y-97104200D01*
X162263201Y-96911507D01*
X162182504Y-96790737D01*
X162182536Y-96754196D01*
X162089405Y-96528800D01*
X161917107Y-96356201D01*
X161691874Y-96262677D01*
X161447996Y-96262464D01*
X161222600Y-96355595D01*
X161050001Y-96527893D01*
X160956477Y-96753126D01*
X160956264Y-96997004D01*
X161049395Y-97222400D01*
X161221693Y-97394999D01*
X161294470Y-97425218D01*
X161294470Y-98509776D01*
X160975614Y-98722829D01*
X160723500Y-99100143D01*
X160634970Y-99545215D01*
X160634970Y-99590785D01*
X160723500Y-100035857D01*
X160975614Y-100413171D01*
X161047898Y-100461470D01*
X160418359Y-100461470D01*
X160427162Y-100418000D01*
X160427162Y-98718000D01*
X160405335Y-98601998D01*
X160336778Y-98495458D01*
X160232172Y-98423983D01*
X160108000Y-98398838D01*
X158408000Y-98398838D01*
X158291998Y-98420665D01*
X158185458Y-98489222D01*
X158113983Y-98593828D01*
X158088838Y-98718000D01*
X158088838Y-100418000D01*
X158110665Y-100534002D01*
X158179222Y-100640542D01*
X158283828Y-100712017D01*
X158408000Y-100737162D01*
X158868216Y-100737162D01*
X158879344Y-100753815D01*
X158901951Y-100787649D01*
X159326271Y-101211970D01*
X157614030Y-101211970D01*
X157614030Y-83217671D01*
X157783185Y-83585217D01*
X157783185Y-83585217D01*
G37*
X157783185Y-83585217D02*
X158349877Y-84109737D01*
X158518750Y-84172161D01*
X158287715Y-84517928D01*
X158199185Y-84963000D01*
X158287715Y-85408072D01*
X158539829Y-85785386D01*
X158917143Y-86037500D01*
X159362215Y-86126030D01*
X159407785Y-86126030D01*
X159852857Y-86037500D01*
X160230171Y-85785386D01*
X160482285Y-85408072D01*
X160570815Y-84963000D01*
X160482285Y-84517928D01*
X160251250Y-84172161D01*
X160420123Y-84109737D01*
X160668970Y-83879409D01*
X160668970Y-88278970D01*
X157988000Y-88278970D01*
X157944025Y-88287875D01*
X157906979Y-88313187D01*
X157882700Y-88350918D01*
X157874970Y-88392000D01*
X157874970Y-90932000D01*
X157883875Y-90975975D01*
X157909187Y-91013021D01*
X157946918Y-91037300D01*
X157988000Y-91045030D01*
X159398970Y-91045030D01*
X159398970Y-93472000D01*
X159407875Y-93515975D01*
X159433187Y-93553021D01*
X159470918Y-93577300D01*
X159510835Y-93585024D01*
X164552906Y-93637004D01*
X165937751Y-95021850D01*
X166012434Y-95071751D01*
X166101107Y-95131001D01*
X166293800Y-95169330D01*
X182298147Y-95169330D01*
X182241677Y-95305326D01*
X182241464Y-95549204D01*
X182334595Y-95774600D01*
X182506893Y-95947199D01*
X182532068Y-95957652D01*
X182532068Y-96218398D01*
X182570397Y-96411091D01*
X182668418Y-96557788D01*
X182679549Y-96574447D01*
X184073351Y-97968250D01*
X184236708Y-98077402D01*
X184429400Y-98115730D01*
X185624319Y-98115730D01*
X185535601Y-98204293D01*
X185442077Y-98429526D01*
X185441864Y-98673404D01*
X185455383Y-98706122D01*
X185103072Y-98470715D01*
X184658000Y-98382185D01*
X184212928Y-98470715D01*
X183835614Y-98722829D01*
X183583500Y-99100143D01*
X183494970Y-99545215D01*
X183494970Y-99590785D01*
X183583500Y-100035857D01*
X183835614Y-100413171D01*
X184212928Y-100665285D01*
X184658000Y-100753815D01*
X185103072Y-100665285D01*
X185480386Y-100413171D01*
X185732500Y-100035857D01*
X185821030Y-99590785D01*
X185821030Y-99545215D01*
X185732500Y-99100143D01*
X185715598Y-99074848D01*
X185932526Y-99164923D01*
X186176404Y-99165136D01*
X186401800Y-99072005D01*
X186418304Y-99055530D01*
X186576970Y-99055530D01*
X186576970Y-101211970D01*
X178108621Y-101211970D01*
X178200217Y-101169815D01*
X178724737Y-100603123D01*
X178787161Y-100434250D01*
X179132928Y-100665285D01*
X179578000Y-100753815D01*
X180023072Y-100665285D01*
X180400386Y-100413171D01*
X180652500Y-100035857D01*
X180741030Y-99590785D01*
X180741030Y-99545215D01*
X180954970Y-99545215D01*
X180954970Y-99590785D01*
X181043500Y-100035857D01*
X181295614Y-100413171D01*
X181672928Y-100665285D01*
X182118000Y-100753815D01*
X182563072Y-100665285D01*
X182940386Y-100413171D01*
X183192500Y-100035857D01*
X183281030Y-99590785D01*
X183281030Y-99545215D01*
X183192500Y-99100143D01*
X182940386Y-98722829D01*
X182563072Y-98470715D01*
X182118000Y-98382185D01*
X181672928Y-98470715D01*
X181295614Y-98722829D01*
X181043500Y-99100143D01*
X180954970Y-99545215D01*
X180741030Y-99545215D01*
X180652500Y-99100143D01*
X180400386Y-98722829D01*
X180023072Y-98470715D01*
X179578000Y-98382185D01*
X179132928Y-98470715D01*
X178787161Y-98701750D01*
X178724737Y-98532877D01*
X178200217Y-97966185D01*
X177498760Y-97643355D01*
X177348843Y-97613534D01*
X177039270Y-97871227D01*
X177039270Y-99566730D01*
X177059270Y-99566730D01*
X177059270Y-99569270D01*
X177039270Y-99569270D01*
X177039270Y-99589270D01*
X177036730Y-99589270D01*
X177036730Y-99569270D01*
X177016730Y-99569270D01*
X177016730Y-99566730D01*
X177036730Y-99566730D01*
X177036730Y-97871227D01*
X176727157Y-97613534D01*
X176577240Y-97643355D01*
X175875783Y-97966185D01*
X175455229Y-98420552D01*
X175348000Y-98398838D01*
X173648000Y-98398838D01*
X173531998Y-98420665D01*
X173425458Y-98489222D01*
X173353983Y-98593828D01*
X173328838Y-98718000D01*
X173328838Y-100418000D01*
X173350665Y-100534002D01*
X173419222Y-100640542D01*
X173505922Y-100699782D01*
X173299734Y-100905970D01*
X171632266Y-100905970D01*
X171147226Y-100420930D01*
X171512928Y-100665285D01*
X171958000Y-100753815D01*
X172403072Y-100665285D01*
X172780386Y-100413171D01*
X173032500Y-100035857D01*
X173121030Y-99590785D01*
X173121030Y-99545215D01*
X173032500Y-99100143D01*
X172780386Y-98722829D01*
X172403072Y-98470715D01*
X171958000Y-98382185D01*
X171512928Y-98470715D01*
X171277704Y-98627887D01*
X171208005Y-98459200D01*
X171035707Y-98286601D01*
X170810474Y-98193077D01*
X170566596Y-98192864D01*
X170341200Y-98285995D01*
X170168601Y-98458293D01*
X170098205Y-98627827D01*
X169863072Y-98470715D01*
X169418000Y-98382185D01*
X168972928Y-98470715D01*
X168676930Y-98668495D01*
X168676930Y-97846168D01*
X168932782Y-97590316D01*
X168955204Y-97590336D01*
X169180600Y-97497205D01*
X169353199Y-97324907D01*
X169446723Y-97099674D01*
X169446936Y-96855796D01*
X169353805Y-96630400D01*
X169181507Y-96457801D01*
X168956274Y-96364277D01*
X168712396Y-96364064D01*
X168487000Y-96457195D01*
X168314401Y-96629493D01*
X168220877Y-96854726D01*
X168220857Y-96878045D01*
X167926088Y-97172814D01*
X167940234Y-97138747D01*
X167940426Y-96918221D01*
X167856212Y-96714407D01*
X167700413Y-96558336D01*
X167496747Y-96473766D01*
X167276221Y-96473574D01*
X167072407Y-96557788D01*
X166916336Y-96713587D01*
X166865224Y-96836677D01*
X166521951Y-97179951D01*
X166412799Y-97343307D01*
X166374470Y-97536000D01*
X166374470Y-98398838D01*
X166028000Y-98398838D01*
X165911998Y-98420665D01*
X165805458Y-98489222D01*
X165733983Y-98593828D01*
X165708838Y-98718000D01*
X165708838Y-100418000D01*
X165717017Y-100461470D01*
X165088102Y-100461470D01*
X165160386Y-100413171D01*
X165412500Y-100035857D01*
X165501030Y-99590785D01*
X165501030Y-99545215D01*
X165412500Y-99100143D01*
X165160386Y-98722829D01*
X164841530Y-98509776D01*
X164841530Y-98348800D01*
X164803201Y-98156107D01*
X164767583Y-98102801D01*
X164694049Y-97992750D01*
X163528716Y-96827418D01*
X163528736Y-96804996D01*
X163435605Y-96579600D01*
X163263307Y-96407001D01*
X163038074Y-96313477D01*
X162794196Y-96313264D01*
X162568800Y-96406395D01*
X162396201Y-96578693D01*
X162302677Y-96803926D01*
X162302464Y-97047804D01*
X162395595Y-97273200D01*
X162567893Y-97445799D01*
X162793126Y-97539323D01*
X162816445Y-97539343D01*
X163805940Y-98528839D01*
X163515614Y-98722829D01*
X163263500Y-99100143D01*
X163174970Y-99545215D01*
X163174970Y-99590785D01*
X163263500Y-100035857D01*
X163515614Y-100413171D01*
X163587898Y-100461470D01*
X162548102Y-100461470D01*
X162620386Y-100413171D01*
X162872500Y-100035857D01*
X162961030Y-99590785D01*
X162961030Y-99545215D01*
X162872500Y-99100143D01*
X162620386Y-98722829D01*
X162301530Y-98509776D01*
X162301530Y-97104200D01*
X162263201Y-96911507D01*
X162182504Y-96790737D01*
X162182536Y-96754196D01*
X162089405Y-96528800D01*
X161917107Y-96356201D01*
X161691874Y-96262677D01*
X161447996Y-96262464D01*
X161222600Y-96355595D01*
X161050001Y-96527893D01*
X160956477Y-96753126D01*
X160956264Y-96997004D01*
X161049395Y-97222400D01*
X161221693Y-97394999D01*
X161294470Y-97425218D01*
X161294470Y-98509776D01*
X160975614Y-98722829D01*
X160723500Y-99100143D01*
X160634970Y-99545215D01*
X160634970Y-99590785D01*
X160723500Y-100035857D01*
X160975614Y-100413171D01*
X161047898Y-100461470D01*
X160418359Y-100461470D01*
X160427162Y-100418000D01*
X160427162Y-98718000D01*
X160405335Y-98601998D01*
X160336778Y-98495458D01*
X160232172Y-98423983D01*
X160108000Y-98398838D01*
X158408000Y-98398838D01*
X158291998Y-98420665D01*
X158185458Y-98489222D01*
X158113983Y-98593828D01*
X158088838Y-98718000D01*
X158088838Y-100418000D01*
X158110665Y-100534002D01*
X158179222Y-100640542D01*
X158283828Y-100712017D01*
X158408000Y-100737162D01*
X158868216Y-100737162D01*
X158879344Y-100753815D01*
X158901951Y-100787649D01*
X159326271Y-101211970D01*
X157614030Y-101211970D01*
X157614030Y-83217671D01*
X157783185Y-83585217D01*
G36*
X159386270Y-82421730D02*
X159406270Y-82421730D01*
X159406270Y-82424270D01*
X159386270Y-82424270D01*
X159386270Y-82444270D01*
X159383730Y-82444270D01*
X159383730Y-82424270D01*
X159363730Y-82424270D01*
X159363730Y-82421730D01*
X159383730Y-82421730D01*
X159383730Y-82401730D01*
X159386270Y-82401730D01*
X159386270Y-82421730D01*
X159386270Y-82421730D01*
G37*
X159386270Y-82421730D02*
X159406270Y-82421730D01*
X159406270Y-82424270D01*
X159386270Y-82424270D01*
X159386270Y-82444270D01*
X159383730Y-82444270D01*
X159383730Y-82424270D01*
X159363730Y-82424270D01*
X159363730Y-82421730D01*
X159383730Y-82421730D01*
X159383730Y-82401730D01*
X159386270Y-82401730D01*
X159386270Y-82421730D01*
G36*
X159470239Y-58387115D02*
X159197497Y-58569355D01*
X158894619Y-59197823D01*
X161671000Y-61974204D01*
X164447381Y-59197823D01*
X164144503Y-58569355D01*
X163559828Y-58300030D01*
X204589970Y-58300030D01*
X204589970Y-79087142D01*
X199771714Y-74268886D01*
X199538314Y-74112933D01*
X199263000Y-74058170D01*
X198987686Y-74112933D01*
X198754286Y-74268886D01*
X198598333Y-74502286D01*
X198543570Y-74777600D01*
X198598333Y-75052914D01*
X198754286Y-75286314D01*
X203521970Y-80053998D01*
X203521970Y-88685108D01*
X203496907Y-88660001D01*
X203271674Y-88566477D01*
X203027796Y-88566264D01*
X202802400Y-88659395D01*
X202629801Y-88831693D01*
X202536277Y-89056926D01*
X202536064Y-89300804D01*
X202629195Y-89526200D01*
X202645670Y-89542704D01*
X202645670Y-90393231D01*
X202280232Y-90758670D01*
X199234029Y-90758670D01*
X199471569Y-90521130D01*
X201058452Y-90521130D01*
X201074293Y-90536999D01*
X201299526Y-90630523D01*
X201543404Y-90630736D01*
X201768800Y-90537605D01*
X201941399Y-90365307D01*
X202034923Y-90140074D01*
X202035136Y-89896196D01*
X201942005Y-89670800D01*
X201769707Y-89498201D01*
X201544474Y-89404677D01*
X201300596Y-89404464D01*
X201075200Y-89497595D01*
X201058696Y-89514070D01*
X199263000Y-89514070D01*
X199070307Y-89552399D01*
X198906950Y-89661551D01*
X192425032Y-96143470D01*
X187311030Y-96143470D01*
X187311030Y-95758000D01*
X187302125Y-95714025D01*
X187276813Y-95676979D01*
X187239082Y-95652700D01*
X187198000Y-95644970D01*
X185533030Y-95644970D01*
X185533030Y-95169330D01*
X186080400Y-95169330D01*
X186273093Y-95131001D01*
X186361094Y-95072200D01*
X189374170Y-95072200D01*
X189428933Y-95347514D01*
X189584886Y-95580914D01*
X189818286Y-95736867D01*
X190093600Y-95791630D01*
X190368914Y-95736867D01*
X190602314Y-95580914D01*
X194107514Y-92075714D01*
X194263467Y-91842314D01*
X194318230Y-91567000D01*
X194318230Y-75184000D01*
X194263467Y-74908686D01*
X194107514Y-74675286D01*
X193874114Y-74519333D01*
X193598800Y-74464570D01*
X193323486Y-74519333D01*
X193090086Y-74675286D01*
X192934133Y-74908686D01*
X192879370Y-75184000D01*
X192879370Y-91269002D01*
X189584886Y-94563486D01*
X189428933Y-94796886D01*
X189374170Y-95072200D01*
X186361094Y-95072200D01*
X186436449Y-95021849D01*
X188287582Y-93170716D01*
X188310004Y-93170736D01*
X188535400Y-93077605D01*
X188707999Y-92905307D01*
X188801523Y-92680074D01*
X188801736Y-92436196D01*
X188708605Y-92210800D01*
X188536307Y-92038201D01*
X188311074Y-91944677D01*
X188067196Y-91944464D01*
X187841800Y-92037595D01*
X187669201Y-92209893D01*
X187575677Y-92435126D01*
X187575657Y-92458444D01*
X185871832Y-94162270D01*
X185533030Y-94162270D01*
X185533030Y-93218000D01*
X185524125Y-93174025D01*
X185498813Y-93136979D01*
X185461082Y-93112700D01*
X185420000Y-93104970D01*
X185389426Y-93104970D01*
X185355805Y-93023600D01*
X185342558Y-93010330D01*
X186385200Y-93010330D01*
X186577893Y-92972001D01*
X186741249Y-92862849D01*
X188316050Y-91288049D01*
X188425202Y-91124692D01*
X188463530Y-90932000D01*
X188463530Y-90584127D01*
X188606399Y-90441507D01*
X188699923Y-90216274D01*
X188700136Y-89972396D01*
X188607005Y-89747000D01*
X188434707Y-89574401D01*
X188209474Y-89480877D01*
X187965596Y-89480664D01*
X187740200Y-89573795D01*
X187567601Y-89746093D01*
X187474077Y-89971326D01*
X187473936Y-90132993D01*
X187456470Y-90220800D01*
X187456470Y-90723431D01*
X186896678Y-91283223D01*
X186896736Y-91216996D01*
X186803605Y-90991600D01*
X186631307Y-90819001D01*
X186406074Y-90725477D01*
X186162196Y-90725264D01*
X185936800Y-90818395D01*
X185920296Y-90834870D01*
X185120569Y-90834870D01*
X184356716Y-90071018D01*
X184356736Y-90048596D01*
X184263605Y-89823200D01*
X184091307Y-89650601D01*
X183866074Y-89557077D01*
X183848737Y-89557062D01*
X183951067Y-89403914D01*
X184005830Y-89128600D01*
X184005830Y-80162400D01*
X183951067Y-79887086D01*
X183795114Y-79653686D01*
X182575914Y-78434486D01*
X182342514Y-78278533D01*
X182067200Y-78223770D01*
X181791886Y-78278533D01*
X181558486Y-78434486D01*
X181402533Y-78667886D01*
X181347770Y-78943200D01*
X181402533Y-79218514D01*
X181558486Y-79451914D01*
X182566970Y-80460398D01*
X182566970Y-88403788D01*
X182524849Y-88340750D01*
X180086449Y-85902351D01*
X180086448Y-85902350D01*
X179923093Y-85793199D01*
X179730400Y-85754870D01*
X163372800Y-85754870D01*
X163180108Y-85793198D01*
X163016751Y-85902350D01*
X161673618Y-87245484D01*
X161651196Y-87245464D01*
X161425800Y-87338595D01*
X161253201Y-87510893D01*
X161159677Y-87736126D01*
X161159464Y-87980004D01*
X161252595Y-88205400D01*
X161424893Y-88377999D01*
X161650126Y-88471523D01*
X161894004Y-88471736D01*
X162119400Y-88378605D01*
X162291999Y-88206307D01*
X162354326Y-88056204D01*
X169084264Y-88056204D01*
X169177395Y-88281600D01*
X169349693Y-88454199D01*
X169574926Y-88547723D01*
X169598244Y-88547743D01*
X169620750Y-88570249D01*
X169678139Y-88608595D01*
X169784107Y-88679401D01*
X169976800Y-88717730D01*
X179316052Y-88717730D01*
X179331893Y-88733599D01*
X179557126Y-88827123D01*
X179801004Y-88827336D01*
X180026400Y-88734205D01*
X180198999Y-88561907D01*
X180292523Y-88336674D01*
X180292736Y-88092796D01*
X180199605Y-87867400D01*
X180027307Y-87694801D01*
X179802074Y-87601277D01*
X179558196Y-87601064D01*
X179332800Y-87694195D01*
X179316296Y-87710670D01*
X170268091Y-87710670D01*
X170217405Y-87588000D01*
X170045107Y-87415401D01*
X169819874Y-87321877D01*
X169575996Y-87321664D01*
X169350600Y-87414795D01*
X169178001Y-87587093D01*
X169084477Y-87812326D01*
X169084264Y-88056204D01*
X162354326Y-88056204D01*
X162385523Y-87981074D01*
X162385543Y-87957755D01*
X163581369Y-86761930D01*
X179521832Y-86761930D01*
X181665270Y-88905369D01*
X181665270Y-89789000D01*
X181703599Y-89981693D01*
X181734613Y-90028108D01*
X181812751Y-90145049D01*
X183467771Y-91800070D01*
X175773369Y-91800070D01*
X175228431Y-91255133D01*
X175237923Y-91232274D01*
X175238136Y-90988396D01*
X175145005Y-90763000D01*
X174972707Y-90590401D01*
X174747474Y-90496877D01*
X174503596Y-90496664D01*
X174278200Y-90589795D01*
X174105601Y-90762093D01*
X174012077Y-90987326D01*
X174011864Y-91231204D01*
X174104995Y-91456600D01*
X174148622Y-91500303D01*
X174159799Y-91556493D01*
X174245799Y-91685200D01*
X174268951Y-91719849D01*
X175208751Y-92659650D01*
X175306676Y-92725081D01*
X175372107Y-92768801D01*
X175564800Y-92807130D01*
X181236961Y-92807130D01*
X181140336Y-92903587D01*
X181056714Y-93104970D01*
X171388669Y-93104970D01*
X169904116Y-91620418D01*
X169904136Y-91597996D01*
X169811005Y-91372600D01*
X169638707Y-91200001D01*
X169413474Y-91106477D01*
X169169596Y-91106264D01*
X168944200Y-91199395D01*
X168771601Y-91371693D01*
X168678077Y-91596926D01*
X168677864Y-91840804D01*
X168770995Y-92066200D01*
X168943293Y-92238799D01*
X169168526Y-92332323D01*
X169191845Y-92332343D01*
X169964472Y-93104970D01*
X165445069Y-93104970D01*
X163884316Y-91544218D01*
X163884336Y-91521796D01*
X163791205Y-91296400D01*
X163618907Y-91123801D01*
X163393674Y-91030277D01*
X163149796Y-91030064D01*
X162924400Y-91123195D01*
X162751801Y-91295493D01*
X162658277Y-91520726D01*
X162658064Y-91764604D01*
X162751195Y-91990000D01*
X162923493Y-92162599D01*
X163148726Y-92256123D01*
X163172045Y-92256143D01*
X164020872Y-93104970D01*
X159879030Y-93104970D01*
X159879030Y-90678000D01*
X159870125Y-90634025D01*
X159844813Y-90596979D01*
X159807082Y-90572700D01*
X159766000Y-90564970D01*
X158355030Y-90564970D01*
X158355030Y-88759030D01*
X161036000Y-88759030D01*
X161079975Y-88750125D01*
X161117021Y-88724813D01*
X161141300Y-88687082D01*
X161149030Y-88646000D01*
X161149030Y-81026000D01*
X161140125Y-80982025D01*
X161114813Y-80944979D01*
X161077082Y-80920700D01*
X161036000Y-80912970D01*
X159919501Y-80912970D01*
X160230171Y-80705386D01*
X160482285Y-80328072D01*
X160570815Y-79883000D01*
X160482285Y-79437928D01*
X160404844Y-79322030D01*
X160459578Y-79322030D01*
X160874544Y-79150145D01*
X161192145Y-78832544D01*
X161364030Y-78417578D01*
X161364030Y-77626527D01*
X161081773Y-77344270D01*
X159386270Y-77344270D01*
X159386270Y-77364270D01*
X159383730Y-77364270D01*
X159383730Y-77344270D01*
X159363730Y-77344270D01*
X159363730Y-77341730D01*
X159383730Y-77341730D01*
X159383730Y-75646227D01*
X159386270Y-75646227D01*
X159386270Y-77341730D01*
X161081773Y-77341730D01*
X161364030Y-77059473D01*
X161364030Y-76268422D01*
X161192145Y-75853456D01*
X160874544Y-75535855D01*
X160459578Y-75363970D01*
X159668527Y-75363970D01*
X159386270Y-75646227D01*
X159383730Y-75646227D01*
X159101473Y-75363970D01*
X158310422Y-75363970D01*
X157895456Y-75535855D01*
X157614030Y-75817281D01*
X157614030Y-70987404D01*
X169820864Y-70987404D01*
X169913995Y-71212800D01*
X170086293Y-71385399D01*
X170197797Y-71431699D01*
X175113049Y-76346951D01*
X175297007Y-76469867D01*
X175514000Y-76513030D01*
X176297002Y-76513030D01*
X176407526Y-76558923D01*
X176651404Y-76559136D01*
X176876800Y-76466005D01*
X177049399Y-76293707D01*
X177142923Y-76068474D01*
X177143136Y-75824596D01*
X177050005Y-75599200D01*
X176965154Y-75514200D01*
X187926370Y-75514200D01*
X187926370Y-84404200D01*
X187981133Y-84679514D01*
X188137086Y-84912914D01*
X188314886Y-85090714D01*
X188548286Y-85246667D01*
X188823600Y-85301430D01*
X189098914Y-85246667D01*
X189332314Y-85090714D01*
X189488267Y-84857314D01*
X189543030Y-84582000D01*
X189488267Y-84306686D01*
X189365230Y-84122548D01*
X189365230Y-75514200D01*
X189310467Y-75238886D01*
X189154514Y-75005486D01*
X188921114Y-74849533D01*
X188645800Y-74794770D01*
X188370486Y-74849533D01*
X188137086Y-75005486D01*
X187981133Y-75238886D01*
X187926370Y-75514200D01*
X176965154Y-75514200D01*
X176877707Y-75426601D01*
X176652474Y-75333077D01*
X176408596Y-75332864D01*
X176297010Y-75378970D01*
X175748872Y-75378970D01*
X170999705Y-70629803D01*
X170954005Y-70519200D01*
X170781707Y-70346601D01*
X170556474Y-70253077D01*
X170312596Y-70252864D01*
X170087200Y-70345995D01*
X169914601Y-70518293D01*
X169821077Y-70743526D01*
X169820864Y-70987404D01*
X157614030Y-70987404D01*
X157614030Y-66923404D01*
X167661864Y-66923404D01*
X167754995Y-67148800D01*
X167927293Y-67321399D01*
X168152526Y-67414923D01*
X168396404Y-67415136D01*
X168621800Y-67322005D01*
X168638304Y-67305530D01*
X170688000Y-67305530D01*
X170880693Y-67267201D01*
X171044049Y-67158049D01*
X173817569Y-64384530D01*
X180484673Y-64384530D01*
X180627293Y-64527399D01*
X180852526Y-64620923D01*
X181096404Y-64621136D01*
X181321800Y-64528005D01*
X181494399Y-64355707D01*
X181587923Y-64130474D01*
X181587923Y-64129404D01*
X184298864Y-64129404D01*
X184391995Y-64354800D01*
X184564293Y-64527399D01*
X184789526Y-64620923D01*
X185033404Y-64621136D01*
X185258800Y-64528005D01*
X185338915Y-64448030D01*
X185741970Y-64448030D01*
X185741970Y-65786000D01*
X185775465Y-65954392D01*
X185870852Y-66097148D01*
X186013608Y-66192535D01*
X186182000Y-66226030D01*
X186350392Y-66192535D01*
X186493148Y-66097148D01*
X186588535Y-65954392D01*
X186622030Y-65786000D01*
X186622030Y-64448030D01*
X187025062Y-64448030D01*
X187104293Y-64527399D01*
X187329526Y-64620923D01*
X187573404Y-64621136D01*
X187798800Y-64528005D01*
X187971399Y-64355707D01*
X188064923Y-64130474D01*
X188065136Y-63886596D01*
X187972005Y-63661200D01*
X187799707Y-63488601D01*
X187574474Y-63395077D01*
X187330596Y-63394864D01*
X187105200Y-63487995D01*
X187025085Y-63567970D01*
X186608938Y-63567970D01*
X186529707Y-63488601D01*
X186304474Y-63395077D01*
X186060596Y-63394864D01*
X185835200Y-63487995D01*
X185755085Y-63567970D01*
X185338938Y-63567970D01*
X185259707Y-63488601D01*
X185034474Y-63395077D01*
X184790596Y-63394864D01*
X184565200Y-63487995D01*
X184392601Y-63660293D01*
X184299077Y-63885526D01*
X184298864Y-64129404D01*
X181587923Y-64129404D01*
X181588136Y-63886596D01*
X181495005Y-63661200D01*
X181322707Y-63488601D01*
X181097474Y-63395077D01*
X180935807Y-63394936D01*
X180848000Y-63377470D01*
X173609000Y-63377470D01*
X173416307Y-63415799D01*
X173350876Y-63459519D01*
X173252951Y-63524950D01*
X170479432Y-66298470D01*
X168638548Y-66298470D01*
X168622707Y-66282601D01*
X168397474Y-66189077D01*
X168153596Y-66188864D01*
X167928200Y-66281995D01*
X167755601Y-66454293D01*
X167662077Y-66679526D01*
X167661864Y-66923404D01*
X157614030Y-66923404D01*
X157614030Y-64754177D01*
X158894619Y-64754177D01*
X159197497Y-65382645D01*
X160689448Y-66069898D01*
X162330831Y-66133893D01*
X163871761Y-65564885D01*
X164144503Y-65382645D01*
X164447381Y-64754177D01*
X161671000Y-61977796D01*
X158894619Y-64754177D01*
X157614030Y-64754177D01*
X157614030Y-62909140D01*
X158082115Y-64176761D01*
X158264355Y-64449503D01*
X158892823Y-64752381D01*
X161669204Y-61976000D01*
X161672796Y-61976000D01*
X164449177Y-64752381D01*
X165077645Y-64449503D01*
X165764898Y-62957552D01*
X165777586Y-62632111D01*
X165857396Y-62632111D01*
X166360712Y-63850229D01*
X167291869Y-64783012D01*
X168509106Y-65288454D01*
X169827111Y-65289604D01*
X171045229Y-64786288D01*
X171978012Y-63855131D01*
X172483454Y-62637894D01*
X172484604Y-61319889D01*
X172281114Y-60827404D01*
X184298864Y-60827404D01*
X184391995Y-61052800D01*
X184471970Y-61132915D01*
X184471970Y-62057062D01*
X184392601Y-62136293D01*
X184299077Y-62361526D01*
X184298864Y-62605404D01*
X184391995Y-62830800D01*
X184564293Y-63003399D01*
X184789526Y-63096923D01*
X185033404Y-63097136D01*
X185258800Y-63004005D01*
X185431399Y-62831707D01*
X185524923Y-62606474D01*
X185525136Y-62362596D01*
X185432005Y-62137200D01*
X185352030Y-62057085D01*
X185352030Y-61132938D01*
X185431399Y-61053707D01*
X185524923Y-60828474D01*
X185525106Y-60618000D01*
X186282838Y-60618000D01*
X186282838Y-62318000D01*
X186304665Y-62434002D01*
X186373222Y-62540542D01*
X186477828Y-62612017D01*
X186602000Y-62637162D01*
X188302000Y-62637162D01*
X188418002Y-62615335D01*
X188524542Y-62546778D01*
X188596017Y-62442172D01*
X188621162Y-62318000D01*
X188621162Y-61445215D01*
X188828970Y-61445215D01*
X188828970Y-61490785D01*
X188917500Y-61935857D01*
X189169614Y-62313171D01*
X189546928Y-62565285D01*
X189992000Y-62653815D01*
X190437072Y-62565285D01*
X190814386Y-62313171D01*
X191066500Y-61935857D01*
X191155030Y-61490785D01*
X191155030Y-61445215D01*
X191368970Y-61445215D01*
X191368970Y-61490785D01*
X191457500Y-61935857D01*
X191709614Y-62313171D01*
X192086928Y-62565285D01*
X192532000Y-62653815D01*
X192977072Y-62565285D01*
X193322839Y-62334250D01*
X193385263Y-62503123D01*
X193909783Y-63069815D01*
X194611240Y-63392645D01*
X194761157Y-63422466D01*
X195070730Y-63164773D01*
X195070730Y-61469270D01*
X195050730Y-61469270D01*
X195050730Y-61466730D01*
X195070730Y-61466730D01*
X195070730Y-59771227D01*
X195073270Y-59771227D01*
X195073270Y-61466730D01*
X195093270Y-61466730D01*
X195093270Y-61469270D01*
X195073270Y-61469270D01*
X195073270Y-63164773D01*
X195382843Y-63422466D01*
X195532760Y-63392645D01*
X196234217Y-63069815D01*
X196758737Y-62503123D01*
X196821161Y-62334250D01*
X197166928Y-62565285D01*
X197612000Y-62653815D01*
X198057072Y-62565285D01*
X198434386Y-62313171D01*
X198686500Y-61935857D01*
X198775030Y-61490785D01*
X198775030Y-61445215D01*
X198988970Y-61445215D01*
X198988970Y-61490785D01*
X199077500Y-61935857D01*
X199329614Y-62313171D01*
X199706928Y-62565285D01*
X200152000Y-62653815D01*
X200597072Y-62565285D01*
X200974386Y-62313171D01*
X201226500Y-61935857D01*
X201315030Y-61490785D01*
X201315030Y-61445215D01*
X201226500Y-61000143D01*
X200974386Y-60622829D01*
X200597072Y-60370715D01*
X200152000Y-60282185D01*
X199706928Y-60370715D01*
X199329614Y-60622829D01*
X199077500Y-61000143D01*
X198988970Y-61445215D01*
X198775030Y-61445215D01*
X198686500Y-61000143D01*
X198434386Y-60622829D01*
X198057072Y-60370715D01*
X197612000Y-60282185D01*
X197166928Y-60370715D01*
X196821161Y-60601750D01*
X196758737Y-60432877D01*
X196234217Y-59866185D01*
X195532760Y-59543355D01*
X195382843Y-59513534D01*
X195073270Y-59771227D01*
X195070730Y-59771227D01*
X194761157Y-59513534D01*
X194611240Y-59543355D01*
X193909783Y-59866185D01*
X193385263Y-60432877D01*
X193322839Y-60601750D01*
X192977072Y-60370715D01*
X192532000Y-60282185D01*
X192086928Y-60370715D01*
X191709614Y-60622829D01*
X191457500Y-61000143D01*
X191368970Y-61445215D01*
X191155030Y-61445215D01*
X191066500Y-61000143D01*
X190814386Y-60622829D01*
X190437072Y-60370715D01*
X189992000Y-60282185D01*
X189546928Y-60370715D01*
X189169614Y-60622829D01*
X188917500Y-61000143D01*
X188828970Y-61445215D01*
X188621162Y-61445215D01*
X188621162Y-60618000D01*
X188599335Y-60501998D01*
X188530778Y-60395458D01*
X188426172Y-60323983D01*
X188302000Y-60298838D01*
X186602000Y-60298838D01*
X186485998Y-60320665D01*
X186379458Y-60389222D01*
X186307983Y-60493828D01*
X186282838Y-60618000D01*
X185525106Y-60618000D01*
X185525136Y-60584596D01*
X185432005Y-60359200D01*
X185259707Y-60186601D01*
X185034474Y-60093077D01*
X184790596Y-60092864D01*
X184565200Y-60185995D01*
X184392601Y-60358293D01*
X184299077Y-60583526D01*
X184298864Y-60827404D01*
X172281114Y-60827404D01*
X171981288Y-60101771D01*
X171050131Y-59168988D01*
X169832894Y-58663546D01*
X168514889Y-58662396D01*
X167296771Y-59165712D01*
X166363988Y-60096869D01*
X165858546Y-61314106D01*
X165857396Y-62632111D01*
X165777586Y-62632111D01*
X165828893Y-61316169D01*
X165259885Y-59775239D01*
X165077645Y-59502497D01*
X164449177Y-59199619D01*
X161672796Y-61976000D01*
X161669204Y-61976000D01*
X158892823Y-59199619D01*
X158264355Y-59502497D01*
X157614030Y-60914281D01*
X157614030Y-58300030D01*
X159706074Y-58300030D01*
X159470239Y-58387115D01*
X159470239Y-58387115D01*
G37*
X159470239Y-58387115D02*
X159197497Y-58569355D01*
X158894619Y-59197823D01*
X161671000Y-61974204D01*
X164447381Y-59197823D01*
X164144503Y-58569355D01*
X163559828Y-58300030D01*
X204589970Y-58300030D01*
X204589970Y-79087142D01*
X199771714Y-74268886D01*
X199538314Y-74112933D01*
X199263000Y-74058170D01*
X198987686Y-74112933D01*
X198754286Y-74268886D01*
X198598333Y-74502286D01*
X198543570Y-74777600D01*
X198598333Y-75052914D01*
X198754286Y-75286314D01*
X203521970Y-80053998D01*
X203521970Y-88685108D01*
X203496907Y-88660001D01*
X203271674Y-88566477D01*
X203027796Y-88566264D01*
X202802400Y-88659395D01*
X202629801Y-88831693D01*
X202536277Y-89056926D01*
X202536064Y-89300804D01*
X202629195Y-89526200D01*
X202645670Y-89542704D01*
X202645670Y-90393231D01*
X202280232Y-90758670D01*
X199234029Y-90758670D01*
X199471569Y-90521130D01*
X201058452Y-90521130D01*
X201074293Y-90536999D01*
X201299526Y-90630523D01*
X201543404Y-90630736D01*
X201768800Y-90537605D01*
X201941399Y-90365307D01*
X202034923Y-90140074D01*
X202035136Y-89896196D01*
X201942005Y-89670800D01*
X201769707Y-89498201D01*
X201544474Y-89404677D01*
X201300596Y-89404464D01*
X201075200Y-89497595D01*
X201058696Y-89514070D01*
X199263000Y-89514070D01*
X199070307Y-89552399D01*
X198906950Y-89661551D01*
X192425032Y-96143470D01*
X187311030Y-96143470D01*
X187311030Y-95758000D01*
X187302125Y-95714025D01*
X187276813Y-95676979D01*
X187239082Y-95652700D01*
X187198000Y-95644970D01*
X185533030Y-95644970D01*
X185533030Y-95169330D01*
X186080400Y-95169330D01*
X186273093Y-95131001D01*
X186361094Y-95072200D01*
X189374170Y-95072200D01*
X189428933Y-95347514D01*
X189584886Y-95580914D01*
X189818286Y-95736867D01*
X190093600Y-95791630D01*
X190368914Y-95736867D01*
X190602314Y-95580914D01*
X194107514Y-92075714D01*
X194263467Y-91842314D01*
X194318230Y-91567000D01*
X194318230Y-75184000D01*
X194263467Y-74908686D01*
X194107514Y-74675286D01*
X193874114Y-74519333D01*
X193598800Y-74464570D01*
X193323486Y-74519333D01*
X193090086Y-74675286D01*
X192934133Y-74908686D01*
X192879370Y-75184000D01*
X192879370Y-91269002D01*
X189584886Y-94563486D01*
X189428933Y-94796886D01*
X189374170Y-95072200D01*
X186361094Y-95072200D01*
X186436449Y-95021849D01*
X188287582Y-93170716D01*
X188310004Y-93170736D01*
X188535400Y-93077605D01*
X188707999Y-92905307D01*
X188801523Y-92680074D01*
X188801736Y-92436196D01*
X188708605Y-92210800D01*
X188536307Y-92038201D01*
X188311074Y-91944677D01*
X188067196Y-91944464D01*
X187841800Y-92037595D01*
X187669201Y-92209893D01*
X187575677Y-92435126D01*
X187575657Y-92458444D01*
X185871832Y-94162270D01*
X185533030Y-94162270D01*
X185533030Y-93218000D01*
X185524125Y-93174025D01*
X185498813Y-93136979D01*
X185461082Y-93112700D01*
X185420000Y-93104970D01*
X185389426Y-93104970D01*
X185355805Y-93023600D01*
X185342558Y-93010330D01*
X186385200Y-93010330D01*
X186577893Y-92972001D01*
X186741249Y-92862849D01*
X188316050Y-91288049D01*
X188425202Y-91124692D01*
X188463530Y-90932000D01*
X188463530Y-90584127D01*
X188606399Y-90441507D01*
X188699923Y-90216274D01*
X188700136Y-89972396D01*
X188607005Y-89747000D01*
X188434707Y-89574401D01*
X188209474Y-89480877D01*
X187965596Y-89480664D01*
X187740200Y-89573795D01*
X187567601Y-89746093D01*
X187474077Y-89971326D01*
X187473936Y-90132993D01*
X187456470Y-90220800D01*
X187456470Y-90723431D01*
X186896678Y-91283223D01*
X186896736Y-91216996D01*
X186803605Y-90991600D01*
X186631307Y-90819001D01*
X186406074Y-90725477D01*
X186162196Y-90725264D01*
X185936800Y-90818395D01*
X185920296Y-90834870D01*
X185120569Y-90834870D01*
X184356716Y-90071018D01*
X184356736Y-90048596D01*
X184263605Y-89823200D01*
X184091307Y-89650601D01*
X183866074Y-89557077D01*
X183848737Y-89557062D01*
X183951067Y-89403914D01*
X184005830Y-89128600D01*
X184005830Y-80162400D01*
X183951067Y-79887086D01*
X183795114Y-79653686D01*
X182575914Y-78434486D01*
X182342514Y-78278533D01*
X182067200Y-78223770D01*
X181791886Y-78278533D01*
X181558486Y-78434486D01*
X181402533Y-78667886D01*
X181347770Y-78943200D01*
X181402533Y-79218514D01*
X181558486Y-79451914D01*
X182566970Y-80460398D01*
X182566970Y-88403788D01*
X182524849Y-88340750D01*
X180086449Y-85902351D01*
X180086448Y-85902350D01*
X179923093Y-85793199D01*
X179730400Y-85754870D01*
X163372800Y-85754870D01*
X163180108Y-85793198D01*
X163016751Y-85902350D01*
X161673618Y-87245484D01*
X161651196Y-87245464D01*
X161425800Y-87338595D01*
X161253201Y-87510893D01*
X161159677Y-87736126D01*
X161159464Y-87980004D01*
X161252595Y-88205400D01*
X161424893Y-88377999D01*
X161650126Y-88471523D01*
X161894004Y-88471736D01*
X162119400Y-88378605D01*
X162291999Y-88206307D01*
X162354326Y-88056204D01*
X169084264Y-88056204D01*
X169177395Y-88281600D01*
X169349693Y-88454199D01*
X169574926Y-88547723D01*
X169598244Y-88547743D01*
X169620750Y-88570249D01*
X169678139Y-88608595D01*
X169784107Y-88679401D01*
X169976800Y-88717730D01*
X179316052Y-88717730D01*
X179331893Y-88733599D01*
X179557126Y-88827123D01*
X179801004Y-88827336D01*
X180026400Y-88734205D01*
X180198999Y-88561907D01*
X180292523Y-88336674D01*
X180292736Y-88092796D01*
X180199605Y-87867400D01*
X180027307Y-87694801D01*
X179802074Y-87601277D01*
X179558196Y-87601064D01*
X179332800Y-87694195D01*
X179316296Y-87710670D01*
X170268091Y-87710670D01*
X170217405Y-87588000D01*
X170045107Y-87415401D01*
X169819874Y-87321877D01*
X169575996Y-87321664D01*
X169350600Y-87414795D01*
X169178001Y-87587093D01*
X169084477Y-87812326D01*
X169084264Y-88056204D01*
X162354326Y-88056204D01*
X162385523Y-87981074D01*
X162385543Y-87957755D01*
X163581369Y-86761930D01*
X179521832Y-86761930D01*
X181665270Y-88905369D01*
X181665270Y-89789000D01*
X181703599Y-89981693D01*
X181734613Y-90028108D01*
X181812751Y-90145049D01*
X183467771Y-91800070D01*
X175773369Y-91800070D01*
X175228431Y-91255133D01*
X175237923Y-91232274D01*
X175238136Y-90988396D01*
X175145005Y-90763000D01*
X174972707Y-90590401D01*
X174747474Y-90496877D01*
X174503596Y-90496664D01*
X174278200Y-90589795D01*
X174105601Y-90762093D01*
X174012077Y-90987326D01*
X174011864Y-91231204D01*
X174104995Y-91456600D01*
X174148622Y-91500303D01*
X174159799Y-91556493D01*
X174245799Y-91685200D01*
X174268951Y-91719849D01*
X175208751Y-92659650D01*
X175306676Y-92725081D01*
X175372107Y-92768801D01*
X175564800Y-92807130D01*
X181236961Y-92807130D01*
X181140336Y-92903587D01*
X181056714Y-93104970D01*
X171388669Y-93104970D01*
X169904116Y-91620418D01*
X169904136Y-91597996D01*
X169811005Y-91372600D01*
X169638707Y-91200001D01*
X169413474Y-91106477D01*
X169169596Y-91106264D01*
X168944200Y-91199395D01*
X168771601Y-91371693D01*
X168678077Y-91596926D01*
X168677864Y-91840804D01*
X168770995Y-92066200D01*
X168943293Y-92238799D01*
X169168526Y-92332323D01*
X169191845Y-92332343D01*
X169964472Y-93104970D01*
X165445069Y-93104970D01*
X163884316Y-91544218D01*
X163884336Y-91521796D01*
X163791205Y-91296400D01*
X163618907Y-91123801D01*
X163393674Y-91030277D01*
X163149796Y-91030064D01*
X162924400Y-91123195D01*
X162751801Y-91295493D01*
X162658277Y-91520726D01*
X162658064Y-91764604D01*
X162751195Y-91990000D01*
X162923493Y-92162599D01*
X163148726Y-92256123D01*
X163172045Y-92256143D01*
X164020872Y-93104970D01*
X159879030Y-93104970D01*
X159879030Y-90678000D01*
X159870125Y-90634025D01*
X159844813Y-90596979D01*
X159807082Y-90572700D01*
X159766000Y-90564970D01*
X158355030Y-90564970D01*
X158355030Y-88759030D01*
X161036000Y-88759030D01*
X161079975Y-88750125D01*
X161117021Y-88724813D01*
X161141300Y-88687082D01*
X161149030Y-88646000D01*
X161149030Y-81026000D01*
X161140125Y-80982025D01*
X161114813Y-80944979D01*
X161077082Y-80920700D01*
X161036000Y-80912970D01*
X159919501Y-80912970D01*
X160230171Y-80705386D01*
X160482285Y-80328072D01*
X160570815Y-79883000D01*
X160482285Y-79437928D01*
X160404844Y-79322030D01*
X160459578Y-79322030D01*
X160874544Y-79150145D01*
X161192145Y-78832544D01*
X161364030Y-78417578D01*
X161364030Y-77626527D01*
X161081773Y-77344270D01*
X159386270Y-77344270D01*
X159386270Y-77364270D01*
X159383730Y-77364270D01*
X159383730Y-77344270D01*
X159363730Y-77344270D01*
X159363730Y-77341730D01*
X159383730Y-77341730D01*
X159383730Y-75646227D01*
X159386270Y-75646227D01*
X159386270Y-77341730D01*
X161081773Y-77341730D01*
X161364030Y-77059473D01*
X161364030Y-76268422D01*
X161192145Y-75853456D01*
X160874544Y-75535855D01*
X160459578Y-75363970D01*
X159668527Y-75363970D01*
X159386270Y-75646227D01*
X159383730Y-75646227D01*
X159101473Y-75363970D01*
X158310422Y-75363970D01*
X157895456Y-75535855D01*
X157614030Y-75817281D01*
X157614030Y-70987404D01*
X169820864Y-70987404D01*
X169913995Y-71212800D01*
X170086293Y-71385399D01*
X170197797Y-71431699D01*
X175113049Y-76346951D01*
X175297007Y-76469867D01*
X175514000Y-76513030D01*
X176297002Y-76513030D01*
X176407526Y-76558923D01*
X176651404Y-76559136D01*
X176876800Y-76466005D01*
X177049399Y-76293707D01*
X177142923Y-76068474D01*
X177143136Y-75824596D01*
X177050005Y-75599200D01*
X176965154Y-75514200D01*
X187926370Y-75514200D01*
X187926370Y-84404200D01*
X187981133Y-84679514D01*
X188137086Y-84912914D01*
X188314886Y-85090714D01*
X188548286Y-85246667D01*
X188823600Y-85301430D01*
X189098914Y-85246667D01*
X189332314Y-85090714D01*
X189488267Y-84857314D01*
X189543030Y-84582000D01*
X189488267Y-84306686D01*
X189365230Y-84122548D01*
X189365230Y-75514200D01*
X189310467Y-75238886D01*
X189154514Y-75005486D01*
X188921114Y-74849533D01*
X188645800Y-74794770D01*
X188370486Y-74849533D01*
X188137086Y-75005486D01*
X187981133Y-75238886D01*
X187926370Y-75514200D01*
X176965154Y-75514200D01*
X176877707Y-75426601D01*
X176652474Y-75333077D01*
X176408596Y-75332864D01*
X176297010Y-75378970D01*
X175748872Y-75378970D01*
X170999705Y-70629803D01*
X170954005Y-70519200D01*
X170781707Y-70346601D01*
X170556474Y-70253077D01*
X170312596Y-70252864D01*
X170087200Y-70345995D01*
X169914601Y-70518293D01*
X169821077Y-70743526D01*
X169820864Y-70987404D01*
X157614030Y-70987404D01*
X157614030Y-66923404D01*
X167661864Y-66923404D01*
X167754995Y-67148800D01*
X167927293Y-67321399D01*
X168152526Y-67414923D01*
X168396404Y-67415136D01*
X168621800Y-67322005D01*
X168638304Y-67305530D01*
X170688000Y-67305530D01*
X170880693Y-67267201D01*
X171044049Y-67158049D01*
X173817569Y-64384530D01*
X180484673Y-64384530D01*
X180627293Y-64527399D01*
X180852526Y-64620923D01*
X181096404Y-64621136D01*
X181321800Y-64528005D01*
X181494399Y-64355707D01*
X181587923Y-64130474D01*
X181587923Y-64129404D01*
X184298864Y-64129404D01*
X184391995Y-64354800D01*
X184564293Y-64527399D01*
X184789526Y-64620923D01*
X185033404Y-64621136D01*
X185258800Y-64528005D01*
X185338915Y-64448030D01*
X185741970Y-64448030D01*
X185741970Y-65786000D01*
X185775465Y-65954392D01*
X185870852Y-66097148D01*
X186013608Y-66192535D01*
X186182000Y-66226030D01*
X186350392Y-66192535D01*
X186493148Y-66097148D01*
X186588535Y-65954392D01*
X186622030Y-65786000D01*
X186622030Y-64448030D01*
X187025062Y-64448030D01*
X187104293Y-64527399D01*
X187329526Y-64620923D01*
X187573404Y-64621136D01*
X187798800Y-64528005D01*
X187971399Y-64355707D01*
X188064923Y-64130474D01*
X188065136Y-63886596D01*
X187972005Y-63661200D01*
X187799707Y-63488601D01*
X187574474Y-63395077D01*
X187330596Y-63394864D01*
X187105200Y-63487995D01*
X187025085Y-63567970D01*
X186608938Y-63567970D01*
X186529707Y-63488601D01*
X186304474Y-63395077D01*
X186060596Y-63394864D01*
X185835200Y-63487995D01*
X185755085Y-63567970D01*
X185338938Y-63567970D01*
X185259707Y-63488601D01*
X185034474Y-63395077D01*
X184790596Y-63394864D01*
X184565200Y-63487995D01*
X184392601Y-63660293D01*
X184299077Y-63885526D01*
X184298864Y-64129404D01*
X181587923Y-64129404D01*
X181588136Y-63886596D01*
X181495005Y-63661200D01*
X181322707Y-63488601D01*
X181097474Y-63395077D01*
X180935807Y-63394936D01*
X180848000Y-63377470D01*
X173609000Y-63377470D01*
X173416307Y-63415799D01*
X173350876Y-63459519D01*
X173252951Y-63524950D01*
X170479432Y-66298470D01*
X168638548Y-66298470D01*
X168622707Y-66282601D01*
X168397474Y-66189077D01*
X168153596Y-66188864D01*
X167928200Y-66281995D01*
X167755601Y-66454293D01*
X167662077Y-66679526D01*
X167661864Y-66923404D01*
X157614030Y-66923404D01*
X157614030Y-64754177D01*
X158894619Y-64754177D01*
X159197497Y-65382645D01*
X160689448Y-66069898D01*
X162330831Y-66133893D01*
X163871761Y-65564885D01*
X164144503Y-65382645D01*
X164447381Y-64754177D01*
X161671000Y-61977796D01*
X158894619Y-64754177D01*
X157614030Y-64754177D01*
X157614030Y-62909140D01*
X158082115Y-64176761D01*
X158264355Y-64449503D01*
X158892823Y-64752381D01*
X161669204Y-61976000D01*
X161672796Y-61976000D01*
X164449177Y-64752381D01*
X165077645Y-64449503D01*
X165764898Y-62957552D01*
X165777586Y-62632111D01*
X165857396Y-62632111D01*
X166360712Y-63850229D01*
X167291869Y-64783012D01*
X168509106Y-65288454D01*
X169827111Y-65289604D01*
X171045229Y-64786288D01*
X171978012Y-63855131D01*
X172483454Y-62637894D01*
X172484604Y-61319889D01*
X172281114Y-60827404D01*
X184298864Y-60827404D01*
X184391995Y-61052800D01*
X184471970Y-61132915D01*
X184471970Y-62057062D01*
X184392601Y-62136293D01*
X184299077Y-62361526D01*
X184298864Y-62605404D01*
X184391995Y-62830800D01*
X184564293Y-63003399D01*
X184789526Y-63096923D01*
X185033404Y-63097136D01*
X185258800Y-63004005D01*
X185431399Y-62831707D01*
X185524923Y-62606474D01*
X185525136Y-62362596D01*
X185432005Y-62137200D01*
X185352030Y-62057085D01*
X185352030Y-61132938D01*
X185431399Y-61053707D01*
X185524923Y-60828474D01*
X185525106Y-60618000D01*
X186282838Y-60618000D01*
X186282838Y-62318000D01*
X186304665Y-62434002D01*
X186373222Y-62540542D01*
X186477828Y-62612017D01*
X186602000Y-62637162D01*
X188302000Y-62637162D01*
X188418002Y-62615335D01*
X188524542Y-62546778D01*
X188596017Y-62442172D01*
X188621162Y-62318000D01*
X188621162Y-61445215D01*
X188828970Y-61445215D01*
X188828970Y-61490785D01*
X188917500Y-61935857D01*
X189169614Y-62313171D01*
X189546928Y-62565285D01*
X189992000Y-62653815D01*
X190437072Y-62565285D01*
X190814386Y-62313171D01*
X191066500Y-61935857D01*
X191155030Y-61490785D01*
X191155030Y-61445215D01*
X191368970Y-61445215D01*
X191368970Y-61490785D01*
X191457500Y-61935857D01*
X191709614Y-62313171D01*
X192086928Y-62565285D01*
X192532000Y-62653815D01*
X192977072Y-62565285D01*
X193322839Y-62334250D01*
X193385263Y-62503123D01*
X193909783Y-63069815D01*
X194611240Y-63392645D01*
X194761157Y-63422466D01*
X195070730Y-63164773D01*
X195070730Y-61469270D01*
X195050730Y-61469270D01*
X195050730Y-61466730D01*
X195070730Y-61466730D01*
X195070730Y-59771227D01*
X195073270Y-59771227D01*
X195073270Y-61466730D01*
X195093270Y-61466730D01*
X195093270Y-61469270D01*
X195073270Y-61469270D01*
X195073270Y-63164773D01*
X195382843Y-63422466D01*
X195532760Y-63392645D01*
X196234217Y-63069815D01*
X196758737Y-62503123D01*
X196821161Y-62334250D01*
X197166928Y-62565285D01*
X197612000Y-62653815D01*
X198057072Y-62565285D01*
X198434386Y-62313171D01*
X198686500Y-61935857D01*
X198775030Y-61490785D01*
X198775030Y-61445215D01*
X198988970Y-61445215D01*
X198988970Y-61490785D01*
X199077500Y-61935857D01*
X199329614Y-62313171D01*
X199706928Y-62565285D01*
X200152000Y-62653815D01*
X200597072Y-62565285D01*
X200974386Y-62313171D01*
X201226500Y-61935857D01*
X201315030Y-61490785D01*
X201315030Y-61445215D01*
X201226500Y-61000143D01*
X200974386Y-60622829D01*
X200597072Y-60370715D01*
X200152000Y-60282185D01*
X199706928Y-60370715D01*
X199329614Y-60622829D01*
X199077500Y-61000143D01*
X198988970Y-61445215D01*
X198775030Y-61445215D01*
X198686500Y-61000143D01*
X198434386Y-60622829D01*
X198057072Y-60370715D01*
X197612000Y-60282185D01*
X197166928Y-60370715D01*
X196821161Y-60601750D01*
X196758737Y-60432877D01*
X196234217Y-59866185D01*
X195532760Y-59543355D01*
X195382843Y-59513534D01*
X195073270Y-59771227D01*
X195070730Y-59771227D01*
X194761157Y-59513534D01*
X194611240Y-59543355D01*
X193909783Y-59866185D01*
X193385263Y-60432877D01*
X193322839Y-60601750D01*
X192977072Y-60370715D01*
X192532000Y-60282185D01*
X192086928Y-60370715D01*
X191709614Y-60622829D01*
X191457500Y-61000143D01*
X191368970Y-61445215D01*
X191155030Y-61445215D01*
X191066500Y-61000143D01*
X190814386Y-60622829D01*
X190437072Y-60370715D01*
X189992000Y-60282185D01*
X189546928Y-60370715D01*
X189169614Y-60622829D01*
X188917500Y-61000143D01*
X188828970Y-61445215D01*
X188621162Y-61445215D01*
X188621162Y-60618000D01*
X188599335Y-60501998D01*
X188530778Y-60395458D01*
X188426172Y-60323983D01*
X188302000Y-60298838D01*
X186602000Y-60298838D01*
X186485998Y-60320665D01*
X186379458Y-60389222D01*
X186307983Y-60493828D01*
X186282838Y-60618000D01*
X185525106Y-60618000D01*
X185525136Y-60584596D01*
X185432005Y-60359200D01*
X185259707Y-60186601D01*
X185034474Y-60093077D01*
X184790596Y-60092864D01*
X184565200Y-60185995D01*
X184392601Y-60358293D01*
X184299077Y-60583526D01*
X184298864Y-60827404D01*
X172281114Y-60827404D01*
X171981288Y-60101771D01*
X171050131Y-59168988D01*
X169832894Y-58663546D01*
X168514889Y-58662396D01*
X167296771Y-59165712D01*
X166363988Y-60096869D01*
X165858546Y-61314106D01*
X165857396Y-62632111D01*
X165777586Y-62632111D01*
X165828893Y-61316169D01*
X165259885Y-59775239D01*
X165077645Y-59502497D01*
X164449177Y-59199619D01*
X161672796Y-61976000D01*
X161669204Y-61976000D01*
X158892823Y-59199619D01*
X158264355Y-59502497D01*
X157614030Y-60914281D01*
X157614030Y-58300030D01*
X159706074Y-58300030D01*
X159470239Y-58387115D01*
M02*
