G04 #@! TF.FileFunction,Soldermask,Top*
%FSLAX46Y46*%
G04 Gerber Fmt 4.6, Leading zero omitted, Abs format (unit mm)*
G04 Created by KiCad (PCBNEW 4.0.6) date 12/03/17 01:19:17*
%MOMM*%
%LPD*%
G01*
G04 APERTURE LIST*
%ADD10C,0.100000*%
%ADD11R,1.150000X1.200000*%
%ADD12R,1.000000X0.900000*%
%ADD13R,0.900000X1.000000*%
%ADD14R,1.200000X1.150000*%
%ADD15R,2.700000X3.900000*%
%ADD16R,1.200000X1.200000*%
%ADD17R,2.100000X2.100000*%
%ADD18O,2.100000X2.100000*%
%ADD19C,6.400000*%
%ADD20R,1.600000X1.300000*%
%ADD21R,0.800000X1.000000*%
%ADD22R,1.000000X0.800000*%
%ADD23R,1.850000X0.850000*%
%ADD24R,1.950000X1.000000*%
%ADD25R,2.700000X2.700000*%
%ADD26R,2.051000X1.035000*%
%ADD27R,8.020000X10.560000*%
%ADD28R,1.000000X1.950000*%
%ADD29R,1.600000X1.900000*%
%ADD30R,5.800000X3.300000*%
%ADD31R,2.000000X1.400000*%
%ADD32R,1.650000X1.400000*%
G04 APERTURE END LIST*
D10*
D11*
X172720000Y-82435000D03*
X172720000Y-83935000D03*
X203454000Y-93738000D03*
X203454000Y-95238000D03*
X167132000Y-73164000D03*
X167132000Y-74664000D03*
D12*
X160316000Y-97028000D03*
X159216000Y-97028000D03*
X166158000Y-97028000D03*
X165058000Y-97028000D03*
X172000000Y-97028000D03*
X170900000Y-97028000D03*
X172254000Y-87630000D03*
X171154000Y-87630000D03*
X167115400Y-87503000D03*
X168215400Y-87503000D03*
D13*
X158496000Y-90085000D03*
X158496000Y-88985000D03*
D11*
X183388000Y-86602000D03*
X183388000Y-85102000D03*
D12*
X202073600Y-86207600D03*
X200973600Y-86207600D03*
D11*
X168910000Y-69584000D03*
X168910000Y-68084000D03*
D14*
X171208000Y-81026000D03*
X172708000Y-81026000D03*
X164096000Y-87757000D03*
X165596000Y-87757000D03*
D13*
X186182000Y-88688000D03*
X186182000Y-87588000D03*
D14*
X160008000Y-87884000D03*
X158508000Y-87884000D03*
D11*
X185928000Y-93230000D03*
X185928000Y-94730000D03*
D14*
X177685000Y-96901000D03*
X179185000Y-96901000D03*
X183249000Y-96901000D03*
X181749000Y-96901000D03*
D15*
X196723000Y-82456000D03*
X196723000Y-77056000D03*
X196723000Y-72804000D03*
X196723000Y-67404000D03*
X201803000Y-82456000D03*
X201803000Y-77056000D03*
X201803000Y-72804000D03*
X201803000Y-67404000D03*
X167005000Y-77564000D03*
X167005000Y-82964000D03*
D16*
X158369000Y-93942000D03*
X158369000Y-95542000D03*
D15*
X191262000Y-82456000D03*
X191262000Y-77056000D03*
X191262000Y-72804000D03*
X191262000Y-67404000D03*
X186182000Y-82456000D03*
X186182000Y-77056000D03*
X186182000Y-72804000D03*
X186182000Y-67404000D03*
D17*
X187452000Y-61468000D03*
D18*
X189992000Y-61468000D03*
X192532000Y-61468000D03*
X195072000Y-61468000D03*
X197612000Y-61468000D03*
X200152000Y-61468000D03*
D19*
X161671000Y-61976000D03*
X169171000Y-61976000D03*
D17*
X166878000Y-99568000D03*
D18*
X169418000Y-99568000D03*
X171958000Y-99568000D03*
D17*
X159258000Y-99568000D03*
D18*
X161798000Y-99568000D03*
X164338000Y-99568000D03*
D20*
X168105000Y-85979000D03*
X165905000Y-85979000D03*
D21*
X171508000Y-85979000D03*
X172408000Y-85979000D03*
D22*
X203454000Y-98748000D03*
X203454000Y-97848000D03*
X168910000Y-71824000D03*
X168910000Y-70924000D03*
X168910000Y-73983000D03*
X168910000Y-73083000D03*
D21*
X188664000Y-100330000D03*
X187764000Y-100330000D03*
X167074000Y-66802000D03*
X166174000Y-66802000D03*
D22*
X158369000Y-91371000D03*
X158369000Y-92271000D03*
D23*
X175358000Y-81657000D03*
X175358000Y-82307000D03*
X175358000Y-82957000D03*
X175358000Y-83607000D03*
X175358000Y-84257000D03*
X175358000Y-84907000D03*
X175358000Y-85557000D03*
X175358000Y-86207000D03*
X175358000Y-86857000D03*
X175358000Y-87507000D03*
X181258000Y-87507000D03*
X181258000Y-86857000D03*
X181258000Y-86207000D03*
X181258000Y-85557000D03*
X181258000Y-84907000D03*
X181258000Y-84257000D03*
X181258000Y-83607000D03*
X181258000Y-82957000D03*
X181258000Y-82307000D03*
X181258000Y-81657000D03*
D24*
X167165000Y-71755000D03*
X167165000Y-70485000D03*
X167165000Y-69215000D03*
X167165000Y-67945000D03*
X161765000Y-67945000D03*
X161765000Y-69215000D03*
X161765000Y-70485000D03*
X161765000Y-71755000D03*
D25*
X164465000Y-69850000D03*
D26*
X201549000Y-98933000D03*
X201549000Y-97663000D03*
X201549000Y-96393000D03*
X201549000Y-95123000D03*
X201549000Y-93853000D03*
X201549000Y-92583000D03*
X201549000Y-91313000D03*
X201549000Y-90043000D03*
X201549000Y-88773000D03*
X201549000Y-87503000D03*
X188087000Y-87503000D03*
X188087000Y-88773000D03*
X188087000Y-90043000D03*
X188087000Y-91313000D03*
X188087000Y-92583000D03*
X188087000Y-93853000D03*
X188087000Y-95123000D03*
X188087000Y-96393000D03*
X188087000Y-97663000D03*
X188087000Y-98933000D03*
D27*
X194818000Y-93218000D03*
D28*
X172085000Y-95029000D03*
X173355000Y-95029000D03*
X174625000Y-95029000D03*
X175895000Y-95029000D03*
X175895000Y-89629000D03*
X174625000Y-89629000D03*
X173355000Y-89629000D03*
X172085000Y-89629000D03*
X166243000Y-95029000D03*
X167513000Y-95029000D03*
X168783000Y-95029000D03*
X170053000Y-95029000D03*
X170053000Y-89629000D03*
X168783000Y-89629000D03*
X167513000Y-89629000D03*
X166243000Y-89629000D03*
X160401000Y-95029000D03*
X161671000Y-95029000D03*
X162941000Y-95029000D03*
X164211000Y-95029000D03*
X164211000Y-89629000D03*
X162941000Y-89629000D03*
X161671000Y-89629000D03*
X160401000Y-89629000D03*
D17*
X159385000Y-77343000D03*
D18*
X159385000Y-79883000D03*
X159385000Y-82423000D03*
X159385000Y-84963000D03*
D28*
X181737000Y-89629000D03*
X180467000Y-89629000D03*
X179197000Y-89629000D03*
X177927000Y-89629000D03*
X177927000Y-95029000D03*
X179197000Y-95029000D03*
X180467000Y-95029000D03*
X181737000Y-95029000D03*
D17*
X174498000Y-99568000D03*
D18*
X177038000Y-99568000D03*
X179578000Y-99568000D03*
X182118000Y-99568000D03*
X184658000Y-99568000D03*
D21*
X185362000Y-97155000D03*
X184462000Y-97155000D03*
D29*
X176530000Y-59159000D03*
X179030000Y-59159000D03*
X181530000Y-59159000D03*
X181530000Y-65659000D03*
X179030000Y-65659000D03*
X176530000Y-65659000D03*
D30*
X176784000Y-68580000D03*
X176784000Y-78480000D03*
D31*
X159512000Y-71525000D03*
X159512000Y-74525000D03*
D32*
X170688000Y-84566000D03*
X170688000Y-82566000D03*
M02*
