M48
;DRILL file {KiCad 4.0.6} date 11/09/17 14:44:08
;FORMAT={3:3/ absolute / metric / keep zeros}
FMAT,2
METRIC,TZ
T1C0.330
T2C0.400
T3C0.500
T4C0.650
T5C1.000
%
G90
G05
M71
T1
X125222Y-075692
X134620Y-080010
X135382Y-071374
X136271Y-071374
X139319Y-086868
X140208Y-075057
X141097Y-073279
X146431Y-089027
X147193Y-065786
X147320Y-086106
X149098Y-081153
X149479Y-087757
X149733Y-079248
X152146Y-069723
T2
X119380Y-080772
X119380Y-081788
X120396Y-080772
X120396Y-081788
X120523Y-068199
X121412Y-080772
X121412Y-081788
X121920Y-089154
X121920Y-091440
X121920Y-092710
X121920Y-094234
X121920Y-095250
X121920Y-096774
X121920Y-097790
X121920Y-100838
X121920Y-102108
X122047Y-077978
X122428Y-080772
X122428Y-081788
X122428Y-084074
X122428Y-085090
X122428Y-086614
X122428Y-087630
X122936Y-091440
X122936Y-092710
X122936Y-094234
X122936Y-095250
X122936Y-096774
X123444Y-080772
X123444Y-081788
X123444Y-084074
X123444Y-085090
X123444Y-086614
X123444Y-099568
X123444Y-102108
X123698Y-070993
X123698Y-072136
X123698Y-073152
X123952Y-075946
X123952Y-089916
X123952Y-091440
X123952Y-092710
X123952Y-094234
X123952Y-095250
X124460Y-080772
X124460Y-081788
X124460Y-084074
X124460Y-085090
X124587Y-076708
X124968Y-088392
X124968Y-089916
X124968Y-091440
X124968Y-092710
X124968Y-094234
X124968Y-098298
X124968Y-099568
X124968Y-100838
X124968Y-102108
X125349Y-067183
X125476Y-080772
X125476Y-081788
X125476Y-084074
X125984Y-088392
X125984Y-089916
X125984Y-091440
X126238Y-096774
X126238Y-098298
X126238Y-099568
X126238Y-100838
X126238Y-102108
X126492Y-080772
X126492Y-081788
X127000Y-086868
X127000Y-088392
X127000Y-089916
X127000Y-091440
X127127Y-068072
X127508Y-080518
X127889Y-065151
X128016Y-085344
X128016Y-086868
X128016Y-088392
X128016Y-089916
X128270Y-073152
X129032Y-085344
X129032Y-086868
X129032Y-088392
X130048Y-085344
X130048Y-086868
X131064Y-085344
X131064Y-086868
X131445Y-095377
X131572Y-063754
X132080Y-094691
X132588Y-065659
X132715Y-081026
X134493Y-074930
X135001Y-076708
X136525Y-075184
X136525Y-086868
X137541Y-086868
X137795Y-098298
X138176Y-101092
X138430Y-086868
X138684Y-082550
X139192Y-089916
X139192Y-091440
X139192Y-092964
X139192Y-094488
X139192Y-096012
X139319Y-075184
X140081Y-078105
X140208Y-088900
X140208Y-090424
X140208Y-091948
X140208Y-093472
X140208Y-094996
X140208Y-096520
X140843Y-086741
X141605Y-084201
X141859Y-068326
X141859Y-069215
X142367Y-076708
X143002Y-085725
X143129Y-088265
X143637Y-081661
X143764Y-095631
X144272Y-082804
X145923Y-091694
X146431Y-089916
X146643Y-093768
X146643Y-096139
X148336Y-076708
X148844Y-075184
X149352Y-073152
X149860Y-074168
X150368Y-096520
X150368Y-098044
X150368Y-099568
X150876Y-073152
X150876Y-079248
X151003Y-071120
X151384Y-093980
X151384Y-095504
X151384Y-097028
X151384Y-098552
X151384Y-100076
X151892Y-075692
X151892Y-085852
X152400Y-074676
X152400Y-087376
X152400Y-089408
X152400Y-091440
X152908Y-075692
X152908Y-086360
X152908Y-088392
X152908Y-090424
X153416Y-074676
X153924Y-075692
X154432Y-098806
X154559Y-097790
X155067Y-096774
X155194Y-094996
X155956Y-071120
X155956Y-077597
X155956Y-078486
X157353Y-092329
X157607Y-093853
X157607Y-094869
X157607Y-097790
X157988Y-083566
X157988Y-084582
X157988Y-085598
X158242Y-098552
X159004Y-083566
X160020Y-083566
T3
X120650Y-070358
X120650Y-072644
T4
X121158Y-064516
X121158Y-065786
X122428Y-064516
X122428Y-065786
X123698Y-064516
X123698Y-065786
X124968Y-064516
X124968Y-065786
X126238Y-064516
X126238Y-065786
T5
X120396Y-083185
X120396Y-085725
X120396Y-088265
X120396Y-090805
X120396Y-093345
X120396Y-095885
X120396Y-098425
X120396Y-100965
X128143Y-098552
X128143Y-101092
X130683Y-098552
X130683Y-101092
X133223Y-098552
X133223Y-101092
X135763Y-098552
X135763Y-101092
X136144Y-064516
X136144Y-067056
X138684Y-064516
X138684Y-067056
X140589Y-098552
X140589Y-101092
X141224Y-064516
X141224Y-067056
X143129Y-098552
X143129Y-101092
X143764Y-064516
X143764Y-067056
X145669Y-098552
X145669Y-101092
X146304Y-064516
X146304Y-067056
X148844Y-064516
X148844Y-067056
X159715Y-086909
X159715Y-089449
X159715Y-091989
X159715Y-094529
X159893Y-067056
X159893Y-069596
T0
M30
