G04 #@! TF.FileFunction,Copper,L1,Top,Signal*
%FSLAX46Y46*%
G04 Gerber Fmt 4.6, Leading zero omitted, Abs format (unit mm)*
G04 Created by KiCad (PCBNEW 4.0.6) date 11/09/17 14:44:06*
%MOMM*%
%LPD*%
G01*
G04 APERTURE LIST*
%ADD10C,0.100000*%
%ADD11R,1.700000X1.700000*%
%ADD12O,1.700000X1.700000*%
%ADD13R,1.800000X0.500000*%
%ADD14R,0.500000X1.800000*%
%ADD15R,0.600000X0.500000*%
%ADD16R,0.500000X0.600000*%
%ADD17R,0.750000X0.800000*%
%ADD18R,0.800000X0.800000*%
%ADD19R,0.900000X0.500000*%
%ADD20R,0.600000X0.400000*%
%ADD21R,0.400000X0.600000*%
%ADD22R,1.000000X0.900000*%
%ADD23R,1.200000X1.500000*%
%ADD24R,1.150000X1.400000*%
%ADD25R,0.650000X1.060000*%
%ADD26R,1.397000X0.348000*%
%ADD27R,0.850000X0.850000*%
%ADD28R,0.500000X0.900000*%
%ADD29R,0.900000X1.000000*%
%ADD30R,1.900000X1.800000*%
%ADD31R,1.900000X1.900000*%
%ADD32R,1.350000X0.400000*%
%ADD33R,1.600000X2.100000*%
%ADD34R,1.000000X1.000000*%
%ADD35O,1.000000X1.000000*%
%ADD36C,0.600000*%
%ADD37C,0.482600*%
%ADD38C,0.250000*%
%ADD39C,0.254000*%
%ADD40C,0.381000*%
%ADD41C,0.508000*%
%ADD42C,0.180000*%
%ADD43C,0.226060*%
G04 APERTURE END LIST*
D10*
D11*
X145669000Y-98552000D03*
D12*
X145669000Y-101092000D03*
X143129000Y-98552000D03*
X143129000Y-101092000D03*
X140589000Y-98552000D03*
X140589000Y-101092000D03*
D13*
X142144000Y-83121000D03*
X142144000Y-82321000D03*
X142144000Y-81521000D03*
X142144000Y-80721000D03*
X142144000Y-79921000D03*
X142144000Y-79121000D03*
X142144000Y-78321000D03*
X142144000Y-77521000D03*
X142144000Y-76721000D03*
X142144000Y-75921000D03*
X142144000Y-75121000D03*
D14*
X140144000Y-73121000D03*
X139344000Y-73121000D03*
X138544000Y-73121000D03*
X137744000Y-73121000D03*
X136944000Y-73121000D03*
X136144000Y-73121000D03*
X135344000Y-73121000D03*
X134544000Y-73121000D03*
X133744000Y-73121000D03*
X132944000Y-73121000D03*
X132144000Y-73121000D03*
D13*
X130144000Y-75121000D03*
X130144000Y-75921000D03*
X130144000Y-76721000D03*
X130144000Y-77521000D03*
X130144000Y-78321000D03*
X130144000Y-79121000D03*
X130144000Y-79921000D03*
X130144000Y-80721000D03*
X130144000Y-81521000D03*
X130144000Y-82321000D03*
X130144000Y-83121000D03*
D14*
X132144000Y-85121000D03*
X132944000Y-85121000D03*
X133744000Y-85121000D03*
X134544000Y-85121000D03*
X135344000Y-85121000D03*
X136144000Y-85121000D03*
X136944000Y-85121000D03*
X137744000Y-85121000D03*
X138544000Y-85121000D03*
X139344000Y-85121000D03*
X140144000Y-85121000D03*
D15*
X146981000Y-76581000D03*
X145881000Y-76581000D03*
X146854000Y-71120000D03*
X145754000Y-71120000D03*
D16*
X147828000Y-81873000D03*
X147828000Y-82973000D03*
D15*
X154390000Y-82804000D03*
X155490000Y-82804000D03*
D16*
X147828000Y-80179000D03*
X147828000Y-79079000D03*
D17*
X145161000Y-78752000D03*
X145161000Y-80252000D03*
D16*
X126746000Y-78190000D03*
X126746000Y-79290000D03*
D18*
X158496000Y-101130000D03*
X158496000Y-99530000D03*
X160147000Y-101130000D03*
X160147000Y-99530000D03*
D11*
X159893000Y-67056000D03*
D12*
X159893000Y-69596000D03*
D11*
X120396000Y-100965000D03*
D12*
X120396000Y-98425000D03*
X120396000Y-95885000D03*
X120396000Y-93345000D03*
X120396000Y-90805000D03*
X120396000Y-88265000D03*
X120396000Y-85725000D03*
X120396000Y-83185000D03*
D19*
X126746000Y-76442000D03*
X126746000Y-74942000D03*
D20*
X146558000Y-80830000D03*
X146558000Y-81730000D03*
X145161000Y-81846000D03*
X145161000Y-82746000D03*
D21*
X153612000Y-100838000D03*
X152712000Y-100838000D03*
X156025000Y-101600000D03*
X155125000Y-101600000D03*
D20*
X132588000Y-63812000D03*
X132588000Y-64712000D03*
D21*
X143325000Y-87122000D03*
X142425000Y-87122000D03*
D22*
X145143000Y-85179000D03*
X145143000Y-86779000D03*
X149243000Y-85179000D03*
X149243000Y-86779000D03*
D23*
X154686000Y-77620000D03*
X152186000Y-77620000D03*
X149686000Y-77620000D03*
X149686000Y-71120000D03*
X152186000Y-71120000D03*
X154686000Y-71120000D03*
D24*
X147193000Y-72730000D03*
X145593000Y-72730000D03*
X145593000Y-74930000D03*
X147193000Y-74930000D03*
D15*
X156506000Y-88392000D03*
X155406000Y-88392000D03*
D25*
X156398000Y-84498000D03*
X155448000Y-84498000D03*
X154498000Y-84498000D03*
X154498000Y-86698000D03*
X156398000Y-86698000D03*
D11*
X136144000Y-67056000D03*
D12*
X136144000Y-64516000D03*
X138684000Y-67056000D03*
X138684000Y-64516000D03*
X141224000Y-67056000D03*
X141224000Y-64516000D03*
X143764000Y-67056000D03*
X143764000Y-64516000D03*
X146304000Y-67056000D03*
X146304000Y-64516000D03*
X148844000Y-67056000D03*
X148844000Y-64516000D03*
D11*
X159715200Y-86908640D03*
D12*
X159715200Y-89448640D03*
X159715200Y-91988640D03*
X159715200Y-94528640D03*
D11*
X135763000Y-98552000D03*
D12*
X135763000Y-101092000D03*
X133223000Y-98552000D03*
X133223000Y-101092000D03*
X130683000Y-98552000D03*
X130683000Y-101092000D03*
X128143000Y-98552000D03*
X128143000Y-101092000D03*
D17*
X145923000Y-94095000D03*
X145923000Y-92595000D03*
D16*
X147193000Y-92668000D03*
X147193000Y-93768000D03*
D17*
X151257000Y-88761000D03*
X151257000Y-87261000D03*
D26*
X156310000Y-90644000D03*
X156310000Y-91294000D03*
X156310000Y-91944000D03*
X156310000Y-92594000D03*
X156310000Y-93244000D03*
X156310000Y-93894000D03*
X156310000Y-94544000D03*
X156310000Y-95844000D03*
X156310000Y-95194000D03*
X156310000Y-96494000D03*
X156310000Y-97144000D03*
X156310000Y-97794000D03*
X156310000Y-98444000D03*
X156310000Y-99094000D03*
X148998000Y-90644000D03*
X148998000Y-91294000D03*
X148998000Y-91944000D03*
X148998000Y-92594000D03*
X148998000Y-93244000D03*
X148998000Y-93894000D03*
X148998000Y-94544000D03*
X148998000Y-95194000D03*
X148998000Y-95844000D03*
X148998000Y-96494000D03*
X148998000Y-97144000D03*
X148998000Y-97794000D03*
X148998000Y-98444000D03*
X148998000Y-99094000D03*
D18*
X125984000Y-71590000D03*
X125984000Y-73190000D03*
D27*
X120650000Y-72644000D03*
D28*
X122948000Y-69977000D03*
X124448000Y-69977000D03*
D16*
X122301000Y-74888000D03*
X122301000Y-75988000D03*
D21*
X124783000Y-74803000D03*
X123883000Y-74803000D03*
X120719000Y-74803000D03*
X119819000Y-74803000D03*
D29*
X124097000Y-79413000D03*
X124097000Y-77813000D03*
X119997000Y-79413000D03*
X119997000Y-77813000D03*
D27*
X120650000Y-70358000D03*
D30*
X160444000Y-74126000D03*
D31*
X160444000Y-76726000D03*
X160444000Y-79126000D03*
D30*
X160444000Y-81726000D03*
D32*
X157767020Y-76626000D03*
X157767020Y-77926000D03*
X157767020Y-77276000D03*
X157767020Y-78576000D03*
X157767020Y-79226000D03*
D33*
X157894000Y-74826000D03*
X157894000Y-81026000D03*
D34*
X121158000Y-65786000D03*
D35*
X121158000Y-64516000D03*
X122428000Y-65786000D03*
X122428000Y-64516000D03*
X123698000Y-65786000D03*
X123698000Y-64516000D03*
X124968000Y-65786000D03*
X124968000Y-64516000D03*
X126238000Y-65786000D03*
X126238000Y-64516000D03*
D18*
X130683000Y-66256000D03*
X130683000Y-67856000D03*
D20*
X128778000Y-63812000D03*
X128778000Y-64712000D03*
X130683000Y-63812000D03*
X130683000Y-64712000D03*
D18*
X128778000Y-66256000D03*
X128778000Y-67856000D03*
D36*
X121920000Y-100838000D03*
X152400000Y-91440000D03*
X152908000Y-90424000D03*
X152400000Y-89408000D03*
X152908000Y-88392000D03*
X152400000Y-87376000D03*
X152908000Y-86360000D03*
X151892000Y-85852000D03*
X131064000Y-86868000D03*
X130048000Y-86868000D03*
X131064000Y-85344000D03*
X130048000Y-85344000D03*
X129032000Y-85344000D03*
X128016000Y-85344000D03*
X127000000Y-86868000D03*
X128016000Y-86868000D03*
X129032000Y-86868000D03*
X129032000Y-88392000D03*
X124968000Y-88392000D03*
X125984000Y-88392000D03*
X127000000Y-88392000D03*
X128016000Y-88392000D03*
X128016000Y-89916000D03*
X123952000Y-89916000D03*
X124968000Y-89916000D03*
X125984000Y-89916000D03*
X127000000Y-89916000D03*
X127000000Y-91440000D03*
X125984000Y-91440000D03*
X124968000Y-91440000D03*
X123952000Y-91440000D03*
X122936000Y-91440000D03*
X121920000Y-91440000D03*
X127889000Y-65151000D03*
X124968000Y-98298000D03*
X126238000Y-98298000D03*
X126238000Y-96774000D03*
X126238000Y-99568000D03*
X124968000Y-99568000D03*
X123444000Y-99568000D03*
X121920000Y-96774000D03*
X122936000Y-96774000D03*
X121920000Y-97790000D03*
X121920000Y-95250000D03*
X122936000Y-95250000D03*
X123952000Y-95250000D03*
X124968000Y-94234000D03*
X123952000Y-94234000D03*
X122936000Y-94234000D03*
X121920000Y-94234000D03*
X124968000Y-100838000D03*
X126238000Y-100838000D03*
X126238000Y-102108000D03*
X124968000Y-102108000D03*
X123444000Y-102108000D03*
X121920000Y-102108000D03*
X124968000Y-92710000D03*
X123952000Y-92710000D03*
X122936000Y-92710000D03*
X121920000Y-92710000D03*
X122428000Y-86614000D03*
X123444000Y-86614000D03*
X122428000Y-87630000D03*
X122428000Y-85090000D03*
X123444000Y-85090000D03*
X124460000Y-85090000D03*
X125476000Y-84074000D03*
X124460000Y-84074000D03*
X123444000Y-84074000D03*
X122428000Y-84074000D03*
X121920000Y-89154000D03*
X157988000Y-84582000D03*
X157988000Y-83566000D03*
X157988000Y-85598000D03*
X159004000Y-83566000D03*
X160020000Y-83566000D03*
X121412000Y-81788000D03*
X120396000Y-81788000D03*
X119380000Y-81788000D03*
X119380000Y-80772000D03*
X120396000Y-80772000D03*
X121412000Y-80772000D03*
X126492000Y-81788000D03*
X126492000Y-80772000D03*
X125476000Y-80772000D03*
X124460000Y-80772000D03*
X123444000Y-80772000D03*
X122428000Y-80772000D03*
X122428000Y-81788000D03*
X123444000Y-81788000D03*
X124460000Y-81788000D03*
X125476000Y-81788000D03*
X122047000Y-77978000D03*
X123952000Y-75946000D03*
X123698000Y-72136000D03*
X123698000Y-73152000D03*
X123698000Y-70993000D03*
X157353000Y-92329000D03*
X148336000Y-76708000D03*
X148844000Y-75184000D03*
X149860000Y-74168000D03*
X150876000Y-73152000D03*
X149352000Y-73152000D03*
X151384000Y-93980000D03*
X151384000Y-95504000D03*
X151384000Y-97028000D03*
X151384000Y-98552000D03*
X151384000Y-100076000D03*
X150368000Y-96520000D03*
X150368000Y-98044000D03*
X150368000Y-99568000D03*
D37*
X149733000Y-79248000D03*
D36*
X152400000Y-74676000D03*
X153416000Y-74676000D03*
X153924000Y-75692000D03*
X152908000Y-75692000D03*
X151892000Y-75692000D03*
X150876000Y-79248000D03*
X138176000Y-101092000D03*
X140208000Y-96520000D03*
X140208000Y-94996000D03*
X140208000Y-93472000D03*
X140208000Y-91948000D03*
X140208000Y-90424000D03*
X140208000Y-88900000D03*
X139192000Y-89916000D03*
X139192000Y-96012000D03*
X139192000Y-94488000D03*
X139192000Y-92964000D03*
X139192000Y-91440000D03*
X146643000Y-96139000D03*
X155067000Y-96774000D03*
X155194000Y-94996000D03*
X146643000Y-93768000D03*
D37*
X152146000Y-69723000D03*
X149479000Y-87757000D03*
D36*
X132715000Y-81026000D03*
X127127000Y-68072000D03*
X143764000Y-95631000D03*
X146431000Y-89916000D03*
X120523000Y-68199000D03*
X145923000Y-91694000D03*
D37*
X146431000Y-89027000D03*
X149098000Y-81153000D03*
X125222000Y-75692000D03*
X134620000Y-80010000D03*
D36*
X155956000Y-78486000D03*
X154559000Y-97790000D03*
X155956000Y-77597000D03*
X154432000Y-98806000D03*
X158242000Y-98552000D03*
X157607000Y-93853000D03*
X157607000Y-94869000D03*
X157607000Y-97790000D03*
X155956000Y-71120000D03*
X151003000Y-71120000D03*
X125349000Y-67183000D03*
X128270000Y-73152000D03*
X136525000Y-86868000D03*
X137541000Y-86868000D03*
X138430000Y-86868000D03*
D37*
X139319000Y-86868000D03*
D36*
X135001000Y-76708000D03*
X132080000Y-94691200D03*
X139319000Y-75184000D03*
X137795000Y-98298000D03*
X140081000Y-78105000D03*
X131445000Y-95377000D03*
X136525000Y-75184000D03*
X144272000Y-82804000D03*
X143637000Y-81661000D03*
X141605000Y-84201000D03*
X138684000Y-82550000D03*
X141859000Y-69215000D03*
X143002000Y-85725000D03*
X142367000Y-76708000D03*
X143129000Y-88265000D03*
D37*
X147320000Y-86106000D03*
X147193000Y-65786000D03*
D36*
X140843000Y-86741000D03*
D37*
X140208000Y-75057000D03*
X141097000Y-73279000D03*
D36*
X132588000Y-65659000D03*
D37*
X136271000Y-71374000D03*
X135382000Y-71374000D03*
D36*
X131572000Y-63754000D03*
X134493000Y-74930000D03*
X141859000Y-68326000D03*
X127508000Y-80518000D03*
X124587000Y-76708000D03*
D38*
X123444000Y-100838000D02*
X121920000Y-100838000D01*
X151892000Y-84116000D02*
X151892000Y-85852000D01*
X152400000Y-90932000D02*
X152400000Y-91440000D01*
X152908000Y-90424000D02*
X152400000Y-90932000D01*
X152400000Y-88900000D02*
X152400000Y-89408000D01*
X152908000Y-88392000D02*
X152400000Y-88900000D01*
X152400000Y-86868000D02*
X152400000Y-87376000D01*
X152908000Y-86360000D02*
X152400000Y-86868000D01*
D39*
X151892000Y-84116000D02*
X151892000Y-86106000D01*
X152273000Y-86487000D02*
X152400000Y-86487000D01*
X151892000Y-86106000D02*
X152273000Y-86487000D01*
D40*
X151892000Y-81322000D02*
X151892000Y-83016000D01*
D39*
X142144000Y-78321000D02*
X143421000Y-78321000D01*
X146092000Y-77470000D02*
X146981000Y-76581000D01*
X144272000Y-77470000D02*
X146092000Y-77470000D01*
X143421000Y-78321000D02*
X144272000Y-77470000D01*
D40*
X146981000Y-76581000D02*
X146981000Y-75142000D01*
X146981000Y-75142000D02*
X147193000Y-74930000D01*
D38*
X130048000Y-86868000D02*
X131064000Y-86868000D01*
X130048000Y-85344000D02*
X131064000Y-85344000D01*
X128016000Y-85344000D02*
X129032000Y-85344000D01*
X128016000Y-86868000D02*
X127000000Y-86868000D01*
X129032000Y-88392000D02*
X129032000Y-86868000D01*
X127000000Y-89916000D02*
X128016000Y-89916000D01*
X125984000Y-88392000D02*
X124968000Y-88392000D01*
X128016000Y-88392000D02*
X127000000Y-88392000D01*
X121920000Y-92710000D02*
X121920000Y-91440000D01*
X125984000Y-89916000D02*
X124968000Y-89916000D01*
X127000000Y-91440000D02*
X127000000Y-89916000D01*
X124968000Y-91440000D02*
X125984000Y-91440000D01*
X122936000Y-91440000D02*
X123952000Y-91440000D01*
X127762000Y-66840000D02*
X128778000Y-67856000D01*
X127762000Y-65278000D02*
X127762000Y-66840000D01*
X127889000Y-65151000D02*
X127762000Y-65278000D01*
X126238000Y-98298000D02*
X126238000Y-96774000D01*
X124968000Y-99568000D02*
X124968000Y-98298000D01*
X123444000Y-99568000D02*
X124968000Y-99568000D01*
X121920000Y-96774000D02*
X122936000Y-96774000D01*
X123952000Y-95250000D02*
X122936000Y-95250000D01*
X123952000Y-94234000D02*
X124968000Y-94234000D01*
X121920000Y-94234000D02*
X122936000Y-94234000D01*
X126238000Y-100838000D02*
X124968000Y-100838000D01*
X124968000Y-102108000D02*
X126238000Y-102108000D01*
X121920000Y-102108000D02*
X123444000Y-102108000D01*
X123952000Y-92710000D02*
X124968000Y-92710000D01*
X121920000Y-92710000D02*
X122936000Y-92710000D01*
X122428000Y-86614000D02*
X123444000Y-86614000D01*
X124460000Y-85090000D02*
X123444000Y-85090000D01*
X124460000Y-84074000D02*
X125476000Y-84074000D01*
X122428000Y-84074000D02*
X123444000Y-84074000D01*
X157988000Y-85598000D02*
X157988000Y-84582000D01*
X157988000Y-83566000D02*
X159004000Y-83566000D01*
X158623000Y-83185000D02*
X159004000Y-83566000D01*
D39*
X157861000Y-82804000D02*
X155490000Y-82804000D01*
X158115000Y-83058000D02*
X158115000Y-83185000D01*
X157861000Y-82804000D02*
X158115000Y-83058000D01*
D38*
X158115000Y-83185000D02*
X158623000Y-83185000D01*
X122428000Y-80772000D02*
X121412000Y-80772000D01*
X119380000Y-81788000D02*
X120396000Y-81788000D01*
X120396000Y-80772000D02*
X119380000Y-80772000D01*
X126746000Y-81534000D02*
X126492000Y-81788000D01*
X126746000Y-79290000D02*
X126746000Y-81534000D01*
X124460000Y-80772000D02*
X125476000Y-80772000D01*
X122428000Y-80772000D02*
X123444000Y-80772000D01*
X123444000Y-81788000D02*
X122428000Y-81788000D01*
X125476000Y-81788000D02*
X124460000Y-81788000D01*
X122301000Y-75988000D02*
X123910000Y-75988000D01*
X123910000Y-75988000D02*
X123952000Y-75946000D01*
X122216000Y-76073000D02*
X122301000Y-75988000D01*
X123698000Y-70993000D02*
X123698000Y-72136000D01*
X123736000Y-73190000D02*
X125984000Y-73190000D01*
X123736000Y-73190000D02*
X123698000Y-73152000D01*
X122301000Y-75988000D02*
X122301000Y-77813000D01*
X122301000Y-77813000D02*
X122301000Y-77851000D01*
X122301000Y-77851000D02*
X122301000Y-77813000D01*
X124097000Y-77813000D02*
X125269000Y-77813000D01*
X125269000Y-77813000D02*
X126746000Y-79290000D01*
X119997000Y-77813000D02*
X122301000Y-77813000D01*
X122301000Y-77813000D02*
X124097000Y-77813000D01*
D40*
X159715200Y-91988640D02*
X159715200Y-89448640D01*
X159374840Y-92329000D02*
X157353000Y-92329000D01*
D38*
X157353000Y-92329000D02*
X156968000Y-91944000D01*
D40*
X159374840Y-92329000D02*
X159715200Y-91988640D01*
D38*
X147193000Y-72730000D02*
X148930000Y-72730000D01*
X148336000Y-75692000D02*
X148336000Y-76708000D01*
X148844000Y-75184000D02*
X148336000Y-75692000D01*
X150876000Y-73152000D02*
X149860000Y-74168000D01*
X148930000Y-72730000D02*
X149352000Y-73152000D01*
X151384000Y-100076000D02*
X147828000Y-100076000D01*
X150424000Y-94544000D02*
X150988000Y-93980000D01*
X150988000Y-93980000D02*
X151384000Y-93980000D01*
X151384000Y-95504000D02*
X151384000Y-97028000D01*
X151384000Y-98552000D02*
X151384000Y-100076000D01*
X148998000Y-94544000D02*
X150424000Y-94544000D01*
X150368000Y-96520000D02*
X151384000Y-95504000D01*
X150368000Y-99568000D02*
X150368000Y-98044000D01*
X149733000Y-79248000D02*
X150876000Y-79248000D01*
D39*
X149564000Y-79079000D02*
X149733000Y-79248000D01*
X147828000Y-79079000D02*
X149564000Y-79079000D01*
D38*
X152400000Y-74676000D02*
X153416000Y-73660000D01*
X153416000Y-75184000D02*
X153416000Y-74676000D01*
X153924000Y-75692000D02*
X153416000Y-75184000D01*
X151892000Y-75692000D02*
X152908000Y-75692000D01*
X139192000Y-91440000D02*
X132080000Y-91440000D01*
X138176000Y-101092000D02*
X138176000Y-100076000D01*
X140208000Y-94996000D02*
X140208000Y-93472000D01*
X140208000Y-91948000D02*
X140208000Y-90424000D01*
X140208000Y-96520000D02*
X139192000Y-97536000D01*
X139192000Y-99060000D02*
X139192000Y-97536000D01*
X138684000Y-99568000D02*
X139192000Y-99060000D01*
X139192000Y-89916000D02*
X140208000Y-88900000D01*
X138176000Y-100076000D02*
X138684000Y-99568000D01*
X139192000Y-94488000D02*
X139192000Y-96012000D01*
X139192000Y-91440000D02*
X139192000Y-92964000D01*
X138684000Y-100965000D02*
X138684000Y-96520000D01*
X140462000Y-94742000D02*
X138684000Y-96520000D01*
X143764000Y-94742000D02*
X140462000Y-94742000D01*
X144907000Y-95885000D02*
X143764000Y-94742000D01*
X146389000Y-95885000D02*
X144907000Y-95885000D01*
X146389000Y-95885000D02*
X146643000Y-96139000D01*
X140589000Y-101092000D02*
X138557000Y-101092000D01*
X138557000Y-101092000D02*
X138176000Y-100711000D01*
X138176000Y-100711000D02*
X138176000Y-100584000D01*
X145143000Y-86779000D02*
X149243000Y-86779000D01*
X138557000Y-101092000D02*
X137922000Y-101727000D01*
X148998000Y-94544000D02*
X150297000Y-94544000D01*
X150297000Y-94544000D02*
X150749000Y-94996000D01*
X156310000Y-97144000D02*
X155437000Y-97144000D01*
X155437000Y-97144000D02*
X155067000Y-96774000D01*
X156310000Y-95194000D02*
X155392000Y-95194000D01*
X155392000Y-95194000D02*
X155194000Y-94996000D01*
X156310000Y-91944000D02*
X156968000Y-91944000D01*
X156310000Y-91944000D02*
X156310000Y-92594000D01*
X145923000Y-94095000D02*
X146316000Y-94095000D01*
X146643000Y-93768000D02*
X147193000Y-93768000D01*
X146316000Y-94095000D02*
X146643000Y-93768000D01*
D39*
X152186000Y-69763000D02*
X152146000Y-69723000D01*
X152186000Y-71120000D02*
X152186000Y-69763000D01*
X149243000Y-86779000D02*
X149243000Y-87521000D01*
X149243000Y-87521000D02*
X149479000Y-87757000D01*
X142144000Y-79121000D02*
X140208000Y-79121000D01*
X140208000Y-79121000D02*
X130144000Y-79121000D01*
X145593000Y-74930000D02*
X145593000Y-74625000D01*
X145593000Y-74625000D02*
X147193000Y-73025000D01*
X147193000Y-73025000D02*
X147193000Y-72730000D01*
X145593000Y-74930000D02*
X145593000Y-76293000D01*
X145161000Y-78752000D02*
X147501000Y-78752000D01*
X147501000Y-78752000D02*
X147828000Y-79079000D01*
X155448000Y-84498000D02*
X155448000Y-82846000D01*
X155448000Y-82846000D02*
X155490000Y-82804000D01*
X146854000Y-71120000D02*
X146854000Y-72391000D01*
X146854000Y-72391000D02*
X147193000Y-72730000D01*
X149243000Y-86779000D02*
X149568000Y-86779000D01*
X149568000Y-86779000D02*
X150114000Y-86233000D01*
X150114000Y-86233000D02*
X150114000Y-83947000D01*
X150114000Y-83947000D02*
X149140000Y-82973000D01*
X149140000Y-82973000D02*
X147828000Y-82973000D01*
X126746000Y-79290000D02*
X129975000Y-79290000D01*
X129975000Y-79290000D02*
X130144000Y-79121000D01*
X145161000Y-78752000D02*
X144260000Y-78752000D01*
X143891000Y-79121000D02*
X142144000Y-79121000D01*
X144260000Y-78752000D02*
X143891000Y-79121000D01*
X145593000Y-76293000D02*
X145881000Y-76581000D01*
X142144000Y-77521000D02*
X143205000Y-77521000D01*
X144272000Y-74051000D02*
X145593000Y-72730000D01*
X144272000Y-76454000D02*
X144272000Y-74051000D01*
X143205000Y-77521000D02*
X144272000Y-76454000D01*
D40*
X145593000Y-72730000D02*
X145593000Y-71281000D01*
X145593000Y-71281000D02*
X145754000Y-71120000D01*
D38*
X123698000Y-64516000D02*
X123698000Y-63881000D01*
X133020000Y-80721000D02*
X142144000Y-80721000D01*
X132715000Y-81026000D02*
X133020000Y-80721000D01*
X127127000Y-63627000D02*
X127127000Y-68072000D01*
X127000000Y-63500000D02*
X127127000Y-63627000D01*
X124079000Y-63500000D02*
X127000000Y-63500000D01*
X123698000Y-63881000D02*
X124079000Y-63500000D01*
X147828000Y-81873000D02*
X149437000Y-81873000D01*
X143764000Y-95631000D02*
X140843000Y-98552000D01*
X148336000Y-89916000D02*
X146431000Y-89916000D01*
X150241000Y-88011000D02*
X148336000Y-89916000D01*
X150241000Y-86868000D02*
X150241000Y-88011000D01*
X150876000Y-86233000D02*
X150241000Y-86868000D01*
X150876000Y-83312000D02*
X150876000Y-86233000D01*
X149437000Y-81873000D02*
X150876000Y-83312000D01*
X140843000Y-98552000D02*
X140589000Y-98552000D01*
D39*
X145161000Y-81846000D02*
X144838000Y-81846000D01*
X144838000Y-81846000D02*
X144272000Y-81280000D01*
X143713000Y-80721000D02*
X142144000Y-80721000D01*
X144272000Y-81280000D02*
X143713000Y-80721000D01*
D40*
X146558000Y-81730000D02*
X147685000Y-81730000D01*
X147685000Y-81730000D02*
X147828000Y-81873000D01*
X145161000Y-81846000D02*
X146442000Y-81846000D01*
X146442000Y-81846000D02*
X146558000Y-81730000D01*
D38*
X123571000Y-64770000D02*
X123571000Y-64389000D01*
X122428000Y-64516000D02*
X122428000Y-63246000D01*
X122428000Y-63246000D02*
X122174000Y-62992000D01*
X120015000Y-67691000D02*
X120523000Y-68199000D01*
X120015000Y-63373000D02*
X120015000Y-67691000D01*
X120396000Y-62992000D02*
X120015000Y-63373000D01*
X122174000Y-62992000D02*
X120396000Y-62992000D01*
X128778000Y-63812000D02*
X128778000Y-63373000D01*
X128778000Y-63373000D02*
X128397000Y-62992000D01*
X122682000Y-62992000D02*
X122428000Y-63246000D01*
X128397000Y-62992000D02*
X122682000Y-62992000D01*
X132588000Y-63246000D02*
X132588000Y-63812000D01*
X132334000Y-62992000D02*
X132588000Y-63246000D01*
X129159000Y-62992000D02*
X132334000Y-62992000D01*
X128778000Y-63373000D02*
X129159000Y-62992000D01*
X128778000Y-63812000D02*
X128778000Y-63754000D01*
X125222000Y-75692000D02*
X125222000Y-75242000D01*
X125222000Y-75242000D02*
X124783000Y-74803000D01*
D39*
X145923000Y-92595000D02*
X145923000Y-91694000D01*
D40*
X156310000Y-95844000D02*
X158399840Y-95844000D01*
X158399840Y-95844000D02*
X159715200Y-94528640D01*
D38*
X152712000Y-100838000D02*
X152712000Y-93403000D01*
X152712000Y-93403000D02*
X152400000Y-93091000D01*
X148998000Y-92594000D02*
X151903000Y-92594000D01*
X151903000Y-92594000D02*
X152400000Y-93091000D01*
X152400000Y-93091000D02*
X155153000Y-95844000D01*
X155153000Y-95844000D02*
X156310000Y-95844000D01*
X145923000Y-92595000D02*
X147120000Y-92595000D01*
X147120000Y-92595000D02*
X147193000Y-92668000D01*
X147193000Y-92668000D02*
X148924000Y-92668000D01*
X148924000Y-92668000D02*
X148998000Y-92594000D01*
X152712000Y-100838000D02*
X152712000Y-101404000D01*
X152908000Y-101600000D02*
X155125000Y-101600000D01*
X152712000Y-101404000D02*
X152908000Y-101600000D01*
X145669000Y-101092000D02*
X151765000Y-101092000D01*
X151765000Y-101092000D02*
X152458000Y-101092000D01*
X152458000Y-101092000D02*
X152712000Y-100838000D01*
D39*
X139954000Y-79883000D02*
X139954000Y-79921000D01*
X139954000Y-79921000D02*
X139954000Y-79883000D01*
X139954000Y-79883000D02*
X139954000Y-79921000D01*
X139954000Y-79921000D02*
X134709000Y-79921000D01*
X154498000Y-84498000D02*
X154498000Y-85156000D01*
X156398000Y-85156000D02*
X156398000Y-84498000D01*
X155956000Y-85598000D02*
X156398000Y-85156000D01*
X154940000Y-85598000D02*
X155956000Y-85598000D01*
X154498000Y-85156000D02*
X154940000Y-85598000D01*
X143325000Y-87122000D02*
X143325000Y-87318000D01*
X143325000Y-87318000D02*
X145034000Y-89027000D01*
X145034000Y-89027000D02*
X146431000Y-89027000D01*
X149098000Y-81153000D02*
X149098000Y-80179000D01*
X149098000Y-80179000D02*
X149098000Y-80264000D01*
X149098000Y-80264000D02*
X149098000Y-80179000D01*
X142144000Y-79921000D02*
X139954000Y-79921000D01*
X125972000Y-74942000D02*
X126746000Y-74942000D01*
X125222000Y-75692000D02*
X125972000Y-74942000D01*
X134709000Y-79921000D02*
X134620000Y-80010000D01*
D40*
X151892000Y-80222000D02*
X151892000Y-77914000D01*
X151892000Y-77914000D02*
X152186000Y-77620000D01*
X151892000Y-80222000D02*
X152866000Y-80222000D01*
X154390000Y-81746000D02*
X154390000Y-82804000D01*
X152866000Y-80222000D02*
X154390000Y-81746000D01*
X156398000Y-84498000D02*
X156421000Y-84498000D01*
D39*
X145161000Y-80252000D02*
X143498000Y-80252000D01*
X143167000Y-79921000D02*
X142144000Y-79921000D01*
X143498000Y-80252000D02*
X143167000Y-79921000D01*
D40*
X154498000Y-84498000D02*
X154498000Y-82912000D01*
X154498000Y-82912000D02*
X154390000Y-82804000D01*
X146558000Y-80179000D02*
X146558000Y-80830000D01*
X147828000Y-80179000D02*
X146558000Y-80179000D01*
X146558000Y-80179000D02*
X145234000Y-80179000D01*
X145234000Y-80179000D02*
X145161000Y-80252000D01*
X151892000Y-80222000D02*
X151892000Y-80010000D01*
X147828000Y-80179000D02*
X149098000Y-80179000D01*
X149098000Y-80179000D02*
X151849000Y-80179000D01*
X151849000Y-80179000D02*
X151892000Y-80222000D01*
D38*
X156310000Y-98444000D02*
X155213000Y-98444000D01*
X156046000Y-78576000D02*
X157513020Y-78576000D01*
X155956000Y-78486000D02*
X156046000Y-78576000D01*
X155213000Y-98444000D02*
X154559000Y-97790000D01*
X156310000Y-99094000D02*
X154720000Y-99094000D01*
X156666000Y-77926000D02*
X157513020Y-77926000D01*
X156591000Y-77851000D02*
X156666000Y-77926000D01*
X156591000Y-77724000D02*
X156591000Y-77851000D01*
X156464000Y-77597000D02*
X156591000Y-77724000D01*
X155956000Y-77597000D02*
X156464000Y-77597000D01*
X154720000Y-99094000D02*
X154432000Y-98806000D01*
D39*
X126746000Y-78190000D02*
X130013000Y-78190000D01*
X130013000Y-78190000D02*
X130144000Y-78321000D01*
D40*
X126746000Y-76442000D02*
X126746000Y-78190000D01*
D38*
X156310000Y-93894000D02*
X157566000Y-93894000D01*
X158496000Y-98806000D02*
X158496000Y-99530000D01*
X158242000Y-98552000D02*
X158496000Y-98806000D01*
X157566000Y-93894000D02*
X157607000Y-93853000D01*
X160147000Y-99530000D02*
X160147000Y-98552000D01*
X157353000Y-94615000D02*
X156381000Y-94615000D01*
X157607000Y-94869000D02*
X157353000Y-94615000D01*
X159385000Y-97790000D02*
X157607000Y-97790000D01*
X160147000Y-98552000D02*
X159385000Y-97790000D01*
X156381000Y-94615000D02*
X156310000Y-94544000D01*
D40*
X154686000Y-77620000D02*
X154686000Y-78486000D01*
X155426000Y-79226000D02*
X157513020Y-79226000D01*
X154686000Y-78486000D02*
X155426000Y-79226000D01*
X157894000Y-74826000D02*
X157894000Y-76499020D01*
X157894000Y-76499020D02*
X157767020Y-76626000D01*
D41*
X160444000Y-81726000D02*
X158594000Y-81726000D01*
X158594000Y-81726000D02*
X157894000Y-81026000D01*
X160444000Y-79126000D02*
X160444000Y-81726000D01*
X160444000Y-76726000D02*
X160444000Y-79126000D01*
X160444000Y-74126000D02*
X160444000Y-76726000D01*
X157894000Y-74826000D02*
X159744000Y-74826000D01*
X159744000Y-74826000D02*
X160444000Y-74126000D01*
D38*
X149686000Y-71120000D02*
X151003000Y-71120000D01*
X155956000Y-71120000D02*
X154686000Y-71120000D01*
D40*
X157513020Y-76626000D02*
X156382000Y-76626000D01*
X154686000Y-74930000D02*
X154686000Y-71120000D01*
X156382000Y-76626000D02*
X154686000Y-74930000D01*
X149686000Y-71120000D02*
X149686000Y-70278000D01*
X149686000Y-70278000D02*
X151130000Y-68834000D01*
X151130000Y-68834000D02*
X158115000Y-68834000D01*
X158115000Y-68834000D02*
X159893000Y-67056000D01*
X149686000Y-71120000D02*
X149686000Y-70532000D01*
X149686000Y-77620000D02*
X149686000Y-76120000D01*
X149686000Y-76120000D02*
X153416000Y-72390000D01*
X153416000Y-72390000D02*
X153416000Y-70104000D01*
X153416000Y-70104000D02*
X153924000Y-69596000D01*
X153924000Y-69596000D02*
X159893000Y-69596000D01*
D38*
X132944000Y-73121000D02*
X132944000Y-71730000D01*
X125349000Y-67310000D02*
X125349000Y-67183000D01*
X129667000Y-71628000D02*
X125349000Y-67310000D01*
X132842000Y-71628000D02*
X129667000Y-71628000D01*
X132944000Y-71730000D02*
X132842000Y-71628000D01*
X130144000Y-75121000D02*
X130144000Y-73502000D01*
X130144000Y-73502000D02*
X122428000Y-65786000D01*
X132144000Y-73121000D02*
X130399398Y-73121000D01*
X123698000Y-66419602D02*
X123698000Y-65786000D01*
X130399398Y-73121000D02*
X123698000Y-66419602D01*
X130144000Y-75921000D02*
X129134000Y-75921000D01*
X128270000Y-75057000D02*
X128270000Y-73152000D01*
X129134000Y-75921000D02*
X128270000Y-75057000D01*
X136944000Y-85121000D02*
X136944000Y-86449000D01*
X136944000Y-86449000D02*
X136525000Y-86868000D01*
X137744000Y-85121000D02*
X137744000Y-86538000D01*
X137541000Y-86741000D02*
X137541000Y-86868000D01*
X137744000Y-86538000D02*
X137541000Y-86741000D01*
X138544000Y-85121000D02*
X138544000Y-86754000D01*
X138544000Y-86754000D02*
X138430000Y-86868000D01*
D39*
X139344000Y-86843000D02*
X139344000Y-85121000D01*
X139319000Y-86868000D02*
X139344000Y-86843000D01*
D38*
X133223000Y-98552000D02*
X133223000Y-95834200D01*
X134988000Y-76721000D02*
X130144000Y-76721000D01*
X135001000Y-76708000D02*
X134988000Y-76721000D01*
X133223000Y-95834200D02*
X132080000Y-94691200D01*
D39*
X133223000Y-98552000D02*
X133223000Y-98806000D01*
D38*
X130258000Y-76835000D02*
X130144000Y-76721000D01*
D39*
X139344000Y-73121000D02*
X139344000Y-75159000D01*
X139344000Y-75159000D02*
X139319000Y-75184000D01*
D38*
X130144000Y-77521000D02*
X139497000Y-77521000D01*
X137541000Y-98552000D02*
X135763000Y-98552000D01*
X137795000Y-98298000D02*
X137541000Y-98552000D01*
X139497000Y-77521000D02*
X140081000Y-78105000D01*
X138544000Y-73121000D02*
X138544000Y-74562000D01*
X130683000Y-95758000D02*
X130683000Y-98552000D01*
X131445000Y-95377000D02*
X130683000Y-95758000D01*
X137922000Y-75184000D02*
X136525000Y-75184000D01*
X138544000Y-74562000D02*
X137922000Y-75184000D01*
X142144000Y-82321000D02*
X143789000Y-82321000D01*
X143789000Y-82321000D02*
X144272000Y-82804000D01*
X142144000Y-81521000D02*
X143497000Y-81521000D01*
X143497000Y-81521000D02*
X143637000Y-81661000D01*
X141605000Y-84201000D02*
X142144000Y-83662000D01*
X142144000Y-83662000D02*
X142144000Y-83121000D01*
X142303000Y-83121000D02*
X142144000Y-83121000D01*
X120396000Y-100965000D02*
X120777000Y-100965000D01*
X120777000Y-100965000D02*
X134544000Y-87198000D01*
X134544000Y-87198000D02*
X134544000Y-85121000D01*
X120396000Y-98425000D02*
X122555000Y-98425000D01*
X133744000Y-87236000D02*
X133744000Y-85121000D01*
X122555000Y-98425000D02*
X133744000Y-87236000D01*
X120396000Y-95885000D02*
X124333000Y-95885000D01*
X132944000Y-87274000D02*
X132944000Y-85121000D01*
X124333000Y-95885000D02*
X132944000Y-87274000D01*
X120396000Y-93345000D02*
X125984000Y-93345000D01*
X132144000Y-87185000D02*
X132144000Y-85121000D01*
X125984000Y-93345000D02*
X132144000Y-87185000D01*
X120396000Y-90805000D02*
X121412000Y-90805000D01*
X129096000Y-83121000D02*
X130144000Y-83121000D01*
X121412000Y-90805000D02*
X129096000Y-83121000D01*
X120396000Y-88265000D02*
X123063000Y-88265000D01*
X129007000Y-82321000D02*
X130144000Y-82321000D01*
X123063000Y-88265000D02*
X129007000Y-82321000D01*
X120396000Y-85725000D02*
X124841000Y-85725000D01*
X129045000Y-81521000D02*
X130144000Y-81521000D01*
X124841000Y-85725000D02*
X129045000Y-81521000D01*
X120396000Y-83185000D02*
X126492000Y-83185000D01*
X128956000Y-80721000D02*
X130144000Y-80721000D01*
X126492000Y-83185000D02*
X128956000Y-80721000D01*
D39*
X148844000Y-64516000D02*
X148844000Y-64897000D01*
X148844000Y-64897000D02*
X147828000Y-65913000D01*
X135344000Y-83858000D02*
X135344000Y-85121000D01*
X136398000Y-82804000D02*
X135344000Y-83858000D01*
X138430000Y-82804000D02*
X136398000Y-82804000D01*
X138684000Y-82550000D02*
X138430000Y-82804000D01*
X146177000Y-69215000D02*
X141859000Y-69215000D01*
X147574000Y-67818000D02*
X146177000Y-69215000D01*
X147574000Y-66675000D02*
X147574000Y-67818000D01*
X147828000Y-66421000D02*
X147574000Y-66675000D01*
X147828000Y-65913000D02*
X147828000Y-66421000D01*
X148844000Y-64516000D02*
X148590000Y-64516000D01*
X136144000Y-85121000D02*
X136144000Y-83947000D01*
X141732000Y-85725000D02*
X143002000Y-85725000D01*
X140970000Y-84963000D02*
X141732000Y-85725000D01*
X140970000Y-84074000D02*
X140970000Y-84963000D01*
X140208000Y-83312000D02*
X140970000Y-84074000D01*
X136779000Y-83312000D02*
X140208000Y-83312000D01*
X136144000Y-83947000D02*
X136779000Y-83312000D01*
X146304000Y-64516000D02*
X146304000Y-63881000D01*
D38*
X148998000Y-90644000D02*
X145508000Y-90644000D01*
X142367000Y-76708000D02*
X142354000Y-76721000D01*
X145508000Y-90644000D02*
X143129000Y-88265000D01*
X142354000Y-76721000D02*
X142144000Y-76721000D01*
D39*
X147193000Y-65786000D02*
X142113000Y-65786000D01*
X142113000Y-65786000D02*
X141224000Y-66675000D01*
X141224000Y-66675000D02*
X141224000Y-67056000D01*
X141224000Y-67056000D02*
X141224000Y-71247000D01*
X143243000Y-76721000D02*
X142144000Y-76721000D01*
X143510000Y-76454000D02*
X143243000Y-76721000D01*
X143510000Y-73533000D02*
X143510000Y-76454000D01*
X141224000Y-71247000D02*
X143510000Y-73533000D01*
D38*
X148998000Y-93244000D02*
X147981000Y-93244000D01*
X140843000Y-87122000D02*
X140843000Y-86741000D01*
X144653000Y-90932000D02*
X140843000Y-87122000D01*
X144653000Y-94615000D02*
X144653000Y-90932000D01*
X145161000Y-95123000D02*
X144653000Y-94615000D01*
X146939000Y-95123000D02*
X145161000Y-95123000D01*
X147828000Y-94234000D02*
X146939000Y-95123000D01*
X147828000Y-93397000D02*
X147828000Y-94234000D01*
X147981000Y-93244000D02*
X147828000Y-93397000D01*
X141757000Y-75921000D02*
X142144000Y-75921000D01*
D39*
X140818000Y-75921000D02*
X142144000Y-75921000D01*
X140208000Y-75311000D02*
X140818000Y-75921000D01*
X140208000Y-75057000D02*
X140208000Y-75311000D01*
X141224000Y-64516000D02*
X141224000Y-65024000D01*
X141224000Y-65024000D02*
X139954000Y-66294000D01*
X139954000Y-66294000D02*
X139954000Y-70993000D01*
X139954000Y-70993000D02*
X142144000Y-73183000D01*
X142144000Y-73183000D02*
X142144000Y-75121000D01*
X141097000Y-73279000D02*
X140939000Y-73121000D01*
X140939000Y-73121000D02*
X140144000Y-73121000D01*
D38*
X132588000Y-65659000D02*
X132588000Y-64712000D01*
D39*
X136144000Y-67056000D02*
X136144000Y-68580000D01*
X137726000Y-70162000D02*
X137726000Y-71247000D01*
X136144000Y-68580000D02*
X137726000Y-70162000D01*
X137726000Y-71247000D02*
X137726000Y-73103000D01*
X137726000Y-73103000D02*
X137744000Y-73121000D01*
X136144000Y-64516000D02*
X134620000Y-66040000D01*
X136944000Y-70904000D02*
X136944000Y-73121000D01*
X134620000Y-68580000D02*
X136944000Y-70904000D01*
X134620000Y-66040000D02*
X134620000Y-68580000D01*
X136144000Y-71501000D02*
X136144000Y-73121000D01*
X136271000Y-71374000D02*
X136144000Y-71501000D01*
X135382000Y-71374000D02*
X135344000Y-71412000D01*
X135344000Y-71412000D02*
X135344000Y-73121000D01*
D40*
X149243000Y-85179000D02*
X145143000Y-85179000D01*
X145161000Y-82746000D02*
X145161000Y-85161000D01*
X145161000Y-85161000D02*
X145143000Y-85179000D01*
D39*
X142425000Y-87122000D02*
X142145000Y-87122000D01*
X142145000Y-87122000D02*
X140144000Y-85121000D01*
D38*
X130683000Y-63812000D02*
X131514000Y-63812000D01*
X131514000Y-63812000D02*
X131572000Y-63754000D01*
X130614000Y-63754000D02*
X130556000Y-63812000D01*
D40*
X156398000Y-86698000D02*
X159504560Y-86698000D01*
X159504560Y-86698000D02*
X159715200Y-86908640D01*
D42*
X159504560Y-86698000D02*
X159715200Y-86908640D01*
D40*
X156398000Y-86698000D02*
X156398000Y-86426000D01*
X156398000Y-86698000D02*
X156398000Y-88284000D01*
X156398000Y-88284000D02*
X156506000Y-88392000D01*
D38*
X128778000Y-64712000D02*
X128778000Y-66256000D01*
D39*
X146304000Y-67056000D02*
X146304000Y-67945000D01*
X134544000Y-74879000D02*
X134544000Y-73121000D01*
X134493000Y-74930000D02*
X134544000Y-74879000D01*
X142113000Y-68580000D02*
X141859000Y-68326000D01*
X145669000Y-68580000D02*
X142113000Y-68580000D01*
X146304000Y-67945000D02*
X145669000Y-68580000D01*
X133744000Y-73121000D02*
X133744000Y-63995000D01*
X150241000Y-65659000D02*
X148844000Y-67056000D01*
X150241000Y-64008000D02*
X150241000Y-65659000D01*
X149225000Y-62992000D02*
X150241000Y-64008000D01*
X134747000Y-62992000D02*
X149225000Y-62992000D01*
X133744000Y-63995000D02*
X134747000Y-62992000D01*
D38*
X133858000Y-73914000D02*
X133744000Y-73121000D01*
X148998000Y-91294000D02*
X150260000Y-91294000D01*
X151257000Y-90297000D02*
X151257000Y-88761000D01*
X150260000Y-91294000D02*
X151257000Y-90297000D01*
X158496000Y-101130000D02*
X157264000Y-101130000D01*
X156972000Y-100838000D02*
X153612000Y-100838000D01*
X157264000Y-101130000D02*
X156972000Y-100838000D01*
X156025000Y-101600000D02*
X156337000Y-101600000D01*
X160147000Y-101727000D02*
X160147000Y-101130000D01*
X159766000Y-102108000D02*
X160147000Y-101727000D01*
X156845000Y-102108000D02*
X159766000Y-102108000D01*
X156337000Y-101600000D02*
X156845000Y-102108000D01*
X124448000Y-69977000D02*
X125603000Y-69977000D01*
X125984000Y-70358000D02*
X125984000Y-71590000D01*
X125603000Y-69977000D02*
X125984000Y-70358000D01*
X120650000Y-72644000D02*
X121412000Y-72644000D01*
X122948000Y-71108000D02*
X122948000Y-69977000D01*
X121412000Y-72644000D02*
X122948000Y-71108000D01*
X120719000Y-74803000D02*
X120719000Y-72713000D01*
X120719000Y-72713000D02*
X120650000Y-72644000D01*
X123883000Y-74803000D02*
X123883000Y-74988000D01*
X123883000Y-74988000D02*
X124587000Y-75692000D01*
X128740000Y-79921000D02*
X130144000Y-79921000D01*
X128143000Y-80518000D02*
X128740000Y-79921000D01*
X127508000Y-80518000D02*
X128143000Y-80518000D01*
X124587000Y-75692000D02*
X124587000Y-76708000D01*
X122301000Y-74888000D02*
X120804000Y-74888000D01*
X120804000Y-74888000D02*
X120719000Y-74803000D01*
X123883000Y-74803000D02*
X122386000Y-74803000D01*
X122386000Y-74803000D02*
X122301000Y-74888000D01*
X119819000Y-74803000D02*
X119761000Y-74803000D01*
X119761000Y-74803000D02*
X118999000Y-75565000D01*
X118999000Y-75565000D02*
X118999000Y-79121000D01*
X118999000Y-79121000D02*
X119291000Y-79413000D01*
X119291000Y-79413000D02*
X119997000Y-79413000D01*
X119997000Y-79413000D02*
X124097000Y-79413000D01*
X130683000Y-64712000D02*
X130683000Y-66256000D01*
D43*
G36*
X139467964Y-78111432D02*
X139467864Y-78226404D01*
X139560995Y-78451800D01*
X139733293Y-78624399D01*
X139958526Y-78717923D01*
X140114970Y-78718060D01*
X140114970Y-78837473D01*
X140397227Y-79119730D01*
X142142730Y-79119730D01*
X142142730Y-79099730D01*
X142145270Y-79099730D01*
X142145270Y-79119730D01*
X142165270Y-79119730D01*
X142165270Y-79122270D01*
X142145270Y-79122270D01*
X142145270Y-79142270D01*
X142142730Y-79142270D01*
X142142730Y-79122270D01*
X140397227Y-79122270D01*
X140114970Y-79404527D01*
X140114970Y-79474989D01*
X139954000Y-79442970D01*
X139785608Y-79476465D01*
X139778866Y-79480970D01*
X134791445Y-79480970D01*
X134730747Y-79455766D01*
X134510221Y-79455574D01*
X134306407Y-79539788D01*
X134150336Y-79695587D01*
X134065766Y-79899253D01*
X134065574Y-80119779D01*
X134133003Y-80282970D01*
X133020000Y-80282970D01*
X132852373Y-80316313D01*
X132710266Y-80411266D01*
X132708568Y-80412964D01*
X132593596Y-80412864D01*
X132368200Y-80505995D01*
X132195601Y-80678293D01*
X132102077Y-80903526D01*
X132101864Y-81147404D01*
X132194995Y-81372800D01*
X132367293Y-81545399D01*
X132592526Y-81638923D01*
X132836404Y-81639136D01*
X133061800Y-81546005D01*
X133234399Y-81373707D01*
X133323540Y-81159030D01*
X140947512Y-81159030D01*
X140924838Y-81271000D01*
X140924838Y-81771000D01*
X140946665Y-81887002D01*
X140968100Y-81920313D01*
X140949983Y-81946828D01*
X140924838Y-82071000D01*
X140924838Y-82571000D01*
X140946665Y-82687002D01*
X140968100Y-82720313D01*
X140949983Y-82746828D01*
X140924838Y-82871000D01*
X140924838Y-83371000D01*
X140933076Y-83414780D01*
X140519148Y-83000852D01*
X140376393Y-82905465D01*
X140208000Y-82871970D01*
X139214086Y-82871970D01*
X139296923Y-82672474D01*
X139297136Y-82428596D01*
X139204005Y-82203200D01*
X139031707Y-82030601D01*
X138806474Y-81937077D01*
X138562596Y-81936864D01*
X138337200Y-82029995D01*
X138164601Y-82202293D01*
X138097467Y-82363970D01*
X136398000Y-82363970D01*
X136229607Y-82397465D01*
X136086852Y-82492852D01*
X135032852Y-83546852D01*
X134937465Y-83689607D01*
X134922896Y-83762852D01*
X134903970Y-83858000D01*
X134903970Y-83924107D01*
X134794000Y-83901838D01*
X134294000Y-83901838D01*
X134177998Y-83923665D01*
X134144687Y-83945100D01*
X134118172Y-83926983D01*
X133994000Y-83901838D01*
X133494000Y-83901838D01*
X133377998Y-83923665D01*
X133344687Y-83945100D01*
X133318172Y-83926983D01*
X133194000Y-83901838D01*
X132694000Y-83901838D01*
X132577998Y-83923665D01*
X132544687Y-83945100D01*
X132518172Y-83926983D01*
X132394000Y-83901838D01*
X131894000Y-83901838D01*
X131777998Y-83923665D01*
X131671458Y-83992222D01*
X131599983Y-84096828D01*
X131574838Y-84221000D01*
X131574838Y-86021000D01*
X131596665Y-86137002D01*
X131665222Y-86243542D01*
X131705970Y-86271384D01*
X131705970Y-87003562D01*
X125802562Y-92906970D01*
X121494686Y-92906970D01*
X121493285Y-92899928D01*
X121241171Y-92522614D01*
X120863857Y-92270500D01*
X120418785Y-92181970D01*
X120373215Y-92181970D01*
X119928143Y-92270500D01*
X119550829Y-92522614D01*
X119298715Y-92899928D01*
X119210185Y-93345000D01*
X119298715Y-93790072D01*
X119550829Y-94167386D01*
X119928143Y-94419500D01*
X120373215Y-94508030D01*
X120418785Y-94508030D01*
X120863857Y-94419500D01*
X121241171Y-94167386D01*
X121493285Y-93790072D01*
X121494686Y-93783030D01*
X125815502Y-93783030D01*
X124151562Y-95446970D01*
X121494686Y-95446970D01*
X121493285Y-95439928D01*
X121241171Y-95062614D01*
X120863857Y-94810500D01*
X120418785Y-94721970D01*
X120373215Y-94721970D01*
X119928143Y-94810500D01*
X119550829Y-95062614D01*
X119298715Y-95439928D01*
X119210185Y-95885000D01*
X119298715Y-96330072D01*
X119550829Y-96707386D01*
X119928143Y-96959500D01*
X120373215Y-97048030D01*
X120418785Y-97048030D01*
X120863857Y-96959500D01*
X121241171Y-96707386D01*
X121493285Y-96330072D01*
X121494686Y-96323030D01*
X124037502Y-96323030D01*
X122373562Y-97986970D01*
X121494686Y-97986970D01*
X121493285Y-97979928D01*
X121241171Y-97602614D01*
X120863857Y-97350500D01*
X120418785Y-97261970D01*
X120373215Y-97261970D01*
X119928143Y-97350500D01*
X119550829Y-97602614D01*
X119298715Y-97979928D01*
X119210185Y-98425000D01*
X119298715Y-98870072D01*
X119550829Y-99247386D01*
X119928143Y-99499500D01*
X120373215Y-99588030D01*
X120418785Y-99588030D01*
X120863857Y-99499500D01*
X121241171Y-99247386D01*
X121493285Y-98870072D01*
X121494686Y-98863030D01*
X122259502Y-98863030D01*
X121313105Y-99809427D01*
X121246000Y-99795838D01*
X119546000Y-99795838D01*
X119429998Y-99817665D01*
X119323458Y-99886222D01*
X119251983Y-99990828D01*
X119226838Y-100115000D01*
X119226838Y-101815000D01*
X119248665Y-101931002D01*
X119317222Y-102037542D01*
X119421828Y-102109017D01*
X119546000Y-102134162D01*
X121246000Y-102134162D01*
X121362002Y-102112335D01*
X121468542Y-102043778D01*
X121540017Y-101939172D01*
X121565162Y-101815000D01*
X121565162Y-101350256D01*
X121572293Y-101357399D01*
X121797526Y-101450923D01*
X122041404Y-101451136D01*
X122266800Y-101358005D01*
X122348918Y-101276030D01*
X123444000Y-101276030D01*
X123611627Y-101242687D01*
X123753734Y-101147734D01*
X123806198Y-101069215D01*
X126979970Y-101069215D01*
X126979970Y-101114785D01*
X127068500Y-101559857D01*
X127320614Y-101937171D01*
X127697928Y-102189285D01*
X128143000Y-102277815D01*
X128588072Y-102189285D01*
X128965386Y-101937171D01*
X129217500Y-101559857D01*
X129306030Y-101114785D01*
X129306030Y-101069215D01*
X129519970Y-101069215D01*
X129519970Y-101114785D01*
X129608500Y-101559857D01*
X129860614Y-101937171D01*
X130237928Y-102189285D01*
X130683000Y-102277815D01*
X131128072Y-102189285D01*
X131505386Y-101937171D01*
X131757500Y-101559857D01*
X131846030Y-101114785D01*
X131846030Y-101069215D01*
X132059970Y-101069215D01*
X132059970Y-101114785D01*
X132148500Y-101559857D01*
X132400614Y-101937171D01*
X132777928Y-102189285D01*
X133223000Y-102277815D01*
X133668072Y-102189285D01*
X134045386Y-101937171D01*
X134297500Y-101559857D01*
X134386030Y-101114785D01*
X134386030Y-101069215D01*
X134599970Y-101069215D01*
X134599970Y-101114785D01*
X134688500Y-101559857D01*
X134940614Y-101937171D01*
X135317928Y-102189285D01*
X135763000Y-102277815D01*
X136208072Y-102189285D01*
X136585386Y-101937171D01*
X136837500Y-101559857D01*
X136926030Y-101114785D01*
X136926030Y-101069215D01*
X136837500Y-100624143D01*
X136585386Y-100246829D01*
X136208072Y-99994715D01*
X135763000Y-99906185D01*
X135317928Y-99994715D01*
X134940614Y-100246829D01*
X134688500Y-100624143D01*
X134599970Y-101069215D01*
X134386030Y-101069215D01*
X134297500Y-100624143D01*
X134045386Y-100246829D01*
X133668072Y-99994715D01*
X133223000Y-99906185D01*
X132777928Y-99994715D01*
X132400614Y-100246829D01*
X132148500Y-100624143D01*
X132059970Y-101069215D01*
X131846030Y-101069215D01*
X131757500Y-100624143D01*
X131505386Y-100246829D01*
X131128072Y-99994715D01*
X130683000Y-99906185D01*
X130237928Y-99994715D01*
X129860614Y-100246829D01*
X129608500Y-100624143D01*
X129519970Y-101069215D01*
X129306030Y-101069215D01*
X129217500Y-100624143D01*
X128965386Y-100246829D01*
X128588072Y-99994715D01*
X128143000Y-99906185D01*
X127697928Y-99994715D01*
X127320614Y-100246829D01*
X127068500Y-100624143D01*
X126979970Y-101069215D01*
X123806198Y-101069215D01*
X123848687Y-101005627D01*
X123882030Y-100838000D01*
X123848687Y-100670373D01*
X123753734Y-100528266D01*
X123611627Y-100433313D01*
X123444000Y-100399970D01*
X122348934Y-100399970D01*
X122267707Y-100318601D01*
X122108836Y-100252632D01*
X123832253Y-98529215D01*
X126979970Y-98529215D01*
X126979970Y-98574785D01*
X127068500Y-99019857D01*
X127320614Y-99397171D01*
X127697928Y-99649285D01*
X128143000Y-99737815D01*
X128588072Y-99649285D01*
X128965386Y-99397171D01*
X129217500Y-99019857D01*
X129306030Y-98574785D01*
X129306030Y-98529215D01*
X129519970Y-98529215D01*
X129519970Y-98574785D01*
X129608500Y-99019857D01*
X129860614Y-99397171D01*
X130237928Y-99649285D01*
X130683000Y-99737815D01*
X131128072Y-99649285D01*
X131505386Y-99397171D01*
X131757500Y-99019857D01*
X131846030Y-98574785D01*
X131846030Y-98529215D01*
X131757500Y-98084143D01*
X131505386Y-97706829D01*
X131128072Y-97454715D01*
X131121030Y-97453314D01*
X131121030Y-96028718D01*
X131254834Y-95961815D01*
X131322526Y-95989923D01*
X131566404Y-95990136D01*
X131791800Y-95897005D01*
X131964399Y-95724707D01*
X132057923Y-95499474D01*
X132058094Y-95304211D01*
X132073556Y-95304224D01*
X132784970Y-96015638D01*
X132784970Y-97453314D01*
X132777928Y-97454715D01*
X132400614Y-97706829D01*
X132148500Y-98084143D01*
X132059970Y-98529215D01*
X132059970Y-98574785D01*
X132148500Y-99019857D01*
X132400614Y-99397171D01*
X132777928Y-99649285D01*
X133223000Y-99737815D01*
X133668072Y-99649285D01*
X134045386Y-99397171D01*
X134297500Y-99019857D01*
X134386030Y-98574785D01*
X134386030Y-98529215D01*
X134297500Y-98084143D01*
X134045386Y-97706829D01*
X134038159Y-97702000D01*
X134593838Y-97702000D01*
X134593838Y-99402000D01*
X134615665Y-99518002D01*
X134684222Y-99624542D01*
X134788828Y-99696017D01*
X134913000Y-99721162D01*
X136613000Y-99721162D01*
X136729002Y-99699335D01*
X136835542Y-99630778D01*
X136907017Y-99526172D01*
X136932162Y-99402000D01*
X136932162Y-98990030D01*
X137541000Y-98990030D01*
X137708627Y-98956687D01*
X137776981Y-98911014D01*
X137916404Y-98911136D01*
X138141800Y-98818005D01*
X138314399Y-98645707D01*
X138407923Y-98420474D01*
X138408136Y-98176596D01*
X138315005Y-97951200D01*
X138142707Y-97778601D01*
X137917474Y-97685077D01*
X137673596Y-97684864D01*
X137448200Y-97777995D01*
X137275601Y-97950293D01*
X137207637Y-98113970D01*
X136932162Y-98113970D01*
X136932162Y-97702000D01*
X136910335Y-97585998D01*
X136841778Y-97479458D01*
X136737172Y-97407983D01*
X136613000Y-97382838D01*
X134913000Y-97382838D01*
X134796998Y-97404665D01*
X134690458Y-97473222D01*
X134618983Y-97577828D01*
X134593838Y-97702000D01*
X134038159Y-97702000D01*
X133668072Y-97454715D01*
X133661030Y-97453314D01*
X133661030Y-95834200D01*
X133627687Y-95666573D01*
X133532734Y-95524466D01*
X132693036Y-94684768D01*
X132693136Y-94569796D01*
X132600005Y-94344400D01*
X132427707Y-94171801D01*
X132202474Y-94078277D01*
X131958596Y-94078064D01*
X131733200Y-94171195D01*
X131560601Y-94343493D01*
X131467077Y-94568726D01*
X131466906Y-94763989D01*
X131323596Y-94763864D01*
X131098200Y-94856995D01*
X130925601Y-95029293D01*
X130863936Y-95177799D01*
X130487107Y-95366214D01*
X130431641Y-95409261D01*
X130373266Y-95448266D01*
X130364522Y-95461352D01*
X130352088Y-95471002D01*
X130317317Y-95531999D01*
X130278313Y-95590373D01*
X130275243Y-95605809D01*
X130267448Y-95619483D01*
X130258667Y-95689142D01*
X130244970Y-95758000D01*
X130244970Y-97453314D01*
X130237928Y-97454715D01*
X129860614Y-97706829D01*
X129608500Y-98084143D01*
X129519970Y-98529215D01*
X129306030Y-98529215D01*
X129217500Y-98084143D01*
X128965386Y-97706829D01*
X128588072Y-97454715D01*
X128143000Y-97366185D01*
X127697928Y-97454715D01*
X127320614Y-97706829D01*
X127068500Y-98084143D01*
X126979970Y-98529215D01*
X123832253Y-98529215D01*
X134853734Y-87507734D01*
X134948687Y-87365627D01*
X134982030Y-87198000D01*
X134982030Y-86317488D01*
X135094000Y-86340162D01*
X135594000Y-86340162D01*
X135710002Y-86318335D01*
X135743313Y-86296900D01*
X135769828Y-86315017D01*
X135894000Y-86340162D01*
X136197157Y-86340162D01*
X136178200Y-86347995D01*
X136005601Y-86520293D01*
X135912077Y-86745526D01*
X135911864Y-86989404D01*
X136004995Y-87214800D01*
X136177293Y-87387399D01*
X136402526Y-87480923D01*
X136646404Y-87481136D01*
X136871800Y-87388005D01*
X137033130Y-87226956D01*
X137193293Y-87387399D01*
X137418526Y-87480923D01*
X137662404Y-87481136D01*
X137887800Y-87388005D01*
X137985519Y-87290456D01*
X138082293Y-87387399D01*
X138307526Y-87480923D01*
X138551404Y-87481136D01*
X138776800Y-87388005D01*
X138916063Y-87248985D01*
X139004587Y-87337664D01*
X139208253Y-87422234D01*
X139428779Y-87422426D01*
X139632593Y-87338212D01*
X139788664Y-87182413D01*
X139873234Y-86978747D01*
X139873426Y-86758221D01*
X139789212Y-86554407D01*
X139784030Y-86549216D01*
X139784030Y-86317893D01*
X139894000Y-86340162D01*
X140376825Y-86340162D01*
X140323601Y-86393293D01*
X140230077Y-86618526D01*
X140229864Y-86862404D01*
X140322995Y-87087800D01*
X140416873Y-87181842D01*
X140438313Y-87289627D01*
X140533266Y-87431734D01*
X144214970Y-91113438D01*
X144214970Y-94615000D01*
X144248313Y-94782627D01*
X144343266Y-94924734D01*
X144851266Y-95432734D01*
X144993373Y-95527687D01*
X145161000Y-95561030D01*
X145171327Y-95561030D01*
X145323422Y-95624030D01*
X145639473Y-95624030D01*
X145702473Y-95561030D01*
X146143527Y-95561030D01*
X146206527Y-95624030D01*
X146522578Y-95624030D01*
X146674673Y-95561030D01*
X146939000Y-95561030D01*
X147106627Y-95527687D01*
X147248734Y-95432734D01*
X147336957Y-95344511D01*
X147342355Y-95357544D01*
X147659956Y-95675145D01*
X147980338Y-95807852D01*
X147980338Y-96018000D01*
X148002165Y-96134002D01*
X148024263Y-96168343D01*
X148005483Y-96195828D01*
X147980338Y-96320000D01*
X147980338Y-96668000D01*
X148002165Y-96784002D01*
X148024263Y-96818343D01*
X148005483Y-96845828D01*
X147980338Y-96970000D01*
X147980338Y-97318000D01*
X148002165Y-97434002D01*
X148024263Y-97468343D01*
X148005483Y-97495828D01*
X147980338Y-97620000D01*
X147980338Y-97968000D01*
X148002165Y-98084002D01*
X148024263Y-98118343D01*
X148005483Y-98145828D01*
X147980338Y-98270000D01*
X147980338Y-98618000D01*
X148002165Y-98734002D01*
X148024263Y-98768343D01*
X148005483Y-98795828D01*
X147980338Y-98920000D01*
X147980338Y-99268000D01*
X148002165Y-99384002D01*
X148070722Y-99490542D01*
X148175328Y-99562017D01*
X148299500Y-99587162D01*
X149696500Y-99587162D01*
X149812502Y-99565335D01*
X149919042Y-99496778D01*
X149990517Y-99392172D01*
X150015662Y-99268000D01*
X150015662Y-98920000D01*
X149993835Y-98803998D01*
X149971737Y-98769657D01*
X149990517Y-98742172D01*
X150015662Y-98618000D01*
X150015662Y-98270000D01*
X149993835Y-98153998D01*
X149971737Y-98119657D01*
X149990517Y-98092172D01*
X150015662Y-97968000D01*
X150015662Y-97620000D01*
X149993835Y-97503998D01*
X149971737Y-97469657D01*
X149990517Y-97442172D01*
X150015662Y-97318000D01*
X150015662Y-96970000D01*
X149993835Y-96853998D01*
X149971737Y-96819657D01*
X149990517Y-96792172D01*
X150015662Y-96668000D01*
X150015662Y-96320000D01*
X149993835Y-96203998D01*
X149971737Y-96169657D01*
X149990517Y-96142172D01*
X150015662Y-96018000D01*
X150015662Y-95807852D01*
X150336044Y-95675145D01*
X150653645Y-95357544D01*
X150825530Y-94942578D01*
X150825530Y-94827527D01*
X150543273Y-94545270D01*
X148999270Y-94545270D01*
X148999270Y-94565270D01*
X148996730Y-94565270D01*
X148996730Y-94545270D01*
X148976730Y-94545270D01*
X148976730Y-94542730D01*
X148996730Y-94542730D01*
X148996730Y-94522730D01*
X148999270Y-94522730D01*
X148999270Y-94542730D01*
X150543273Y-94542730D01*
X150825530Y-94260473D01*
X150825530Y-94145422D01*
X150653645Y-93730456D01*
X150336044Y-93412855D01*
X150015662Y-93280148D01*
X150015662Y-93070000D01*
X150008518Y-93032030D01*
X151721562Y-93032030D01*
X152273970Y-93584438D01*
X152273970Y-100331889D01*
X152217983Y-100413828D01*
X152192838Y-100538000D01*
X152192838Y-100653970D01*
X146749433Y-100653970D01*
X146743500Y-100624143D01*
X146491386Y-100246829D01*
X146114072Y-99994715D01*
X145669000Y-99906185D01*
X145223928Y-99994715D01*
X144846614Y-100246829D01*
X144594500Y-100624143D01*
X144505970Y-101069215D01*
X144505970Y-101114785D01*
X144594500Y-101559857D01*
X144846614Y-101937171D01*
X145223928Y-102189285D01*
X145669000Y-102277815D01*
X146114072Y-102189285D01*
X146491386Y-101937171D01*
X146743500Y-101559857D01*
X146749433Y-101530030D01*
X152299039Y-101530030D01*
X152307313Y-101571627D01*
X152402266Y-101713734D01*
X152598266Y-101909734D01*
X152740373Y-102004687D01*
X152908000Y-102038030D01*
X154641840Y-102038030D01*
X154696222Y-102122542D01*
X154800828Y-102194017D01*
X154925000Y-102219162D01*
X155325000Y-102219162D01*
X155441002Y-102197335D01*
X155547542Y-102128778D01*
X155574679Y-102089063D01*
X155596222Y-102122542D01*
X155700828Y-102194017D01*
X155825000Y-102219162D01*
X156225000Y-102219162D01*
X156319006Y-102201474D01*
X156535266Y-102417734D01*
X156631402Y-102481970D01*
X141947297Y-102481970D01*
X142275737Y-102127123D01*
X142338161Y-101958250D01*
X142683928Y-102189285D01*
X143129000Y-102277815D01*
X143574072Y-102189285D01*
X143951386Y-101937171D01*
X144203500Y-101559857D01*
X144292030Y-101114785D01*
X144292030Y-101069215D01*
X144203500Y-100624143D01*
X143951386Y-100246829D01*
X143574072Y-99994715D01*
X143129000Y-99906185D01*
X142683928Y-99994715D01*
X142338161Y-100225750D01*
X142275737Y-100056877D01*
X141751217Y-99490185D01*
X141443778Y-99348693D01*
X141663500Y-99019857D01*
X141752030Y-98574785D01*
X141752030Y-98529215D01*
X141707769Y-98306699D01*
X142304550Y-97709918D01*
X142054500Y-98084143D01*
X141965970Y-98529215D01*
X141965970Y-98574785D01*
X142054500Y-99019857D01*
X142306614Y-99397171D01*
X142683928Y-99649285D01*
X143129000Y-99737815D01*
X143574072Y-99649285D01*
X143951386Y-99397171D01*
X144203500Y-99019857D01*
X144292030Y-98574785D01*
X144292030Y-98529215D01*
X144203500Y-98084143D01*
X143951386Y-97706829D01*
X143944159Y-97702000D01*
X144499838Y-97702000D01*
X144499838Y-99402000D01*
X144521665Y-99518002D01*
X144590222Y-99624542D01*
X144694828Y-99696017D01*
X144819000Y-99721162D01*
X146519000Y-99721162D01*
X146635002Y-99699335D01*
X146741542Y-99630778D01*
X146813017Y-99526172D01*
X146838162Y-99402000D01*
X146838162Y-97702000D01*
X146816335Y-97585998D01*
X146747778Y-97479458D01*
X146643172Y-97407983D01*
X146519000Y-97382838D01*
X144819000Y-97382838D01*
X144702998Y-97404665D01*
X144596458Y-97473222D01*
X144524983Y-97577828D01*
X144499838Y-97702000D01*
X143944159Y-97702000D01*
X143574072Y-97454715D01*
X143129000Y-97366185D01*
X142683928Y-97454715D01*
X142309703Y-97704765D01*
X143770432Y-96244036D01*
X143885404Y-96244136D01*
X144110800Y-96151005D01*
X144283399Y-95978707D01*
X144376923Y-95753474D01*
X144377136Y-95509596D01*
X144284005Y-95284200D01*
X144111707Y-95111601D01*
X143886474Y-95018077D01*
X143642596Y-95017864D01*
X143417200Y-95110995D01*
X143244601Y-95283293D01*
X143151077Y-95508526D01*
X143150976Y-95624556D01*
X141205963Y-97569569D01*
X141034072Y-97454715D01*
X140589000Y-97366185D01*
X140143928Y-97454715D01*
X139766614Y-97706829D01*
X139514500Y-98084143D01*
X139425970Y-98529215D01*
X139425970Y-98574785D01*
X139514500Y-99019857D01*
X139734222Y-99348693D01*
X139426783Y-99490185D01*
X138902263Y-100056877D01*
X138634534Y-100781157D01*
X138892227Y-101090730D01*
X140587730Y-101090730D01*
X140587730Y-101070730D01*
X140590270Y-101070730D01*
X140590270Y-101090730D01*
X140610270Y-101090730D01*
X140610270Y-101093270D01*
X140590270Y-101093270D01*
X140590270Y-101113270D01*
X140587730Y-101113270D01*
X140587730Y-101093270D01*
X138892227Y-101093270D01*
X138634534Y-101402843D01*
X138902263Y-102127123D01*
X139230703Y-102481970D01*
X118752030Y-102481970D01*
X118752030Y-83185000D01*
X119210185Y-83185000D01*
X119298715Y-83630072D01*
X119550829Y-84007386D01*
X119928143Y-84259500D01*
X120373215Y-84348030D01*
X120418785Y-84348030D01*
X120863857Y-84259500D01*
X121241171Y-84007386D01*
X121493285Y-83630072D01*
X121494686Y-83623030D01*
X126323502Y-83623030D01*
X124659562Y-85286970D01*
X121494686Y-85286970D01*
X121493285Y-85279928D01*
X121241171Y-84902614D01*
X120863857Y-84650500D01*
X120418785Y-84561970D01*
X120373215Y-84561970D01*
X119928143Y-84650500D01*
X119550829Y-84902614D01*
X119298715Y-85279928D01*
X119210185Y-85725000D01*
X119298715Y-86170072D01*
X119550829Y-86547386D01*
X119928143Y-86799500D01*
X120373215Y-86888030D01*
X120418785Y-86888030D01*
X120863857Y-86799500D01*
X121241171Y-86547386D01*
X121493285Y-86170072D01*
X121494686Y-86163030D01*
X124545502Y-86163030D01*
X122881562Y-87826970D01*
X121494686Y-87826970D01*
X121493285Y-87819928D01*
X121241171Y-87442614D01*
X120863857Y-87190500D01*
X120418785Y-87101970D01*
X120373215Y-87101970D01*
X119928143Y-87190500D01*
X119550829Y-87442614D01*
X119298715Y-87819928D01*
X119210185Y-88265000D01*
X119298715Y-88710072D01*
X119550829Y-89087386D01*
X119928143Y-89339500D01*
X120373215Y-89428030D01*
X120418785Y-89428030D01*
X120863857Y-89339500D01*
X121241171Y-89087386D01*
X121493285Y-88710072D01*
X121494686Y-88703030D01*
X122894502Y-88703030D01*
X121390873Y-90206659D01*
X121241171Y-89982614D01*
X120863857Y-89730500D01*
X120418785Y-89641970D01*
X120373215Y-89641970D01*
X119928143Y-89730500D01*
X119550829Y-89982614D01*
X119298715Y-90359928D01*
X119210185Y-90805000D01*
X119298715Y-91250072D01*
X119550829Y-91627386D01*
X119928143Y-91879500D01*
X120373215Y-91968030D01*
X120418785Y-91968030D01*
X120863857Y-91879500D01*
X121241171Y-91627386D01*
X121493285Y-91250072D01*
X121498092Y-91225905D01*
X121579627Y-91209687D01*
X121721734Y-91114734D01*
X129162758Y-83673710D01*
X129244000Y-83690162D01*
X131044000Y-83690162D01*
X131160002Y-83668335D01*
X131266542Y-83599778D01*
X131338017Y-83495172D01*
X131363162Y-83371000D01*
X131363162Y-82871000D01*
X131341335Y-82754998D01*
X131319900Y-82721687D01*
X131338017Y-82695172D01*
X131363162Y-82571000D01*
X131363162Y-82071000D01*
X131341335Y-81954998D01*
X131319900Y-81921687D01*
X131338017Y-81895172D01*
X131363162Y-81771000D01*
X131363162Y-81271000D01*
X131341335Y-81154998D01*
X131319900Y-81121687D01*
X131338017Y-81095172D01*
X131363162Y-80971000D01*
X131363162Y-80471000D01*
X131361391Y-80461586D01*
X131683544Y-80328145D01*
X132001145Y-80010544D01*
X132173030Y-79595578D01*
X132173030Y-79404527D01*
X131890773Y-79122270D01*
X130145270Y-79122270D01*
X130145270Y-79142270D01*
X130142730Y-79142270D01*
X130142730Y-79122270D01*
X128397227Y-79122270D01*
X128114970Y-79404527D01*
X128114970Y-79563467D01*
X127842773Y-79291270D01*
X126747270Y-79291270D01*
X126747270Y-80436773D01*
X126894912Y-80584415D01*
X126894864Y-80639404D01*
X126987995Y-80864800D01*
X127160293Y-81037399D01*
X127385526Y-81130923D01*
X127629404Y-81131136D01*
X127854800Y-81038005D01*
X127936918Y-80956030D01*
X128101502Y-80956030D01*
X126310562Y-82746970D01*
X121494686Y-82746970D01*
X121493285Y-82739928D01*
X121241171Y-82362614D01*
X120863857Y-82110500D01*
X120418785Y-82021970D01*
X120373215Y-82021970D01*
X119928143Y-82110500D01*
X119550829Y-82362614D01*
X119298715Y-82739928D01*
X119210185Y-83185000D01*
X118752030Y-83185000D01*
X118752030Y-79493498D01*
X118981266Y-79722734D01*
X119123373Y-79817687D01*
X119227838Y-79838466D01*
X119227838Y-79913000D01*
X119249665Y-80029002D01*
X119318222Y-80135542D01*
X119422828Y-80207017D01*
X119547000Y-80232162D01*
X120447000Y-80232162D01*
X120563002Y-80210335D01*
X120669542Y-80141778D01*
X120741017Y-80037172D01*
X120766162Y-79913000D01*
X120766162Y-79851030D01*
X123327838Y-79851030D01*
X123327838Y-79913000D01*
X123349665Y-80029002D01*
X123418222Y-80135542D01*
X123522828Y-80207017D01*
X123647000Y-80232162D01*
X124547000Y-80232162D01*
X124663002Y-80210335D01*
X124769542Y-80141778D01*
X124841017Y-80037172D01*
X124866162Y-79913000D01*
X124866162Y-79573527D01*
X125366970Y-79573527D01*
X125366970Y-79814578D01*
X125538855Y-80229544D01*
X125856456Y-80547145D01*
X126271422Y-80719030D01*
X126462473Y-80719030D01*
X126744730Y-80436773D01*
X126744730Y-79291270D01*
X125649227Y-79291270D01*
X125366970Y-79573527D01*
X124866162Y-79573527D01*
X124866162Y-79402852D01*
X125186544Y-79270145D01*
X125408593Y-79048096D01*
X125649227Y-79288730D01*
X126744730Y-79288730D01*
X126744730Y-79268730D01*
X126747270Y-79268730D01*
X126747270Y-79288730D01*
X127842773Y-79288730D01*
X128125030Y-79006473D01*
X128125030Y-78847533D01*
X128397227Y-79119730D01*
X130142730Y-79119730D01*
X130142730Y-79099730D01*
X130145270Y-79099730D01*
X130145270Y-79119730D01*
X131890773Y-79119730D01*
X132173030Y-78837473D01*
X132173030Y-78646422D01*
X132001145Y-78231456D01*
X131728719Y-77959030D01*
X139315562Y-77959030D01*
X139467964Y-78111432D01*
X139467964Y-78111432D01*
G37*
X139467964Y-78111432D02*
X139467864Y-78226404D01*
X139560995Y-78451800D01*
X139733293Y-78624399D01*
X139958526Y-78717923D01*
X140114970Y-78718060D01*
X140114970Y-78837473D01*
X140397227Y-79119730D01*
X142142730Y-79119730D01*
X142142730Y-79099730D01*
X142145270Y-79099730D01*
X142145270Y-79119730D01*
X142165270Y-79119730D01*
X142165270Y-79122270D01*
X142145270Y-79122270D01*
X142145270Y-79142270D01*
X142142730Y-79142270D01*
X142142730Y-79122270D01*
X140397227Y-79122270D01*
X140114970Y-79404527D01*
X140114970Y-79474989D01*
X139954000Y-79442970D01*
X139785608Y-79476465D01*
X139778866Y-79480970D01*
X134791445Y-79480970D01*
X134730747Y-79455766D01*
X134510221Y-79455574D01*
X134306407Y-79539788D01*
X134150336Y-79695587D01*
X134065766Y-79899253D01*
X134065574Y-80119779D01*
X134133003Y-80282970D01*
X133020000Y-80282970D01*
X132852373Y-80316313D01*
X132710266Y-80411266D01*
X132708568Y-80412964D01*
X132593596Y-80412864D01*
X132368200Y-80505995D01*
X132195601Y-80678293D01*
X132102077Y-80903526D01*
X132101864Y-81147404D01*
X132194995Y-81372800D01*
X132367293Y-81545399D01*
X132592526Y-81638923D01*
X132836404Y-81639136D01*
X133061800Y-81546005D01*
X133234399Y-81373707D01*
X133323540Y-81159030D01*
X140947512Y-81159030D01*
X140924838Y-81271000D01*
X140924838Y-81771000D01*
X140946665Y-81887002D01*
X140968100Y-81920313D01*
X140949983Y-81946828D01*
X140924838Y-82071000D01*
X140924838Y-82571000D01*
X140946665Y-82687002D01*
X140968100Y-82720313D01*
X140949983Y-82746828D01*
X140924838Y-82871000D01*
X140924838Y-83371000D01*
X140933076Y-83414780D01*
X140519148Y-83000852D01*
X140376393Y-82905465D01*
X140208000Y-82871970D01*
X139214086Y-82871970D01*
X139296923Y-82672474D01*
X139297136Y-82428596D01*
X139204005Y-82203200D01*
X139031707Y-82030601D01*
X138806474Y-81937077D01*
X138562596Y-81936864D01*
X138337200Y-82029995D01*
X138164601Y-82202293D01*
X138097467Y-82363970D01*
X136398000Y-82363970D01*
X136229607Y-82397465D01*
X136086852Y-82492852D01*
X135032852Y-83546852D01*
X134937465Y-83689607D01*
X134922896Y-83762852D01*
X134903970Y-83858000D01*
X134903970Y-83924107D01*
X134794000Y-83901838D01*
X134294000Y-83901838D01*
X134177998Y-83923665D01*
X134144687Y-83945100D01*
X134118172Y-83926983D01*
X133994000Y-83901838D01*
X133494000Y-83901838D01*
X133377998Y-83923665D01*
X133344687Y-83945100D01*
X133318172Y-83926983D01*
X133194000Y-83901838D01*
X132694000Y-83901838D01*
X132577998Y-83923665D01*
X132544687Y-83945100D01*
X132518172Y-83926983D01*
X132394000Y-83901838D01*
X131894000Y-83901838D01*
X131777998Y-83923665D01*
X131671458Y-83992222D01*
X131599983Y-84096828D01*
X131574838Y-84221000D01*
X131574838Y-86021000D01*
X131596665Y-86137002D01*
X131665222Y-86243542D01*
X131705970Y-86271384D01*
X131705970Y-87003562D01*
X125802562Y-92906970D01*
X121494686Y-92906970D01*
X121493285Y-92899928D01*
X121241171Y-92522614D01*
X120863857Y-92270500D01*
X120418785Y-92181970D01*
X120373215Y-92181970D01*
X119928143Y-92270500D01*
X119550829Y-92522614D01*
X119298715Y-92899928D01*
X119210185Y-93345000D01*
X119298715Y-93790072D01*
X119550829Y-94167386D01*
X119928143Y-94419500D01*
X120373215Y-94508030D01*
X120418785Y-94508030D01*
X120863857Y-94419500D01*
X121241171Y-94167386D01*
X121493285Y-93790072D01*
X121494686Y-93783030D01*
X125815502Y-93783030D01*
X124151562Y-95446970D01*
X121494686Y-95446970D01*
X121493285Y-95439928D01*
X121241171Y-95062614D01*
X120863857Y-94810500D01*
X120418785Y-94721970D01*
X120373215Y-94721970D01*
X119928143Y-94810500D01*
X119550829Y-95062614D01*
X119298715Y-95439928D01*
X119210185Y-95885000D01*
X119298715Y-96330072D01*
X119550829Y-96707386D01*
X119928143Y-96959500D01*
X120373215Y-97048030D01*
X120418785Y-97048030D01*
X120863857Y-96959500D01*
X121241171Y-96707386D01*
X121493285Y-96330072D01*
X121494686Y-96323030D01*
X124037502Y-96323030D01*
X122373562Y-97986970D01*
X121494686Y-97986970D01*
X121493285Y-97979928D01*
X121241171Y-97602614D01*
X120863857Y-97350500D01*
X120418785Y-97261970D01*
X120373215Y-97261970D01*
X119928143Y-97350500D01*
X119550829Y-97602614D01*
X119298715Y-97979928D01*
X119210185Y-98425000D01*
X119298715Y-98870072D01*
X119550829Y-99247386D01*
X119928143Y-99499500D01*
X120373215Y-99588030D01*
X120418785Y-99588030D01*
X120863857Y-99499500D01*
X121241171Y-99247386D01*
X121493285Y-98870072D01*
X121494686Y-98863030D01*
X122259502Y-98863030D01*
X121313105Y-99809427D01*
X121246000Y-99795838D01*
X119546000Y-99795838D01*
X119429998Y-99817665D01*
X119323458Y-99886222D01*
X119251983Y-99990828D01*
X119226838Y-100115000D01*
X119226838Y-101815000D01*
X119248665Y-101931002D01*
X119317222Y-102037542D01*
X119421828Y-102109017D01*
X119546000Y-102134162D01*
X121246000Y-102134162D01*
X121362002Y-102112335D01*
X121468542Y-102043778D01*
X121540017Y-101939172D01*
X121565162Y-101815000D01*
X121565162Y-101350256D01*
X121572293Y-101357399D01*
X121797526Y-101450923D01*
X122041404Y-101451136D01*
X122266800Y-101358005D01*
X122348918Y-101276030D01*
X123444000Y-101276030D01*
X123611627Y-101242687D01*
X123753734Y-101147734D01*
X123806198Y-101069215D01*
X126979970Y-101069215D01*
X126979970Y-101114785D01*
X127068500Y-101559857D01*
X127320614Y-101937171D01*
X127697928Y-102189285D01*
X128143000Y-102277815D01*
X128588072Y-102189285D01*
X128965386Y-101937171D01*
X129217500Y-101559857D01*
X129306030Y-101114785D01*
X129306030Y-101069215D01*
X129519970Y-101069215D01*
X129519970Y-101114785D01*
X129608500Y-101559857D01*
X129860614Y-101937171D01*
X130237928Y-102189285D01*
X130683000Y-102277815D01*
X131128072Y-102189285D01*
X131505386Y-101937171D01*
X131757500Y-101559857D01*
X131846030Y-101114785D01*
X131846030Y-101069215D01*
X132059970Y-101069215D01*
X132059970Y-101114785D01*
X132148500Y-101559857D01*
X132400614Y-101937171D01*
X132777928Y-102189285D01*
X133223000Y-102277815D01*
X133668072Y-102189285D01*
X134045386Y-101937171D01*
X134297500Y-101559857D01*
X134386030Y-101114785D01*
X134386030Y-101069215D01*
X134599970Y-101069215D01*
X134599970Y-101114785D01*
X134688500Y-101559857D01*
X134940614Y-101937171D01*
X135317928Y-102189285D01*
X135763000Y-102277815D01*
X136208072Y-102189285D01*
X136585386Y-101937171D01*
X136837500Y-101559857D01*
X136926030Y-101114785D01*
X136926030Y-101069215D01*
X136837500Y-100624143D01*
X136585386Y-100246829D01*
X136208072Y-99994715D01*
X135763000Y-99906185D01*
X135317928Y-99994715D01*
X134940614Y-100246829D01*
X134688500Y-100624143D01*
X134599970Y-101069215D01*
X134386030Y-101069215D01*
X134297500Y-100624143D01*
X134045386Y-100246829D01*
X133668072Y-99994715D01*
X133223000Y-99906185D01*
X132777928Y-99994715D01*
X132400614Y-100246829D01*
X132148500Y-100624143D01*
X132059970Y-101069215D01*
X131846030Y-101069215D01*
X131757500Y-100624143D01*
X131505386Y-100246829D01*
X131128072Y-99994715D01*
X130683000Y-99906185D01*
X130237928Y-99994715D01*
X129860614Y-100246829D01*
X129608500Y-100624143D01*
X129519970Y-101069215D01*
X129306030Y-101069215D01*
X129217500Y-100624143D01*
X128965386Y-100246829D01*
X128588072Y-99994715D01*
X128143000Y-99906185D01*
X127697928Y-99994715D01*
X127320614Y-100246829D01*
X127068500Y-100624143D01*
X126979970Y-101069215D01*
X123806198Y-101069215D01*
X123848687Y-101005627D01*
X123882030Y-100838000D01*
X123848687Y-100670373D01*
X123753734Y-100528266D01*
X123611627Y-100433313D01*
X123444000Y-100399970D01*
X122348934Y-100399970D01*
X122267707Y-100318601D01*
X122108836Y-100252632D01*
X123832253Y-98529215D01*
X126979970Y-98529215D01*
X126979970Y-98574785D01*
X127068500Y-99019857D01*
X127320614Y-99397171D01*
X127697928Y-99649285D01*
X128143000Y-99737815D01*
X128588072Y-99649285D01*
X128965386Y-99397171D01*
X129217500Y-99019857D01*
X129306030Y-98574785D01*
X129306030Y-98529215D01*
X129519970Y-98529215D01*
X129519970Y-98574785D01*
X129608500Y-99019857D01*
X129860614Y-99397171D01*
X130237928Y-99649285D01*
X130683000Y-99737815D01*
X131128072Y-99649285D01*
X131505386Y-99397171D01*
X131757500Y-99019857D01*
X131846030Y-98574785D01*
X131846030Y-98529215D01*
X131757500Y-98084143D01*
X131505386Y-97706829D01*
X131128072Y-97454715D01*
X131121030Y-97453314D01*
X131121030Y-96028718D01*
X131254834Y-95961815D01*
X131322526Y-95989923D01*
X131566404Y-95990136D01*
X131791800Y-95897005D01*
X131964399Y-95724707D01*
X132057923Y-95499474D01*
X132058094Y-95304211D01*
X132073556Y-95304224D01*
X132784970Y-96015638D01*
X132784970Y-97453314D01*
X132777928Y-97454715D01*
X132400614Y-97706829D01*
X132148500Y-98084143D01*
X132059970Y-98529215D01*
X132059970Y-98574785D01*
X132148500Y-99019857D01*
X132400614Y-99397171D01*
X132777928Y-99649285D01*
X133223000Y-99737815D01*
X133668072Y-99649285D01*
X134045386Y-99397171D01*
X134297500Y-99019857D01*
X134386030Y-98574785D01*
X134386030Y-98529215D01*
X134297500Y-98084143D01*
X134045386Y-97706829D01*
X134038159Y-97702000D01*
X134593838Y-97702000D01*
X134593838Y-99402000D01*
X134615665Y-99518002D01*
X134684222Y-99624542D01*
X134788828Y-99696017D01*
X134913000Y-99721162D01*
X136613000Y-99721162D01*
X136729002Y-99699335D01*
X136835542Y-99630778D01*
X136907017Y-99526172D01*
X136932162Y-99402000D01*
X136932162Y-98990030D01*
X137541000Y-98990030D01*
X137708627Y-98956687D01*
X137776981Y-98911014D01*
X137916404Y-98911136D01*
X138141800Y-98818005D01*
X138314399Y-98645707D01*
X138407923Y-98420474D01*
X138408136Y-98176596D01*
X138315005Y-97951200D01*
X138142707Y-97778601D01*
X137917474Y-97685077D01*
X137673596Y-97684864D01*
X137448200Y-97777995D01*
X137275601Y-97950293D01*
X137207637Y-98113970D01*
X136932162Y-98113970D01*
X136932162Y-97702000D01*
X136910335Y-97585998D01*
X136841778Y-97479458D01*
X136737172Y-97407983D01*
X136613000Y-97382838D01*
X134913000Y-97382838D01*
X134796998Y-97404665D01*
X134690458Y-97473222D01*
X134618983Y-97577828D01*
X134593838Y-97702000D01*
X134038159Y-97702000D01*
X133668072Y-97454715D01*
X133661030Y-97453314D01*
X133661030Y-95834200D01*
X133627687Y-95666573D01*
X133532734Y-95524466D01*
X132693036Y-94684768D01*
X132693136Y-94569796D01*
X132600005Y-94344400D01*
X132427707Y-94171801D01*
X132202474Y-94078277D01*
X131958596Y-94078064D01*
X131733200Y-94171195D01*
X131560601Y-94343493D01*
X131467077Y-94568726D01*
X131466906Y-94763989D01*
X131323596Y-94763864D01*
X131098200Y-94856995D01*
X130925601Y-95029293D01*
X130863936Y-95177799D01*
X130487107Y-95366214D01*
X130431641Y-95409261D01*
X130373266Y-95448266D01*
X130364522Y-95461352D01*
X130352088Y-95471002D01*
X130317317Y-95531999D01*
X130278313Y-95590373D01*
X130275243Y-95605809D01*
X130267448Y-95619483D01*
X130258667Y-95689142D01*
X130244970Y-95758000D01*
X130244970Y-97453314D01*
X130237928Y-97454715D01*
X129860614Y-97706829D01*
X129608500Y-98084143D01*
X129519970Y-98529215D01*
X129306030Y-98529215D01*
X129217500Y-98084143D01*
X128965386Y-97706829D01*
X128588072Y-97454715D01*
X128143000Y-97366185D01*
X127697928Y-97454715D01*
X127320614Y-97706829D01*
X127068500Y-98084143D01*
X126979970Y-98529215D01*
X123832253Y-98529215D01*
X134853734Y-87507734D01*
X134948687Y-87365627D01*
X134982030Y-87198000D01*
X134982030Y-86317488D01*
X135094000Y-86340162D01*
X135594000Y-86340162D01*
X135710002Y-86318335D01*
X135743313Y-86296900D01*
X135769828Y-86315017D01*
X135894000Y-86340162D01*
X136197157Y-86340162D01*
X136178200Y-86347995D01*
X136005601Y-86520293D01*
X135912077Y-86745526D01*
X135911864Y-86989404D01*
X136004995Y-87214800D01*
X136177293Y-87387399D01*
X136402526Y-87480923D01*
X136646404Y-87481136D01*
X136871800Y-87388005D01*
X137033130Y-87226956D01*
X137193293Y-87387399D01*
X137418526Y-87480923D01*
X137662404Y-87481136D01*
X137887800Y-87388005D01*
X137985519Y-87290456D01*
X138082293Y-87387399D01*
X138307526Y-87480923D01*
X138551404Y-87481136D01*
X138776800Y-87388005D01*
X138916063Y-87248985D01*
X139004587Y-87337664D01*
X139208253Y-87422234D01*
X139428779Y-87422426D01*
X139632593Y-87338212D01*
X139788664Y-87182413D01*
X139873234Y-86978747D01*
X139873426Y-86758221D01*
X139789212Y-86554407D01*
X139784030Y-86549216D01*
X139784030Y-86317893D01*
X139894000Y-86340162D01*
X140376825Y-86340162D01*
X140323601Y-86393293D01*
X140230077Y-86618526D01*
X140229864Y-86862404D01*
X140322995Y-87087800D01*
X140416873Y-87181842D01*
X140438313Y-87289627D01*
X140533266Y-87431734D01*
X144214970Y-91113438D01*
X144214970Y-94615000D01*
X144248313Y-94782627D01*
X144343266Y-94924734D01*
X144851266Y-95432734D01*
X144993373Y-95527687D01*
X145161000Y-95561030D01*
X145171327Y-95561030D01*
X145323422Y-95624030D01*
X145639473Y-95624030D01*
X145702473Y-95561030D01*
X146143527Y-95561030D01*
X146206527Y-95624030D01*
X146522578Y-95624030D01*
X146674673Y-95561030D01*
X146939000Y-95561030D01*
X147106627Y-95527687D01*
X147248734Y-95432734D01*
X147336957Y-95344511D01*
X147342355Y-95357544D01*
X147659956Y-95675145D01*
X147980338Y-95807852D01*
X147980338Y-96018000D01*
X148002165Y-96134002D01*
X148024263Y-96168343D01*
X148005483Y-96195828D01*
X147980338Y-96320000D01*
X147980338Y-96668000D01*
X148002165Y-96784002D01*
X148024263Y-96818343D01*
X148005483Y-96845828D01*
X147980338Y-96970000D01*
X147980338Y-97318000D01*
X148002165Y-97434002D01*
X148024263Y-97468343D01*
X148005483Y-97495828D01*
X147980338Y-97620000D01*
X147980338Y-97968000D01*
X148002165Y-98084002D01*
X148024263Y-98118343D01*
X148005483Y-98145828D01*
X147980338Y-98270000D01*
X147980338Y-98618000D01*
X148002165Y-98734002D01*
X148024263Y-98768343D01*
X148005483Y-98795828D01*
X147980338Y-98920000D01*
X147980338Y-99268000D01*
X148002165Y-99384002D01*
X148070722Y-99490542D01*
X148175328Y-99562017D01*
X148299500Y-99587162D01*
X149696500Y-99587162D01*
X149812502Y-99565335D01*
X149919042Y-99496778D01*
X149990517Y-99392172D01*
X150015662Y-99268000D01*
X150015662Y-98920000D01*
X149993835Y-98803998D01*
X149971737Y-98769657D01*
X149990517Y-98742172D01*
X150015662Y-98618000D01*
X150015662Y-98270000D01*
X149993835Y-98153998D01*
X149971737Y-98119657D01*
X149990517Y-98092172D01*
X150015662Y-97968000D01*
X150015662Y-97620000D01*
X149993835Y-97503998D01*
X149971737Y-97469657D01*
X149990517Y-97442172D01*
X150015662Y-97318000D01*
X150015662Y-96970000D01*
X149993835Y-96853998D01*
X149971737Y-96819657D01*
X149990517Y-96792172D01*
X150015662Y-96668000D01*
X150015662Y-96320000D01*
X149993835Y-96203998D01*
X149971737Y-96169657D01*
X149990517Y-96142172D01*
X150015662Y-96018000D01*
X150015662Y-95807852D01*
X150336044Y-95675145D01*
X150653645Y-95357544D01*
X150825530Y-94942578D01*
X150825530Y-94827527D01*
X150543273Y-94545270D01*
X148999270Y-94545270D01*
X148999270Y-94565270D01*
X148996730Y-94565270D01*
X148996730Y-94545270D01*
X148976730Y-94545270D01*
X148976730Y-94542730D01*
X148996730Y-94542730D01*
X148996730Y-94522730D01*
X148999270Y-94522730D01*
X148999270Y-94542730D01*
X150543273Y-94542730D01*
X150825530Y-94260473D01*
X150825530Y-94145422D01*
X150653645Y-93730456D01*
X150336044Y-93412855D01*
X150015662Y-93280148D01*
X150015662Y-93070000D01*
X150008518Y-93032030D01*
X151721562Y-93032030D01*
X152273970Y-93584438D01*
X152273970Y-100331889D01*
X152217983Y-100413828D01*
X152192838Y-100538000D01*
X152192838Y-100653970D01*
X146749433Y-100653970D01*
X146743500Y-100624143D01*
X146491386Y-100246829D01*
X146114072Y-99994715D01*
X145669000Y-99906185D01*
X145223928Y-99994715D01*
X144846614Y-100246829D01*
X144594500Y-100624143D01*
X144505970Y-101069215D01*
X144505970Y-101114785D01*
X144594500Y-101559857D01*
X144846614Y-101937171D01*
X145223928Y-102189285D01*
X145669000Y-102277815D01*
X146114072Y-102189285D01*
X146491386Y-101937171D01*
X146743500Y-101559857D01*
X146749433Y-101530030D01*
X152299039Y-101530030D01*
X152307313Y-101571627D01*
X152402266Y-101713734D01*
X152598266Y-101909734D01*
X152740373Y-102004687D01*
X152908000Y-102038030D01*
X154641840Y-102038030D01*
X154696222Y-102122542D01*
X154800828Y-102194017D01*
X154925000Y-102219162D01*
X155325000Y-102219162D01*
X155441002Y-102197335D01*
X155547542Y-102128778D01*
X155574679Y-102089063D01*
X155596222Y-102122542D01*
X155700828Y-102194017D01*
X155825000Y-102219162D01*
X156225000Y-102219162D01*
X156319006Y-102201474D01*
X156535266Y-102417734D01*
X156631402Y-102481970D01*
X141947297Y-102481970D01*
X142275737Y-102127123D01*
X142338161Y-101958250D01*
X142683928Y-102189285D01*
X143129000Y-102277815D01*
X143574072Y-102189285D01*
X143951386Y-101937171D01*
X144203500Y-101559857D01*
X144292030Y-101114785D01*
X144292030Y-101069215D01*
X144203500Y-100624143D01*
X143951386Y-100246829D01*
X143574072Y-99994715D01*
X143129000Y-99906185D01*
X142683928Y-99994715D01*
X142338161Y-100225750D01*
X142275737Y-100056877D01*
X141751217Y-99490185D01*
X141443778Y-99348693D01*
X141663500Y-99019857D01*
X141752030Y-98574785D01*
X141752030Y-98529215D01*
X141707769Y-98306699D01*
X142304550Y-97709918D01*
X142054500Y-98084143D01*
X141965970Y-98529215D01*
X141965970Y-98574785D01*
X142054500Y-99019857D01*
X142306614Y-99397171D01*
X142683928Y-99649285D01*
X143129000Y-99737815D01*
X143574072Y-99649285D01*
X143951386Y-99397171D01*
X144203500Y-99019857D01*
X144292030Y-98574785D01*
X144292030Y-98529215D01*
X144203500Y-98084143D01*
X143951386Y-97706829D01*
X143944159Y-97702000D01*
X144499838Y-97702000D01*
X144499838Y-99402000D01*
X144521665Y-99518002D01*
X144590222Y-99624542D01*
X144694828Y-99696017D01*
X144819000Y-99721162D01*
X146519000Y-99721162D01*
X146635002Y-99699335D01*
X146741542Y-99630778D01*
X146813017Y-99526172D01*
X146838162Y-99402000D01*
X146838162Y-97702000D01*
X146816335Y-97585998D01*
X146747778Y-97479458D01*
X146643172Y-97407983D01*
X146519000Y-97382838D01*
X144819000Y-97382838D01*
X144702998Y-97404665D01*
X144596458Y-97473222D01*
X144524983Y-97577828D01*
X144499838Y-97702000D01*
X143944159Y-97702000D01*
X143574072Y-97454715D01*
X143129000Y-97366185D01*
X142683928Y-97454715D01*
X142309703Y-97704765D01*
X143770432Y-96244036D01*
X143885404Y-96244136D01*
X144110800Y-96151005D01*
X144283399Y-95978707D01*
X144376923Y-95753474D01*
X144377136Y-95509596D01*
X144284005Y-95284200D01*
X144111707Y-95111601D01*
X143886474Y-95018077D01*
X143642596Y-95017864D01*
X143417200Y-95110995D01*
X143244601Y-95283293D01*
X143151077Y-95508526D01*
X143150976Y-95624556D01*
X141205963Y-97569569D01*
X141034072Y-97454715D01*
X140589000Y-97366185D01*
X140143928Y-97454715D01*
X139766614Y-97706829D01*
X139514500Y-98084143D01*
X139425970Y-98529215D01*
X139425970Y-98574785D01*
X139514500Y-99019857D01*
X139734222Y-99348693D01*
X139426783Y-99490185D01*
X138902263Y-100056877D01*
X138634534Y-100781157D01*
X138892227Y-101090730D01*
X140587730Y-101090730D01*
X140587730Y-101070730D01*
X140590270Y-101070730D01*
X140590270Y-101090730D01*
X140610270Y-101090730D01*
X140610270Y-101093270D01*
X140590270Y-101093270D01*
X140590270Y-101113270D01*
X140587730Y-101113270D01*
X140587730Y-101093270D01*
X138892227Y-101093270D01*
X138634534Y-101402843D01*
X138902263Y-102127123D01*
X139230703Y-102481970D01*
X118752030Y-102481970D01*
X118752030Y-83185000D01*
X119210185Y-83185000D01*
X119298715Y-83630072D01*
X119550829Y-84007386D01*
X119928143Y-84259500D01*
X120373215Y-84348030D01*
X120418785Y-84348030D01*
X120863857Y-84259500D01*
X121241171Y-84007386D01*
X121493285Y-83630072D01*
X121494686Y-83623030D01*
X126323502Y-83623030D01*
X124659562Y-85286970D01*
X121494686Y-85286970D01*
X121493285Y-85279928D01*
X121241171Y-84902614D01*
X120863857Y-84650500D01*
X120418785Y-84561970D01*
X120373215Y-84561970D01*
X119928143Y-84650500D01*
X119550829Y-84902614D01*
X119298715Y-85279928D01*
X119210185Y-85725000D01*
X119298715Y-86170072D01*
X119550829Y-86547386D01*
X119928143Y-86799500D01*
X120373215Y-86888030D01*
X120418785Y-86888030D01*
X120863857Y-86799500D01*
X121241171Y-86547386D01*
X121493285Y-86170072D01*
X121494686Y-86163030D01*
X124545502Y-86163030D01*
X122881562Y-87826970D01*
X121494686Y-87826970D01*
X121493285Y-87819928D01*
X121241171Y-87442614D01*
X120863857Y-87190500D01*
X120418785Y-87101970D01*
X120373215Y-87101970D01*
X119928143Y-87190500D01*
X119550829Y-87442614D01*
X119298715Y-87819928D01*
X119210185Y-88265000D01*
X119298715Y-88710072D01*
X119550829Y-89087386D01*
X119928143Y-89339500D01*
X120373215Y-89428030D01*
X120418785Y-89428030D01*
X120863857Y-89339500D01*
X121241171Y-89087386D01*
X121493285Y-88710072D01*
X121494686Y-88703030D01*
X122894502Y-88703030D01*
X121390873Y-90206659D01*
X121241171Y-89982614D01*
X120863857Y-89730500D01*
X120418785Y-89641970D01*
X120373215Y-89641970D01*
X119928143Y-89730500D01*
X119550829Y-89982614D01*
X119298715Y-90359928D01*
X119210185Y-90805000D01*
X119298715Y-91250072D01*
X119550829Y-91627386D01*
X119928143Y-91879500D01*
X120373215Y-91968030D01*
X120418785Y-91968030D01*
X120863857Y-91879500D01*
X121241171Y-91627386D01*
X121493285Y-91250072D01*
X121498092Y-91225905D01*
X121579627Y-91209687D01*
X121721734Y-91114734D01*
X129162758Y-83673710D01*
X129244000Y-83690162D01*
X131044000Y-83690162D01*
X131160002Y-83668335D01*
X131266542Y-83599778D01*
X131338017Y-83495172D01*
X131363162Y-83371000D01*
X131363162Y-82871000D01*
X131341335Y-82754998D01*
X131319900Y-82721687D01*
X131338017Y-82695172D01*
X131363162Y-82571000D01*
X131363162Y-82071000D01*
X131341335Y-81954998D01*
X131319900Y-81921687D01*
X131338017Y-81895172D01*
X131363162Y-81771000D01*
X131363162Y-81271000D01*
X131341335Y-81154998D01*
X131319900Y-81121687D01*
X131338017Y-81095172D01*
X131363162Y-80971000D01*
X131363162Y-80471000D01*
X131361391Y-80461586D01*
X131683544Y-80328145D01*
X132001145Y-80010544D01*
X132173030Y-79595578D01*
X132173030Y-79404527D01*
X131890773Y-79122270D01*
X130145270Y-79122270D01*
X130145270Y-79142270D01*
X130142730Y-79142270D01*
X130142730Y-79122270D01*
X128397227Y-79122270D01*
X128114970Y-79404527D01*
X128114970Y-79563467D01*
X127842773Y-79291270D01*
X126747270Y-79291270D01*
X126747270Y-80436773D01*
X126894912Y-80584415D01*
X126894864Y-80639404D01*
X126987995Y-80864800D01*
X127160293Y-81037399D01*
X127385526Y-81130923D01*
X127629404Y-81131136D01*
X127854800Y-81038005D01*
X127936918Y-80956030D01*
X128101502Y-80956030D01*
X126310562Y-82746970D01*
X121494686Y-82746970D01*
X121493285Y-82739928D01*
X121241171Y-82362614D01*
X120863857Y-82110500D01*
X120418785Y-82021970D01*
X120373215Y-82021970D01*
X119928143Y-82110500D01*
X119550829Y-82362614D01*
X119298715Y-82739928D01*
X119210185Y-83185000D01*
X118752030Y-83185000D01*
X118752030Y-79493498D01*
X118981266Y-79722734D01*
X119123373Y-79817687D01*
X119227838Y-79838466D01*
X119227838Y-79913000D01*
X119249665Y-80029002D01*
X119318222Y-80135542D01*
X119422828Y-80207017D01*
X119547000Y-80232162D01*
X120447000Y-80232162D01*
X120563002Y-80210335D01*
X120669542Y-80141778D01*
X120741017Y-80037172D01*
X120766162Y-79913000D01*
X120766162Y-79851030D01*
X123327838Y-79851030D01*
X123327838Y-79913000D01*
X123349665Y-80029002D01*
X123418222Y-80135542D01*
X123522828Y-80207017D01*
X123647000Y-80232162D01*
X124547000Y-80232162D01*
X124663002Y-80210335D01*
X124769542Y-80141778D01*
X124841017Y-80037172D01*
X124866162Y-79913000D01*
X124866162Y-79573527D01*
X125366970Y-79573527D01*
X125366970Y-79814578D01*
X125538855Y-80229544D01*
X125856456Y-80547145D01*
X126271422Y-80719030D01*
X126462473Y-80719030D01*
X126744730Y-80436773D01*
X126744730Y-79291270D01*
X125649227Y-79291270D01*
X125366970Y-79573527D01*
X124866162Y-79573527D01*
X124866162Y-79402852D01*
X125186544Y-79270145D01*
X125408593Y-79048096D01*
X125649227Y-79288730D01*
X126744730Y-79288730D01*
X126744730Y-79268730D01*
X126747270Y-79268730D01*
X126747270Y-79288730D01*
X127842773Y-79288730D01*
X128125030Y-79006473D01*
X128125030Y-78847533D01*
X128397227Y-79119730D01*
X130142730Y-79119730D01*
X130142730Y-79099730D01*
X130145270Y-79099730D01*
X130145270Y-79119730D01*
X131890773Y-79119730D01*
X132173030Y-78837473D01*
X132173030Y-78646422D01*
X132001145Y-78231456D01*
X131728719Y-77959030D01*
X139315562Y-77959030D01*
X139467964Y-78111432D01*
G36*
X161282970Y-102481970D02*
X159979598Y-102481970D01*
X160075734Y-102417734D01*
X160456734Y-102036734D01*
X160551687Y-101894627D01*
X160561264Y-101846478D01*
X160663002Y-101827335D01*
X160769542Y-101758778D01*
X160841017Y-101654172D01*
X160866162Y-101530000D01*
X160866162Y-100730000D01*
X160844335Y-100613998D01*
X160775778Y-100507458D01*
X160671172Y-100435983D01*
X160547000Y-100410838D01*
X159747000Y-100410838D01*
X159630998Y-100432665D01*
X159524458Y-100501222D01*
X159452983Y-100605828D01*
X159427838Y-100730000D01*
X159427838Y-101530000D01*
X159449665Y-101646002D01*
X159465088Y-101669970D01*
X159179223Y-101669970D01*
X159190017Y-101654172D01*
X159215162Y-101530000D01*
X159215162Y-100730000D01*
X159193335Y-100613998D01*
X159124778Y-100507458D01*
X159020172Y-100435983D01*
X158896000Y-100410838D01*
X158096000Y-100410838D01*
X157979998Y-100432665D01*
X157873458Y-100501222D01*
X157801983Y-100605828D01*
X157784539Y-100691970D01*
X157445438Y-100691970D01*
X157281734Y-100528266D01*
X157139627Y-100433313D01*
X156972000Y-100399970D01*
X154095160Y-100399970D01*
X154040778Y-100315458D01*
X153936172Y-100243983D01*
X153812000Y-100218838D01*
X153412000Y-100218838D01*
X153295998Y-100240665D01*
X153189458Y-100309222D01*
X153162321Y-100348937D01*
X153150030Y-100329836D01*
X153150030Y-98927404D01*
X153818864Y-98927404D01*
X153911995Y-99152800D01*
X154084293Y-99325399D01*
X154309526Y-99418923D01*
X154433160Y-99419031D01*
X154552373Y-99498687D01*
X154720000Y-99532030D01*
X155443441Y-99532030D01*
X155487328Y-99562017D01*
X155611500Y-99587162D01*
X157008500Y-99587162D01*
X157124502Y-99565335D01*
X157231042Y-99496778D01*
X157302517Y-99392172D01*
X157327662Y-99268000D01*
X157327662Y-98920000D01*
X157305835Y-98803998D01*
X157283737Y-98769657D01*
X157302517Y-98742172D01*
X157327662Y-98618000D01*
X157327662Y-98407852D01*
X157412133Y-98372863D01*
X157484526Y-98402923D01*
X157640067Y-98403059D01*
X157629077Y-98429526D01*
X157628864Y-98673404D01*
X157721995Y-98898800D01*
X157812895Y-98989858D01*
X157801983Y-99005828D01*
X157776838Y-99130000D01*
X157776838Y-99930000D01*
X157798665Y-100046002D01*
X157867222Y-100152542D01*
X157971828Y-100224017D01*
X158096000Y-100249162D01*
X158896000Y-100249162D01*
X159012002Y-100227335D01*
X159118542Y-100158778D01*
X159190017Y-100054172D01*
X159215162Y-99930000D01*
X159215162Y-99130000D01*
X159193335Y-99013998D01*
X159124778Y-98907458D01*
X159020172Y-98835983D01*
X158934030Y-98818539D01*
X158934030Y-98806000D01*
X158900687Y-98638373D01*
X158855014Y-98570019D01*
X158855136Y-98430596D01*
X158771438Y-98228030D01*
X159203562Y-98228030D01*
X159708970Y-98733438D01*
X159708970Y-98817994D01*
X159630998Y-98832665D01*
X159524458Y-98901222D01*
X159452983Y-99005828D01*
X159427838Y-99130000D01*
X159427838Y-99930000D01*
X159449665Y-100046002D01*
X159518222Y-100152542D01*
X159622828Y-100224017D01*
X159747000Y-100249162D01*
X160547000Y-100249162D01*
X160663002Y-100227335D01*
X160769542Y-100158778D01*
X160841017Y-100054172D01*
X160866162Y-99930000D01*
X160866162Y-99130000D01*
X160844335Y-99013998D01*
X160775778Y-98907458D01*
X160671172Y-98835983D01*
X160585030Y-98818539D01*
X160585030Y-98552000D01*
X160551687Y-98384373D01*
X160456734Y-98242266D01*
X159694734Y-97480266D01*
X159552627Y-97385313D01*
X159385000Y-97351970D01*
X158061973Y-97351970D01*
X157855273Y-97145270D01*
X156311270Y-97145270D01*
X156311270Y-97165270D01*
X156308730Y-97165270D01*
X156308730Y-97145270D01*
X154764727Y-97145270D01*
X154717826Y-97192171D01*
X154681474Y-97177077D01*
X154437596Y-97176864D01*
X154212200Y-97269995D01*
X154039601Y-97442293D01*
X153946077Y-97667526D01*
X153945864Y-97911404D01*
X154038995Y-98136800D01*
X154157931Y-98255944D01*
X154085200Y-98285995D01*
X153912601Y-98458293D01*
X153819077Y-98683526D01*
X153818864Y-98927404D01*
X153150030Y-98927404D01*
X153150030Y-94460498D01*
X154624147Y-95934615D01*
X154654355Y-96007544D01*
X154815811Y-96169000D01*
X154654355Y-96330456D01*
X154482470Y-96745422D01*
X154482470Y-96860473D01*
X154764727Y-97142730D01*
X156308730Y-97142730D01*
X156308730Y-97122730D01*
X156311270Y-97122730D01*
X156311270Y-97142730D01*
X157855273Y-97142730D01*
X158137530Y-96860473D01*
X158137530Y-96745422D01*
X157972717Y-96347530D01*
X158399840Y-96347530D01*
X158592533Y-96309201D01*
X158755889Y-96200049D01*
X159335302Y-95620636D01*
X159692415Y-95691670D01*
X159737985Y-95691670D01*
X160183057Y-95603140D01*
X160560371Y-95351026D01*
X160812485Y-94973712D01*
X160901015Y-94528640D01*
X160812485Y-94083568D01*
X160581450Y-93737801D01*
X160750323Y-93675377D01*
X161282970Y-93182368D01*
X161282970Y-102481970D01*
X161282970Y-102481970D01*
G37*
X161282970Y-102481970D02*
X159979598Y-102481970D01*
X160075734Y-102417734D01*
X160456734Y-102036734D01*
X160551687Y-101894627D01*
X160561264Y-101846478D01*
X160663002Y-101827335D01*
X160769542Y-101758778D01*
X160841017Y-101654172D01*
X160866162Y-101530000D01*
X160866162Y-100730000D01*
X160844335Y-100613998D01*
X160775778Y-100507458D01*
X160671172Y-100435983D01*
X160547000Y-100410838D01*
X159747000Y-100410838D01*
X159630998Y-100432665D01*
X159524458Y-100501222D01*
X159452983Y-100605828D01*
X159427838Y-100730000D01*
X159427838Y-101530000D01*
X159449665Y-101646002D01*
X159465088Y-101669970D01*
X159179223Y-101669970D01*
X159190017Y-101654172D01*
X159215162Y-101530000D01*
X159215162Y-100730000D01*
X159193335Y-100613998D01*
X159124778Y-100507458D01*
X159020172Y-100435983D01*
X158896000Y-100410838D01*
X158096000Y-100410838D01*
X157979998Y-100432665D01*
X157873458Y-100501222D01*
X157801983Y-100605828D01*
X157784539Y-100691970D01*
X157445438Y-100691970D01*
X157281734Y-100528266D01*
X157139627Y-100433313D01*
X156972000Y-100399970D01*
X154095160Y-100399970D01*
X154040778Y-100315458D01*
X153936172Y-100243983D01*
X153812000Y-100218838D01*
X153412000Y-100218838D01*
X153295998Y-100240665D01*
X153189458Y-100309222D01*
X153162321Y-100348937D01*
X153150030Y-100329836D01*
X153150030Y-98927404D01*
X153818864Y-98927404D01*
X153911995Y-99152800D01*
X154084293Y-99325399D01*
X154309526Y-99418923D01*
X154433160Y-99419031D01*
X154552373Y-99498687D01*
X154720000Y-99532030D01*
X155443441Y-99532030D01*
X155487328Y-99562017D01*
X155611500Y-99587162D01*
X157008500Y-99587162D01*
X157124502Y-99565335D01*
X157231042Y-99496778D01*
X157302517Y-99392172D01*
X157327662Y-99268000D01*
X157327662Y-98920000D01*
X157305835Y-98803998D01*
X157283737Y-98769657D01*
X157302517Y-98742172D01*
X157327662Y-98618000D01*
X157327662Y-98407852D01*
X157412133Y-98372863D01*
X157484526Y-98402923D01*
X157640067Y-98403059D01*
X157629077Y-98429526D01*
X157628864Y-98673404D01*
X157721995Y-98898800D01*
X157812895Y-98989858D01*
X157801983Y-99005828D01*
X157776838Y-99130000D01*
X157776838Y-99930000D01*
X157798665Y-100046002D01*
X157867222Y-100152542D01*
X157971828Y-100224017D01*
X158096000Y-100249162D01*
X158896000Y-100249162D01*
X159012002Y-100227335D01*
X159118542Y-100158778D01*
X159190017Y-100054172D01*
X159215162Y-99930000D01*
X159215162Y-99130000D01*
X159193335Y-99013998D01*
X159124778Y-98907458D01*
X159020172Y-98835983D01*
X158934030Y-98818539D01*
X158934030Y-98806000D01*
X158900687Y-98638373D01*
X158855014Y-98570019D01*
X158855136Y-98430596D01*
X158771438Y-98228030D01*
X159203562Y-98228030D01*
X159708970Y-98733438D01*
X159708970Y-98817994D01*
X159630998Y-98832665D01*
X159524458Y-98901222D01*
X159452983Y-99005828D01*
X159427838Y-99130000D01*
X159427838Y-99930000D01*
X159449665Y-100046002D01*
X159518222Y-100152542D01*
X159622828Y-100224017D01*
X159747000Y-100249162D01*
X160547000Y-100249162D01*
X160663002Y-100227335D01*
X160769542Y-100158778D01*
X160841017Y-100054172D01*
X160866162Y-99930000D01*
X160866162Y-99130000D01*
X160844335Y-99013998D01*
X160775778Y-98907458D01*
X160671172Y-98835983D01*
X160585030Y-98818539D01*
X160585030Y-98552000D01*
X160551687Y-98384373D01*
X160456734Y-98242266D01*
X159694734Y-97480266D01*
X159552627Y-97385313D01*
X159385000Y-97351970D01*
X158061973Y-97351970D01*
X157855273Y-97145270D01*
X156311270Y-97145270D01*
X156311270Y-97165270D01*
X156308730Y-97165270D01*
X156308730Y-97145270D01*
X154764727Y-97145270D01*
X154717826Y-97192171D01*
X154681474Y-97177077D01*
X154437596Y-97176864D01*
X154212200Y-97269995D01*
X154039601Y-97442293D01*
X153946077Y-97667526D01*
X153945864Y-97911404D01*
X154038995Y-98136800D01*
X154157931Y-98255944D01*
X154085200Y-98285995D01*
X153912601Y-98458293D01*
X153819077Y-98683526D01*
X153818864Y-98927404D01*
X153150030Y-98927404D01*
X153150030Y-94460498D01*
X154624147Y-95934615D01*
X154654355Y-96007544D01*
X154815811Y-96169000D01*
X154654355Y-96330456D01*
X154482470Y-96745422D01*
X154482470Y-96860473D01*
X154764727Y-97142730D01*
X156308730Y-97142730D01*
X156308730Y-97122730D01*
X156311270Y-97122730D01*
X156311270Y-97142730D01*
X157855273Y-97142730D01*
X158137530Y-96860473D01*
X158137530Y-96745422D01*
X157972717Y-96347530D01*
X158399840Y-96347530D01*
X158592533Y-96309201D01*
X158755889Y-96200049D01*
X159335302Y-95620636D01*
X159692415Y-95691670D01*
X159737985Y-95691670D01*
X160183057Y-95603140D01*
X160560371Y-95351026D01*
X160812485Y-94973712D01*
X160901015Y-94528640D01*
X160812485Y-94083568D01*
X160581450Y-93737801D01*
X160750323Y-93675377D01*
X161282970Y-93182368D01*
X161282970Y-102481970D01*
G36*
X156311270Y-95192730D02*
X156331270Y-95192730D01*
X156331270Y-95195270D01*
X156311270Y-95195270D01*
X156311270Y-95215270D01*
X156308730Y-95215270D01*
X156308730Y-95195270D01*
X156288730Y-95195270D01*
X156288730Y-95192730D01*
X156308730Y-95192730D01*
X156308730Y-95172730D01*
X156311270Y-95172730D01*
X156311270Y-95192730D01*
X156311270Y-95192730D01*
G37*
X156311270Y-95192730D02*
X156331270Y-95192730D01*
X156331270Y-95195270D01*
X156311270Y-95195270D01*
X156311270Y-95215270D01*
X156308730Y-95215270D01*
X156308730Y-95195270D01*
X156288730Y-95195270D01*
X156288730Y-95192730D01*
X156308730Y-95192730D01*
X156308730Y-95172730D01*
X156311270Y-95172730D01*
X156311270Y-95192730D01*
G36*
X151699307Y-80687201D02*
X151892000Y-80725530D01*
X152657432Y-80725530D01*
X153886470Y-81954569D01*
X153886470Y-82312988D01*
X153867458Y-82325222D01*
X153795983Y-82429828D01*
X153770838Y-82554000D01*
X153770838Y-83054000D01*
X153792665Y-83170002D01*
X153861222Y-83276542D01*
X153965828Y-83348017D01*
X153994470Y-83353817D01*
X153994470Y-83710901D01*
X153950458Y-83739222D01*
X153878983Y-83843828D01*
X153853838Y-83968000D01*
X153853838Y-85028000D01*
X153875665Y-85144002D01*
X153944222Y-85250542D01*
X154012432Y-85297148D01*
X154165855Y-85667544D01*
X154347149Y-85848838D01*
X154173000Y-85848838D01*
X154056998Y-85870665D01*
X153950458Y-85939222D01*
X153878983Y-86043828D01*
X153853838Y-86168000D01*
X153853838Y-87228000D01*
X153875665Y-87344002D01*
X153944222Y-87450542D01*
X154048828Y-87522017D01*
X154133639Y-87539191D01*
X153976970Y-87917422D01*
X153976970Y-88108473D01*
X154259227Y-88390730D01*
X155404730Y-88390730D01*
X155404730Y-87295227D01*
X155142162Y-87032659D01*
X155142162Y-86168000D01*
X155140098Y-86157030D01*
X155164473Y-86157030D01*
X155283473Y-86038030D01*
X155612527Y-86038030D01*
X155731527Y-86157030D01*
X155756059Y-86157030D01*
X155753838Y-86168000D01*
X155753838Y-87012970D01*
X155689527Y-87012970D01*
X155407270Y-87295227D01*
X155407270Y-88390730D01*
X155427270Y-88390730D01*
X155427270Y-88393270D01*
X155407270Y-88393270D01*
X155407270Y-89488773D01*
X155689527Y-89771030D01*
X155930578Y-89771030D01*
X156345544Y-89599145D01*
X156663145Y-89281544D01*
X156795852Y-88961162D01*
X156806000Y-88961162D01*
X156922002Y-88939335D01*
X157028542Y-88870778D01*
X157100017Y-88766172D01*
X157125162Y-88642000D01*
X157125162Y-88142000D01*
X157103335Y-88025998D01*
X157034778Y-87919458D01*
X156930172Y-87847983D01*
X156901530Y-87842183D01*
X156901530Y-87485099D01*
X156945542Y-87456778D01*
X157017017Y-87352172D01*
X157042162Y-87228000D01*
X157042162Y-87201530D01*
X158546038Y-87201530D01*
X158546038Y-87758640D01*
X158566442Y-87867081D01*
X158113385Y-88286423D01*
X157790555Y-88987880D01*
X157760734Y-89137797D01*
X158018427Y-89447370D01*
X159713930Y-89447370D01*
X159713930Y-89427370D01*
X159716470Y-89427370D01*
X159716470Y-89447370D01*
X159736470Y-89447370D01*
X159736470Y-89449910D01*
X159716470Y-89449910D01*
X159716470Y-91987370D01*
X159736470Y-91987370D01*
X159736470Y-91989910D01*
X159716470Y-91989910D01*
X159716470Y-92009910D01*
X159713930Y-92009910D01*
X159713930Y-91989910D01*
X159693930Y-91989910D01*
X159693930Y-91987370D01*
X159713930Y-91987370D01*
X159713930Y-89449910D01*
X158018427Y-89449910D01*
X157760734Y-89759483D01*
X157790555Y-89909400D01*
X158113385Y-90610857D01*
X158229834Y-90718640D01*
X158113385Y-90826423D01*
X157969347Y-91139394D01*
X157965645Y-91130456D01*
X157648044Y-90812855D01*
X157327662Y-90680148D01*
X157327662Y-90470000D01*
X157305835Y-90353998D01*
X157237278Y-90247458D01*
X157132672Y-90175983D01*
X157008500Y-90150838D01*
X155611500Y-90150838D01*
X155495498Y-90172665D01*
X155388958Y-90241222D01*
X155317483Y-90345828D01*
X155292338Y-90470000D01*
X155292338Y-90680148D01*
X154971956Y-90812855D01*
X154654355Y-91130456D01*
X154482470Y-91545422D01*
X154482470Y-91660473D01*
X154639153Y-91817156D01*
X154482470Y-92195422D01*
X154482470Y-92342578D01*
X154639153Y-92720844D01*
X154482470Y-92877527D01*
X154482470Y-92992578D01*
X154654355Y-93407544D01*
X154971956Y-93725145D01*
X155292338Y-93857852D01*
X155292338Y-93930148D01*
X154971956Y-94062855D01*
X154654355Y-94380456D01*
X154553180Y-94624712D01*
X152212734Y-92284266D01*
X152070627Y-92189313D01*
X151903000Y-92155970D01*
X150007973Y-92155970D01*
X150015662Y-92118000D01*
X150015662Y-91770000D01*
X150008518Y-91732030D01*
X150260000Y-91732030D01*
X150427627Y-91698687D01*
X150569734Y-91603734D01*
X151566734Y-90606734D01*
X151661687Y-90464627D01*
X151695030Y-90297000D01*
X151695030Y-89468302D01*
X151748002Y-89458335D01*
X151786948Y-89433274D01*
X151786864Y-89529404D01*
X151879995Y-89754800D01*
X152052293Y-89927399D01*
X152277526Y-90020923D01*
X152443922Y-90021068D01*
X152388601Y-90076293D01*
X152295077Y-90301526D01*
X152294976Y-90417556D01*
X152090266Y-90622266D01*
X151995313Y-90764373D01*
X151961970Y-90932000D01*
X151961970Y-91011066D01*
X151880601Y-91092293D01*
X151787077Y-91317526D01*
X151786864Y-91561404D01*
X151879995Y-91786800D01*
X152052293Y-91959399D01*
X152277526Y-92052923D01*
X152521404Y-92053136D01*
X152746800Y-91960005D01*
X152919399Y-91787707D01*
X153012923Y-91562474D01*
X153013136Y-91318596D01*
X152920005Y-91093200D01*
X152889163Y-91062305D01*
X152914432Y-91037036D01*
X153029404Y-91037136D01*
X153254800Y-90944005D01*
X153427399Y-90771707D01*
X153520923Y-90546474D01*
X153521136Y-90302596D01*
X153428005Y-90077200D01*
X153255707Y-89904601D01*
X153030474Y-89811077D01*
X152864078Y-89810932D01*
X152919399Y-89755707D01*
X153012923Y-89530474D01*
X153013136Y-89286596D01*
X152920005Y-89061200D01*
X152889163Y-89030305D01*
X152914432Y-89005036D01*
X153029404Y-89005136D01*
X153254800Y-88912005D01*
X153427399Y-88739707D01*
X153454048Y-88675527D01*
X153976970Y-88675527D01*
X153976970Y-88866578D01*
X154148855Y-89281544D01*
X154466456Y-89599145D01*
X154881422Y-89771030D01*
X155122473Y-89771030D01*
X155404730Y-89488773D01*
X155404730Y-88393270D01*
X154259227Y-88393270D01*
X153976970Y-88675527D01*
X153454048Y-88675527D01*
X153520923Y-88514474D01*
X153521136Y-88270596D01*
X153428005Y-88045200D01*
X153255707Y-87872601D01*
X153030474Y-87779077D01*
X152864078Y-87778932D01*
X152919399Y-87723707D01*
X153012923Y-87498474D01*
X153013136Y-87254596D01*
X152920005Y-87029200D01*
X152889163Y-86998305D01*
X152914432Y-86973036D01*
X153029404Y-86973136D01*
X153254800Y-86880005D01*
X153427399Y-86707707D01*
X153520923Y-86482474D01*
X153521136Y-86238596D01*
X153428005Y-86013200D01*
X153255707Y-85840601D01*
X153030474Y-85747077D01*
X152786596Y-85746864D01*
X152561200Y-85839995D01*
X152504991Y-85896106D01*
X152505136Y-85730596D01*
X152412005Y-85505200D01*
X152332030Y-85425085D01*
X152332030Y-84116000D01*
X152298535Y-83947608D01*
X152203148Y-83804852D01*
X152060392Y-83709465D01*
X151892000Y-83675970D01*
X151723608Y-83709465D01*
X151580852Y-83804852D01*
X151485465Y-83947608D01*
X151451970Y-84116000D01*
X151451970Y-85425062D01*
X151372601Y-85504293D01*
X151314030Y-85645349D01*
X151314030Y-83312000D01*
X151280687Y-83144373D01*
X151185734Y-83002266D01*
X149746734Y-81563266D01*
X149604627Y-81468313D01*
X149570139Y-81461453D01*
X149628045Y-81322000D01*
X151388470Y-81322000D01*
X151388470Y-83016000D01*
X151426799Y-83208693D01*
X151535951Y-83372049D01*
X151699307Y-83481201D01*
X151892000Y-83519530D01*
X152084693Y-83481201D01*
X152248049Y-83372049D01*
X152357201Y-83208693D01*
X152395530Y-83016000D01*
X152395530Y-81322000D01*
X152357201Y-81129307D01*
X152248049Y-80965951D01*
X152084693Y-80856799D01*
X151892000Y-80818470D01*
X151699307Y-80856799D01*
X151535951Y-80965951D01*
X151426799Y-81129307D01*
X151388470Y-81322000D01*
X149628045Y-81322000D01*
X149652234Y-81263747D01*
X149652426Y-81043221D01*
X149568212Y-80839407D01*
X149538030Y-80809172D01*
X149538030Y-80682530D01*
X151692316Y-80682530D01*
X151699307Y-80687201D01*
X151699307Y-80687201D01*
G37*
X151699307Y-80687201D02*
X151892000Y-80725530D01*
X152657432Y-80725530D01*
X153886470Y-81954569D01*
X153886470Y-82312988D01*
X153867458Y-82325222D01*
X153795983Y-82429828D01*
X153770838Y-82554000D01*
X153770838Y-83054000D01*
X153792665Y-83170002D01*
X153861222Y-83276542D01*
X153965828Y-83348017D01*
X153994470Y-83353817D01*
X153994470Y-83710901D01*
X153950458Y-83739222D01*
X153878983Y-83843828D01*
X153853838Y-83968000D01*
X153853838Y-85028000D01*
X153875665Y-85144002D01*
X153944222Y-85250542D01*
X154012432Y-85297148D01*
X154165855Y-85667544D01*
X154347149Y-85848838D01*
X154173000Y-85848838D01*
X154056998Y-85870665D01*
X153950458Y-85939222D01*
X153878983Y-86043828D01*
X153853838Y-86168000D01*
X153853838Y-87228000D01*
X153875665Y-87344002D01*
X153944222Y-87450542D01*
X154048828Y-87522017D01*
X154133639Y-87539191D01*
X153976970Y-87917422D01*
X153976970Y-88108473D01*
X154259227Y-88390730D01*
X155404730Y-88390730D01*
X155404730Y-87295227D01*
X155142162Y-87032659D01*
X155142162Y-86168000D01*
X155140098Y-86157030D01*
X155164473Y-86157030D01*
X155283473Y-86038030D01*
X155612527Y-86038030D01*
X155731527Y-86157030D01*
X155756059Y-86157030D01*
X155753838Y-86168000D01*
X155753838Y-87012970D01*
X155689527Y-87012970D01*
X155407270Y-87295227D01*
X155407270Y-88390730D01*
X155427270Y-88390730D01*
X155427270Y-88393270D01*
X155407270Y-88393270D01*
X155407270Y-89488773D01*
X155689527Y-89771030D01*
X155930578Y-89771030D01*
X156345544Y-89599145D01*
X156663145Y-89281544D01*
X156795852Y-88961162D01*
X156806000Y-88961162D01*
X156922002Y-88939335D01*
X157028542Y-88870778D01*
X157100017Y-88766172D01*
X157125162Y-88642000D01*
X157125162Y-88142000D01*
X157103335Y-88025998D01*
X157034778Y-87919458D01*
X156930172Y-87847983D01*
X156901530Y-87842183D01*
X156901530Y-87485099D01*
X156945542Y-87456778D01*
X157017017Y-87352172D01*
X157042162Y-87228000D01*
X157042162Y-87201530D01*
X158546038Y-87201530D01*
X158546038Y-87758640D01*
X158566442Y-87867081D01*
X158113385Y-88286423D01*
X157790555Y-88987880D01*
X157760734Y-89137797D01*
X158018427Y-89447370D01*
X159713930Y-89447370D01*
X159713930Y-89427370D01*
X159716470Y-89427370D01*
X159716470Y-89447370D01*
X159736470Y-89447370D01*
X159736470Y-89449910D01*
X159716470Y-89449910D01*
X159716470Y-91987370D01*
X159736470Y-91987370D01*
X159736470Y-91989910D01*
X159716470Y-91989910D01*
X159716470Y-92009910D01*
X159713930Y-92009910D01*
X159713930Y-91989910D01*
X159693930Y-91989910D01*
X159693930Y-91987370D01*
X159713930Y-91987370D01*
X159713930Y-89449910D01*
X158018427Y-89449910D01*
X157760734Y-89759483D01*
X157790555Y-89909400D01*
X158113385Y-90610857D01*
X158229834Y-90718640D01*
X158113385Y-90826423D01*
X157969347Y-91139394D01*
X157965645Y-91130456D01*
X157648044Y-90812855D01*
X157327662Y-90680148D01*
X157327662Y-90470000D01*
X157305835Y-90353998D01*
X157237278Y-90247458D01*
X157132672Y-90175983D01*
X157008500Y-90150838D01*
X155611500Y-90150838D01*
X155495498Y-90172665D01*
X155388958Y-90241222D01*
X155317483Y-90345828D01*
X155292338Y-90470000D01*
X155292338Y-90680148D01*
X154971956Y-90812855D01*
X154654355Y-91130456D01*
X154482470Y-91545422D01*
X154482470Y-91660473D01*
X154639153Y-91817156D01*
X154482470Y-92195422D01*
X154482470Y-92342578D01*
X154639153Y-92720844D01*
X154482470Y-92877527D01*
X154482470Y-92992578D01*
X154654355Y-93407544D01*
X154971956Y-93725145D01*
X155292338Y-93857852D01*
X155292338Y-93930148D01*
X154971956Y-94062855D01*
X154654355Y-94380456D01*
X154553180Y-94624712D01*
X152212734Y-92284266D01*
X152070627Y-92189313D01*
X151903000Y-92155970D01*
X150007973Y-92155970D01*
X150015662Y-92118000D01*
X150015662Y-91770000D01*
X150008518Y-91732030D01*
X150260000Y-91732030D01*
X150427627Y-91698687D01*
X150569734Y-91603734D01*
X151566734Y-90606734D01*
X151661687Y-90464627D01*
X151695030Y-90297000D01*
X151695030Y-89468302D01*
X151748002Y-89458335D01*
X151786948Y-89433274D01*
X151786864Y-89529404D01*
X151879995Y-89754800D01*
X152052293Y-89927399D01*
X152277526Y-90020923D01*
X152443922Y-90021068D01*
X152388601Y-90076293D01*
X152295077Y-90301526D01*
X152294976Y-90417556D01*
X152090266Y-90622266D01*
X151995313Y-90764373D01*
X151961970Y-90932000D01*
X151961970Y-91011066D01*
X151880601Y-91092293D01*
X151787077Y-91317526D01*
X151786864Y-91561404D01*
X151879995Y-91786800D01*
X152052293Y-91959399D01*
X152277526Y-92052923D01*
X152521404Y-92053136D01*
X152746800Y-91960005D01*
X152919399Y-91787707D01*
X153012923Y-91562474D01*
X153013136Y-91318596D01*
X152920005Y-91093200D01*
X152889163Y-91062305D01*
X152914432Y-91037036D01*
X153029404Y-91037136D01*
X153254800Y-90944005D01*
X153427399Y-90771707D01*
X153520923Y-90546474D01*
X153521136Y-90302596D01*
X153428005Y-90077200D01*
X153255707Y-89904601D01*
X153030474Y-89811077D01*
X152864078Y-89810932D01*
X152919399Y-89755707D01*
X153012923Y-89530474D01*
X153013136Y-89286596D01*
X152920005Y-89061200D01*
X152889163Y-89030305D01*
X152914432Y-89005036D01*
X153029404Y-89005136D01*
X153254800Y-88912005D01*
X153427399Y-88739707D01*
X153454048Y-88675527D01*
X153976970Y-88675527D01*
X153976970Y-88866578D01*
X154148855Y-89281544D01*
X154466456Y-89599145D01*
X154881422Y-89771030D01*
X155122473Y-89771030D01*
X155404730Y-89488773D01*
X155404730Y-88393270D01*
X154259227Y-88393270D01*
X153976970Y-88675527D01*
X153454048Y-88675527D01*
X153520923Y-88514474D01*
X153521136Y-88270596D01*
X153428005Y-88045200D01*
X153255707Y-87872601D01*
X153030474Y-87779077D01*
X152864078Y-87778932D01*
X152919399Y-87723707D01*
X153012923Y-87498474D01*
X153013136Y-87254596D01*
X152920005Y-87029200D01*
X152889163Y-86998305D01*
X152914432Y-86973036D01*
X153029404Y-86973136D01*
X153254800Y-86880005D01*
X153427399Y-86707707D01*
X153520923Y-86482474D01*
X153521136Y-86238596D01*
X153428005Y-86013200D01*
X153255707Y-85840601D01*
X153030474Y-85747077D01*
X152786596Y-85746864D01*
X152561200Y-85839995D01*
X152504991Y-85896106D01*
X152505136Y-85730596D01*
X152412005Y-85505200D01*
X152332030Y-85425085D01*
X152332030Y-84116000D01*
X152298535Y-83947608D01*
X152203148Y-83804852D01*
X152060392Y-83709465D01*
X151892000Y-83675970D01*
X151723608Y-83709465D01*
X151580852Y-83804852D01*
X151485465Y-83947608D01*
X151451970Y-84116000D01*
X151451970Y-85425062D01*
X151372601Y-85504293D01*
X151314030Y-85645349D01*
X151314030Y-83312000D01*
X151280687Y-83144373D01*
X151185734Y-83002266D01*
X149746734Y-81563266D01*
X149604627Y-81468313D01*
X149570139Y-81461453D01*
X149628045Y-81322000D01*
X151388470Y-81322000D01*
X151388470Y-83016000D01*
X151426799Y-83208693D01*
X151535951Y-83372049D01*
X151699307Y-83481201D01*
X151892000Y-83519530D01*
X152084693Y-83481201D01*
X152248049Y-83372049D01*
X152357201Y-83208693D01*
X152395530Y-83016000D01*
X152395530Y-81322000D01*
X152357201Y-81129307D01*
X152248049Y-80965951D01*
X152084693Y-80856799D01*
X151892000Y-80818470D01*
X151699307Y-80856799D01*
X151535951Y-80965951D01*
X151426799Y-81129307D01*
X151388470Y-81322000D01*
X149628045Y-81322000D01*
X149652234Y-81263747D01*
X149652426Y-81043221D01*
X149568212Y-80839407D01*
X149538030Y-80809172D01*
X149538030Y-80682530D01*
X151692316Y-80682530D01*
X151699307Y-80687201D01*
G36*
X146849788Y-86419593D02*
X147005587Y-86575664D01*
X147209253Y-86660234D01*
X147429779Y-86660426D01*
X147633593Y-86576212D01*
X147664178Y-86545681D01*
X147896227Y-86777730D01*
X149241730Y-86777730D01*
X149241730Y-86757730D01*
X149244270Y-86757730D01*
X149244270Y-86777730D01*
X149264270Y-86777730D01*
X149264270Y-86780270D01*
X149244270Y-86780270D01*
X149244270Y-88075773D01*
X149400515Y-88232018D01*
X148154562Y-89477970D01*
X146859934Y-89477970D01*
X146811985Y-89429937D01*
X146900664Y-89341413D01*
X146985234Y-89137747D01*
X146985426Y-88917221D01*
X146901212Y-88713407D01*
X146745413Y-88557336D01*
X146541747Y-88472766D01*
X146321221Y-88472574D01*
X146117407Y-88556788D01*
X146087172Y-88586970D01*
X145216266Y-88586970D01*
X144923400Y-88294104D01*
X145141730Y-88075773D01*
X145141730Y-86780270D01*
X145144270Y-86780270D01*
X145144270Y-88075773D01*
X145426527Y-88358030D01*
X145867578Y-88358030D01*
X146282544Y-88186145D01*
X146600145Y-87868544D01*
X146772030Y-87453578D01*
X146772030Y-87062527D01*
X147613970Y-87062527D01*
X147613970Y-87453578D01*
X147785855Y-87868544D01*
X148103456Y-88186145D01*
X148518422Y-88358030D01*
X148959473Y-88358030D01*
X149241730Y-88075773D01*
X149241730Y-86780270D01*
X147896227Y-86780270D01*
X147613970Y-87062527D01*
X146772030Y-87062527D01*
X146489773Y-86780270D01*
X145144270Y-86780270D01*
X145141730Y-86780270D01*
X145121730Y-86780270D01*
X145121730Y-86777730D01*
X145141730Y-86777730D01*
X145141730Y-86757730D01*
X145144270Y-86757730D01*
X145144270Y-86777730D01*
X146489773Y-86777730D01*
X146772030Y-86495473D01*
X146772030Y-86231404D01*
X146849788Y-86419593D01*
X146849788Y-86419593D01*
G37*
X146849788Y-86419593D02*
X147005587Y-86575664D01*
X147209253Y-86660234D01*
X147429779Y-86660426D01*
X147633593Y-86576212D01*
X147664178Y-86545681D01*
X147896227Y-86777730D01*
X149241730Y-86777730D01*
X149241730Y-86757730D01*
X149244270Y-86757730D01*
X149244270Y-86777730D01*
X149264270Y-86777730D01*
X149264270Y-86780270D01*
X149244270Y-86780270D01*
X149244270Y-88075773D01*
X149400515Y-88232018D01*
X148154562Y-89477970D01*
X146859934Y-89477970D01*
X146811985Y-89429937D01*
X146900664Y-89341413D01*
X146985234Y-89137747D01*
X146985426Y-88917221D01*
X146901212Y-88713407D01*
X146745413Y-88557336D01*
X146541747Y-88472766D01*
X146321221Y-88472574D01*
X146117407Y-88556788D01*
X146087172Y-88586970D01*
X145216266Y-88586970D01*
X144923400Y-88294104D01*
X145141730Y-88075773D01*
X145141730Y-86780270D01*
X145144270Y-86780270D01*
X145144270Y-88075773D01*
X145426527Y-88358030D01*
X145867578Y-88358030D01*
X146282544Y-88186145D01*
X146600145Y-87868544D01*
X146772030Y-87453578D01*
X146772030Y-87062527D01*
X147613970Y-87062527D01*
X147613970Y-87453578D01*
X147785855Y-87868544D01*
X148103456Y-88186145D01*
X148518422Y-88358030D01*
X148959473Y-88358030D01*
X149241730Y-88075773D01*
X149241730Y-86780270D01*
X147896227Y-86780270D01*
X147613970Y-87062527D01*
X146772030Y-87062527D01*
X146489773Y-86780270D01*
X145144270Y-86780270D01*
X145141730Y-86780270D01*
X145121730Y-86780270D01*
X145121730Y-86777730D01*
X145141730Y-86777730D01*
X145141730Y-86757730D01*
X145144270Y-86757730D01*
X145144270Y-86777730D01*
X146489773Y-86777730D01*
X146772030Y-86495473D01*
X146772030Y-86231404D01*
X146849788Y-86419593D01*
G36*
X148961828Y-72164017D02*
X149086000Y-72189162D01*
X150286000Y-72189162D01*
X150402002Y-72167335D01*
X150469197Y-72124096D01*
X150628855Y-72509544D01*
X150946456Y-72827145D01*
X151361422Y-72999030D01*
X151902473Y-72999030D01*
X152184728Y-72716775D01*
X152184728Y-72909173D01*
X149329951Y-75763951D01*
X149220799Y-75927307D01*
X149182470Y-76120000D01*
X149182470Y-76550838D01*
X149086000Y-76550838D01*
X148969998Y-76572665D01*
X148863458Y-76641222D01*
X148791983Y-76745828D01*
X148766838Y-76870000D01*
X148766838Y-77871149D01*
X148717544Y-77821855D01*
X148302578Y-77649970D01*
X148111527Y-77649970D01*
X147829270Y-77932227D01*
X147829270Y-79077730D01*
X148924773Y-79077730D01*
X149207030Y-78795473D01*
X149207030Y-78689162D01*
X150286000Y-78689162D01*
X150402002Y-78667335D01*
X150508542Y-78598778D01*
X150580017Y-78494172D01*
X150605162Y-78370000D01*
X150605162Y-76870000D01*
X150583335Y-76753998D01*
X150514778Y-76647458D01*
X150410172Y-76575983D01*
X150286000Y-76550838D01*
X150189530Y-76550838D01*
X150189530Y-76328568D01*
X153772050Y-72746049D01*
X153881202Y-72582692D01*
X153919530Y-72390000D01*
X153919530Y-72135116D01*
X153961828Y-72164017D01*
X154086000Y-72189162D01*
X154182470Y-72189162D01*
X154182470Y-74930000D01*
X154220799Y-75122693D01*
X154307967Y-75253148D01*
X154329951Y-75286049D01*
X156025950Y-76982049D01*
X156028920Y-76984034D01*
X155834596Y-76983864D01*
X155609200Y-77076995D01*
X155605162Y-77081026D01*
X155605162Y-76870000D01*
X155583335Y-76753998D01*
X155514778Y-76647458D01*
X155410172Y-76575983D01*
X155286000Y-76550838D01*
X154086000Y-76550838D01*
X153969998Y-76572665D01*
X153863458Y-76641222D01*
X153791983Y-76745828D01*
X153766838Y-76870000D01*
X153766838Y-78370000D01*
X153788665Y-78486002D01*
X153857222Y-78592542D01*
X153961828Y-78664017D01*
X154086000Y-78689162D01*
X154227794Y-78689162D01*
X154309382Y-78811266D01*
X154329951Y-78842049D01*
X155069950Y-79582049D01*
X155131570Y-79623222D01*
X155233307Y-79691201D01*
X155426000Y-79729530D01*
X156898952Y-79729530D01*
X156871458Y-79747222D01*
X156799983Y-79851828D01*
X156774838Y-79976000D01*
X156774838Y-81981313D01*
X156747145Y-81914456D01*
X156429544Y-81596855D01*
X156014578Y-81424970D01*
X155773527Y-81424970D01*
X155491270Y-81707227D01*
X155491270Y-82802730D01*
X156636773Y-82802730D01*
X156919030Y-82520473D01*
X156919030Y-82335308D01*
X156969828Y-82370017D01*
X157094000Y-82395162D01*
X158694000Y-82395162D01*
X158810002Y-82373335D01*
X158916542Y-82304778D01*
X158924569Y-82293030D01*
X159174838Y-82293030D01*
X159174838Y-82626000D01*
X159196665Y-82742002D01*
X159265222Y-82848542D01*
X159369828Y-82920017D01*
X159494000Y-82945162D01*
X161282970Y-82945162D01*
X161282970Y-88254912D01*
X160862648Y-87865869D01*
X160884362Y-87758640D01*
X160884362Y-86058640D01*
X160862535Y-85942638D01*
X160793978Y-85836098D01*
X160689372Y-85764623D01*
X160565200Y-85739478D01*
X158865200Y-85739478D01*
X158749198Y-85761305D01*
X158642658Y-85829862D01*
X158571183Y-85934468D01*
X158546038Y-86058640D01*
X158546038Y-86194470D01*
X157042162Y-86194470D01*
X157042162Y-86168000D01*
X157020335Y-86051998D01*
X156951778Y-85945458D01*
X156847172Y-85873983D01*
X156723000Y-85848838D01*
X156548851Y-85848838D01*
X156730145Y-85667544D01*
X156883846Y-85296479D01*
X156945542Y-85256778D01*
X157017017Y-85152172D01*
X157042162Y-85028000D01*
X157042162Y-83968000D01*
X157020335Y-83851998D01*
X156951778Y-83745458D01*
X156883568Y-83698852D01*
X156814257Y-83531521D01*
X156919030Y-83278578D01*
X156919030Y-83087527D01*
X156636773Y-82805270D01*
X155491270Y-82805270D01*
X155491270Y-82825270D01*
X155488730Y-82825270D01*
X155488730Y-82805270D01*
X155468730Y-82805270D01*
X155468730Y-82802730D01*
X155488730Y-82802730D01*
X155488730Y-81707227D01*
X155206473Y-81424970D01*
X154965422Y-81424970D01*
X154811931Y-81488548D01*
X154746049Y-81389950D01*
X153222049Y-79865951D01*
X153185616Y-79841607D01*
X153058693Y-79756799D01*
X152866000Y-79718470D01*
X152395530Y-79718470D01*
X152395530Y-78689162D01*
X152786000Y-78689162D01*
X152902002Y-78667335D01*
X153008542Y-78598778D01*
X153080017Y-78494172D01*
X153105162Y-78370000D01*
X153105162Y-76870000D01*
X153083335Y-76753998D01*
X153014778Y-76647458D01*
X152910172Y-76575983D01*
X152786000Y-76550838D01*
X151586000Y-76550838D01*
X151469998Y-76572665D01*
X151363458Y-76641222D01*
X151291983Y-76745828D01*
X151266838Y-76870000D01*
X151266838Y-78370000D01*
X151288665Y-78486002D01*
X151357222Y-78592542D01*
X151388470Y-78613893D01*
X151388470Y-79675470D01*
X149177251Y-79675470D01*
X149207030Y-79603578D01*
X149207030Y-79362527D01*
X148924773Y-79080270D01*
X147829270Y-79080270D01*
X147829270Y-79100270D01*
X147826730Y-79100270D01*
X147826730Y-79080270D01*
X147806730Y-79080270D01*
X147806730Y-79077730D01*
X147826730Y-79077730D01*
X147826730Y-77932227D01*
X147544473Y-77649970D01*
X147353422Y-77649970D01*
X146938456Y-77821855D01*
X146655616Y-78104695D01*
X146567852Y-77892814D01*
X146820544Y-77788145D01*
X147138145Y-77470544D01*
X147270852Y-77150162D01*
X147281000Y-77150162D01*
X147397002Y-77128335D01*
X147503542Y-77059778D01*
X147575017Y-76955172D01*
X147600162Y-76831000D01*
X147600162Y-76331000D01*
X147578335Y-76214998D01*
X147509778Y-76108458D01*
X147484530Y-76091207D01*
X147484530Y-75949162D01*
X147768000Y-75949162D01*
X147884002Y-75927335D01*
X147990542Y-75858778D01*
X148062017Y-75754172D01*
X148087162Y-75630000D01*
X148087162Y-74519852D01*
X148407544Y-74387145D01*
X148725145Y-74069544D01*
X148897030Y-73654578D01*
X148897030Y-73013527D01*
X148614773Y-72731270D01*
X147194270Y-72731270D01*
X147194270Y-72751270D01*
X147191730Y-72751270D01*
X147191730Y-72731270D01*
X147171730Y-72731270D01*
X147171730Y-72728730D01*
X147191730Y-72728730D01*
X147191730Y-72708730D01*
X147194270Y-72708730D01*
X147194270Y-72728730D01*
X148614773Y-72728730D01*
X148897030Y-72446473D01*
X148897030Y-72119742D01*
X148961828Y-72164017D01*
X148961828Y-72164017D01*
G37*
X148961828Y-72164017D02*
X149086000Y-72189162D01*
X150286000Y-72189162D01*
X150402002Y-72167335D01*
X150469197Y-72124096D01*
X150628855Y-72509544D01*
X150946456Y-72827145D01*
X151361422Y-72999030D01*
X151902473Y-72999030D01*
X152184728Y-72716775D01*
X152184728Y-72909173D01*
X149329951Y-75763951D01*
X149220799Y-75927307D01*
X149182470Y-76120000D01*
X149182470Y-76550838D01*
X149086000Y-76550838D01*
X148969998Y-76572665D01*
X148863458Y-76641222D01*
X148791983Y-76745828D01*
X148766838Y-76870000D01*
X148766838Y-77871149D01*
X148717544Y-77821855D01*
X148302578Y-77649970D01*
X148111527Y-77649970D01*
X147829270Y-77932227D01*
X147829270Y-79077730D01*
X148924773Y-79077730D01*
X149207030Y-78795473D01*
X149207030Y-78689162D01*
X150286000Y-78689162D01*
X150402002Y-78667335D01*
X150508542Y-78598778D01*
X150580017Y-78494172D01*
X150605162Y-78370000D01*
X150605162Y-76870000D01*
X150583335Y-76753998D01*
X150514778Y-76647458D01*
X150410172Y-76575983D01*
X150286000Y-76550838D01*
X150189530Y-76550838D01*
X150189530Y-76328568D01*
X153772050Y-72746049D01*
X153881202Y-72582692D01*
X153919530Y-72390000D01*
X153919530Y-72135116D01*
X153961828Y-72164017D01*
X154086000Y-72189162D01*
X154182470Y-72189162D01*
X154182470Y-74930000D01*
X154220799Y-75122693D01*
X154307967Y-75253148D01*
X154329951Y-75286049D01*
X156025950Y-76982049D01*
X156028920Y-76984034D01*
X155834596Y-76983864D01*
X155609200Y-77076995D01*
X155605162Y-77081026D01*
X155605162Y-76870000D01*
X155583335Y-76753998D01*
X155514778Y-76647458D01*
X155410172Y-76575983D01*
X155286000Y-76550838D01*
X154086000Y-76550838D01*
X153969998Y-76572665D01*
X153863458Y-76641222D01*
X153791983Y-76745828D01*
X153766838Y-76870000D01*
X153766838Y-78370000D01*
X153788665Y-78486002D01*
X153857222Y-78592542D01*
X153961828Y-78664017D01*
X154086000Y-78689162D01*
X154227794Y-78689162D01*
X154309382Y-78811266D01*
X154329951Y-78842049D01*
X155069950Y-79582049D01*
X155131570Y-79623222D01*
X155233307Y-79691201D01*
X155426000Y-79729530D01*
X156898952Y-79729530D01*
X156871458Y-79747222D01*
X156799983Y-79851828D01*
X156774838Y-79976000D01*
X156774838Y-81981313D01*
X156747145Y-81914456D01*
X156429544Y-81596855D01*
X156014578Y-81424970D01*
X155773527Y-81424970D01*
X155491270Y-81707227D01*
X155491270Y-82802730D01*
X156636773Y-82802730D01*
X156919030Y-82520473D01*
X156919030Y-82335308D01*
X156969828Y-82370017D01*
X157094000Y-82395162D01*
X158694000Y-82395162D01*
X158810002Y-82373335D01*
X158916542Y-82304778D01*
X158924569Y-82293030D01*
X159174838Y-82293030D01*
X159174838Y-82626000D01*
X159196665Y-82742002D01*
X159265222Y-82848542D01*
X159369828Y-82920017D01*
X159494000Y-82945162D01*
X161282970Y-82945162D01*
X161282970Y-88254912D01*
X160862648Y-87865869D01*
X160884362Y-87758640D01*
X160884362Y-86058640D01*
X160862535Y-85942638D01*
X160793978Y-85836098D01*
X160689372Y-85764623D01*
X160565200Y-85739478D01*
X158865200Y-85739478D01*
X158749198Y-85761305D01*
X158642658Y-85829862D01*
X158571183Y-85934468D01*
X158546038Y-86058640D01*
X158546038Y-86194470D01*
X157042162Y-86194470D01*
X157042162Y-86168000D01*
X157020335Y-86051998D01*
X156951778Y-85945458D01*
X156847172Y-85873983D01*
X156723000Y-85848838D01*
X156548851Y-85848838D01*
X156730145Y-85667544D01*
X156883846Y-85296479D01*
X156945542Y-85256778D01*
X157017017Y-85152172D01*
X157042162Y-85028000D01*
X157042162Y-83968000D01*
X157020335Y-83851998D01*
X156951778Y-83745458D01*
X156883568Y-83698852D01*
X156814257Y-83531521D01*
X156919030Y-83278578D01*
X156919030Y-83087527D01*
X156636773Y-82805270D01*
X155491270Y-82805270D01*
X155491270Y-82825270D01*
X155488730Y-82825270D01*
X155488730Y-82805270D01*
X155468730Y-82805270D01*
X155468730Y-82802730D01*
X155488730Y-82802730D01*
X155488730Y-81707227D01*
X155206473Y-81424970D01*
X154965422Y-81424970D01*
X154811931Y-81488548D01*
X154746049Y-81389950D01*
X153222049Y-79865951D01*
X153185616Y-79841607D01*
X153058693Y-79756799D01*
X152866000Y-79718470D01*
X152395530Y-79718470D01*
X152395530Y-78689162D01*
X152786000Y-78689162D01*
X152902002Y-78667335D01*
X153008542Y-78598778D01*
X153080017Y-78494172D01*
X153105162Y-78370000D01*
X153105162Y-76870000D01*
X153083335Y-76753998D01*
X153014778Y-76647458D01*
X152910172Y-76575983D01*
X152786000Y-76550838D01*
X151586000Y-76550838D01*
X151469998Y-76572665D01*
X151363458Y-76641222D01*
X151291983Y-76745828D01*
X151266838Y-76870000D01*
X151266838Y-78370000D01*
X151288665Y-78486002D01*
X151357222Y-78592542D01*
X151388470Y-78613893D01*
X151388470Y-79675470D01*
X149177251Y-79675470D01*
X149207030Y-79603578D01*
X149207030Y-79362527D01*
X148924773Y-79080270D01*
X147829270Y-79080270D01*
X147829270Y-79100270D01*
X147826730Y-79100270D01*
X147826730Y-79080270D01*
X147806730Y-79080270D01*
X147806730Y-79077730D01*
X147826730Y-79077730D01*
X147826730Y-77932227D01*
X147544473Y-77649970D01*
X147353422Y-77649970D01*
X146938456Y-77821855D01*
X146655616Y-78104695D01*
X146567852Y-77892814D01*
X146820544Y-77788145D01*
X147138145Y-77470544D01*
X147270852Y-77150162D01*
X147281000Y-77150162D01*
X147397002Y-77128335D01*
X147503542Y-77059778D01*
X147575017Y-76955172D01*
X147600162Y-76831000D01*
X147600162Y-76331000D01*
X147578335Y-76214998D01*
X147509778Y-76108458D01*
X147484530Y-76091207D01*
X147484530Y-75949162D01*
X147768000Y-75949162D01*
X147884002Y-75927335D01*
X147990542Y-75858778D01*
X148062017Y-75754172D01*
X148087162Y-75630000D01*
X148087162Y-74519852D01*
X148407544Y-74387145D01*
X148725145Y-74069544D01*
X148897030Y-73654578D01*
X148897030Y-73013527D01*
X148614773Y-72731270D01*
X147194270Y-72731270D01*
X147194270Y-72751270D01*
X147191730Y-72751270D01*
X147191730Y-72731270D01*
X147171730Y-72731270D01*
X147171730Y-72728730D01*
X147191730Y-72728730D01*
X147191730Y-72708730D01*
X147194270Y-72708730D01*
X147194270Y-72728730D01*
X148614773Y-72728730D01*
X148897030Y-72446473D01*
X148897030Y-72119742D01*
X148961828Y-72164017D01*
G36*
X150437970Y-83493438D02*
X150437970Y-85427281D01*
X150382544Y-85371855D01*
X150062162Y-85239148D01*
X150062162Y-84729000D01*
X150040335Y-84612998D01*
X149971778Y-84506458D01*
X149867172Y-84434983D01*
X149743000Y-84409838D01*
X148743000Y-84409838D01*
X148626998Y-84431665D01*
X148520458Y-84500222D01*
X148448983Y-84604828D01*
X148434678Y-84675470D01*
X145952090Y-84675470D01*
X145940335Y-84612998D01*
X145871778Y-84506458D01*
X145767172Y-84434983D01*
X145664530Y-84414198D01*
X145664530Y-83256527D01*
X146448970Y-83256527D01*
X146448970Y-83497578D01*
X146620855Y-83912544D01*
X146938456Y-84230145D01*
X147353422Y-84402030D01*
X147544473Y-84402030D01*
X147826730Y-84119773D01*
X147826730Y-82974270D01*
X147829270Y-82974270D01*
X147829270Y-84119773D01*
X148111527Y-84402030D01*
X148302578Y-84402030D01*
X148717544Y-84230145D01*
X149035145Y-83912544D01*
X149207030Y-83497578D01*
X149207030Y-83256527D01*
X148924773Y-82974270D01*
X147829270Y-82974270D01*
X147826730Y-82974270D01*
X146731227Y-82974270D01*
X146448970Y-83256527D01*
X145664530Y-83256527D01*
X145664530Y-83187012D01*
X145683542Y-83174778D01*
X145755017Y-83070172D01*
X145780162Y-82946000D01*
X145780162Y-82546000D01*
X145758335Y-82429998D01*
X145706555Y-82349530D01*
X146442000Y-82349530D01*
X146494236Y-82339140D01*
X146448970Y-82448422D01*
X146448970Y-82689473D01*
X146731227Y-82971730D01*
X147826730Y-82971730D01*
X147826730Y-82951730D01*
X147829270Y-82951730D01*
X147829270Y-82971730D01*
X148924773Y-82971730D01*
X149207030Y-82689473D01*
X149207030Y-82448422D01*
X149150120Y-82311030D01*
X149255562Y-82311030D01*
X150437970Y-83493438D01*
X150437970Y-83493438D01*
G37*
X150437970Y-83493438D02*
X150437970Y-85427281D01*
X150382544Y-85371855D01*
X150062162Y-85239148D01*
X150062162Y-84729000D01*
X150040335Y-84612998D01*
X149971778Y-84506458D01*
X149867172Y-84434983D01*
X149743000Y-84409838D01*
X148743000Y-84409838D01*
X148626998Y-84431665D01*
X148520458Y-84500222D01*
X148448983Y-84604828D01*
X148434678Y-84675470D01*
X145952090Y-84675470D01*
X145940335Y-84612998D01*
X145871778Y-84506458D01*
X145767172Y-84434983D01*
X145664530Y-84414198D01*
X145664530Y-83256527D01*
X146448970Y-83256527D01*
X146448970Y-83497578D01*
X146620855Y-83912544D01*
X146938456Y-84230145D01*
X147353422Y-84402030D01*
X147544473Y-84402030D01*
X147826730Y-84119773D01*
X147826730Y-82974270D01*
X147829270Y-82974270D01*
X147829270Y-84119773D01*
X148111527Y-84402030D01*
X148302578Y-84402030D01*
X148717544Y-84230145D01*
X149035145Y-83912544D01*
X149207030Y-83497578D01*
X149207030Y-83256527D01*
X148924773Y-82974270D01*
X147829270Y-82974270D01*
X147826730Y-82974270D01*
X146731227Y-82974270D01*
X146448970Y-83256527D01*
X145664530Y-83256527D01*
X145664530Y-83187012D01*
X145683542Y-83174778D01*
X145755017Y-83070172D01*
X145780162Y-82946000D01*
X145780162Y-82546000D01*
X145758335Y-82429998D01*
X145706555Y-82349530D01*
X146442000Y-82349530D01*
X146494236Y-82339140D01*
X146448970Y-82448422D01*
X146448970Y-82689473D01*
X146731227Y-82971730D01*
X147826730Y-82971730D01*
X147826730Y-82951730D01*
X147829270Y-82951730D01*
X147829270Y-82971730D01*
X148924773Y-82971730D01*
X149207030Y-82689473D01*
X149207030Y-82448422D01*
X149150120Y-82311030D01*
X149255562Y-82311030D01*
X150437970Y-83493438D01*
G36*
X155449270Y-84496730D02*
X155469270Y-84496730D01*
X155469270Y-84499270D01*
X155449270Y-84499270D01*
X155449270Y-85157970D01*
X155446730Y-85157970D01*
X155446730Y-84499270D01*
X155426730Y-84499270D01*
X155426730Y-84496730D01*
X155446730Y-84496730D01*
X155446730Y-84476730D01*
X155449270Y-84476730D01*
X155449270Y-84496730D01*
X155449270Y-84496730D01*
G37*
X155449270Y-84496730D02*
X155469270Y-84496730D01*
X155469270Y-84499270D01*
X155449270Y-84499270D01*
X155449270Y-85157970D01*
X155446730Y-85157970D01*
X155446730Y-84499270D01*
X155426730Y-84499270D01*
X155426730Y-84496730D01*
X155446730Y-84496730D01*
X155446730Y-84476730D01*
X155449270Y-84476730D01*
X155449270Y-84496730D01*
G36*
X119705266Y-63063266D02*
X119610313Y-63205373D01*
X119576970Y-63373000D01*
X119576970Y-64184883D01*
X119549225Y-64259909D01*
X119576970Y-64286894D01*
X119576970Y-64745106D01*
X119549225Y-64772091D01*
X119576970Y-64847117D01*
X119576970Y-67691000D01*
X119610313Y-67858627D01*
X119705266Y-68000734D01*
X119909964Y-68205432D01*
X119909864Y-68320404D01*
X120002995Y-68545800D01*
X120175293Y-68718399D01*
X120400526Y-68811923D01*
X120644404Y-68812136D01*
X120648728Y-68810349D01*
X120648728Y-69086225D01*
X120366473Y-68803970D01*
X120000422Y-68803970D01*
X119585456Y-68975855D01*
X119267855Y-69293456D01*
X119095970Y-69708422D01*
X119095970Y-70074473D01*
X119378227Y-70356730D01*
X120648730Y-70356730D01*
X120648730Y-70336730D01*
X120651270Y-70336730D01*
X120651270Y-70356730D01*
X121921773Y-70356730D01*
X122204030Y-70074473D01*
X122204030Y-69708422D01*
X122032145Y-69293456D01*
X121714544Y-68975855D01*
X121299578Y-68803970D01*
X120933527Y-68803970D01*
X120651272Y-69086225D01*
X120651272Y-68809298D01*
X120869800Y-68719005D01*
X121042399Y-68546707D01*
X121135923Y-68321474D01*
X121136136Y-68077596D01*
X121043005Y-67852200D01*
X120870707Y-67679601D01*
X120645474Y-67586077D01*
X120529444Y-67585976D01*
X120453030Y-67509562D01*
X120453030Y-66524809D01*
X120533828Y-66580017D01*
X120658000Y-66605162D01*
X121658000Y-66605162D01*
X121774002Y-66583335D01*
X121880542Y-66514778D01*
X121936654Y-66432656D01*
X122116867Y-66553070D01*
X122428000Y-66614958D01*
X122602733Y-66580201D01*
X125561502Y-69538970D01*
X125017162Y-69538970D01*
X125017162Y-69527000D01*
X124995335Y-69410998D01*
X124926778Y-69304458D01*
X124822172Y-69232983D01*
X124698000Y-69207838D01*
X124198000Y-69207838D01*
X124081998Y-69229665D01*
X123975458Y-69298222D01*
X123903983Y-69402828D01*
X123878838Y-69527000D01*
X123878838Y-70427000D01*
X123900665Y-70543002D01*
X123969222Y-70649542D01*
X124073828Y-70721017D01*
X124198000Y-70746162D01*
X124698000Y-70746162D01*
X124814002Y-70724335D01*
X124920542Y-70655778D01*
X124992017Y-70551172D01*
X125017162Y-70427000D01*
X125017162Y-70415030D01*
X125421562Y-70415030D01*
X125545970Y-70539438D01*
X125545970Y-70877994D01*
X125467998Y-70892665D01*
X125361458Y-70961222D01*
X125289983Y-71065828D01*
X125264838Y-71190000D01*
X125264838Y-71700148D01*
X124944456Y-71832855D01*
X124626855Y-72150456D01*
X124454970Y-72565422D01*
X124454970Y-72906473D01*
X124737227Y-73188730D01*
X125982730Y-73188730D01*
X125982730Y-73168730D01*
X125985270Y-73168730D01*
X125985270Y-73188730D01*
X127230773Y-73188730D01*
X127513030Y-72906473D01*
X127513030Y-72565422D01*
X127341145Y-72150456D01*
X127023544Y-71832855D01*
X126703162Y-71700148D01*
X126703162Y-71190000D01*
X126681335Y-71073998D01*
X126612778Y-70967458D01*
X126508172Y-70895983D01*
X126422030Y-70878539D01*
X126422030Y-70399498D01*
X129705970Y-73683438D01*
X129705970Y-74551838D01*
X129244000Y-74551838D01*
X129127998Y-74573665D01*
X129021458Y-74642222D01*
X128949983Y-74746828D01*
X128924838Y-74871000D01*
X128924838Y-75092370D01*
X128708030Y-74875562D01*
X128708030Y-73580934D01*
X128789399Y-73499707D01*
X128882923Y-73274474D01*
X128883136Y-73030596D01*
X128790005Y-72805200D01*
X128617707Y-72632601D01*
X128392474Y-72539077D01*
X128148596Y-72538864D01*
X127923200Y-72631995D01*
X127750601Y-72804293D01*
X127657077Y-73029526D01*
X127656864Y-73273404D01*
X127749995Y-73498800D01*
X127831970Y-73580918D01*
X127831970Y-75057000D01*
X127865313Y-75224627D01*
X127960266Y-75366734D01*
X128824266Y-76230734D01*
X128965038Y-76324795D01*
X128949983Y-76346828D01*
X128924838Y-76471000D01*
X128924838Y-76971000D01*
X128946665Y-77087002D01*
X128968100Y-77120313D01*
X128949983Y-77146828D01*
X128924838Y-77271000D01*
X128924838Y-77749970D01*
X127277873Y-77749970D01*
X127249530Y-77705923D01*
X127249530Y-77001090D01*
X127312002Y-76989335D01*
X127418542Y-76920778D01*
X127490017Y-76816172D01*
X127515162Y-76692000D01*
X127515162Y-76192000D01*
X127493335Y-76075998D01*
X127424778Y-75969458D01*
X127320172Y-75897983D01*
X127196000Y-75872838D01*
X126296000Y-75872838D01*
X126179998Y-75894665D01*
X126073458Y-75963222D01*
X126001983Y-76067828D01*
X125976838Y-76192000D01*
X125976838Y-76692000D01*
X125998665Y-76808002D01*
X126067222Y-76914542D01*
X126171828Y-76986017D01*
X126242470Y-77000322D01*
X126242470Y-77706574D01*
X126201983Y-77765828D01*
X126176838Y-77890000D01*
X126176838Y-77900148D01*
X125856456Y-78032855D01*
X125676030Y-78213281D01*
X125676030Y-78096527D01*
X125393773Y-77814270D01*
X124098270Y-77814270D01*
X124098270Y-77834270D01*
X124095730Y-77834270D01*
X124095730Y-77814270D01*
X122800227Y-77814270D01*
X122517970Y-78096527D01*
X122517970Y-78537578D01*
X122689855Y-78952544D01*
X122712281Y-78974970D01*
X121381719Y-78974970D01*
X121404145Y-78952544D01*
X121576030Y-78537578D01*
X121576030Y-78096527D01*
X121293773Y-77814270D01*
X119998270Y-77814270D01*
X119998270Y-77834270D01*
X119995730Y-77834270D01*
X119995730Y-77814270D01*
X119975730Y-77814270D01*
X119975730Y-77811730D01*
X119995730Y-77811730D01*
X119995730Y-76466227D01*
X119998270Y-76466227D01*
X119998270Y-77811730D01*
X121293773Y-77811730D01*
X121576030Y-77529473D01*
X121576030Y-77313314D01*
X121826422Y-77417030D01*
X122017473Y-77417030D01*
X122299730Y-77134773D01*
X122299730Y-75989270D01*
X121204227Y-75989270D01*
X120921970Y-76271527D01*
X120921970Y-76287686D01*
X120671578Y-76183970D01*
X120280527Y-76183970D01*
X119998270Y-76466227D01*
X119995730Y-76466227D01*
X119713473Y-76183970D01*
X119437030Y-76183970D01*
X119437030Y-75746438D01*
X119761306Y-75422162D01*
X120019000Y-75422162D01*
X120135002Y-75400335D01*
X120241542Y-75331778D01*
X120268679Y-75292063D01*
X120290222Y-75325542D01*
X120394828Y-75397017D01*
X120519000Y-75422162D01*
X120919000Y-75422162D01*
X120940756Y-75418068D01*
X120921970Y-75463422D01*
X120921970Y-75704473D01*
X121204227Y-75986730D01*
X122299730Y-75986730D01*
X122299730Y-75966730D01*
X122302270Y-75966730D01*
X122302270Y-75986730D01*
X123397773Y-75986730D01*
X123680030Y-75704473D01*
X123680030Y-75463422D01*
X123661103Y-75417728D01*
X123683000Y-75422162D01*
X123697694Y-75422162D01*
X124148970Y-75873438D01*
X124148970Y-76279066D01*
X124067601Y-76360293D01*
X124044773Y-76415270D01*
X123813473Y-76183970D01*
X123592473Y-76183970D01*
X123397773Y-75989270D01*
X122302270Y-75989270D01*
X122302270Y-77134773D01*
X122517970Y-77350473D01*
X122517970Y-77529473D01*
X122800227Y-77811730D01*
X124095730Y-77811730D01*
X124095730Y-77083585D01*
X124098270Y-77086130D01*
X124098270Y-77811730D01*
X125393773Y-77811730D01*
X125676030Y-77529473D01*
X125676030Y-77088422D01*
X125504145Y-76673456D01*
X125186544Y-76355855D01*
X125041832Y-76295913D01*
X125025030Y-76279082D01*
X125025030Y-76210431D01*
X125111253Y-76246234D01*
X125331779Y-76246426D01*
X125535593Y-76162212D01*
X125691664Y-76006413D01*
X125776234Y-75802747D01*
X125776271Y-75760025D01*
X126099618Y-75436678D01*
X126171828Y-75486017D01*
X126296000Y-75511162D01*
X127196000Y-75511162D01*
X127312002Y-75489335D01*
X127418542Y-75420778D01*
X127490017Y-75316172D01*
X127515162Y-75192000D01*
X127515162Y-74692000D01*
X127493335Y-74575998D01*
X127424778Y-74469458D01*
X127320172Y-74397983D01*
X127197539Y-74373150D01*
X127341145Y-74229544D01*
X127513030Y-73814578D01*
X127513030Y-73473527D01*
X127230773Y-73191270D01*
X125985270Y-73191270D01*
X125985270Y-73211270D01*
X125982730Y-73211270D01*
X125982730Y-73191270D01*
X124737227Y-73191270D01*
X124454970Y-73473527D01*
X124454970Y-73814578D01*
X124607923Y-74183838D01*
X124583000Y-74183838D01*
X124466998Y-74205665D01*
X124360458Y-74274222D01*
X124333321Y-74313937D01*
X124311778Y-74280458D01*
X124207172Y-74208983D01*
X124083000Y-74183838D01*
X123683000Y-74183838D01*
X123566998Y-74205665D01*
X123460458Y-74274222D01*
X123398452Y-74364970D01*
X122779064Y-74364970D01*
X122675172Y-74293983D01*
X122551000Y-74268838D01*
X122051000Y-74268838D01*
X121934998Y-74290665D01*
X121828458Y-74359222D01*
X121766452Y-74449970D01*
X121228184Y-74449970D01*
X121216335Y-74386998D01*
X121157030Y-74294836D01*
X121157030Y-73372727D01*
X121191002Y-73366335D01*
X121297542Y-73297778D01*
X121369017Y-73193172D01*
X121391523Y-73082030D01*
X121412000Y-73082030D01*
X121579627Y-73048687D01*
X121721734Y-72953734D01*
X123257734Y-71417734D01*
X123352687Y-71275627D01*
X123386030Y-71108000D01*
X123386030Y-70677986D01*
X123420542Y-70655778D01*
X123492017Y-70551172D01*
X123517162Y-70427000D01*
X123517162Y-69527000D01*
X123495335Y-69410998D01*
X123426778Y-69304458D01*
X123322172Y-69232983D01*
X123198000Y-69207838D01*
X122698000Y-69207838D01*
X122581998Y-69229665D01*
X122475458Y-69298222D01*
X122403983Y-69402828D01*
X122378838Y-69527000D01*
X122378838Y-70427000D01*
X122400665Y-70543002D01*
X122469222Y-70649542D01*
X122509970Y-70677384D01*
X122509970Y-70926562D01*
X122044984Y-71391548D01*
X122204030Y-71007578D01*
X122204030Y-70641527D01*
X121921773Y-70359270D01*
X120651270Y-70359270D01*
X120651270Y-70379270D01*
X120648730Y-70379270D01*
X120648730Y-70359270D01*
X119378227Y-70359270D01*
X119095970Y-70641527D01*
X119095970Y-71007578D01*
X119267855Y-71422544D01*
X119585456Y-71740145D01*
X120000422Y-71912030D01*
X120160204Y-71912030D01*
X120108998Y-71921665D01*
X120002458Y-71990222D01*
X119930983Y-72094828D01*
X119905838Y-72219000D01*
X119905838Y-73069000D01*
X119927665Y-73185002D01*
X119996222Y-73291542D01*
X120100828Y-73363017D01*
X120225000Y-73388162D01*
X120280970Y-73388162D01*
X120280970Y-74296889D01*
X120269321Y-74313937D01*
X120247778Y-74280458D01*
X120143172Y-74208983D01*
X120019000Y-74183838D01*
X119619000Y-74183838D01*
X119502998Y-74205665D01*
X119396458Y-74274222D01*
X119324983Y-74378828D01*
X119299838Y-74503000D01*
X119299838Y-74644694D01*
X118752030Y-75192502D01*
X118752030Y-62872030D01*
X119896502Y-62872030D01*
X119705266Y-63063266D01*
X119705266Y-63063266D01*
G37*
X119705266Y-63063266D02*
X119610313Y-63205373D01*
X119576970Y-63373000D01*
X119576970Y-64184883D01*
X119549225Y-64259909D01*
X119576970Y-64286894D01*
X119576970Y-64745106D01*
X119549225Y-64772091D01*
X119576970Y-64847117D01*
X119576970Y-67691000D01*
X119610313Y-67858627D01*
X119705266Y-68000734D01*
X119909964Y-68205432D01*
X119909864Y-68320404D01*
X120002995Y-68545800D01*
X120175293Y-68718399D01*
X120400526Y-68811923D01*
X120644404Y-68812136D01*
X120648728Y-68810349D01*
X120648728Y-69086225D01*
X120366473Y-68803970D01*
X120000422Y-68803970D01*
X119585456Y-68975855D01*
X119267855Y-69293456D01*
X119095970Y-69708422D01*
X119095970Y-70074473D01*
X119378227Y-70356730D01*
X120648730Y-70356730D01*
X120648730Y-70336730D01*
X120651270Y-70336730D01*
X120651270Y-70356730D01*
X121921773Y-70356730D01*
X122204030Y-70074473D01*
X122204030Y-69708422D01*
X122032145Y-69293456D01*
X121714544Y-68975855D01*
X121299578Y-68803970D01*
X120933527Y-68803970D01*
X120651272Y-69086225D01*
X120651272Y-68809298D01*
X120869800Y-68719005D01*
X121042399Y-68546707D01*
X121135923Y-68321474D01*
X121136136Y-68077596D01*
X121043005Y-67852200D01*
X120870707Y-67679601D01*
X120645474Y-67586077D01*
X120529444Y-67585976D01*
X120453030Y-67509562D01*
X120453030Y-66524809D01*
X120533828Y-66580017D01*
X120658000Y-66605162D01*
X121658000Y-66605162D01*
X121774002Y-66583335D01*
X121880542Y-66514778D01*
X121936654Y-66432656D01*
X122116867Y-66553070D01*
X122428000Y-66614958D01*
X122602733Y-66580201D01*
X125561502Y-69538970D01*
X125017162Y-69538970D01*
X125017162Y-69527000D01*
X124995335Y-69410998D01*
X124926778Y-69304458D01*
X124822172Y-69232983D01*
X124698000Y-69207838D01*
X124198000Y-69207838D01*
X124081998Y-69229665D01*
X123975458Y-69298222D01*
X123903983Y-69402828D01*
X123878838Y-69527000D01*
X123878838Y-70427000D01*
X123900665Y-70543002D01*
X123969222Y-70649542D01*
X124073828Y-70721017D01*
X124198000Y-70746162D01*
X124698000Y-70746162D01*
X124814002Y-70724335D01*
X124920542Y-70655778D01*
X124992017Y-70551172D01*
X125017162Y-70427000D01*
X125017162Y-70415030D01*
X125421562Y-70415030D01*
X125545970Y-70539438D01*
X125545970Y-70877994D01*
X125467998Y-70892665D01*
X125361458Y-70961222D01*
X125289983Y-71065828D01*
X125264838Y-71190000D01*
X125264838Y-71700148D01*
X124944456Y-71832855D01*
X124626855Y-72150456D01*
X124454970Y-72565422D01*
X124454970Y-72906473D01*
X124737227Y-73188730D01*
X125982730Y-73188730D01*
X125982730Y-73168730D01*
X125985270Y-73168730D01*
X125985270Y-73188730D01*
X127230773Y-73188730D01*
X127513030Y-72906473D01*
X127513030Y-72565422D01*
X127341145Y-72150456D01*
X127023544Y-71832855D01*
X126703162Y-71700148D01*
X126703162Y-71190000D01*
X126681335Y-71073998D01*
X126612778Y-70967458D01*
X126508172Y-70895983D01*
X126422030Y-70878539D01*
X126422030Y-70399498D01*
X129705970Y-73683438D01*
X129705970Y-74551838D01*
X129244000Y-74551838D01*
X129127998Y-74573665D01*
X129021458Y-74642222D01*
X128949983Y-74746828D01*
X128924838Y-74871000D01*
X128924838Y-75092370D01*
X128708030Y-74875562D01*
X128708030Y-73580934D01*
X128789399Y-73499707D01*
X128882923Y-73274474D01*
X128883136Y-73030596D01*
X128790005Y-72805200D01*
X128617707Y-72632601D01*
X128392474Y-72539077D01*
X128148596Y-72538864D01*
X127923200Y-72631995D01*
X127750601Y-72804293D01*
X127657077Y-73029526D01*
X127656864Y-73273404D01*
X127749995Y-73498800D01*
X127831970Y-73580918D01*
X127831970Y-75057000D01*
X127865313Y-75224627D01*
X127960266Y-75366734D01*
X128824266Y-76230734D01*
X128965038Y-76324795D01*
X128949983Y-76346828D01*
X128924838Y-76471000D01*
X128924838Y-76971000D01*
X128946665Y-77087002D01*
X128968100Y-77120313D01*
X128949983Y-77146828D01*
X128924838Y-77271000D01*
X128924838Y-77749970D01*
X127277873Y-77749970D01*
X127249530Y-77705923D01*
X127249530Y-77001090D01*
X127312002Y-76989335D01*
X127418542Y-76920778D01*
X127490017Y-76816172D01*
X127515162Y-76692000D01*
X127515162Y-76192000D01*
X127493335Y-76075998D01*
X127424778Y-75969458D01*
X127320172Y-75897983D01*
X127196000Y-75872838D01*
X126296000Y-75872838D01*
X126179998Y-75894665D01*
X126073458Y-75963222D01*
X126001983Y-76067828D01*
X125976838Y-76192000D01*
X125976838Y-76692000D01*
X125998665Y-76808002D01*
X126067222Y-76914542D01*
X126171828Y-76986017D01*
X126242470Y-77000322D01*
X126242470Y-77706574D01*
X126201983Y-77765828D01*
X126176838Y-77890000D01*
X126176838Y-77900148D01*
X125856456Y-78032855D01*
X125676030Y-78213281D01*
X125676030Y-78096527D01*
X125393773Y-77814270D01*
X124098270Y-77814270D01*
X124098270Y-77834270D01*
X124095730Y-77834270D01*
X124095730Y-77814270D01*
X122800227Y-77814270D01*
X122517970Y-78096527D01*
X122517970Y-78537578D01*
X122689855Y-78952544D01*
X122712281Y-78974970D01*
X121381719Y-78974970D01*
X121404145Y-78952544D01*
X121576030Y-78537578D01*
X121576030Y-78096527D01*
X121293773Y-77814270D01*
X119998270Y-77814270D01*
X119998270Y-77834270D01*
X119995730Y-77834270D01*
X119995730Y-77814270D01*
X119975730Y-77814270D01*
X119975730Y-77811730D01*
X119995730Y-77811730D01*
X119995730Y-76466227D01*
X119998270Y-76466227D01*
X119998270Y-77811730D01*
X121293773Y-77811730D01*
X121576030Y-77529473D01*
X121576030Y-77313314D01*
X121826422Y-77417030D01*
X122017473Y-77417030D01*
X122299730Y-77134773D01*
X122299730Y-75989270D01*
X121204227Y-75989270D01*
X120921970Y-76271527D01*
X120921970Y-76287686D01*
X120671578Y-76183970D01*
X120280527Y-76183970D01*
X119998270Y-76466227D01*
X119995730Y-76466227D01*
X119713473Y-76183970D01*
X119437030Y-76183970D01*
X119437030Y-75746438D01*
X119761306Y-75422162D01*
X120019000Y-75422162D01*
X120135002Y-75400335D01*
X120241542Y-75331778D01*
X120268679Y-75292063D01*
X120290222Y-75325542D01*
X120394828Y-75397017D01*
X120519000Y-75422162D01*
X120919000Y-75422162D01*
X120940756Y-75418068D01*
X120921970Y-75463422D01*
X120921970Y-75704473D01*
X121204227Y-75986730D01*
X122299730Y-75986730D01*
X122299730Y-75966730D01*
X122302270Y-75966730D01*
X122302270Y-75986730D01*
X123397773Y-75986730D01*
X123680030Y-75704473D01*
X123680030Y-75463422D01*
X123661103Y-75417728D01*
X123683000Y-75422162D01*
X123697694Y-75422162D01*
X124148970Y-75873438D01*
X124148970Y-76279066D01*
X124067601Y-76360293D01*
X124044773Y-76415270D01*
X123813473Y-76183970D01*
X123592473Y-76183970D01*
X123397773Y-75989270D01*
X122302270Y-75989270D01*
X122302270Y-77134773D01*
X122517970Y-77350473D01*
X122517970Y-77529473D01*
X122800227Y-77811730D01*
X124095730Y-77811730D01*
X124095730Y-77083585D01*
X124098270Y-77086130D01*
X124098270Y-77811730D01*
X125393773Y-77811730D01*
X125676030Y-77529473D01*
X125676030Y-77088422D01*
X125504145Y-76673456D01*
X125186544Y-76355855D01*
X125041832Y-76295913D01*
X125025030Y-76279082D01*
X125025030Y-76210431D01*
X125111253Y-76246234D01*
X125331779Y-76246426D01*
X125535593Y-76162212D01*
X125691664Y-76006413D01*
X125776234Y-75802747D01*
X125776271Y-75760025D01*
X126099618Y-75436678D01*
X126171828Y-75486017D01*
X126296000Y-75511162D01*
X127196000Y-75511162D01*
X127312002Y-75489335D01*
X127418542Y-75420778D01*
X127490017Y-75316172D01*
X127515162Y-75192000D01*
X127515162Y-74692000D01*
X127493335Y-74575998D01*
X127424778Y-74469458D01*
X127320172Y-74397983D01*
X127197539Y-74373150D01*
X127341145Y-74229544D01*
X127513030Y-73814578D01*
X127513030Y-73473527D01*
X127230773Y-73191270D01*
X125985270Y-73191270D01*
X125985270Y-73211270D01*
X125982730Y-73211270D01*
X125982730Y-73191270D01*
X124737227Y-73191270D01*
X124454970Y-73473527D01*
X124454970Y-73814578D01*
X124607923Y-74183838D01*
X124583000Y-74183838D01*
X124466998Y-74205665D01*
X124360458Y-74274222D01*
X124333321Y-74313937D01*
X124311778Y-74280458D01*
X124207172Y-74208983D01*
X124083000Y-74183838D01*
X123683000Y-74183838D01*
X123566998Y-74205665D01*
X123460458Y-74274222D01*
X123398452Y-74364970D01*
X122779064Y-74364970D01*
X122675172Y-74293983D01*
X122551000Y-74268838D01*
X122051000Y-74268838D01*
X121934998Y-74290665D01*
X121828458Y-74359222D01*
X121766452Y-74449970D01*
X121228184Y-74449970D01*
X121216335Y-74386998D01*
X121157030Y-74294836D01*
X121157030Y-73372727D01*
X121191002Y-73366335D01*
X121297542Y-73297778D01*
X121369017Y-73193172D01*
X121391523Y-73082030D01*
X121412000Y-73082030D01*
X121579627Y-73048687D01*
X121721734Y-72953734D01*
X123257734Y-71417734D01*
X123352687Y-71275627D01*
X123386030Y-71108000D01*
X123386030Y-70677986D01*
X123420542Y-70655778D01*
X123492017Y-70551172D01*
X123517162Y-70427000D01*
X123517162Y-69527000D01*
X123495335Y-69410998D01*
X123426778Y-69304458D01*
X123322172Y-69232983D01*
X123198000Y-69207838D01*
X122698000Y-69207838D01*
X122581998Y-69229665D01*
X122475458Y-69298222D01*
X122403983Y-69402828D01*
X122378838Y-69527000D01*
X122378838Y-70427000D01*
X122400665Y-70543002D01*
X122469222Y-70649542D01*
X122509970Y-70677384D01*
X122509970Y-70926562D01*
X122044984Y-71391548D01*
X122204030Y-71007578D01*
X122204030Y-70641527D01*
X121921773Y-70359270D01*
X120651270Y-70359270D01*
X120651270Y-70379270D01*
X120648730Y-70379270D01*
X120648730Y-70359270D01*
X119378227Y-70359270D01*
X119095970Y-70641527D01*
X119095970Y-71007578D01*
X119267855Y-71422544D01*
X119585456Y-71740145D01*
X120000422Y-71912030D01*
X120160204Y-71912030D01*
X120108998Y-71921665D01*
X120002458Y-71990222D01*
X119930983Y-72094828D01*
X119905838Y-72219000D01*
X119905838Y-73069000D01*
X119927665Y-73185002D01*
X119996222Y-73291542D01*
X120100828Y-73363017D01*
X120225000Y-73388162D01*
X120280970Y-73388162D01*
X120280970Y-74296889D01*
X120269321Y-74313937D01*
X120247778Y-74280458D01*
X120143172Y-74208983D01*
X120019000Y-74183838D01*
X119619000Y-74183838D01*
X119502998Y-74205665D01*
X119396458Y-74274222D01*
X119324983Y-74378828D01*
X119299838Y-74503000D01*
X119299838Y-74644694D01*
X118752030Y-75192502D01*
X118752030Y-62872030D01*
X119896502Y-62872030D01*
X119705266Y-63063266D01*
G36*
X145162270Y-78750730D02*
X145182270Y-78750730D01*
X145182270Y-78753270D01*
X145162270Y-78753270D01*
X145162270Y-78773270D01*
X145159730Y-78773270D01*
X145159730Y-78753270D01*
X145139730Y-78753270D01*
X145139730Y-78750730D01*
X145159730Y-78750730D01*
X145159730Y-78730730D01*
X145162270Y-78730730D01*
X145162270Y-78750730D01*
X145162270Y-78750730D01*
G37*
X145162270Y-78750730D02*
X145182270Y-78750730D01*
X145182270Y-78753270D01*
X145162270Y-78753270D01*
X145162270Y-78773270D01*
X145159730Y-78773270D01*
X145159730Y-78753270D01*
X145139730Y-78753270D01*
X145139730Y-78750730D01*
X145159730Y-78750730D01*
X145159730Y-78730730D01*
X145162270Y-78730730D01*
X145162270Y-78750730D01*
G36*
X145594270Y-74928730D02*
X145614270Y-74928730D01*
X145614270Y-74931270D01*
X145594270Y-74931270D01*
X145594270Y-74951270D01*
X145591730Y-74951270D01*
X145591730Y-74931270D01*
X145571730Y-74931270D01*
X145571730Y-74928730D01*
X145591730Y-74928730D01*
X145591730Y-74908730D01*
X145594270Y-74908730D01*
X145594270Y-74928730D01*
X145594270Y-74928730D01*
G37*
X145594270Y-74928730D02*
X145614270Y-74928730D01*
X145614270Y-74931270D01*
X145594270Y-74931270D01*
X145594270Y-74951270D01*
X145591730Y-74951270D01*
X145591730Y-74931270D01*
X145571730Y-74931270D01*
X145571730Y-74928730D01*
X145591730Y-74928730D01*
X145591730Y-74908730D01*
X145594270Y-74908730D01*
X145594270Y-74928730D01*
G36*
X133432852Y-63683852D02*
X133337465Y-63826607D01*
X133337465Y-63826608D01*
X133303970Y-63995000D01*
X133303970Y-71495449D01*
X133253734Y-71420266D01*
X133151734Y-71318266D01*
X133009627Y-71223313D01*
X132842000Y-71189970D01*
X129848438Y-71189970D01*
X127965770Y-69307302D01*
X128153422Y-69385030D01*
X128494473Y-69385030D01*
X128776730Y-69102773D01*
X128776730Y-67857270D01*
X128779270Y-67857270D01*
X128779270Y-69102773D01*
X129061527Y-69385030D01*
X129402578Y-69385030D01*
X129730500Y-69249200D01*
X130058422Y-69385030D01*
X130399473Y-69385030D01*
X130681730Y-69102773D01*
X130681730Y-67857270D01*
X130684270Y-67857270D01*
X130684270Y-69102773D01*
X130966527Y-69385030D01*
X131307578Y-69385030D01*
X131722544Y-69213145D01*
X132040145Y-68895544D01*
X132212030Y-68480578D01*
X132212030Y-68139527D01*
X131929773Y-67857270D01*
X130684270Y-67857270D01*
X130681730Y-67857270D01*
X128779270Y-67857270D01*
X128776730Y-67857270D01*
X128756730Y-67857270D01*
X128756730Y-67854730D01*
X128776730Y-67854730D01*
X128776730Y-67834730D01*
X128779270Y-67834730D01*
X128779270Y-67854730D01*
X130681730Y-67854730D01*
X130681730Y-67834730D01*
X130684270Y-67834730D01*
X130684270Y-67854730D01*
X131929773Y-67854730D01*
X132212030Y-67572473D01*
X132212030Y-67231422D01*
X132040145Y-66816456D01*
X131722544Y-66498855D01*
X131402162Y-66366148D01*
X131402162Y-65856000D01*
X131380335Y-65739998D01*
X131311778Y-65633458D01*
X131207172Y-65561983D01*
X131121030Y-65544539D01*
X131121030Y-65195160D01*
X131205542Y-65140778D01*
X131277017Y-65036172D01*
X131302162Y-64912000D01*
X131302162Y-64512000D01*
X131280335Y-64395998D01*
X131211778Y-64289458D01*
X131172063Y-64262321D01*
X131191164Y-64250030D01*
X131200965Y-64250030D01*
X131224293Y-64273399D01*
X131449526Y-64366923D01*
X131693404Y-64367136D01*
X131918800Y-64274005D01*
X132019762Y-64173219D01*
X132059222Y-64234542D01*
X132098937Y-64261679D01*
X132065458Y-64283222D01*
X131993983Y-64387828D01*
X131968838Y-64512000D01*
X131968838Y-64912000D01*
X131990665Y-65028002D01*
X132059222Y-65134542D01*
X132149970Y-65196548D01*
X132149970Y-65230066D01*
X132068601Y-65311293D01*
X131975077Y-65536526D01*
X131974864Y-65780404D01*
X132067995Y-66005800D01*
X132240293Y-66178399D01*
X132465526Y-66271923D01*
X132709404Y-66272136D01*
X132934800Y-66179005D01*
X133107399Y-66006707D01*
X133200923Y-65781474D01*
X133201136Y-65537596D01*
X133108005Y-65312200D01*
X133026030Y-65230082D01*
X133026030Y-65195160D01*
X133110542Y-65140778D01*
X133182017Y-65036172D01*
X133207162Y-64912000D01*
X133207162Y-64512000D01*
X133185335Y-64395998D01*
X133116778Y-64289458D01*
X133077063Y-64262321D01*
X133110542Y-64240778D01*
X133182017Y-64136172D01*
X133207162Y-64012000D01*
X133207162Y-63612000D01*
X133185335Y-63495998D01*
X133116778Y-63389458D01*
X133026030Y-63327452D01*
X133026030Y-63246000D01*
X132992687Y-63078373D01*
X132897734Y-62936266D01*
X132833498Y-62872030D01*
X134244674Y-62872030D01*
X133432852Y-63683852D01*
X133432852Y-63683852D01*
G37*
X133432852Y-63683852D02*
X133337465Y-63826607D01*
X133337465Y-63826608D01*
X133303970Y-63995000D01*
X133303970Y-71495449D01*
X133253734Y-71420266D01*
X133151734Y-71318266D01*
X133009627Y-71223313D01*
X132842000Y-71189970D01*
X129848438Y-71189970D01*
X127965770Y-69307302D01*
X128153422Y-69385030D01*
X128494473Y-69385030D01*
X128776730Y-69102773D01*
X128776730Y-67857270D01*
X128779270Y-67857270D01*
X128779270Y-69102773D01*
X129061527Y-69385030D01*
X129402578Y-69385030D01*
X129730500Y-69249200D01*
X130058422Y-69385030D01*
X130399473Y-69385030D01*
X130681730Y-69102773D01*
X130681730Y-67857270D01*
X130684270Y-67857270D01*
X130684270Y-69102773D01*
X130966527Y-69385030D01*
X131307578Y-69385030D01*
X131722544Y-69213145D01*
X132040145Y-68895544D01*
X132212030Y-68480578D01*
X132212030Y-68139527D01*
X131929773Y-67857270D01*
X130684270Y-67857270D01*
X130681730Y-67857270D01*
X128779270Y-67857270D01*
X128776730Y-67857270D01*
X128756730Y-67857270D01*
X128756730Y-67854730D01*
X128776730Y-67854730D01*
X128776730Y-67834730D01*
X128779270Y-67834730D01*
X128779270Y-67854730D01*
X130681730Y-67854730D01*
X130681730Y-67834730D01*
X130684270Y-67834730D01*
X130684270Y-67854730D01*
X131929773Y-67854730D01*
X132212030Y-67572473D01*
X132212030Y-67231422D01*
X132040145Y-66816456D01*
X131722544Y-66498855D01*
X131402162Y-66366148D01*
X131402162Y-65856000D01*
X131380335Y-65739998D01*
X131311778Y-65633458D01*
X131207172Y-65561983D01*
X131121030Y-65544539D01*
X131121030Y-65195160D01*
X131205542Y-65140778D01*
X131277017Y-65036172D01*
X131302162Y-64912000D01*
X131302162Y-64512000D01*
X131280335Y-64395998D01*
X131211778Y-64289458D01*
X131172063Y-64262321D01*
X131191164Y-64250030D01*
X131200965Y-64250030D01*
X131224293Y-64273399D01*
X131449526Y-64366923D01*
X131693404Y-64367136D01*
X131918800Y-64274005D01*
X132019762Y-64173219D01*
X132059222Y-64234542D01*
X132098937Y-64261679D01*
X132065458Y-64283222D01*
X131993983Y-64387828D01*
X131968838Y-64512000D01*
X131968838Y-64912000D01*
X131990665Y-65028002D01*
X132059222Y-65134542D01*
X132149970Y-65196548D01*
X132149970Y-65230066D01*
X132068601Y-65311293D01*
X131975077Y-65536526D01*
X131974864Y-65780404D01*
X132067995Y-66005800D01*
X132240293Y-66178399D01*
X132465526Y-66271923D01*
X132709404Y-66272136D01*
X132934800Y-66179005D01*
X133107399Y-66006707D01*
X133200923Y-65781474D01*
X133201136Y-65537596D01*
X133108005Y-65312200D01*
X133026030Y-65230082D01*
X133026030Y-65195160D01*
X133110542Y-65140778D01*
X133182017Y-65036172D01*
X133207162Y-64912000D01*
X133207162Y-64512000D01*
X133185335Y-64395998D01*
X133116778Y-64289458D01*
X133077063Y-64262321D01*
X133110542Y-64240778D01*
X133182017Y-64136172D01*
X133207162Y-64012000D01*
X133207162Y-63612000D01*
X133185335Y-63495998D01*
X133116778Y-63389458D01*
X133026030Y-63327452D01*
X133026030Y-63246000D01*
X132992687Y-63078373D01*
X132897734Y-62936266D01*
X132833498Y-62872030D01*
X134244674Y-62872030D01*
X133432852Y-63683852D01*
G36*
X152187270Y-71118730D02*
X152207270Y-71118730D01*
X152207270Y-71121270D01*
X152187270Y-71121270D01*
X152187270Y-71141270D01*
X152184730Y-71141270D01*
X152184730Y-71121270D01*
X152164730Y-71121270D01*
X152164730Y-71118730D01*
X152184730Y-71118730D01*
X152184730Y-71098730D01*
X152187270Y-71098730D01*
X152187270Y-71118730D01*
X152187270Y-71118730D01*
G37*
X152187270Y-71118730D02*
X152207270Y-71118730D01*
X152207270Y-71121270D01*
X152187270Y-71121270D01*
X152187270Y-71141270D01*
X152184730Y-71141270D01*
X152184730Y-71121270D01*
X152164730Y-71121270D01*
X152164730Y-71118730D01*
X152184730Y-71118730D01*
X152184730Y-71098730D01*
X152187270Y-71098730D01*
X152187270Y-71118730D01*
G36*
X128220263Y-63434731D02*
X128183983Y-63487828D01*
X128158838Y-63612000D01*
X128158838Y-64012000D01*
X128180665Y-64128002D01*
X128249222Y-64234542D01*
X128288937Y-64261679D01*
X128255458Y-64283222D01*
X128183983Y-64387828D01*
X128158838Y-64512000D01*
X128158838Y-64912000D01*
X128180665Y-65028002D01*
X128249222Y-65134542D01*
X128339970Y-65196548D01*
X128339970Y-65543994D01*
X128261998Y-65558665D01*
X128155458Y-65627222D01*
X128083983Y-65731828D01*
X128058838Y-65856000D01*
X128058838Y-66366148D01*
X127738456Y-66498855D01*
X127565030Y-66672281D01*
X127565030Y-65434441D01*
X127626313Y-65368249D01*
X127846775Y-64772091D01*
X127584773Y-64517270D01*
X127565030Y-64517270D01*
X127565030Y-64514730D01*
X127584773Y-64514730D01*
X127846775Y-64259909D01*
X127626313Y-63663751D01*
X127557571Y-63589503D01*
X127531687Y-63459373D01*
X127512081Y-63430030D01*
X128215562Y-63430030D01*
X128220263Y-63434731D01*
X128220263Y-63434731D01*
G37*
X128220263Y-63434731D02*
X128183983Y-63487828D01*
X128158838Y-63612000D01*
X128158838Y-64012000D01*
X128180665Y-64128002D01*
X128249222Y-64234542D01*
X128288937Y-64261679D01*
X128255458Y-64283222D01*
X128183983Y-64387828D01*
X128158838Y-64512000D01*
X128158838Y-64912000D01*
X128180665Y-65028002D01*
X128249222Y-65134542D01*
X128339970Y-65196548D01*
X128339970Y-65543994D01*
X128261998Y-65558665D01*
X128155458Y-65627222D01*
X128083983Y-65731828D01*
X128058838Y-65856000D01*
X128058838Y-66366148D01*
X127738456Y-66498855D01*
X127565030Y-66672281D01*
X127565030Y-65434441D01*
X127626313Y-65368249D01*
X127846775Y-64772091D01*
X127584773Y-64517270D01*
X127565030Y-64517270D01*
X127565030Y-64514730D01*
X127584773Y-64514730D01*
X127846775Y-64259909D01*
X127626313Y-63663751D01*
X127557571Y-63589503D01*
X127531687Y-63459373D01*
X127512081Y-63430030D01*
X128215562Y-63430030D01*
X128220263Y-63434731D01*
G36*
X126239270Y-64514730D02*
X126688970Y-64514730D01*
X126688970Y-64517270D01*
X126239270Y-64517270D01*
X126239270Y-64537270D01*
X126236730Y-64537270D01*
X126236730Y-64517270D01*
X126216730Y-64517270D01*
X126216730Y-64514730D01*
X126236730Y-64514730D01*
X126236730Y-64494730D01*
X126239270Y-64494730D01*
X126239270Y-64514730D01*
X126239270Y-64514730D01*
G37*
X126239270Y-64514730D02*
X126688970Y-64514730D01*
X126688970Y-64517270D01*
X126239270Y-64517270D01*
X126239270Y-64537270D01*
X126236730Y-64537270D01*
X126236730Y-64517270D01*
X126216730Y-64517270D01*
X126216730Y-64514730D01*
X126236730Y-64514730D01*
X126236730Y-64494730D01*
X126239270Y-64494730D01*
X126239270Y-64514730D01*
G36*
X121159270Y-64514730D02*
X121179270Y-64514730D01*
X121179270Y-64517270D01*
X121159270Y-64517270D01*
X121159270Y-64537270D01*
X121156730Y-64537270D01*
X121156730Y-64517270D01*
X120453030Y-64517270D01*
X120453030Y-64514730D01*
X121156730Y-64514730D01*
X121156730Y-64494730D01*
X121159270Y-64494730D01*
X121159270Y-64514730D01*
X121159270Y-64514730D01*
G37*
X121159270Y-64514730D02*
X121179270Y-64514730D01*
X121179270Y-64517270D01*
X121159270Y-64517270D01*
X121159270Y-64537270D01*
X121156730Y-64537270D01*
X121156730Y-64517270D01*
X120453030Y-64517270D01*
X120453030Y-64514730D01*
X121156730Y-64514730D01*
X121156730Y-64494730D01*
X121159270Y-64494730D01*
X121159270Y-64514730D01*
M02*
