G04 #@! TF.FileFunction,Legend,Bot*
%FSLAX46Y46*%
G04 Gerber Fmt 4.6, Leading zero omitted, Abs format (unit mm)*
G04 Created by KiCad (PCBNEW 4.0.6) date 11/09/17 14:44:06*
%MOMM*%
%LPD*%
G01*
G04 APERTURE LIST*
%ADD10C,0.100000*%
%ADD11C,0.010000*%
G04 APERTURE END LIST*
D10*
D11*
G36*
X118113432Y-102997000D02*
X162048567Y-102997000D01*
X162048567Y-87757000D01*
X152844956Y-87757000D01*
X152628335Y-90237162D01*
X151944039Y-92359398D01*
X150719945Y-94284769D01*
X149206983Y-95881487D01*
X147542946Y-97210890D01*
X145797854Y-98239284D01*
X144120904Y-98895202D01*
X142661292Y-99107177D01*
X142491868Y-99098120D01*
X142094170Y-99021876D01*
X141802100Y-98792636D01*
X141560490Y-98293997D01*
X141314169Y-97409559D01*
X141007967Y-96022918D01*
X140986769Y-95922550D01*
X140701304Y-94630288D01*
X140454257Y-93623561D01*
X140278151Y-93028817D01*
X140215568Y-92924191D01*
X140087458Y-93274854D01*
X139876176Y-94073613D01*
X139621591Y-95143844D01*
X139363573Y-96308928D01*
X139141991Y-97392240D01*
X138996714Y-98217161D01*
X138967006Y-98455344D01*
X138810946Y-98945284D01*
X138387241Y-99149249D01*
X137592589Y-99068671D01*
X136323683Y-98704983D01*
X135717525Y-98500409D01*
X134215240Y-97834143D01*
X132759028Y-96846673D01*
X131641503Y-95881034D01*
X129887471Y-93982400D01*
X128739675Y-92031239D01*
X128127228Y-89870501D01*
X127974618Y-87757000D01*
X128188606Y-85295458D01*
X128877827Y-83176682D01*
X130113168Y-81243620D01*
X131641503Y-79632965D01*
X133694080Y-78010485D01*
X135803443Y-76948774D01*
X138139376Y-76382260D01*
X140424243Y-76241096D01*
X143085369Y-76439035D01*
X145375938Y-77076564D01*
X147465734Y-78219255D01*
X149206983Y-79632965D01*
X150951845Y-81522778D01*
X152091275Y-83466535D01*
X152696753Y-85623861D01*
X152844956Y-87757000D01*
X162048567Y-87757000D01*
X162048567Y-67509625D01*
X150251212Y-67509625D01*
X149771614Y-68230118D01*
X148858884Y-68601180D01*
X148033759Y-68592723D01*
X147092952Y-68574732D01*
X146368238Y-68955226D01*
X146067109Y-69233862D01*
X145260696Y-70229575D01*
X145030643Y-71120745D01*
X145336409Y-72081399D01*
X145383585Y-72167864D01*
X145737186Y-73132173D01*
X145912106Y-74259783D01*
X145916135Y-74427628D01*
X145883175Y-75244886D01*
X145715527Y-75571797D01*
X145310040Y-75552344D01*
X145143838Y-75505627D01*
X144264700Y-75271909D01*
X143205911Y-75023340D01*
X143170189Y-75015556D01*
X141397984Y-74794702D01*
X139312089Y-74780201D01*
X137244939Y-74963872D01*
X136047892Y-75190780D01*
X134245865Y-75634524D01*
X134245865Y-74377495D01*
X134371265Y-73309117D01*
X134678073Y-72353870D01*
X134727084Y-72259683D01*
X134983600Y-71683227D01*
X134957668Y-71166349D01*
X134607894Y-70467455D01*
X134348987Y-70052950D01*
X133739575Y-69261366D01*
X133157122Y-68763384D01*
X132923849Y-68679648D01*
X132196760Y-68646066D01*
X131213278Y-68602313D01*
X131166620Y-68600273D01*
X130282612Y-68457389D01*
X129801877Y-68021026D01*
X129635206Y-67658370D01*
X129505958Y-66644585D01*
X129962284Y-65932035D01*
X130960374Y-65587919D01*
X131736826Y-65664875D01*
X132545717Y-66141651D01*
X133087547Y-66619794D01*
X133824110Y-67274954D01*
X134378627Y-67684857D01*
X134542426Y-67754500D01*
X134854442Y-68006352D01*
X135334297Y-68641717D01*
X135556539Y-68989846D01*
X136307138Y-70225192D01*
X137580158Y-69624846D01*
X139211728Y-69116397D01*
X140918618Y-69146993D01*
X142243712Y-69482818D01*
X143548316Y-69913265D01*
X144376107Y-68700308D01*
X145022493Y-67914391D01*
X145659816Y-67385320D01*
X145851170Y-67297322D01*
X146472717Y-66879383D01*
X146895802Y-66300592D01*
X147275035Y-65762840D01*
X147852834Y-65573847D01*
X148572045Y-65592320D01*
X149496379Y-65758640D01*
X149994365Y-66170444D01*
X150177218Y-66554260D01*
X150251212Y-67509625D01*
X162048567Y-67509625D01*
X162048567Y-62357000D01*
X118113432Y-62357000D01*
X118113432Y-102997000D01*
X118113432Y-102997000D01*
G37*
X118113432Y-102997000D02*
X162048567Y-102997000D01*
X162048567Y-87757000D01*
X152844956Y-87757000D01*
X152628335Y-90237162D01*
X151944039Y-92359398D01*
X150719945Y-94284769D01*
X149206983Y-95881487D01*
X147542946Y-97210890D01*
X145797854Y-98239284D01*
X144120904Y-98895202D01*
X142661292Y-99107177D01*
X142491868Y-99098120D01*
X142094170Y-99021876D01*
X141802100Y-98792636D01*
X141560490Y-98293997D01*
X141314169Y-97409559D01*
X141007967Y-96022918D01*
X140986769Y-95922550D01*
X140701304Y-94630288D01*
X140454257Y-93623561D01*
X140278151Y-93028817D01*
X140215568Y-92924191D01*
X140087458Y-93274854D01*
X139876176Y-94073613D01*
X139621591Y-95143844D01*
X139363573Y-96308928D01*
X139141991Y-97392240D01*
X138996714Y-98217161D01*
X138967006Y-98455344D01*
X138810946Y-98945284D01*
X138387241Y-99149249D01*
X137592589Y-99068671D01*
X136323683Y-98704983D01*
X135717525Y-98500409D01*
X134215240Y-97834143D01*
X132759028Y-96846673D01*
X131641503Y-95881034D01*
X129887471Y-93982400D01*
X128739675Y-92031239D01*
X128127228Y-89870501D01*
X127974618Y-87757000D01*
X128188606Y-85295458D01*
X128877827Y-83176682D01*
X130113168Y-81243620D01*
X131641503Y-79632965D01*
X133694080Y-78010485D01*
X135803443Y-76948774D01*
X138139376Y-76382260D01*
X140424243Y-76241096D01*
X143085369Y-76439035D01*
X145375938Y-77076564D01*
X147465734Y-78219255D01*
X149206983Y-79632965D01*
X150951845Y-81522778D01*
X152091275Y-83466535D01*
X152696753Y-85623861D01*
X152844956Y-87757000D01*
X162048567Y-87757000D01*
X162048567Y-67509625D01*
X150251212Y-67509625D01*
X149771614Y-68230118D01*
X148858884Y-68601180D01*
X148033759Y-68592723D01*
X147092952Y-68574732D01*
X146368238Y-68955226D01*
X146067109Y-69233862D01*
X145260696Y-70229575D01*
X145030643Y-71120745D01*
X145336409Y-72081399D01*
X145383585Y-72167864D01*
X145737186Y-73132173D01*
X145912106Y-74259783D01*
X145916135Y-74427628D01*
X145883175Y-75244886D01*
X145715527Y-75571797D01*
X145310040Y-75552344D01*
X145143838Y-75505627D01*
X144264700Y-75271909D01*
X143205911Y-75023340D01*
X143170189Y-75015556D01*
X141397984Y-74794702D01*
X139312089Y-74780201D01*
X137244939Y-74963872D01*
X136047892Y-75190780D01*
X134245865Y-75634524D01*
X134245865Y-74377495D01*
X134371265Y-73309117D01*
X134678073Y-72353870D01*
X134727084Y-72259683D01*
X134983600Y-71683227D01*
X134957668Y-71166349D01*
X134607894Y-70467455D01*
X134348987Y-70052950D01*
X133739575Y-69261366D01*
X133157122Y-68763384D01*
X132923849Y-68679648D01*
X132196760Y-68646066D01*
X131213278Y-68602313D01*
X131166620Y-68600273D01*
X130282612Y-68457389D01*
X129801877Y-68021026D01*
X129635206Y-67658370D01*
X129505958Y-66644585D01*
X129962284Y-65932035D01*
X130960374Y-65587919D01*
X131736826Y-65664875D01*
X132545717Y-66141651D01*
X133087547Y-66619794D01*
X133824110Y-67274954D01*
X134378627Y-67684857D01*
X134542426Y-67754500D01*
X134854442Y-68006352D01*
X135334297Y-68641717D01*
X135556539Y-68989846D01*
X136307138Y-70225192D01*
X137580158Y-69624846D01*
X139211728Y-69116397D01*
X140918618Y-69146993D01*
X142243712Y-69482818D01*
X143548316Y-69913265D01*
X144376107Y-68700308D01*
X145022493Y-67914391D01*
X145659816Y-67385320D01*
X145851170Y-67297322D01*
X146472717Y-66879383D01*
X146895802Y-66300592D01*
X147275035Y-65762840D01*
X147852834Y-65573847D01*
X148572045Y-65592320D01*
X149496379Y-65758640D01*
X149994365Y-66170444D01*
X150177218Y-66554260D01*
X150251212Y-67509625D01*
X162048567Y-67509625D01*
X162048567Y-62357000D01*
X118113432Y-62357000D01*
X118113432Y-102997000D01*
G36*
X133593134Y-87001493D02*
X132839868Y-87179688D01*
X132230481Y-87593033D01*
X131815006Y-88000134D01*
X131064377Y-89182457D01*
X130800437Y-90537170D01*
X131006231Y-91880480D01*
X131664807Y-93028598D01*
X132330153Y-93584659D01*
X133341103Y-94012402D01*
X134506465Y-94257390D01*
X135485932Y-94253791D01*
X135618838Y-94220856D01*
X137197355Y-93510325D01*
X138189944Y-92506920D01*
X138655012Y-91136844D01*
X138708027Y-90317776D01*
X138532982Y-89194522D01*
X137910206Y-88220052D01*
X137706453Y-88000134D01*
X137052264Y-87397115D01*
X136418762Y-87087173D01*
X135535497Y-86975110D01*
X134760730Y-86963250D01*
X133593134Y-87001493D01*
X133593134Y-87001493D01*
G37*
X133593134Y-87001493D02*
X132839868Y-87179688D01*
X132230481Y-87593033D01*
X131815006Y-88000134D01*
X131064377Y-89182457D01*
X130800437Y-90537170D01*
X131006231Y-91880480D01*
X131664807Y-93028598D01*
X132330153Y-93584659D01*
X133341103Y-94012402D01*
X134506465Y-94257390D01*
X135485932Y-94253791D01*
X135618838Y-94220856D01*
X137197355Y-93510325D01*
X138189944Y-92506920D01*
X138655012Y-91136844D01*
X138708027Y-90317776D01*
X138532982Y-89194522D01*
X137910206Y-88220052D01*
X137706453Y-88000134D01*
X137052264Y-87397115D01*
X136418762Y-87087173D01*
X135535497Y-86975110D01*
X134760730Y-86963250D01*
X133593134Y-87001493D01*
G36*
X145214924Y-84477153D02*
X143821609Y-85138598D01*
X143019404Y-85920832D01*
X142592149Y-86946393D01*
X142520129Y-88245528D01*
X142803215Y-89548516D01*
X143021365Y-90020278D01*
X143800536Y-90858748D01*
X144962342Y-91525723D01*
X146203018Y-91859767D01*
X146505786Y-91872072D01*
X147245316Y-91739425D01*
X148163554Y-91438169D01*
X149411417Y-90614315D01*
X150161247Y-89378758D01*
X150378297Y-87997566D01*
X150121671Y-86507700D01*
X149324638Y-85388931D01*
X148315047Y-84738936D01*
X146775610Y-84329900D01*
X145214924Y-84477153D01*
X145214924Y-84477153D01*
G37*
X145214924Y-84477153D02*
X143821609Y-85138598D01*
X143019404Y-85920832D01*
X142592149Y-86946393D01*
X142520129Y-88245528D01*
X142803215Y-89548516D01*
X143021365Y-90020278D01*
X143800536Y-90858748D01*
X144962342Y-91525723D01*
X146203018Y-91859767D01*
X146505786Y-91872072D01*
X147245316Y-91739425D01*
X148163554Y-91438169D01*
X149411417Y-90614315D01*
X150161247Y-89378758D01*
X150378297Y-87997566D01*
X150121671Y-86507700D01*
X149324638Y-85388931D01*
X148315047Y-84738936D01*
X146775610Y-84329900D01*
X145214924Y-84477153D01*
G36*
X138620261Y-79719716D02*
X137847684Y-80468432D01*
X137493765Y-81459276D01*
X137646367Y-82440565D01*
X138337554Y-83349940D01*
X139367933Y-83856095D01*
X140524264Y-83914261D01*
X141593307Y-83479671D01*
X141797216Y-83312000D01*
X142391769Y-82367775D01*
X142442878Y-81299055D01*
X141998938Y-80303086D01*
X141108349Y-79577116D01*
X140855125Y-79472464D01*
X139669930Y-79344077D01*
X138620261Y-79719716D01*
X138620261Y-79719716D01*
G37*
X138620261Y-79719716D02*
X137847684Y-80468432D01*
X137493765Y-81459276D01*
X137646367Y-82440565D01*
X138337554Y-83349940D01*
X139367933Y-83856095D01*
X140524264Y-83914261D01*
X141593307Y-83479671D01*
X141797216Y-83312000D01*
X142391769Y-82367775D01*
X142442878Y-81299055D01*
X141998938Y-80303086D01*
X141108349Y-79577116D01*
X140855125Y-79472464D01*
X139669930Y-79344077D01*
X138620261Y-79719716D01*
M02*
