G04 #@! TF.FileFunction,Soldermask,Top*
%FSLAX46Y46*%
G04 Gerber Fmt 4.6, Leading zero omitted, Abs format (unit mm)*
G04 Created by KiCad (PCBNEW 4.0.6) date 11/09/17 14:44:06*
%MOMM*%
%LPD*%
G01*
G04 APERTURE LIST*
%ADD10C,0.100000*%
%ADD11R,2.100000X2.100000*%
%ADD12O,2.100000X2.100000*%
%ADD13R,2.200000X0.900000*%
%ADD14R,0.900000X2.200000*%
%ADD15R,1.000000X0.900000*%
%ADD16R,0.900000X1.000000*%
%ADD17R,1.150000X1.200000*%
%ADD18R,1.200000X1.200000*%
%ADD19R,1.300000X0.900000*%
%ADD20R,1.000000X0.800000*%
%ADD21R,0.800000X1.000000*%
%ADD22R,1.400000X1.300000*%
%ADD23R,1.600000X1.900000*%
%ADD24R,1.550000X1.800000*%
%ADD25R,1.050000X1.460000*%
%ADD26R,1.797000X0.748000*%
%ADD27R,1.250000X1.250000*%
%ADD28R,0.900000X1.300000*%
%ADD29R,1.300000X1.400000*%
%ADD30R,2.300000X2.200000*%
%ADD31R,2.300000X2.300000*%
%ADD32R,1.750000X0.800000*%
%ADD33R,2.000000X2.500000*%
%ADD34R,1.400000X1.400000*%
%ADD35O,1.400000X1.400000*%
G04 APERTURE END LIST*
D10*
D11*
X145669000Y-98552000D03*
D12*
X145669000Y-101092000D03*
X143129000Y-98552000D03*
X143129000Y-101092000D03*
X140589000Y-98552000D03*
X140589000Y-101092000D03*
D13*
X142144000Y-83121000D03*
X142144000Y-82321000D03*
X142144000Y-81521000D03*
X142144000Y-80721000D03*
X142144000Y-79921000D03*
X142144000Y-79121000D03*
X142144000Y-78321000D03*
X142144000Y-77521000D03*
X142144000Y-76721000D03*
X142144000Y-75921000D03*
X142144000Y-75121000D03*
D14*
X140144000Y-73121000D03*
X139344000Y-73121000D03*
X138544000Y-73121000D03*
X137744000Y-73121000D03*
X136944000Y-73121000D03*
X136144000Y-73121000D03*
X135344000Y-73121000D03*
X134544000Y-73121000D03*
X133744000Y-73121000D03*
X132944000Y-73121000D03*
X132144000Y-73121000D03*
D13*
X130144000Y-75121000D03*
X130144000Y-75921000D03*
X130144000Y-76721000D03*
X130144000Y-77521000D03*
X130144000Y-78321000D03*
X130144000Y-79121000D03*
X130144000Y-79921000D03*
X130144000Y-80721000D03*
X130144000Y-81521000D03*
X130144000Y-82321000D03*
X130144000Y-83121000D03*
D14*
X132144000Y-85121000D03*
X132944000Y-85121000D03*
X133744000Y-85121000D03*
X134544000Y-85121000D03*
X135344000Y-85121000D03*
X136144000Y-85121000D03*
X136944000Y-85121000D03*
X137744000Y-85121000D03*
X138544000Y-85121000D03*
X139344000Y-85121000D03*
X140144000Y-85121000D03*
D15*
X146981000Y-76581000D03*
X145881000Y-76581000D03*
X146854000Y-71120000D03*
X145754000Y-71120000D03*
D16*
X147828000Y-81873000D03*
X147828000Y-82973000D03*
D15*
X154390000Y-82804000D03*
X155490000Y-82804000D03*
D16*
X147828000Y-80179000D03*
X147828000Y-79079000D03*
D17*
X145161000Y-78752000D03*
X145161000Y-80252000D03*
D16*
X126746000Y-78190000D03*
X126746000Y-79290000D03*
D18*
X158496000Y-101130000D03*
X158496000Y-99530000D03*
X160147000Y-101130000D03*
X160147000Y-99530000D03*
D11*
X159893000Y-67056000D03*
D12*
X159893000Y-69596000D03*
D11*
X120396000Y-100965000D03*
D12*
X120396000Y-98425000D03*
X120396000Y-95885000D03*
X120396000Y-93345000D03*
X120396000Y-90805000D03*
X120396000Y-88265000D03*
X120396000Y-85725000D03*
X120396000Y-83185000D03*
D19*
X126746000Y-76442000D03*
X126746000Y-74942000D03*
D20*
X146558000Y-80830000D03*
X146558000Y-81730000D03*
X145161000Y-81846000D03*
X145161000Y-82746000D03*
D21*
X153612000Y-100838000D03*
X152712000Y-100838000D03*
X156025000Y-101600000D03*
X155125000Y-101600000D03*
D20*
X132588000Y-63812000D03*
X132588000Y-64712000D03*
D21*
X143325000Y-87122000D03*
X142425000Y-87122000D03*
D22*
X145143000Y-85179000D03*
X145143000Y-86779000D03*
X149243000Y-85179000D03*
X149243000Y-86779000D03*
D23*
X154686000Y-77620000D03*
X152186000Y-77620000D03*
X149686000Y-77620000D03*
X149686000Y-71120000D03*
X152186000Y-71120000D03*
X154686000Y-71120000D03*
D24*
X147193000Y-72730000D03*
X145593000Y-72730000D03*
X145593000Y-74930000D03*
X147193000Y-74930000D03*
D15*
X156506000Y-88392000D03*
X155406000Y-88392000D03*
D25*
X156398000Y-84498000D03*
X155448000Y-84498000D03*
X154498000Y-84498000D03*
X154498000Y-86698000D03*
X156398000Y-86698000D03*
D11*
X136144000Y-67056000D03*
D12*
X136144000Y-64516000D03*
X138684000Y-67056000D03*
X138684000Y-64516000D03*
X141224000Y-67056000D03*
X141224000Y-64516000D03*
X143764000Y-67056000D03*
X143764000Y-64516000D03*
X146304000Y-67056000D03*
X146304000Y-64516000D03*
X148844000Y-67056000D03*
X148844000Y-64516000D03*
D11*
X159715200Y-86908640D03*
D12*
X159715200Y-89448640D03*
X159715200Y-91988640D03*
X159715200Y-94528640D03*
D11*
X135763000Y-98552000D03*
D12*
X135763000Y-101092000D03*
X133223000Y-98552000D03*
X133223000Y-101092000D03*
X130683000Y-98552000D03*
X130683000Y-101092000D03*
X128143000Y-98552000D03*
X128143000Y-101092000D03*
D17*
X145923000Y-94095000D03*
X145923000Y-92595000D03*
D16*
X147193000Y-92668000D03*
X147193000Y-93768000D03*
D17*
X151257000Y-88761000D03*
X151257000Y-87261000D03*
D26*
X156310000Y-90644000D03*
X156310000Y-91294000D03*
X156310000Y-91944000D03*
X156310000Y-92594000D03*
X156310000Y-93244000D03*
X156310000Y-93894000D03*
X156310000Y-94544000D03*
X156310000Y-95844000D03*
X156310000Y-95194000D03*
X156310000Y-96494000D03*
X156310000Y-97144000D03*
X156310000Y-97794000D03*
X156310000Y-98444000D03*
X156310000Y-99094000D03*
X148998000Y-90644000D03*
X148998000Y-91294000D03*
X148998000Y-91944000D03*
X148998000Y-92594000D03*
X148998000Y-93244000D03*
X148998000Y-93894000D03*
X148998000Y-94544000D03*
X148998000Y-95194000D03*
X148998000Y-95844000D03*
X148998000Y-96494000D03*
X148998000Y-97144000D03*
X148998000Y-97794000D03*
X148998000Y-98444000D03*
X148998000Y-99094000D03*
D18*
X125984000Y-71590000D03*
X125984000Y-73190000D03*
D27*
X120650000Y-72644000D03*
D28*
X122948000Y-69977000D03*
X124448000Y-69977000D03*
D16*
X122301000Y-74888000D03*
X122301000Y-75988000D03*
D21*
X124783000Y-74803000D03*
X123883000Y-74803000D03*
X120719000Y-74803000D03*
X119819000Y-74803000D03*
D29*
X124097000Y-79413000D03*
X124097000Y-77813000D03*
X119997000Y-79413000D03*
X119997000Y-77813000D03*
D27*
X120650000Y-70358000D03*
D30*
X160444000Y-74126000D03*
D31*
X160444000Y-76726000D03*
X160444000Y-79126000D03*
D30*
X160444000Y-81726000D03*
D32*
X157767020Y-76626000D03*
X157767020Y-77926000D03*
X157767020Y-77276000D03*
X157767020Y-78576000D03*
X157767020Y-79226000D03*
D33*
X157894000Y-74826000D03*
X157894000Y-81026000D03*
D34*
X121158000Y-65786000D03*
D35*
X121158000Y-64516000D03*
X122428000Y-65786000D03*
X122428000Y-64516000D03*
X123698000Y-65786000D03*
X123698000Y-64516000D03*
X124968000Y-65786000D03*
X124968000Y-64516000D03*
X126238000Y-65786000D03*
X126238000Y-64516000D03*
D18*
X130683000Y-66256000D03*
X130683000Y-67856000D03*
D20*
X128778000Y-63812000D03*
X128778000Y-64712000D03*
X130683000Y-63812000D03*
X130683000Y-64712000D03*
D18*
X128778000Y-66256000D03*
X128778000Y-67856000D03*
M02*
